<?xml version="1.0" encoding="UTF-8"?>
<svg xmlns="http://www.w3.org/2000/svg" version="1.2" viewBox="0 0 46 42" width="46" height="42">
  <title>New Project</title>
  <style>
		.s0 { fill: #004580 } 
	</style>
  <g id="Group 48">
    <path id="Path 44" fill-rule="evenodd" class="s0" d="m45.3 14.1c-0.1 0.3-0.4 0.5-0.7 0.5q-0.2 0-0.3-0.1l-1.8-1.1v27.4q0 0.3-0.2 0.5-0.2 0.2-0.5 0.2h-38.3q-0.3 0-0.5-0.2-0.2-0.2-0.2-0.5v-27.4l-1.7 1.1c-0.4 0.2-0.8 0.1-1-0.2-0.2-0.4-0.1-0.8 0.2-1l22-14.2c0.2-0.1 0.5-0.1 0.7 0l22 14.2c0.3 0.2 0.4 0.5 0.3 0.8zm-4.2-1.7l-18.4-11.8-18.5 11.8v27.7h36.9z"></path>
    <path id="Path 45" fill-rule="evenodd" class="s0" d="m33.6 13.9q0.3 0 0.5 0.2 0.2 0.2 0.3 0.5v22q-0.1 0.3-0.3 0.5-0.2 0.2-0.5 0.2h-21.9q-0.3 0-0.5-0.2-0.2-0.2-0.2-0.5v-22c0-0.4 0.3-0.7 0.7-0.7zm-0.7 1.4h-6.4v11c0 0.3-0.2 0.5-0.4 0.6q-0.2 0.1-0.3 0.1-0.3 0-0.5-0.1l-2.7-2.2-2.8 2.2c-0.2 0.1-0.5 0.2-0.7 0-0.3-0.1-0.4-0.3-0.4-0.6v-11h-6.4v20.6h20.6zm-12.8 9.5l2-1.6c0.3-0.2 0.7-0.2 0.9 0l2.1 1.6v-9.5h-5z"></path>
    <path id="Path 46" fill-rule="evenodd" class="s0" d="m30.8 29.5q0.3 0 0.5 0.2 0.2 0.2 0.2 0.5v3.5q0 0.3-0.2 0.5-0.2 0.2-0.5 0.2h-5.8q-0.3 0-0.5-0.2-0.2-0.2-0.2-0.5v-3.5c0-0.4 0.3-0.7 0.7-0.7zm-0.7 1.4h-4.4v2.1h4.4z"></path>
  </g>
</svg>
