<?xml version="1.0" encoding="UTF-8"?>
<svg xmlns="http://www.w3.org/2000/svg" width="52" height="56" viewBox="0 0 52 56" fill="none">
  <mask id="path-1-outside-1_16_776" maskUnits="userSpaceOnUse" x="0" y="0" width="52" height="56" fill="black">
    <rect fill="white" width="52" height="56"></rect>
    <path d="M27.871 43.6109C28.866 43.6109 29.6755 42.7815 29.6755 41.7619C29.6755 40.3424 30.5744 39.4551 31.4154 39.0981C32.2566 38.7414 33.5046 38.7172 34.4844 39.7211C34.8252 40.0703 35.2784 40.2626 35.7605 40.2626C36.2426 40.2626 36.6958 40.0703 37.0367 39.7211L39.3139 37.3879C39.6547 37.0386 39.8424 36.5743 39.8424 36.0803C39.8424 35.5864 39.6547 35.122 39.3139 34.7729C38.3341 33.7691 38.3574 32.4905 38.7058 31.6286C39.0543 30.7667 39.9203 29.8458 41.3056 29.8458C42.3007 29.8458 43.1103 29.0164 43.1103 27.9968V24.6972C43.1103 23.6777 42.3007 22.8483 41.3056 22.8483C39.9203 22.8483 39.0542 21.9273 38.7058 21.0656C38.3574 20.2037 38.3342 18.9251 39.3138 17.9212C39.6546 17.5721 39.8424 17.1077 39.8424 16.6137C39.8424 16.1198 39.6547 15.6555 39.3139 15.3061L37.0367 12.9729C36.6958 12.6237 36.2426 12.4314 35.7605 12.4314C35.2784 12.4314 34.8252 12.6237 34.4845 12.9729C33.5045 13.9768 32.2568 13.9527 31.4154 13.5959C30.5744 13.2389 29.6755 12.3516 29.6755 10.9321C29.6755 9.91258 28.866 9.08317 27.871 9.08317H24.6505C23.6555 9.08317 22.846 9.91258 22.846 10.9321C22.846 12.3516 21.9471 13.239 21.1061 13.5959C20.265 13.9527 19.0169 13.9768 18.0371 12.9729C17.6963 12.6237 17.2431 12.4314 16.7609 12.4314C16.2789 12.4314 15.8256 12.6237 15.4848 12.9729L13.2076 15.3062C12.8668 15.6555 12.6791 16.1198 12.6791 16.6137C12.6791 17.1077 12.8669 17.5721 13.2076 17.9211C14.1874 18.9251 14.1641 20.2037 13.8157 21.0656C13.4672 21.9273 12.6012 22.8483 11.2159 22.8483C10.2208 22.8483 9.41121 23.6777 9.41121 24.6972V27.9968C9.41121 29.0164 10.2208 29.8458 11.2159 29.8458C12.6012 29.8458 13.4673 30.7667 13.8157 31.6286C14.164 32.4905 14.1873 33.7691 13.2076 34.7729C12.8668 35.122 12.6791 35.5864 12.6791 36.0803C12.6791 36.5743 12.8668 37.0386 13.2076 37.3879L15.4848 39.7211C15.8256 40.0703 16.2789 40.2626 16.7609 40.2626C17.2431 40.2626 17.6963 40.0703 18.0371 39.721C19.0183 38.7158 20.2666 38.7388 21.1069 39.0955C21.9477 39.4522 22.846 40.3401 22.846 41.7619C22.846 42.7815 23.6555 43.6109 24.6505 43.6109H27.871ZM24.3397 41.7619C24.3397 39.9416 23.32 38.3781 21.6786 37.6815C21.1287 37.448 20.5607 37.334 20.0015 37.334C18.892 37.334 17.8163 37.783 16.9808 38.6389C16.8597 38.7633 16.6623 38.7631 16.5412 38.6389L14.264 36.3056C14.1427 36.1814 14.1427 35.9794 14.264 35.8552C15.519 34.5693 15.8759 32.7254 15.1957 31.0428C14.5156 29.3605 12.9906 28.3154 11.2159 28.3154C11.0445 28.3154 10.905 28.1725 10.905 27.9969V24.6973C10.905 24.5217 11.0445 24.3789 11.2159 24.3789C12.9906 24.3789 14.5156 23.3338 15.1957 21.6514C15.8759 19.969 15.5189 18.125 14.2639 16.839C14.1847 16.7579 14.1729 16.6632 14.1729 16.6138C14.1729 16.5644 14.1847 16.4697 14.264 16.3885L16.5412 14.0553C16.6623 13.931 16.8596 13.931 16.9809 14.0553C18.236 15.3411 20.0357 15.7069 21.6777 15.0099C23.3198 14.3131 24.3397 12.7505 24.3397 10.9321C24.3397 10.7565 24.4792 10.6137 24.6505 10.6137H27.871C28.0423 10.6137 28.1818 10.7565 28.1818 10.9321C28.1818 12.7505 29.2018 14.3131 30.8438 15.0099C32.4858 15.7068 34.2854 15.341 35.5407 14.0553C35.6619 13.931 35.8593 13.931 35.9803 14.0553L38.2575 16.3884C38.3367 16.4696 38.3486 16.5644 38.3486 16.6138C38.3486 16.6632 38.3369 16.7578 38.2575 16.8391C37.0025 18.125 36.6456 19.969 37.3258 21.6514C38.0059 23.3339 39.5309 24.3789 41.3056 24.3789C41.477 24.3789 41.6165 24.5217 41.6165 24.6973V27.9969C41.6165 28.1725 41.477 28.3154 41.3056 28.3154C39.5309 28.3154 38.0059 29.3606 37.3257 31.0428C36.6456 32.7254 37.0026 34.5693 38.2575 35.8552C38.3788 35.9794 38.3788 36.1814 38.2575 36.3056L35.9803 38.6389C35.8591 38.7633 35.6618 38.7631 35.5406 38.6389C34.2855 37.353 32.4859 36.9871 30.8438 37.6843C29.2017 38.3811 28.1818 39.9436 28.1818 41.762C28.1818 41.9376 28.0423 42.0805 27.871 42.0805H24.6505C24.4792 42.0804 24.3397 41.9375 24.3397 41.7619ZM34.7448 26.3471C34.7448 21.5539 30.9388 17.6544 26.2607 17.6544C21.5827 17.6544 17.7768 21.5539 17.7768 26.3471C17.7768 31.1402 21.5827 35.0397 26.2607 35.0397C30.9388 35.0397 34.7448 31.1402 34.7448 26.3471ZM19.2707 26.3471C19.2707 22.3979 22.4065 19.1849 26.2608 19.1849C30.1152 19.1849 33.2512 22.3979 33.2512 26.3471C33.2512 30.2963 30.1152 33.5092 26.2608 33.5092C22.4064 33.5092 19.2707 30.2963 19.2707 26.3471ZM26.2851 32.0571C25.881 32.0571 25.5486 31.7266 25.5388 31.3103L25.5284 30.8706C24.8685 30.7094 24.4286 30.334 24.0079 29.9272C23.7079 29.6372 23.6942 29.1528 23.9772 28.8454C24.2602 28.5379 24.7329 28.5242 25.033 28.8139C25.506 29.2712 25.7497 29.4232 26.2608 29.4232C26.9961 29.4232 27.5941 28.9127 27.5941 28.2853C27.5941 27.6579 26.9961 27.1474 26.2608 27.1474C24.7021 27.1474 23.4339 25.9503 23.4339 24.479C23.4339 23.2559 24.31 22.2225 25.5009 21.9084L25.4896 21.4208C25.4798 20.9982 25.8062 20.6475 26.2184 20.6375C26.2245 20.6374 26.2306 20.6373 26.2366 20.6373C26.6409 20.6373 26.9732 20.968 26.9829 21.3842L26.9955 21.9268C27.6479 22.1097 28.387 22.4993 28.7305 23.0351C28.957 23.3883 28.8611 23.8628 28.5164 24.0949C28.1716 24.3272 27.7086 24.2285 27.4821 23.8754C27.3519 23.6724 26.6485 23.341 26.2609 23.341C25.5258 23.341 24.9277 23.8515 24.9277 24.4789C24.9277 25.1063 25.5258 25.6168 26.2609 25.6168C27.8198 25.6168 29.088 26.8139 29.088 28.2852C29.088 29.5076 28.2126 30.5407 27.0224 30.8553L27.0323 31.2733C27.0424 31.6958 26.7161 32.0465 26.3037 32.0568C26.2973 32.057 26.2911 32.0571 26.2851 32.0571ZM51 26.3471C51 29.8804 50.306 33.2969 48.9373 36.5016C47.6185 39.5898 45.7365 42.3417 43.344 44.6805C40.9474 47.0232 38.1704 48.8231 35.09 50.0302C32.3384 51.1084 29.4572 51.6664 26.5071 51.6941L28.6447 53.6661C28.9513 53.9489 28.976 54.4327 28.7001 54.7468C28.5527 54.9146 28.3492 55 28.1449 55C27.9668 55 27.7881 54.9352 27.6453 54.8034L23.9907 51.4321C23.8435 51.2963 23.7549 51.1062 23.7446 50.9034C23.7341 50.7007 23.8028 50.5022 23.9353 50.3514L27.2258 46.607C27.5017 46.2929 27.9741 46.2677 28.2806 46.5503C28.5871 46.8331 28.6119 47.3169 28.336 47.631L26.11 50.164C32.1775 50.2132 37.8987 47.8885 42.3128 43.5732C46.9517 39.0385 49.5063 32.9208 49.5063 26.3471C49.5063 24.0235 49.1806 21.7275 48.5384 19.5228C48.4204 19.1179 48.6451 18.6916 49.0403 18.5708C49.4356 18.4492 49.8516 18.6801 49.9696 19.0851C50.6533 21.4318 51 23.8751 51 26.3471ZM8.29825 10.0227C7.99844 9.73242 7.98499 9.24802 8.26838 8.94083C9.91002 7.16076 11.8019 5.63159 13.8912 4.3955C16.8732 2.6315 20.1059 1.54158 23.4996 1.15567C26.769 0.783656 30.0365 1.07926 33.2115 2.0333C36.392 2.98898 39.3034 4.55259 41.865 6.68063C44.1533 8.58171 46.0649 10.8561 47.5618 13.4556L48.1598 10.5724C48.2456 10.159 48.6432 9.8952 49.0456 9.98298C49.4491 10.0709 49.7066 10.4772 49.6209 10.8906L48.5987 15.819C48.5575 16.0175 48.4411 16.1911 48.275 16.3016C48.1529 16.3828 48.0114 16.4251 47.8682 16.4251C47.8165 16.4251 47.7643 16.4196 47.713 16.4084L42.9029 15.3609C42.4993 15.273 42.2419 14.8667 42.3276 14.4533C42.4132 14.04 42.8103 13.7759 43.2134 13.8639L46.4672 14.5724C43.4744 9.1762 38.6516 5.26296 32.7912 3.50191C26.6322 1.65101 20.1855 2.43921 14.6381 5.7209C12.6741 6.88265 10.8963 8.31956 9.35413 9.99184C9.07063 10.2992 8.59786 10.3128 8.29825 10.0227ZM21.444 50.448C21.3623 50.7996 21.056 51.0364 20.718 51.0364C20.6608 51.0364 20.6027 51.0296 20.5445 51.0154C18.2187 50.4485 15.9803 49.5345 13.8912 48.2986C10.9092 46.5346 8.37155 44.2112 6.34869 41.3929C4.39976 38.6778 3.01569 35.6307 2.23445 32.3363C1.45204 29.0364 1.31782 25.6711 1.83583 22.3344C2.29847 19.3532 3.26493 16.5199 4.71387 13.892L1.97784 14.8029C1.58616 14.9337 1.16417 14.7136 1.03678 14.3116C0.909273 13.9097 1.12395 13.478 1.51627 13.3474L6.19302 11.7903C6.38123 11.7274 6.5863 11.7439 6.76288 11.8362C6.93936 11.9283 7.07295 12.0886 7.13408 12.2816L8.65377 17.0734C8.78127 17.4754 8.5666 17.9071 8.17427 18.0376C7.78184 18.1683 7.3606 17.9483 7.2332 17.5463L6.20518 14.3051C3.14041 19.6586 2.24427 25.8946 3.68606 31.9751C5.20116 38.3652 9.09069 43.6917 14.6381 46.9731C16.6018 48.135 18.7054 48.9939 20.8903 49.5264C21.2915 49.6243 21.5394 50.0367 21.444 50.448Z"></path>
  </mask>
  <path d="M27.871 43.6109C28.866 43.6109 29.6755 42.7815 29.6755 41.7619C29.6755 40.3424 30.5744 39.4551 31.4154 39.0981C32.2566 38.7414 33.5046 38.7172 34.4844 39.7211C34.8252 40.0703 35.2784 40.2626 35.7605 40.2626C36.2426 40.2626 36.6958 40.0703 37.0367 39.7211L39.3139 37.3879C39.6547 37.0386 39.8424 36.5743 39.8424 36.0803C39.8424 35.5864 39.6547 35.122 39.3139 34.7729C38.3341 33.7691 38.3574 32.4905 38.7058 31.6286C39.0543 30.7667 39.9203 29.8458 41.3056 29.8458C42.3007 29.8458 43.1103 29.0164 43.1103 27.9968V24.6972C43.1103 23.6777 42.3007 22.8483 41.3056 22.8483C39.9203 22.8483 39.0542 21.9273 38.7058 21.0656C38.3574 20.2037 38.3342 18.9251 39.3138 17.9212C39.6546 17.5721 39.8424 17.1077 39.8424 16.6137C39.8424 16.1198 39.6547 15.6555 39.3139 15.3061L37.0367 12.9729C36.6958 12.6237 36.2426 12.4314 35.7605 12.4314C35.2784 12.4314 34.8252 12.6237 34.4845 12.9729C33.5045 13.9768 32.2568 13.9527 31.4154 13.5959C30.5744 13.2389 29.6755 12.3516 29.6755 10.9321C29.6755 9.91258 28.866 9.08317 27.871 9.08317H24.6505C23.6555 9.08317 22.846 9.91258 22.846 10.9321C22.846 12.3516 21.9471 13.239 21.1061 13.5959C20.265 13.9527 19.0169 13.9768 18.0371 12.9729C17.6963 12.6237 17.2431 12.4314 16.7609 12.4314C16.2789 12.4314 15.8256 12.6237 15.4848 12.9729L13.2076 15.3062C12.8668 15.6555 12.6791 16.1198 12.6791 16.6137C12.6791 17.1077 12.8669 17.5721 13.2076 17.9211C14.1874 18.9251 14.1641 20.2037 13.8157 21.0656C13.4672 21.9273 12.6012 22.8483 11.2159 22.8483C10.2208 22.8483 9.41121 23.6777 9.41121 24.6972V27.9968C9.41121 29.0164 10.2208 29.8458 11.2159 29.8458C12.6012 29.8458 13.4673 30.7667 13.8157 31.6286C14.164 32.4905 14.1873 33.7691 13.2076 34.7729C12.8668 35.122 12.6791 35.5864 12.6791 36.0803C12.6791 36.5743 12.8668 37.0386 13.2076 37.3879L15.4848 39.7211C15.8256 40.0703 16.2789 40.2626 16.7609 40.2626C17.2431 40.2626 17.6963 40.0703 18.0371 39.721C19.0183 38.7158 20.2666 38.7388 21.1069 39.0955C21.9477 39.4522 22.846 40.3401 22.846 41.7619C22.846 42.7815 23.6555 43.6109 24.6505 43.6109H27.871ZM24.3397 41.7619C24.3397 39.9416 23.32 38.3781 21.6786 37.6815C21.1287 37.448 20.5607 37.334 20.0015 37.334C18.892 37.334 17.8163 37.783 16.9808 38.6389C16.8597 38.7633 16.6623 38.7631 16.5412 38.6389L14.264 36.3056C14.1427 36.1814 14.1427 35.9794 14.264 35.8552C15.519 34.5693 15.8759 32.7254 15.1957 31.0428C14.5156 29.3605 12.9906 28.3154 11.2159 28.3154C11.0445 28.3154 10.905 28.1725 10.905 27.9969V24.6973C10.905 24.5217 11.0445 24.3789 11.2159 24.3789C12.9906 24.3789 14.5156 23.3338 15.1957 21.6514C15.8759 19.969 15.5189 18.125 14.2639 16.839C14.1847 16.7579 14.1729 16.6632 14.1729 16.6138C14.1729 16.5644 14.1847 16.4697 14.264 16.3885L16.5412 14.0553C16.6623 13.931 16.8596 13.931 16.9809 14.0553C18.236 15.3411 20.0357 15.7069 21.6777 15.0099C23.3198 14.3131 24.3397 12.7505 24.3397 10.9321C24.3397 10.7565 24.4792 10.6137 24.6505 10.6137H27.871C28.0423 10.6137 28.1818 10.7565 28.1818 10.9321C28.1818 12.7505 29.2018 14.3131 30.8438 15.0099C32.4858 15.7068 34.2854 15.341 35.5407 14.0553C35.6619 13.931 35.8593 13.931 35.9803 14.0553L38.2575 16.3884C38.3367 16.4696 38.3486 16.5644 38.3486 16.6138C38.3486 16.6632 38.3369 16.7578 38.2575 16.8391C37.0025 18.125 36.6456 19.969 37.3258 21.6514C38.0059 23.3339 39.5309 24.3789 41.3056 24.3789C41.477 24.3789 41.6165 24.5217 41.6165 24.6973V27.9969C41.6165 28.1725 41.477 28.3154 41.3056 28.3154C39.5309 28.3154 38.0059 29.3606 37.3257 31.0428C36.6456 32.7254 37.0026 34.5693 38.2575 35.8552C38.3788 35.9794 38.3788 36.1814 38.2575 36.3056L35.9803 38.6389C35.8591 38.7633 35.6618 38.7631 35.5406 38.6389C34.2855 37.353 32.4859 36.9871 30.8438 37.6843C29.2017 38.3811 28.1818 39.9436 28.1818 41.762C28.1818 41.9376 28.0423 42.0805 27.871 42.0805H24.6505C24.4792 42.0804 24.3397 41.9375 24.3397 41.7619ZM34.7448 26.3471C34.7448 21.5539 30.9388 17.6544 26.2607 17.6544C21.5827 17.6544 17.7768 21.5539 17.7768 26.3471C17.7768 31.1402 21.5827 35.0397 26.2607 35.0397C30.9388 35.0397 34.7448 31.1402 34.7448 26.3471ZM19.2707 26.3471C19.2707 22.3979 22.4065 19.1849 26.2608 19.1849C30.1152 19.1849 33.2512 22.3979 33.2512 26.3471C33.2512 30.2963 30.1152 33.5092 26.2608 33.5092C22.4064 33.5092 19.2707 30.2963 19.2707 26.3471ZM26.2851 32.0571C25.881 32.0571 25.5486 31.7266 25.5388 31.3103L25.5284 30.8706C24.8685 30.7094 24.4286 30.334 24.0079 29.9272C23.7079 29.6372 23.6942 29.1528 23.9772 28.8454C24.2602 28.5379 24.7329 28.5242 25.033 28.8139C25.506 29.2712 25.7497 29.4232 26.2608 29.4232C26.9961 29.4232 27.5941 28.9127 27.5941 28.2853C27.5941 27.6579 26.9961 27.1474 26.2608 27.1474C24.7021 27.1474 23.4339 25.9503 23.4339 24.479C23.4339 23.2559 24.31 22.2225 25.5009 21.9084L25.4896 21.4208C25.4798 20.9982 25.8062 20.6475 26.2184 20.6375C26.2245 20.6374 26.2306 20.6373 26.2366 20.6373C26.6409 20.6373 26.9732 20.968 26.9829 21.3842L26.9955 21.9268C27.6479 22.1097 28.387 22.4993 28.7305 23.0351C28.957 23.3883 28.8611 23.8628 28.5164 24.0949C28.1716 24.3272 27.7086 24.2285 27.4821 23.8754C27.3519 23.6724 26.6485 23.341 26.2609 23.341C25.5258 23.341 24.9277 23.8515 24.9277 24.4789C24.9277 25.1063 25.5258 25.6168 26.2609 25.6168C27.8198 25.6168 29.088 26.8139 29.088 28.2852C29.088 29.5076 28.2126 30.5407 27.0224 30.8553L27.0323 31.2733C27.0424 31.6958 26.7161 32.0465 26.3037 32.0568C26.2973 32.057 26.2911 32.0571 26.2851 32.0571ZM51 26.3471C51 29.8804 50.306 33.2969 48.9373 36.5016C47.6185 39.5898 45.7365 42.3417 43.344 44.6805C40.9474 47.0232 38.1704 48.8231 35.09 50.0302C32.3384 51.1084 29.4572 51.6664 26.5071 51.6941L28.6447 53.6661C28.9513 53.9489 28.976 54.4327 28.7001 54.7468C28.5527 54.9146 28.3492 55 28.1449 55C27.9668 55 27.7881 54.9352 27.6453 54.8034L23.9907 51.4321C23.8435 51.2963 23.7549 51.1062 23.7446 50.9034C23.7341 50.7007 23.8028 50.5022 23.9353 50.3514L27.2258 46.607C27.5017 46.2929 27.9741 46.2677 28.2806 46.5503C28.5871 46.8331 28.6119 47.3169 28.336 47.631L26.11 50.164C32.1775 50.2132 37.8987 47.8885 42.3128 43.5732C46.9517 39.0385 49.5063 32.9208 49.5063 26.3471C49.5063 24.0235 49.1806 21.7275 48.5384 19.5228C48.4204 19.1179 48.6451 18.6916 49.0403 18.5708C49.4356 18.4492 49.8516 18.6801 49.9696 19.0851C50.6533 21.4318 51 23.8751 51 26.3471ZM8.29825 10.0227C7.99844 9.73242 7.98499 9.24802 8.26838 8.94083C9.91002 7.16076 11.8019 5.63159 13.8912 4.3955C16.8732 2.6315 20.1059 1.54158 23.4996 1.15567C26.769 0.783656 30.0365 1.07926 33.2115 2.0333C36.392 2.98898 39.3034 4.55259 41.865 6.68063C44.1533 8.58171 46.0649 10.8561 47.5618 13.4556L48.1598 10.5724C48.2456 10.159 48.6432 9.8952 49.0456 9.98298C49.4491 10.0709 49.7066 10.4772 49.6209 10.8906L48.5987 15.819C48.5575 16.0175 48.4411 16.1911 48.275 16.3016C48.1529 16.3828 48.0114 16.4251 47.8682 16.4251C47.8165 16.4251 47.7643 16.4196 47.713 16.4084L42.9029 15.3609C42.4993 15.273 42.2419 14.8667 42.3276 14.4533C42.4132 14.04 42.8103 13.7759 43.2134 13.8639L46.4672 14.5724C43.4744 9.1762 38.6516 5.26296 32.7912 3.50191C26.6322 1.65101 20.1855 2.43921 14.6381 5.7209C12.6741 6.88265 10.8963 8.31956 9.35413 9.99184C9.07063 10.2992 8.59786 10.3128 8.29825 10.0227ZM21.444 50.448C21.3623 50.7996 21.056 51.0364 20.718 51.0364C20.6608 51.0364 20.6027 51.0296 20.5445 51.0154C18.2187 50.4485 15.9803 49.5345 13.8912 48.2986C10.9092 46.5346 8.37155 44.2112 6.34869 41.3929C4.39976 38.6778 3.01569 35.6307 2.23445 32.3363C1.45204 29.0364 1.31782 25.6711 1.83583 22.3344C2.29847 19.3532 3.26493 16.5199 4.71387 13.892L1.97784 14.8029C1.58616 14.9337 1.16417 14.7136 1.03678 14.3116C0.909273 13.9097 1.12395 13.478 1.51627 13.3474L6.19302 11.7903C6.38123 11.7274 6.5863 11.7439 6.76288 11.8362C6.93936 11.9283 7.07295 12.0886 7.13408 12.2816L8.65377 17.0734C8.78127 17.4754 8.5666 17.9071 8.17427 18.0376C7.78184 18.1683 7.3606 17.9483 7.2332 17.5463L6.20518 14.3051C3.14041 19.6586 2.24427 25.8946 3.68606 31.9751C5.20116 38.3652 9.09069 43.6917 14.6381 46.9731C16.6018 48.135 18.7054 48.9939 20.8903 49.5264C21.2915 49.6243 21.5394 50.0367 21.444 50.448Z" fill="#1062A5"></path>
  <path d="M27.871 43.6109C28.866 43.6109 29.6755 42.7815 29.6755 41.7619C29.6755 40.3424 30.5744 39.4551 31.4154 39.0981C32.2566 38.7414 33.5046 38.7172 34.4844 39.7211C34.8252 40.0703 35.2784 40.2626 35.7605 40.2626C36.2426 40.2626 36.6958 40.0703 37.0367 39.7211L39.3139 37.3879C39.6547 37.0386 39.8424 36.5743 39.8424 36.0803C39.8424 35.5864 39.6547 35.122 39.3139 34.7729C38.3341 33.7691 38.3574 32.4905 38.7058 31.6286C39.0543 30.7667 39.9203 29.8458 41.3056 29.8458C42.3007 29.8458 43.1103 29.0164 43.1103 27.9968V24.6972C43.1103 23.6777 42.3007 22.8483 41.3056 22.8483C39.9203 22.8483 39.0542 21.9273 38.7058 21.0656C38.3574 20.2037 38.3342 18.9251 39.3138 17.9212C39.6546 17.5721 39.8424 17.1077 39.8424 16.6137C39.8424 16.1198 39.6547 15.6555 39.3139 15.3061L37.0367 12.9729C36.6958 12.6237 36.2426 12.4314 35.7605 12.4314C35.2784 12.4314 34.8252 12.6237 34.4845 12.9729C33.5045 13.9768 32.2568 13.9527 31.4154 13.5959C30.5744 13.2389 29.6755 12.3516 29.6755 10.9321C29.6755 9.91258 28.866 9.08317 27.871 9.08317H24.6505C23.6555 9.08317 22.846 9.91258 22.846 10.9321C22.846 12.3516 21.9471 13.239 21.1061 13.5959C20.265 13.9527 19.0169 13.9768 18.0371 12.9729C17.6963 12.6237 17.2431 12.4314 16.7609 12.4314C16.2789 12.4314 15.8256 12.6237 15.4848 12.9729L13.2076 15.3062C12.8668 15.6555 12.6791 16.1198 12.6791 16.6137C12.6791 17.1077 12.8669 17.5721 13.2076 17.9211C14.1874 18.9251 14.1641 20.2037 13.8157 21.0656C13.4672 21.9273 12.6012 22.8483 11.2159 22.8483C10.2208 22.8483 9.41121 23.6777 9.41121 24.6972V27.9968C9.41121 29.0164 10.2208 29.8458 11.2159 29.8458C12.6012 29.8458 13.4673 30.7667 13.8157 31.6286C14.164 32.4905 14.1873 33.7691 13.2076 34.7729C12.8668 35.122 12.6791 35.5864 12.6791 36.0803C12.6791 36.5743 12.8668 37.0386 13.2076 37.3879L15.4848 39.7211C15.8256 40.0703 16.2789 40.2626 16.7609 40.2626C17.2431 40.2626 17.6963 40.0703 18.0371 39.721C19.0183 38.7158 20.2666 38.7388 21.1069 39.0955C21.9477 39.4522 22.846 40.3401 22.846 41.7619C22.846 42.7815 23.6555 43.6109 24.6505 43.6109H27.871ZM24.3397 41.7619C24.3397 39.9416 23.32 38.3781 21.6786 37.6815C21.1287 37.448 20.5607 37.334 20.0015 37.334C18.892 37.334 17.8163 37.783 16.9808 38.6389C16.8597 38.7633 16.6623 38.7631 16.5412 38.6389L14.264 36.3056C14.1427 36.1814 14.1427 35.9794 14.264 35.8552C15.519 34.5693 15.8759 32.7254 15.1957 31.0428C14.5156 29.3605 12.9906 28.3154 11.2159 28.3154C11.0445 28.3154 10.905 28.1725 10.905 27.9969V24.6973C10.905 24.5217 11.0445 24.3789 11.2159 24.3789C12.9906 24.3789 14.5156 23.3338 15.1957 21.6514C15.8759 19.969 15.5189 18.125 14.2639 16.839C14.1847 16.7579 14.1729 16.6632 14.1729 16.6138C14.1729 16.5644 14.1847 16.4697 14.264 16.3885L16.5412 14.0553C16.6623 13.931 16.8596 13.931 16.9809 14.0553C18.236 15.3411 20.0357 15.7069 21.6777 15.0099C23.3198 14.3131 24.3397 12.7505 24.3397 10.9321C24.3397 10.7565 24.4792 10.6137 24.6505 10.6137H27.871C28.0423 10.6137 28.1818 10.7565 28.1818 10.9321C28.1818 12.7505 29.2018 14.3131 30.8438 15.0099C32.4858 15.7068 34.2854 15.341 35.5407 14.0553C35.6619 13.931 35.8593 13.931 35.9803 14.0553L38.2575 16.3884C38.3367 16.4696 38.3486 16.5644 38.3486 16.6138C38.3486 16.6632 38.3369 16.7578 38.2575 16.8391C37.0025 18.125 36.6456 19.969 37.3258 21.6514C38.0059 23.3339 39.5309 24.3789 41.3056 24.3789C41.477 24.3789 41.6165 24.5217 41.6165 24.6973V27.9969C41.6165 28.1725 41.477 28.3154 41.3056 28.3154C39.5309 28.3154 38.0059 29.3606 37.3257 31.0428C36.6456 32.7254 37.0026 34.5693 38.2575 35.8552C38.3788 35.9794 38.3788 36.1814 38.2575 36.3056L35.9803 38.6389C35.8591 38.7633 35.6618 38.7631 35.5406 38.6389C34.2855 37.353 32.4859 36.9871 30.8438 37.6843C29.2017 38.3811 28.1818 39.9436 28.1818 41.762C28.1818 41.9376 28.0423 42.0805 27.871 42.0805H24.6505C24.4792 42.0804 24.3397 41.9375 24.3397 41.7619ZM34.7448 26.3471C34.7448 21.5539 30.9388 17.6544 26.2607 17.6544C21.5827 17.6544 17.7768 21.5539 17.7768 26.3471C17.7768 31.1402 21.5827 35.0397 26.2607 35.0397C30.9388 35.0397 34.7448 31.1402 34.7448 26.3471ZM19.2707 26.3471C19.2707 22.3979 22.4065 19.1849 26.2608 19.1849C30.1152 19.1849 33.2512 22.3979 33.2512 26.3471C33.2512 30.2963 30.1152 33.5092 26.2608 33.5092C22.4064 33.5092 19.2707 30.2963 19.2707 26.3471ZM26.2851 32.0571C25.881 32.0571 25.5486 31.7266 25.5388 31.3103L25.5284 30.8706C24.8685 30.7094 24.4286 30.334 24.0079 29.9272C23.7079 29.6372 23.6942 29.1528 23.9772 28.8454C24.2602 28.5379 24.7329 28.5242 25.033 28.8139C25.506 29.2712 25.7497 29.4232 26.2608 29.4232C26.9961 29.4232 27.5941 28.9127 27.5941 28.2853C27.5941 27.6579 26.9961 27.1474 26.2608 27.1474C24.7021 27.1474 23.4339 25.9503 23.4339 24.479C23.4339 23.2559 24.31 22.2225 25.5009 21.9084L25.4896 21.4208C25.4798 20.9982 25.8062 20.6475 26.2184 20.6375C26.2245 20.6374 26.2306 20.6373 26.2366 20.6373C26.6409 20.6373 26.9732 20.968 26.9829 21.3842L26.9955 21.9268C27.6479 22.1097 28.387 22.4993 28.7305 23.0351C28.957 23.3883 28.8611 23.8628 28.5164 24.0949C28.1716 24.3272 27.7086 24.2285 27.4821 23.8754C27.3519 23.6724 26.6485 23.341 26.2609 23.341C25.5258 23.341 24.9277 23.8515 24.9277 24.4789C24.9277 25.1063 25.5258 25.6168 26.2609 25.6168C27.8198 25.6168 29.088 26.8139 29.088 28.2852C29.088 29.5076 28.2126 30.5407 27.0224 30.8553L27.0323 31.2733C27.0424 31.6958 26.7161 32.0465 26.3037 32.0568C26.2973 32.057 26.2911 32.0571 26.2851 32.0571ZM51 26.3471C51 29.8804 50.306 33.2969 48.9373 36.5016C47.6185 39.5898 45.7365 42.3417 43.344 44.6805C40.9474 47.0232 38.1704 48.8231 35.09 50.0302C32.3384 51.1084 29.4572 51.6664 26.5071 51.6941L28.6447 53.6661C28.9513 53.9489 28.976 54.4327 28.7001 54.7468C28.5527 54.9146 28.3492 55 28.1449 55C27.9668 55 27.7881 54.9352 27.6453 54.8034L23.9907 51.4321C23.8435 51.2963 23.7549 51.1062 23.7446 50.9034C23.7341 50.7007 23.8028 50.5022 23.9353 50.3514L27.2258 46.607C27.5017 46.2929 27.9741 46.2677 28.2806 46.5503C28.5871 46.8331 28.6119 47.3169 28.336 47.631L26.11 50.164C32.1775 50.2132 37.8987 47.8885 42.3128 43.5732C46.9517 39.0385 49.5063 32.9208 49.5063 26.3471C49.5063 24.0235 49.1806 21.7275 48.5384 19.5228C48.4204 19.1179 48.6451 18.6916 49.0403 18.5708C49.4356 18.4492 49.8516 18.6801 49.9696 19.0851C50.6533 21.4318 51 23.8751 51 26.3471ZM8.29825 10.0227C7.99844 9.73242 7.98499 9.24802 8.26838 8.94083C9.91002 7.16076 11.8019 5.63159 13.8912 4.3955C16.8732 2.6315 20.1059 1.54158 23.4996 1.15567C26.769 0.783656 30.0365 1.07926 33.2115 2.0333C36.392 2.98898 39.3034 4.55259 41.865 6.68063C44.1533 8.58171 46.0649 10.8561 47.5618 13.4556L48.1598 10.5724C48.2456 10.159 48.6432 9.8952 49.0456 9.98298C49.4491 10.0709 49.7066 10.4772 49.6209 10.8906L48.5987 15.819C48.5575 16.0175 48.4411 16.1911 48.275 16.3016C48.1529 16.3828 48.0114 16.4251 47.8682 16.4251C47.8165 16.4251 47.7643 16.4196 47.713 16.4084L42.9029 15.3609C42.4993 15.273 42.2419 14.8667 42.3276 14.4533C42.4132 14.04 42.8103 13.7759 43.2134 13.8639L46.4672 14.5724C43.4744 9.1762 38.6516 5.26296 32.7912 3.50191C26.6322 1.65101 20.1855 2.43921 14.6381 5.7209C12.6741 6.88265 10.8963 8.31956 9.35413 9.99184C9.07063 10.2992 8.59786 10.3128 8.29825 10.0227ZM21.444 50.448C21.3623 50.7996 21.056 51.0364 20.718 51.0364C20.6608 51.0364 20.6027 51.0296 20.5445 51.0154C18.2187 50.4485 15.9803 49.5345 13.8912 48.2986C10.9092 46.5346 8.37155 44.2112 6.34869 41.3929C4.39976 38.6778 3.01569 35.6307 2.23445 32.3363C1.45204 29.0364 1.31782 25.6711 1.83583 22.3344C2.29847 19.3532 3.26493 16.5199 4.71387 13.892L1.97784 14.8029C1.58616 14.9337 1.16417 14.7136 1.03678 14.3116C0.909273 13.9097 1.12395 13.478 1.51627 13.3474L6.19302 11.7903C6.38123 11.7274 6.5863 11.7439 6.76288 11.8362C6.93936 11.9283 7.07295 12.0886 7.13408 12.2816L8.65377 17.0734C8.78127 17.4754 8.5666 17.9071 8.17427 18.0376C7.78184 18.1683 7.3606 17.9483 7.2332 17.5463L6.20518 14.3051C3.14041 19.6586 2.24427 25.8946 3.68606 31.9751C5.20116 38.3652 9.09069 43.6917 14.6381 46.9731C16.6018 48.135 18.7054 48.9939 20.8903 49.5264C21.2915 49.6243 21.5394 50.0367 21.444 50.448Z" stroke="#1062A5" stroke-width="0.4" mask="url(#path-1-outside-1_16_776)"></path>
</svg>
