<?xml version="1.0" encoding="UTF-8"?>
<svg xmlns="http://www.w3.org/2000/svg" width="52" height="41" viewBox="0 0 52 41" fill="none">
  <path d="M47.6338 24.5733L46.2345 24.2765L37.0612 9.01722L37.3989 7.6741L50.2769 0L51.2774 1.67917L39.2428 8.85138L47.3697 22.3704L49.907 20.5914L51.0298 22.192L47.6338 24.5733Z" fill="#1062A5"></path>
  <path d="M3.64366 24.5733L0.247675 22.192L1.3704 20.5914L3.9077 22.3704L12.0346 8.85138L0 1.67917L1.00052 0L13.8785 7.6741L14.2162 9.01722L5.04297 24.2765L3.64366 24.5733Z" fill="#1062A5"></path>
  <path d="M40.124 31.2141C39.5872 31.2141 39.0537 31.0777 38.5807 30.8197L30.6665 26.5285L31.5983 24.81L39.5152 29.1023C40.04 29.3876 40.717 29.2556 41.0923 28.811C41.4759 28.3571 41.4955 27.6839 41.1382 27.2115C41.0787 27.1373 41.0132 27.068 40.9456 27.0113L34.1918 21.3076L27.4042 17.0955C26.91 16.7889 26.3017 16.7098 25.7392 16.879L23.598 17.5292L21.2914 20.0616C20.4311 21.0076 19.2015 21.5504 17.9173 21.5504C17.3897 21.5504 16.8704 21.4598 16.3739 21.2809C15.6118 21.0087 15.0101 20.4157 14.7259 19.6541C14.4406 18.8909 14.5066 18.0459 14.9064 17.3361L18.2342 11.4306L18.7863 10.9789C22.0257 9.9326 25.2973 9.26922 28.7893 8.95117L29.1243 8.97899L36.4345 10.8851L38.9658 9.93533L39.6521 11.7662L36.8311 12.8245L36.2414 12.8551L28.797 10.914C25.6454 11.2124 22.6798 11.8054 19.7508 12.7236L16.6096 18.2957C16.4509 18.5783 16.5087 18.8391 16.5572 18.97C16.6058 19.0993 16.7318 19.3322 17.0341 19.4403C18.0187 19.7954 19.1529 19.5068 19.8452 18.7458L22.3334 16.0137L22.772 15.7366L25.1746 15.0067C26.2771 14.6772 27.4637 14.8332 28.4342 15.4333L35.3985 19.7676L42.2047 25.5154C42.3711 25.655 42.5287 25.8187 42.6837 26.014C43.616 27.2464 43.5702 28.9086 42.5855 30.0739C41.9718 30.7989 41.0749 31.2141 40.124 31.2141Z" fill="#1062A5"></path>
  <path d="M42.4942 27.4108L41.3409 25.832C42.9131 24.6842 44.3097 23.335 45.4924 21.8223L47.033 23.0268C45.739 24.6814 44.2115 26.1566 42.4942 27.4108Z" fill="#1062A5"></path>
  <path d="M36.9852 34.8025C36.462 34.8025 35.9372 34.6683 35.4675 34.4151L27.9532 30.3672L28.8807 28.6455L36.396 32.6939C36.9159 32.976 37.5504 32.8451 37.9257 32.4146C38.1456 32.161 38.2514 31.8336 38.2214 31.4959C38.1919 31.1583 38.0305 30.8544 37.767 30.6411L36.7326 29.7982L37.9677 28.2827L38.9999 29.1239C39.6763 29.6717 40.092 30.4534 40.169 31.3236C40.2459 32.1937 39.9737 33.0371 39.4019 33.6972C38.7888 34.4004 37.9088 34.8025 36.9852 34.8025Z" fill="#1062A5"></path>
  <path d="M33.9878 38.0914C33.5579 38.0914 33.1198 37.9948 32.72 37.8115L25.4637 34.4412L26.2875 32.6682L33.5388 36.0363C33.9616 36.2289 34.4739 36.1214 34.7723 35.7919C35.1602 35.3675 35.1427 34.7221 34.7352 34.3206L34.0915 33.6829L35.4673 32.2939L36.1089 32.9295C37.2676 34.0702 37.3161 35.9065 36.218 37.1089C35.6517 37.7324 34.8378 38.0914 33.9878 38.0914Z" fill="#1062A5"></path>
  <path d="M29.6791 40.5152C29.3201 40.5158 28.9563 40.4596 28.6 40.3428C26.7332 39.7373 24.6907 38.9544 22.3574 37.9512L23.1299 36.1553C25.407 37.1345 27.3944 37.8961 29.2056 38.4836C29.8771 38.7035 30.606 38.4296 30.9835 37.8197L31.1128 37.6173C31.2901 37.3331 31.3654 36.9943 31.3255 36.6468L33.2677 36.4231C33.3577 37.2033 33.1793 37.9981 32.7663 38.6609L32.6387 38.8606C31.99 39.9097 30.8602 40.5152 29.6791 40.5152Z" fill="#1062A5"></path>
  <path d="M18.5885 13.3299C15.5362 12.5787 13.1539 11.5121 12.0055 10.9437L12.8729 9.19141C13.9498 9.72494 16.1849 10.7249 19.0555 11.4314L18.5885 13.3299Z" fill="#1062A5"></path>
  <path d="M7.02972 27.6101C5.93209 26.3925 4.75045 24.6102 3.95178 23.3293L5.61131 22.2949C6.2305 23.2889 7.42741 25.1312 8.48194 26.3019L7.02972 27.6101Z" fill="#1062A5"></path>
  <path d="M8.9349 32.2565C7.85692 32.2565 6.81876 31.7044 6.27813 30.7311L6.24157 30.6575C5.88043 29.9941 5.81278 29.1371 6.07246 28.34C6.30813 27.6347 6.64527 26.9626 7.07734 26.3357C7.51868 25.6811 8.09095 25.0319 8.77233 24.4138C9.37352 23.8693 10.1553 23.5824 10.9583 23.6086C11.8099 23.6342 12.6195 24.0161 13.1787 24.656C13.8786 25.4629 14.1115 26.5932 13.7886 27.6096L11.925 27.0171C12.0428 26.6461 11.9583 26.2332 11.7041 25.9402C11.5006 25.7073 11.2136 25.5725 10.8988 25.5627C10.6004 25.5654 10.3091 25.6598 10.0849 25.8627C9.52081 26.3745 9.05165 26.9047 8.69268 27.4372C8.35936 27.9205 8.10459 28.4279 7.92947 28.9521C7.83837 29.2309 7.85583 29.5342 7.97694 29.7579L8.00312 29.8097C8.29826 30.3411 9.0091 30.4175 9.48808 30.1649L10.3959 31.8964C9.92997 32.1408 9.42807 32.2565 8.9349 32.2565Z" fill="#1062A5"></path>
  <path d="M19.6574 40.7236C19.5642 40.7236 19.4703 40.7197 19.377 40.711C18.3994 40.6237 17.5571 40.0989 17.0661 39.2719L17.0738 39.267L17.0192 39.1939C16.645 38.5556 16.5522 37.7013 16.7879 36.8911C16.9794 36.2436 17.2642 35.6124 17.6357 35.0101L19.2996 36.0368C19.0192 36.4918 18.8053 36.9642 18.664 37.441C18.5789 37.7345 18.6024 38.0302 18.7295 38.2479L18.7278 38.249L18.7475 38.2735C18.9755 38.6581 19.3487 38.7454 19.5511 38.7634C19.9335 38.7989 20.3115 38.6472 20.5603 38.3603C21.1064 37.7345 21.5576 37.0766 21.9269 36.5153C22.1042 36.2447 22.282 35.967 22.4604 35.6888C22.7354 35.2583 22.6868 34.6975 22.341 34.3271C21.9203 33.8678 21.1637 33.8607 20.7218 34.2916C20.6574 34.3511 20.6192 34.3898 20.5805 34.4313L19.1381 33.1122C19.2161 33.026 19.2947 32.948 19.3798 32.87C19.9395 32.3239 20.7082 32.0107 21.521 32.0107C22.3781 32.0107 23.1996 32.3713 23.7763 32.9993C24.725 34.0172 24.8635 35.5584 24.1074 36.7422C23.9252 37.0275 23.743 37.3107 23.5613 37.5883C23.1544 38.2064 22.6557 38.9325 22.0355 39.6434C21.4403 40.3302 20.5663 40.7236 19.6574 40.7236Z" fill="#1062A5"></path>
  <path d="M11.5777 35.2756C11.3524 35.2756 11.1292 35.2538 10.911 35.2096C9.9525 35.0132 9.19965 34.3891 8.8456 33.4977L8.84996 33.4961L8.8325 33.4503L8.82705 33.4524C8.45063 32.4797 8.55373 31.3712 9.09654 30.5605C9.99723 29.2152 11.0583 27.9419 12.085 26.7107C12.33 26.4166 12.5744 26.1237 12.816 25.8307C13.4134 25.1051 14.2595 24.6682 15.1984 24.5983C16.1111 24.5274 17.0009 24.8204 17.6364 25.3932C17.7886 25.5307 17.919 25.6752 18.0347 25.8362C18.913 27.0462 18.7728 28.8623 17.6926 30.2501C16.7052 31.5174 15.7194 32.7825 14.5427 33.9702L14.5416 33.9707C13.7113 34.8065 12.6224 35.2756 11.5777 35.2756ZM10.6524 32.7536L10.6622 32.7754C10.7752 33.0591 10.9847 33.2288 11.3033 33.2937C11.887 33.4137 12.6125 33.1382 13.1548 32.5927C14.2492 31.4885 15.1559 30.3243 16.116 29.0925C16.6899 28.3549 16.8165 27.4859 16.451 26.9823C16.415 26.9322 16.3757 26.8896 16.3271 26.8454C16.0931 26.6343 15.7156 26.5186 15.3424 26.5486C15.0587 26.5694 14.6512 26.6774 14.325 27.074C14.0811 27.3697 13.8346 27.6659 13.5869 27.9627C12.5924 29.1552 11.5646 30.3881 10.7212 31.6478C10.504 31.9724 10.5291 32.4334 10.6502 32.7465L10.6524 32.7536Z" fill="#1062A5"></path>
  <path d="M15.1805 38.7273C14.9699 38.7273 14.7605 38.7077 14.5548 38.669C13.5679 38.4808 12.778 37.8561 12.3874 36.9554L12.3688 36.9101L12.3672 36.9107C12.0317 36.1164 12.0655 35.1415 12.4605 34.2348C13.1789 32.5687 14.3628 31.0407 16.079 29.5672C17.4718 28.3714 19.4374 28.2983 20.6523 29.3932C20.8023 29.5284 20.9305 29.6692 21.0451 29.823C21.9414 31.0183 21.8617 32.7766 20.8487 34.0946L20.8138 34.1399C19.9382 35.2773 19.032 36.4541 17.9355 37.5517L17.9344 37.5528C17.1816 38.3045 16.169 38.7273 15.1805 38.7273ZM14.1691 36.1518L14.1811 36.1775C14.3491 36.5643 14.6764 36.7012 14.9214 36.7481C15.4658 36.8512 16.0905 36.6303 16.5531 36.1693C17.5602 35.1606 18.3883 34.0853 19.2644 32.9473L19.2988 32.9026C19.7789 32.278 19.8525 31.4918 19.4777 30.9921C19.4385 30.9392 19.3965 30.8934 19.343 30.8454C18.8558 30.4057 18.0004 30.4941 17.3534 31.05C15.8674 32.326 14.8537 33.6222 14.2547 35.0122C14.0736 35.4274 14.042 35.8513 14.1685 36.1502L14.1691 36.1518Z" fill="#1062A5"></path>
</svg>
