<?xml version="1.0" encoding="UTF-8"?>
<svg xmlns="http://www.w3.org/2000/svg" width="1470" height="1470" viewBox="0 0 1470 1470" fill="none">
  <path d="M1176 787.72V605.539C1183.42 601.274 1189.6 595.131 1193.9 587.728C1198.2 580.325 1200.47 571.922 1200.5 563.361V514.375H1299.21C1309.49 514.438 1319.52 511.2 1327.82 505.137C1336.12 499.074 1342.25 490.507 1345.32 480.696C1348.34 471.004 1348.17 460.599 1344.84 451.01C1341.5 441.421 1335.18 433.154 1326.8 427.423L725.984 12.5309C714.238 4.37248 700.278 0 685.975 0C671.673 0 657.713 4.37248 645.967 12.5309L45.2025 427.423C36.8203 433.154 30.4977 441.421 27.1638 451.01C23.8299 460.599 23.6605 471.004 26.6805 480.696C29.7449 490.507 35.8792 499.074 44.18 505.137C52.4808 511.2 62.5095 514.438 72.7895 514.375H171.5V563.361C171.526 571.922 173.803 580.325 178.103 587.728C182.404 595.131 188.575 601.274 196 605.539V937.571C188.575 941.836 182.404 947.978 178.103 955.381C173.803 962.784 171.526 971.187 171.5 979.748V1028.73H147C127.507 1028.73 108.812 1036.48 95.0276 1050.26C81.2437 1064.04 73.5 1082.73 73.5 1102.21V1151.2C54.0066 1151.2 35.3116 1158.94 21.5276 1172.72C7.74373 1186.5 0 1205.19 0 1224.68L0 1273.67C0 1286.66 5.16249 1299.12 14.3518 1308.31C23.541 1317.49 36.0044 1322.65 49 1322.65H845.911C878.399 1369.32 921.989 1407.16 972.754 1432.78C1023.52 1458.41 1079.86 1471 1136.71 1469.43C1193.55 1467.85 1249.11 1452.17 1298.38 1423.78C1347.65 1395.39 1389.08 1355.19 1418.94 1306.8C1448.8 1258.42 1466.14 1203.37 1469.41 1146.61C1472.69 1089.85 1461.78 1033.17 1437.68 981.677C1413.58 930.183 1377.04 885.493 1331.36 851.634C1285.68 817.774 1232.29 795.81 1176 787.72ZM980 817.357V612.348H1127V783.801C1076.11 783.859 1025.87 795.326 980 817.357ZM465.5 1028.73V979.748C465.474 971.187 463.197 962.784 458.897 955.381C454.596 947.978 448.424 941.836 441 937.571V605.539C448.424 601.274 454.596 595.131 458.897 587.728C463.197 580.325 465.474 571.922 465.5 563.361V514.375H539V563.361C539.026 571.922 541.303 580.325 545.603 587.728C549.903 595.131 556.075 601.274 563.5 605.539V937.571C556.075 941.836 549.903 947.978 545.603 955.381C541.303 962.784 539.026 971.187 539 979.748V1028.73H465.5ZM245 612.348H392V930.761H245V612.348ZM784 514.375V563.361H588V514.375H784ZM612.5 612.348H759.5V930.761H612.5V612.348ZM588 979.748H784V1028.73H588V979.748ZM828.1 958.929C823.871 949.996 817.039 942.55 808.5 937.571V605.539C815.924 601.274 822.096 595.131 826.397 587.728C830.697 580.325 832.974 571.922 833 563.361V514.375H906.5V563.361C906.526 571.922 908.803 580.325 913.103 587.728C917.403 595.131 923.575 601.274 931 605.539V845.696C888.669 875.281 853.507 913.973 828.1 958.929ZM1151.5 563.361H955.5V514.375H1151.5V563.361ZM673.75 52.8959C677.327 50.3496 681.609 48.9812 686 48.9812C690.391 48.9812 694.673 50.3496 698.25 52.8959L1295.54 465.388L1177.13 465.609C1176.73 465.609 1176.39 465.388 1176 465.388H931C929.808 465.537 928.629 465.775 927.472 466.098L813.13 466.319C811.621 465.859 810.07 465.547 808.5 465.388H563.5C561.074 465.507 558.68 465.986 556.395 466.809L449.134 467.029C446.537 466.02 443.785 465.465 441 465.388H196C192.619 465.415 189.28 466.149 186.2 467.544L73.0345 467.837L673.75 52.8959ZM416.5 514.375V563.361H220.5V514.375H416.5ZM220.5 979.748H416.5V1028.73H220.5V979.748ZM122.5 1102.21C122.5 1095.72 125.081 1089.49 129.676 1084.9C134.271 1080.3 140.502 1077.72 147 1077.72H787.92C785.433 1093.93 784.123 1110.31 784 1126.71C784 1134.99 784.661 1143.07 785.249 1151.2H122.5V1102.21ZM49 1273.67V1224.68C49 1218.19 51.5812 1211.96 56.1759 1207.36C60.7705 1202.77 67.0022 1200.19 73.5 1200.19H792.134C797.768 1225.57 806.301 1250.23 817.565 1273.67H49ZM1127 1420.63C1068.85 1420.63 1012.01 1403.39 963.662 1371.09C915.314 1338.8 877.631 1292.89 855.379 1239.19C833.127 1185.48 827.305 1126.38 838.649 1069.37C849.993 1012.35 877.994 959.981 919.11 918.875C960.227 877.77 1012.61 849.777 1069.64 838.436C1126.67 827.095 1185.79 832.915 1239.51 855.161C1293.23 877.408 1339.15 915.08 1371.45 963.415C1403.76 1011.75 1421 1068.58 1421 1126.71C1420.92 1204.63 1389.91 1279.35 1334.8 1334.45C1279.68 1389.55 1204.95 1420.54 1127 1420.63Z" fill="#045BA2"></path>
  <path d="M1200.5 1028.73C1200.5 1035.23 1203.08 1041.46 1207.68 1046.05C1212.27 1050.65 1218.5 1053.23 1225 1053.23C1231.5 1053.23 1237.73 1050.65 1242.32 1046.05C1246.92 1041.46 1249.5 1035.23 1249.5 1028.73C1249.46 1000.51 1239.7 973.167 1221.85 951.305C1203.99 929.443 1179.15 914.402 1151.5 908.717V906.268C1151.5 899.772 1148.92 893.542 1144.32 888.948C1139.73 884.355 1133.5 881.774 1127 881.774C1120.5 881.774 1114.27 884.355 1109.68 888.948C1105.08 893.542 1102.5 899.772 1102.5 906.268V908.717C1074.81 914.339 1049.91 929.358 1032.03 951.231C1014.15 973.104 1004.38 1000.48 1004.38 1028.73C1004.38 1056.98 1014.15 1084.36 1032.03 1106.24C1049.91 1128.11 1074.81 1143.13 1102.5 1148.75V1293.68C1088.21 1288.63 1075.84 1279.29 1067.07 1266.94C1058.3 1254.59 1053.56 1239.83 1053.5 1224.68C1053.5 1218.19 1050.92 1211.96 1046.32 1207.36C1041.73 1202.77 1035.5 1200.19 1029 1200.19C1022.5 1200.19 1016.27 1202.77 1011.68 1207.36C1007.08 1211.96 1004.5 1218.19 1004.5 1224.68C1004.54 1252.9 1014.3 1280.25 1032.15 1302.11C1050.01 1323.97 1074.85 1339.01 1102.5 1344.7V1347.15C1102.5 1353.64 1105.08 1359.87 1109.68 1364.47C1114.27 1369.06 1120.5 1371.64 1127 1371.64C1133.5 1371.64 1139.73 1369.06 1144.32 1364.47C1148.92 1359.87 1151.5 1353.64 1151.5 1347.15V1344.7C1179.19 1339.08 1204.09 1324.06 1221.97 1302.18C1239.85 1280.31 1249.62 1252.93 1249.62 1224.68C1249.62 1196.43 1239.85 1169.05 1221.97 1147.18C1204.09 1125.31 1179.19 1110.29 1151.5 1104.66V959.761C1165.78 964.809 1178.15 974.144 1186.92 986.491C1195.7 998.837 1200.44 1013.59 1200.5 1028.73ZM1053.5 1028.73C1053.56 1013.59 1058.3 998.837 1067.08 986.491C1075.85 974.144 1088.22 964.809 1102.5 959.761V1097.71C1088.22 1092.66 1075.85 1083.32 1067.08 1070.98C1058.3 1058.63 1053.56 1043.88 1053.5 1028.73ZM1200.5 1224.68C1200.44 1239.82 1195.7 1254.58 1186.92 1266.92C1178.15 1279.27 1165.78 1288.61 1151.5 1293.65V1155.71C1165.78 1160.76 1178.15 1170.09 1186.92 1182.44C1195.7 1194.78 1200.44 1209.54 1200.5 1224.68Z" fill="#045BA2"></path>
</svg>
