<?xml version="1.0" encoding="UTF-8"?>
<svg xmlns="http://www.w3.org/2000/svg" width="44" height="54" viewBox="0 0 44 54" fill="none">
  <path d="M15.5311 42.8564C15.6699 44.8038 17.277 46.3628 19.2277 46.4463C20.2964 46.4921 21.2729 46.1049 21.9999 45.4464V52.9453H4.70981C3.12778 52.9453 1.84528 51.6628 1.84528 50.0807V32.7907H21.9999V39.6981C21.3117 39.0754 20.3999 38.6953 19.3979 38.6953C17.1631 38.6953 15.3693 40.5871 15.5311 42.8564Z" stroke="#1062A5" stroke-width="2" stroke-miterlimit="10" stroke-linecap="round" stroke-linejoin="round"></path>
  <path d="M36.5703 52.9453H39.2902C40.8722 52.9453 42.1547 51.6628 42.1547 50.0808V32.7907H35.1064C35.6302 32.0875 35.9216 31.201 35.866 30.2447C35.7537 28.3152 34.1984 26.7415 32.2701 26.6087C30.0046 26.4528 28.1183 28.2443 28.1183 30.4765C28.1183 31.3439 28.4033 32.1447 28.8847 32.7907H22.0002V39.6984C21.2711 39.0381 20.2898 38.6511 19.218 38.6996C17.2677 38.7879 15.6646 40.3504 15.5304 42.298C15.3743 44.5635 17.166 46.4498 19.3982 46.4498C20.3995 46.4498 21.3121 46.07 22.0002 45.4468V52.9453H27.2511" stroke="#1062A5" stroke-width="2" stroke-miterlimit="10" stroke-linecap="round" stroke-linejoin="round"></path>
  <path d="M24.0256 1.8939L36.2514 14.1197L31.2676 19.1034C31.1403 18.2367 30.7198 17.4046 30.0052 16.7678C28.5625 15.4822 26.3502 15.4678 24.8922 16.7362C23.1781 18.2272 23.1105 20.8296 24.6893 22.4084C25.3027 23.0217 26.0704 23.3866 26.868 23.5031L22 28.3711L16.9155 23.2868C16.8699 24.2136 16.4935 25.1269 15.7858 25.8346C14.2712 27.3492 11.811 27.3456 10.2922 25.8268C8.77333 24.3079 8.76985 21.8477 10.2844 20.3332C10.9921 19.6255 11.9054 19.2492 12.833 19.2042L7.7486 14.1197L19.9744 1.8939C21.093 0.775301 22.9069 0.775301 24.0256 1.8939Z" stroke="#1062A5" stroke-width="2" stroke-miterlimit="10" stroke-linecap="round" stroke-linejoin="round"></path>
</svg>
