<?xml version="1.0" encoding="UTF-8"?>
<svg xmlns="http://www.w3.org/2000/svg" width="496" height="490" viewBox="0 0 496 490" fill="none">
  <path d="M364.223 320.721L356.113 302.462C361.223 293.49 365.176 283.955 367.905 274.02L386.537 266.848C389.625 265.66 391.663 262.692 391.663 259.382V222.663C391.663 219.353 389.625 216.386 386.537 215.197L367.912 208.028C365.182 198.087 361.227 188.549 356.116 179.576L364.223 161.325C365.566 158.3 364.909 154.761 362.568 152.42L336.602 126.456C334.263 124.117 330.725 123.459 327.699 124.802L309.441 132.911C300.468 127.801 290.933 123.847 280.998 121.119L273.826 102.488C272.638 99.4 269.67 97.362 266.36 97.362H229.642C226.332 97.362 223.365 99.4 222.176 102.488L215.004 121.119C205.068 123.848 195.532 127.801 186.561 132.911L168.302 124.802C165.276 123.458 161.739 124.115 159.398 126.457L133.433 152.422C131.093 154.762 130.436 158.301 131.779 161.326L139.887 179.582C134.777 188.554 130.823 198.09 128.094 208.028L109.464 215.199C106.376 216.387 104.338 219.355 104.338 222.665V259.384C104.338 262.694 106.376 265.661 109.464 266.85L128.091 274.02C130.822 283.965 134.776 293.502 139.886 302.472L131.779 320.723C130.436 323.747 131.093 327.286 133.433 329.627L159.398 355.592C161.739 357.932 165.276 358.588 168.302 357.246L186.562 349.137C195.535 354.247 205.07 358.2 215.004 360.929L222.176 379.56C223.364 382.648 226.332 384.686 229.642 384.686H266.361C269.671 384.686 272.638 382.648 273.827 379.56L280.996 360.935C290.938 358.205 300.476 354.25 309.448 349.139L327.7 357.246C330.722 358.59 334.264 357.933 336.604 355.592L362.569 329.627C364.908 327.284 365.565 323.745 364.223 320.721ZM353.398 266.183C350.744 277.335 346.341 287.954 340.313 297.744C338.93 299.99 338.744 302.774 339.814 305.185L347.37 322.196L329.174 340.392L312.17 332.839C309.761 331.769 306.976 331.956 304.728 333.339C294.94 339.367 284.319 343.771 273.161 346.426C270.595 347.036 268.494 348.872 267.547 351.334L260.868 368.684H235.136L228.455 351.33C227.508 348.868 225.407 347.032 222.842 346.422C211.692 343.769 201.073 339.366 191.281 333.337C189.033 331.953 186.249 331.767 183.84 332.838L166.828 340.393L148.632 322.197L156.185 305.193C157.256 302.782 157.069 299.997 155.685 297.751C149.659 287.968 145.255 277.347 142.598 266.183C141.988 263.618 140.151 261.517 137.69 260.57L120.339 253.891V228.158L137.693 221.478C140.155 220.531 141.991 218.43 142.601 215.864C145.255 204.71 149.658 194.092 155.686 184.302C157.07 182.055 157.256 179.271 156.186 176.86L148.632 159.852L166.828 141.655L183.839 149.21C186.248 150.279 189.034 150.095 191.28 148.71C201.071 142.682 211.689 138.279 222.841 135.626C225.406 135.015 227.507 133.179 228.454 130.717L235.135 113.362H260.868L267.549 130.717C268.496 133.178 270.597 135.015 273.162 135.626C284.313 138.28 294.932 142.682 304.723 148.71C306.971 150.094 309.755 150.28 312.164 149.209L329.174 141.655L347.371 159.851L339.818 176.854C338.748 179.266 338.934 182.05 340.318 184.297C346.347 194.086 350.75 204.707 353.404 215.864C354.015 218.43 355.851 220.531 358.313 221.478L375.663 228.156V253.889L358.308 260.57C355.845 261.517 354.009 263.617 353.398 266.183ZM248.001 159.19C202.878 159.19 166.168 195.899 166.168 241.022C166.168 286.145 202.878 322.855 248.001 322.855C293.123 322.855 329.833 286.145 329.833 241.022C329.833 195.899 293.123 159.19 248.001 159.19ZM248.001 306.855C211.7 306.855 182.168 277.323 182.168 241.022C182.168 204.722 211.7 175.19 248.001 175.19C284.301 175.19 313.833 204.722 313.833 241.022C313.833 277.323 284.301 306.855 248.001 306.855ZM279.498 257.341C280.303 263.97 278.512 270.036 274.317 274.886C270.121 279.738 263.544 283.165 256.001 284.583V287.743C256.001 292.161 252.419 295.743 248.001 295.743C243.583 295.743 240.001 292.161 240.001 287.743V284.449C228.283 281.907 219.316 273.903 216.553 262.818C215.485 258.531 218.093 254.189 222.38 253.12C226.667 252.058 231.009 254.66 232.078 258.947C234.044 266.837 242.313 269.473 248.774 269.301C254.404 269.167 259.805 267.205 262.215 264.419C263.443 262.999 263.874 261.41 263.614 259.269C263.161 255.539 260.837 250.959 246.771 248.65C224.449 244.985 219.232 233.246 218.786 224.043C218.178 211.518 226.678 201.018 240 197.733V194.301C240 189.883 243.582 186.301 248 186.301C252.418 186.301 256 189.883 256 194.301V197.661C264.634 199.69 272.809 205.246 277.112 215.495C278.823 219.569 276.907 224.258 272.833 225.968C268.766 227.678 264.071 225.764 262.36 221.689C259.015 213.724 250.816 211.679 244.172 213.186C242.538 213.557 234.403 215.785 234.767 223.266C234.864 225.251 235.12 230.522 249.364 232.861C267.754 235.882 277.893 244.117 279.498 257.341ZM64.1578 158.09L1.71981 78.949C-0.179189 76.542 -0.536189 73.262 0.801811 70.504C2.13881 67.746 4.93481 65.994 7.99981 65.994H23.5688V8C23.5688 3.582 27.1508 0 31.5688 0C35.9868 0 39.5688 3.582 39.5688 8V73.995C39.5688 78.413 35.9868 81.995 31.5688 81.995H24.5018L70.4388 140.22L116.377 81.995H109.309C104.891 81.995 101.309 78.413 101.309 73.995V8C101.309 3.582 104.891 0 109.309 0C113.727 0 117.309 3.582 117.309 8V65.995H132.879C135.944 65.995 138.74 67.747 140.077 70.505C141.415 73.263 141.058 76.543 139.159 78.95L76.7198 158.09C75.2028 160.013 72.8888 161.135 70.4398 161.135C67.9908 161.135 65.6748 160.012 64.1578 158.09ZM494.28 406.837L431.842 485.977C430.325 487.9 428.011 489.022 425.562 489.022C423.113 489.022 420.798 487.9 419.282 485.977L356.843 406.837C354.944 404.431 354.587 401.15 355.925 398.392C357.262 395.634 360.058 393.882 363.123 393.882H378.692V335.888C378.692 331.47 382.274 327.888 386.692 327.888C391.11 327.888 394.692 331.47 394.692 335.888V401.882C394.692 406.3 391.11 409.882 386.692 409.882H379.625L425.563 468.106L471.5 409.882H464.433C460.015 409.882 456.433 406.3 456.433 401.882V335.888C456.433 331.47 460.015 327.888 464.433 327.888C468.851 327.888 472.433 331.47 472.433 335.888V393.882H488C491.065 393.882 493.861 395.634 495.198 398.392C496.536 401.151 496.18 404.431 494.28 406.837ZM158.858 45.704C157.173 41.62 159.119 36.943 163.203 35.258C190.139 24.146 218.668 18.511 248 18.511C307.435 18.511 363.312 41.656 405.339 83.683C447.365 125.709 470.511 181.587 470.511 241.022C470.511 244.173 470.444 247.332 470.31 250.489L475.667 243.023C478.243 239.434 483.242 238.611 486.831 241.188C490.421 243.764 491.242 248.762 488.667 252.352L465.464 284.686C463.952 286.792 461.526 288.022 458.965 288.022C458.703 288.022 458.44 288.009 458.175 287.983C455.33 287.701 452.853 285.923 451.675 283.319L435.274 247.058C433.454 243.032 435.241 238.292 439.266 236.472C443.294 234.649 448.032 236.439 449.852 240.464L454.303 250.305C454.442 247.209 454.511 244.112 454.511 241.022C454.511 127.152 361.87 34.511 248 34.511C220.772 34.511 194.295 39.739 169.305 50.048C165.22 51.733 160.543 49.788 158.858 45.704ZM334.261 437.645C335.886 441.754 333.871 446.402 329.763 448.026C303.734 458.316 276.225 463.534 248 463.534C188.565 463.534 132.688 440.388 90.6608 398.362C48.6348 356.335 25.4888 300.458 25.4888 241.023C25.4888 230.391 26.2418 219.794 27.7358 209.327L21.0898 216.705C18.1318 219.986 13.0738 220.253 9.79081 217.295C6.50881 214.338 6.24381 209.279 9.20081 205.997L35.8358 176.426C37.7488 174.302 40.6508 173.358 43.4438 173.955C46.2398 174.55 48.5058 176.59 49.3878 179.309L61.6798 217.161C63.0448 221.363 60.7438 225.876 56.5418 227.241C52.3458 228.606 47.8268 226.306 46.4628 222.103L43.4148 212.72C42.1338 222.07 41.4868 231.532 41.4868 241.024C41.4868 354.895 134.128 447.535 247.998 447.535C274.2 447.535 299.73 442.694 323.878 433.148C327.989 431.523 332.637 433.535 334.261 437.645Z" fill="#1062A5"></path>
</svg>
