<?xml version="1.0" encoding="UTF-8"?>
<svg xmlns="http://www.w3.org/2000/svg" width="100" height="100" viewBox="0 0 100 100" fill="none">
  <path d="M98.3323 58.333H93.2206L89.9992 11.5533C89.9388 10.6775 89.2106 9.99878 88.3323 10H78.3323C77.454 9.99878 76.7259 10.6775 76.6655 11.5533L73.444 58.333H69.9998V48.333C69.9998 47.4132 69.2534 46.6662 68.3336 46.6662C67.9539 46.6656 67.5865 46.795 67.2911 47.0318L53.333 58.1981V48.333C53.333 47.4132 52.5872 46.6662 51.6667 46.6662C51.2877 46.6656 50.9203 46.795 50.6249 47.0318L36.6668 58.1981V48.333C36.6668 47.4132 35.9209 46.6662 35.0005 46.6662C34.6215 46.6656 34.2535 46.795 33.9587 47.0318L20.0006 58.1981V48.333C20 47.4132 19.2535 46.6668 18.3337 46.6668C18.0304 46.6668 17.7343 46.7492 17.4749 46.9048L0.808104 56.9048C0.307006 57.2063 0 57.7477 0 58.333V98.3329C0 99.2533 0.746458 99.9992 1.66687 99.9992H98.3323C99.2527 99.9992 99.9992 99.2533 99.9992 98.3329V59.9999C99.9992 59.0789 99.2527 58.333 98.3323 58.333ZM79.8887 13.3331H86.7759L89.8802 58.333H76.7845L79.8887 13.3331ZM56.6655 96.6661V76.6661H66.6655V96.6661H56.6655ZM96.666 96.6661H69.9998V74.9992C69.9998 74.0794 69.2528 73.333 68.3324 73.333H54.9993C54.0789 73.333 53.3324 74.0794 53.3324 74.9992V96.6661H3.33312V59.2766L16.6662 51.2768V61.6661C16.6662 62.5872 17.4121 63.333 18.3325 63.3342C18.7109 63.3342 19.0789 63.2048 19.375 62.968L33.3331 51.8017V61.6661C33.3331 62.5872 34.0783 63.333 34.9993 63.3342C35.3777 63.3342 35.7452 63.2048 36.0412 62.9686L49.9993 51.8023V61.6668C49.9993 62.5872 50.7445 63.3342 51.6655 63.3342C52.0439 63.3342 52.4114 63.2048 52.7074 62.9686L66.6655 51.8023V59.9999C66.6655 60.9209 67.4119 61.6668 68.3324 61.6668H96.6648V96.6661H96.666Z" fill="#075DA5"></path>
  <path d="M56.6536 3.33457C57.2596 3.65928 57.8071 4.08286 58.274 4.58762C59.2085 5.72715 60.5391 6.46933 61.9984 6.6677C63.5359 6.47177 64.9397 5.69724 65.9254 4.50095C66.3472 4.05845 66.819 3.66722 67.3323 3.33457C67.6753 3.34983 68.5737 4.1909 69.0571 4.64256C69.9562 5.75522 71.2477 6.47971 72.6649 6.6677C74.3018 6.46018 75.7978 5.63926 76.8519 4.37095C77.2602 3.98765 77.8785 3.40599 77.9981 3.33457C78.8929 3.33457 79.098 3.6312 79.6485 4.42466C80.3718 5.79123 81.7853 6.65244 83.332 6.6677C84.2518 6.6677 84.9982 5.92124 84.9982 5.00144C84.9982 4.08042 84.2518 3.33457 83.332 3.33457C82.9981 3.33457 82.9334 3.31138 82.392 2.52952C81.507 0.939561 79.817 -0.0327273 77.9981 0.000842066C76.6499 0.18822 75.4231 0.881577 74.5686 1.94115C74.015 2.46299 73.0872 3.33457 72.7351 3.34251C72.2187 3.03001 71.7475 2.64915 71.3313 2.21153C70.3291 0.99083 68.8984 0.200427 67.3316 0.000842066C65.8869 0.197985 64.571 0.934067 63.6464 2.06077C63.1788 2.56248 62.6387 2.99156 62.0448 3.33457C61.4894 3.01597 60.984 2.61802 60.5452 2.15111C59.571 0.968247 58.1843 0.200427 56.6646 0.000842066C55.7448 -0.00220968 54.9952 0.741197 54.9922 1.66222C54.9891 2.58201 55.7332 3.33152 56.6536 3.33457Z" fill="#075DA5"></path>
  <path d="M18.3337 76.666H11.6663C10.7458 76.666 10 77.4125 10 78.3323V88.3322C10 89.2533 10.7458 89.9991 11.6663 89.9991H18.3337C19.2535 89.9991 20 89.2533 20 88.3322V78.3323C20 77.4125 19.2535 76.666 18.3337 76.666ZM16.6662 86.666H13.3331V79.9997H16.6662V86.666Z" fill="#075DA5"></path>
  <path d="M31.6658 76.666H24.9989C24.0779 76.666 23.332 77.4125 23.332 78.3323V88.3322C23.332 89.2533 24.0779 89.9991 24.9989 89.9991H31.6658C32.5856 89.9991 33.332 89.2533 33.332 88.3322V78.3323C33.332 77.4125 32.5856 76.666 31.6658 76.666ZM29.9983 86.666H26.6652V79.9997H29.9983V86.666Z" fill="#075DA5"></path>
  <path d="M45.0017 76.666H38.3348C37.4138 76.666 36.668 77.4125 36.668 78.3323V88.3322C36.668 89.2533 37.4138 89.9991 38.3348 89.9991H45.0017C45.9215 89.9991 46.6679 89.2533 46.6679 88.3322V78.3323C46.6679 77.4125 45.9215 76.666 45.0017 76.666ZM43.3342 86.666H40.0011V79.9997H43.3342V86.666Z" fill="#075DA5"></path>
</svg>
