<?xml version="1.0" encoding="UTF-8"?>
<svg xmlns="http://www.w3.org/2000/svg" version="1.2" viewBox="0 0 42 42" width="42" height="42">
  <title>New Project</title>
  <style>
		.s0 { fill: #004580 } 
	</style>
  <g id="noun-wholesale-6862842">
    <path id="Path 80" fill-rule="evenodd" class="s0" d="m42 34.9v2.9c0 0.7-0.6 1.3-1.3 1.3h-2.4v1.6c0 0.7-0.5 1.3-1.2 1.3h-4.4c-0.7 0-1.3-0.6-1.3-1.3v-1.6h-20.8v1.6c0 0.7-0.6 1.3-1.3 1.3h-4.4c-0.7 0-1.2-0.6-1.2-1.3v-1.6h-2.4c-0.7 0-1.3-0.6-1.3-1.3v-2.9c0-0.6 0.4-1.1 1-1.3q-0.3-0.4-0.3-0.9v-8.8c0-0.6 0.3-1.1 0.7-1.4-0.4-0.4-0.7-0.9-0.7-1.5v-8.8c0-1.1 0.9-2 2-2h5.6c1.3-5.8 6.5-10.2 12.7-10.2 6.2 0 11.4 4.4 12.7 10.2h5.6c1.1 0 2 0.9 2 2v8.8c0 0.6-0.3 1.1-0.7 1.5 0.4 0.3 0.7 0.8 0.7 1.4v8.8q0 0.5-0.3 0.9c0.6 0.2 1 0.7 1 1.3zm-2.7-11.9h-2.4v3.1c0 0.7-0.6 1.3-1.3 1.3h-2.9c-0.7 0-1.3-0.6-1.3-1.3v-3.1h-2.2q-0.5 0.4-1.1 0.8 0 0 0 0.1v8.8c0 0.5 0.4 0.9 0.9 0.9h10.3c0.5 0 0.9-0.4 0.9-0.9v-8.8c0-0.5-0.4-0.9-0.9-0.9zm-23.4 10.6h10.2c0.5 0 0.9-0.4 0.9-0.9v-8.3q-1.5 0.9-3.3 1.2v0.5c0 0.7-0.5 1.3-1.2 1.3h-3c-0.7 0-1.2-0.6-1.2-1.3v-0.5q-1.8-0.3-3.3-1.2v8.3c0 0.5 0.4 0.9 0.9 0.9zm3.5-7.5c0 0.1 0 0.2 0.1 0.2h3c0.1 0 0.1-0.1 0.1-0.2v-0.3q-0.8 0.1-1.6 0.1-0.8 0-1.6-0.1zm13.1 0c0 0.1 0.1 0.2 0.2 0.2h2.9c0.1 0 0.2-0.1 0.2-0.2v-3.1h-3.3zm6.8-14.8h-2.4v3.1c0 0.7-0.6 1.3-1.3 1.3h-1.9c-0.5 2.4-1.7 4.5-3.3 6.2h8.9c0.5 0 0.9-0.4 0.9-0.9v-8.8c0-0.5-0.4-0.9-0.9-0.9zm-5.5 0q0.2 0.8 0.2 1.7 0 0.8-0.2 1.6h1.8c0.1 0 0.2-0.1 0.2-0.2v-3.1zm-24.7 1.7c0 6.5 5.3 11.8 11.8 11.8 6.6 0 11.9-5.3 11.9-11.8 0-6.6-5.3-11.9-11.9-11.9-6.5 0-11.8 5.3-11.8 11.9zm-6.4 8.9h8.9c-1.6-1.7-2.8-3.8-3.3-6.2h-2c-0.7 0-1.2-0.6-1.2-1.3v-3.1h-2.4c-0.5 0-0.9 0.4-0.9 0.9v8.8c0 0.5 0.4 0.9 0.9 0.9zm3.5-10.6v3.1c0 0.1 0 0.2 0.1 0.2h1.8q-0.1-0.8-0.1-1.6 0-0.9 0.1-1.7zm-3.5 11.7c-0.5 0-0.9 0.4-0.9 0.9v8.8c0 0.5 0.4 0.9 0.9 0.9h10.3c0.5 0 0.9-0.4 0.9-0.9v-8.8q0-0.1-0.1-0.1-0.5-0.4-1-0.8h-2.2v3.1c0 0.7-0.6 1.3-1.3 1.3h-2.9c-0.7 0-1.3-0.6-1.3-1.3v-3.1zm3.5 3.1c0 0.1 0.1 0.2 0.2 0.2h2.9c0.1 0 0.2-0.1 0.2-0.2v-3.1h-3.3zm3.3 13h-4.8v1.6c0 0.1 0.1 0.2 0.2 0.2h4.4c0.1 0 0.2-0.1 0.2-0.2zm27.7 0h-4.7v1.7c0 0.1 0 0.1 0.1 0.1h4.4c0.1 0 0.2 0 0.2-0.1zm3.7-4.2c0-0.1-0.1-0.2-0.2-0.2h-39.5c-0.1 0-0.1 0.1-0.1 0.2v2.9c0 0.1 0 0.2 0.1 0.2h39.5c0.1 0 0.2-0.1 0.2-0.2zm-25.4-17.2l10.2-10.2c0.2-0.2 0.5-0.2 0.8 0 0.2 0.2 0.2 0.5 0 0.7l-10.3 10.3q-0.1 0.1-0.4 0.1-0.2 0-0.3-0.1c-0.3-0.2-0.3-0.6 0-0.8zm-1.4-8.9c0-1.5 1.2-2.7 2.7-2.7 1.5 0 2.8 1.2 2.8 2.7 0 1.5-1.3 2.8-2.8 2.8-1.5 0-2.7-1.3-2.7-2.8zm1.1 0c0 0.9 0.7 1.7 1.6 1.7 0.9 0 1.7-0.8 1.7-1.7 0-0.9-0.8-1.6-1.7-1.6-0.9 0-1.6 0.7-1.6 1.6zm9.9 5.6c1.5 0 2.7 1.2 2.7 2.7 0 1.5-1.2 2.7-2.7 2.7-1.5 0-2.7-1.2-2.7-2.7 0-1.5 1.2-2.7 2.7-2.7zm0 1.1c-0.9 0-1.7 0.7-1.7 1.6 0 0.9 0.8 1.6 1.7 1.6 0.9 0 1.6-0.7 1.6-1.6 0-0.9-0.7-1.6-1.6-1.6z"></path>
  </g>
</svg>
