<?xml version="1.0" encoding="UTF-8"?>
<svg xmlns="http://www.w3.org/2000/svg" version="1.2" viewBox="0 0 66 57" width="66" height="57">
  <title>New Project</title>
  <style>
		.s0 { fill: #004580 } 
	</style>
  <path id="Path 68" fill-rule="evenodd" class="s0" d="m43.3 19.2l12.7 4.3c0.4 0.1 0.6 0.4 0.6 0.7 0 5-0.4 10.2-2.2 14.6-2 5-6.1 8.7-11.1 10.2q-0.3 0.1-0.5 0c-5.1-1.5-9.2-5.2-11.1-10.2l-0.1-0.1h-24.1c-1 0-1.9-0.3-2.8-0.7-1.2-0.8-2.1-2-2.5-3.4-0.4-1.4-0.2-2.8 0.5-4.1l7.8-13.4 7.7-13.4c0.5-0.8 1.2-1.5 2-2 1.7-0.9 3.8-0.9 5.4 0 0.9 0.5 1.6 1.2 2 2l7.8 13.4v0.1l2.2 3.7 5.2-1.7q0.2-0.1 0.5 0zm0.2-3.2c0.3 0.3 0.3 0.8 0 1.2-0.4 0.3-0.9 0.3-1.2 0l-2.3-2.4c-0.2-0.1-0.3-0.4-0.3-0.6 0-0.2 0.1-0.5 0.3-0.6l2.4-2.3c0.2-0.3 0.5-0.3 0.8-0.3 0.3 0.1 0.5 0.3 0.6 0.6 0 0.3-0.1 0.6-0.3 0.8l-0.8 0.8h0.3c10.2 0 19 7.4 20.6 17.5 1.7 10.1-4.2 19.9-13.9 23.2-9.7 3.3-20.3-0.9-25.1-10-0.2-0.4-0.1-0.9 0.3-1.1 0.4-0.2 0.9 0 1.1 0.4 4.5 8.3 14.3 12.2 23.2 9.1 8.9-3 14.3-12 12.8-21.3-1.5-9.3-9.6-16.1-19-16.1q-0.3 0-0.6 0c0 0 1.1 1.1 1.1 1.1zm-0.5 4.8l-11.9 4c0 4.4 0.4 8.8 1.8 12.7q0 0.1 0.1 0.1 0.1 0.3 0.2 0.6c1.7 4.4 5.3 7.8 9.8 9.2 4.5-1.4 8.1-4.8 9.8-9.2 1.7-4 2.1-8.8 2.2-13.4l-5.9-1.9c0 0-6.1-2.1-6.1-2.1zm0 6.3c3.4 0 6.3 2.4 6.9 5.6 0.7 3.3-1.1 6.6-4.2 7.9-3.1 1.3-6.7 0.2-8.5-2.6-1.9-2.8-1.5-6.5 0.9-8.9 1.3-1.3 3.1-2 4.9-2zm-12 9.9c-1.3-4-1.6-8.5-1.6-12.8 0-0.3 0.3-0.7 0.7-0.8l5.9-1.9-2-3.5q0 0-0.1-0.1l-7.7-13.4c-0.3-0.5-0.8-1-1.4-1.4-1.2-0.6-2.6-0.6-3.8 0-0.6 0.4-1 0.9-1.4 1.4l-7.7 13.4-7.7 13.4c-1.1 1.9-0.5 4.2 1.4 5.2 0.5 0.4 1.2 0.5 1.9 0.5zm15.8-6.7c-1.9-1.8-4.7-2.1-6.8-0.7-2.2 1.5-3 4.2-2 6.6 1 2.3 3.5 3.7 6 3.2 2.5-0.5 4.3-2.7 4.3-5.3 0-1.4-0.5-2.8-1.5-3.8zm-6.9 4.4c-0.3-0.4-0.3-0.9 0-1.2 0.3-0.3 0.8-0.3 1.1-0.1l1.2 1.2 2.7-2.7c0.3-0.3 0.8-0.3 1.2 0 0.3 0.3 0.3 0.8 0 1.1l-3.2 3.3c-0.3 0.4-0.9 0.4-1.2 0.1 0 0-1.8-1.7-1.8-1.7zm-17.1-7.3c1.2 0 2.2 0.9 2.4 2 0.3 1.2-0.4 2.3-1.4 2.7-1.1 0.5-2.4 0.1-3-0.9-0.7-0.9-0.5-2.2 0.3-3.1 0.5-0.4 1.1-0.7 1.7-0.7zm0 1.7c-0.4 0-0.7 0.2-0.8 0.6 0 0.4 0.2 0.8 0.5 0.9 0.4 0.2 0.8 0.1 1-0.3 0.2-0.3 0.2-0.7-0.1-1q-0.2-0.2-0.6-0.2zm2.5-13.6c0 0.4 0 0.6 0 1-0.1 2-0.2 5.4-0.4 8-0.1 0.8-0.5 1.4-1.2 1.8-0.5 0.2-1.2 0.2-1.8 0-0.6-0.4-1.1-1-1.1-1.8-0.2-2.5-0.3-5.7-0.4-7.7q0-0.7 0-1.3c-0.1-0.9 0.5-1.9 1.4-2.2 0.6-0.3 1.4-0.3 2.1 0 0.9 0.3 1.5 1.3 1.4 2.2zm-1.7 0c0.1-0.3-0.1-0.6-0.4-0.7q-0.2-0.1-0.4-0.1-0.2 0-0.4 0.1c-0.2 0.1-0.4 0.4-0.4 0.7q0 0.5 0.1 1.3c0 1.9 0.1 5 0.3 7.6q0 0.3 0.2 0.4 0.1 0 0.2 0 0.1 0 0.2 0c0.2-0.1 0.2-0.2 0.2-0.4 0.2-2.7 0.3-6 0.4-8 0-0.4 0-0.7 0-0.9z"></path>
</svg>
