<?xml version="1.0" encoding="UTF-8"?>
<svg xmlns="http://www.w3.org/2000/svg" width="1614" height="1659" viewBox="0 0 1614 1659" fill="none">
  <path fill-rule="evenodd" clip-rule="evenodd" d="M1577.35 997.483C1600.51 1020.57 1613.48 1052.02 1613.48 1084.72C1613.48 1117.42 1600.51 1148.88 1577.35 1171.96L1196.89 1552.36C1165.64 1583.81 1123.03 1601.45 1078.67 1601.38H316.64V1633.67C316.64 1647.06 305.62 1658.08 292.229 1658.08H24.4107C11.0198 1658.08 0 1647.06 0 1633.67C0 1620.28 11.0197 1609.26 24.4107 1609.26H267.75V991.216H24.4107C11.0198 991.216 0 980.198 0 966.809C0 953.42 11.0197 942.402 24.4107 942.402H292.229C305.55 942.402 316.57 953.42 316.57 966.809V999.026H480.261V526.237L425.022 562.848C421.047 565.498 416.304 566.962 411.561 566.962C403.331 566.962 395.729 562.848 391.196 556.014L314.199 439.977C306.806 428.82 309.875 413.547 321.034 406.157L927.106 4.07946C935.266 -1.35982 945.937 -1.35982 954.097 4.07946L1560.24 406.157C1571.4 413.548 1574.47 428.82 1567.08 439.977L1490.08 556.014C1482.69 567.172 1467.41 570.24 1456.25 562.848L1401.01 526.237V999.24L1402.76 997.497C1450.67 949.659 1529.41 949.659 1577.33 997.497L1577.35 997.483ZM1542.83 1137.51V1137.44C1557.19 1123.42 1565.35 1104.18 1565.35 1084.09C1565.35 1043.16 1531.67 1009.48 1490.73 1009.48C1470.64 1009.48 1451.32 1017.57 1437.3 1032L1190.89 1278.38C1181.76 1338.42 1129.73 1383.25 1068.98 1383.39H715.799C702.409 1383.39 691.389 1372.38 691.389 1358.99C691.389 1345.6 702.408 1334.58 715.799 1334.58H1068.98C1109.92 1334.58 1143.61 1300.9 1143.61 1259.96C1143.61 1219.03 1109.92 1185.35 1068.98 1185.35H778.076C771.45 1185.35 765.104 1182.63 760.5 1177.89L694.103 1108.99C656.441 1070.08 604.621 1048.04 550.429 1047.9H316.57V1552.57H1078.75C1110.13 1552.64 1140.33 1540.09 1162.44 1517.85L1542.83 1137.51ZM529.1 493.861V999.087H550.441C617.883 999.296 682.397 1026.7 729.273 1075.17L788.416 1136.53H1069C1120.05 1136.6 1166.01 1168.33 1184.22 1216.03L1352.23 1047.97V493.865L940.667 220.785L529.1 493.861ZM940.665 987.786C800.269 987.647 684.845 872.167 684.702 731.862C684.702 591.418 800.269 475.938 940.665 475.938C1081.06 475.938 1196.63 591.418 1196.63 731.862C1196.63 872.237 1081.06 987.786 940.665 987.786ZM940.665 524.745C827.051 524.884 733.659 618.258 733.517 731.862C733.517 845.528 827.044 938.979 940.665 938.979C1054.29 938.979 1147.81 845.536 1147.81 731.862C1147.81 618.265 1054.29 524.745 940.665 524.745ZM859.971 792.594C877.686 809.47 899.726 821.186 923.648 826.554V749.428C874.966 736.807 842.117 719.373 842.117 672.721C842.117 629.974 874.966 597.129 923.648 591.202V567.074H959.635V591.62C990.533 594.828 1019.62 607.728 1042.77 628.439L1015.85 664.841C999.877 650.406 980.557 640.225 959.635 635.134V709.471C1013.9 721.744 1049.88 740.363 1049.88 788.619C1049.88 834.085 1017.04 867.349 959.635 871.323V896.637H923.648V870.137C889.194 866.232 856.833 851.378 831.445 827.809L859.971 792.594ZM891.985 668.329C891.985 684.159 902.307 692.458 923.648 699.988V634.298C906.491 636.878 893.309 651.106 891.985 668.329ZM959.637 758.565V828.996C986.558 825.858 1000.44 810.796 1000.44 793.431C1000.44 775.162 987.745 766.932 959.637 758.565ZM418.43 508.639L927.142 171.132C935.302 165.693 945.973 165.693 954.133 171.132L1462.92 508.639L1512.92 433.326L940.667 53.6167L368.411 433.326L418.43 508.639Z" fill="#045BA2"></path>
</svg>
