<?xml version="1.0" encoding="UTF-8"?>
<svg xmlns="http://www.w3.org/2000/svg" width="61" height="39" viewBox="0 0 61 39" fill="none">
  <path d="M27.832 9.28498C26.5139 9.28958 25.3517 10.1522 24.9657 11.4129L9.80317 4.9128C7.19771 3.79433 4.17587 4.34919 2.1377 6.3202L1.55155 6.8861C1.00221 7.41704 0.69257 8.14903 0.695331 8.91324C0.699472 9.9314 1.24605 10.87 2.12942 11.3765C3.26582 11.999 4.67828 11.7832 5.57683 10.8497L5.71762 10.7094C5.92833 10.4955 6.22371 10.3873 6.5223 10.414C6.82136 10.4403 7.09281 10.5994 7.26258 10.847L19.7746 29.2016C20.7099 30.5754 22.2646 31.3976 23.9264 31.3967H45.9235C46.7885 31.3962 47.6125 31.0267 48.188 30.3803L60.2588 16.9817C60.9871 16.1448 61.1974 14.9758 60.8054 13.9374L57.7905 5.89692C57.4859 5.07567 56.8372 4.42833 56.0155 4.12605C55.214 3.83252 54.326 3.89003 53.5692 4.28386L41.7795 9.28498H37.8831V6.26959C39.5481 6.26959 40.898 4.9197 40.898 3.25465C40.898 1.58915 39.5481 0.239258 37.8831 0.239258H31.8523C30.1872 0.239258 28.8373 1.58915 28.8373 3.25465C28.8373 4.9197 30.1872 6.26959 31.8523 6.26959V9.28498H27.832ZM41.9838 11.2951C42.1181 11.2951 42.2516 11.2684 42.3753 11.216L54.396 6.12006C54.4272 6.1058 54.4585 6.092 54.4884 6.07589C54.7433 5.93557 55.0461 5.91348 55.3189 6.01424C55.5913 6.11546 55.8061 6.33032 55.9078 6.60269L58.9232 14.6431C59.0539 14.9836 58.9894 15.3682 58.7553 15.648L46.6891 29.0406C46.4963 29.2614 46.2166 29.3875 45.9235 29.3865H23.9264C22.9289 29.3861 21.9963 28.8929 21.435 28.0689L8.91981 9.7101C8.41233 8.96983 7.6012 8.49456 6.70726 8.41266C5.81331 8.33123 4.92995 8.65191 4.29641 9.2882L4.15563 9.42853C3.89568 9.71378 3.48022 9.79522 3.13148 9.62959C2.87245 9.48328 2.7105 9.21045 2.70544 8.91324C2.70498 8.69331 2.79378 8.4826 2.95159 8.32939L3.53451 7.76624C4.99298 6.36069 7.15124 5.96455 9.0132 6.76142L25.4263 13.7966C25.5579 13.8246 25.6899 13.8518 25.8219 13.878C25.9526 13.8766 26.0819 13.8504 26.2029 13.8007C26.3115 13.7322 26.4182 13.6613 26.5236 13.5877C26.5976 13.5109 26.6588 13.4225 26.7044 13.3264C26.7154 13.3052 26.7347 13.2914 26.7435 13.2693C26.767 13.1989 26.7821 13.1267 26.789 13.0531C26.8065 12.9951 26.8194 12.9353 26.8272 12.875V12.3004C26.8272 11.7451 27.2772 11.2951 27.832 11.2951H41.9838ZM30.8474 3.25465C30.8474 2.69933 31.2974 2.24937 31.8523 2.24937H37.8831C38.4379 2.24937 38.8879 2.69933 38.8879 3.25465C38.8879 3.80952 38.4379 4.25948 37.8831 4.25948H31.8523C31.2974 4.25948 30.8474 3.80952 30.8474 3.25465ZM33.8624 6.26959H35.873V9.28498H33.8624V6.26959Z" fill="#1062A5"></path>
  <path d="M45.8842 25.4778C46.4657 25.705 47.1278 25.5472 47.5446 25.0816L56.2232 15.4833C56.6014 15.0651 56.7146 14.4707 56.5167 13.9425L55.0251 9.95634C54.883 9.57769 54.5949 9.2722 54.225 9.10795C53.8556 8.94416 53.4355 8.93542 53.0592 9.08402L45.8717 11.9527C45.2953 12.1786 44.9166 12.7353 44.918 13.3545V24.0708C44.9152 24.6952 45.3003 25.256 45.8842 25.4778ZM46.9281 13.6955L53.3224 11.1424L54.5287 14.3589L46.9281 22.766V13.6955Z" fill="#1062A5"></path>
  <path d="M7.73076 38.4328C9.60929 38.4751 11.4239 37.7477 12.7526 36.419C14.0813 35.0902 14.8087 33.2757 14.7659 31.3971C14.7659 28.1186 10.7839 22.8069 9.24904 21.0356C8.85751 20.6132 8.30725 20.373 7.73122 20.373C7.15474 20.373 6.60493 20.6132 6.21294 21.0356C4.67718 22.8069 0.695146 28.1186 0.695146 31.3971C0.652358 33.2757 1.37975 35.0902 2.70848 36.419C4.0372 37.7477 5.85178 38.4751 7.73076 38.4328ZM7.73076 22.3514C9.75698 24.69 12.7558 29.186 12.7558 31.3971C12.8023 32.7433 12.2879 34.0491 11.3351 35.0014C10.3827 35.9543 9.07697 36.4687 7.73076 36.4222C6.38409 36.4687 5.07883 35.9543 4.126 35.0014C3.17316 34.0491 2.65879 32.7433 2.70526 31.3971C2.70526 29.186 5.70455 24.6914 7.73076 22.3514Z" fill="#1062A5"></path>
  <path d="M30.847 13.3057H29.8417C29.2869 13.3057 28.8369 13.7556 28.8369 14.3109C28.8369 14.8658 29.2869 15.3158 29.8417 15.3158H30.847C31.4019 15.3158 31.8518 14.8658 31.8518 14.3109C31.8518 13.7556 31.4019 13.3057 30.847 13.3057Z" fill="#1062A5"></path>
  <path d="M33.8623 14.3109C33.8623 14.8658 34.3127 15.3158 34.8676 15.3158H38.8878C39.4431 15.3158 39.8931 14.8658 39.8931 14.3109C39.8931 13.7556 39.4431 13.3057 38.8878 13.3057H34.8676C34.3127 13.3057 33.8623 13.7556 33.8623 14.3109Z" fill="#1062A5"></path>
  <path d="M6.40823 34.3609C6.74915 34.4746 7.12504 34.3973 7.39373 34.1585C7.66242 33.9197 7.78388 33.5558 7.71165 33.2038C7.63895 32.8514 7.38452 32.5648 7.04314 32.4511C6.2794 32.1972 6.1607 31.8562 6.12159 31.7477C6.03694 31.1114 6.19291 30.4663 6.55867 29.9386C6.86601 29.4762 6.74041 28.8524 6.27802 28.545C5.81564 28.2377 5.19176 28.3637 4.88442 28.8261C4.17129 29.8687 3.92975 31.1634 4.21914 32.3932C4.58491 33.3662 5.40156 34.1005 6.40823 34.3609Z" fill="#1062A5"></path>
</svg>
