<?xml version="1.0" encoding="UTF-8"?>
<svg xmlns="http://www.w3.org/2000/svg" width="49" height="49" viewBox="0 0 49 49" fill="none">
  <path d="M29.3014 8.85028H26.8432V6.39213C26.8432 6.17482 26.7569 5.96641 26.6032 5.81275C26.4496 5.65908 26.2412 5.57275 26.0238 5.57275H22.7463C22.529 5.57275 22.3206 5.65908 22.1669 5.81275C22.0133 5.96641 21.9269 6.17482 21.9269 6.39213V8.85028H19.4688C19.2515 8.85028 19.0431 8.9366 18.8894 9.09027C18.7357 9.24393 18.6494 9.45234 18.6494 9.66966V12.9472C18.6494 13.1645 18.7357 13.3729 18.8894 13.5266C19.0431 13.6802 19.2515 13.7666 19.4688 13.7666H21.9269V16.2247C21.9269 16.442 22.0133 16.6504 22.1669 16.8041C22.3206 16.9578 22.529 17.0441 22.7463 17.0441H26.0238C26.2412 17.0441 26.4496 16.9578 26.6032 16.8041C26.7569 16.6504 26.8432 16.442 26.8432 16.2247V13.7666H29.3014C29.5187 13.7666 29.7271 13.6802 29.8808 13.5266C30.0344 13.3729 30.1207 13.1645 30.1207 12.9472V9.66966C30.1207 9.45234 30.0344 9.24393 29.8808 9.09027C29.7271 8.9366 29.5187 8.85028 29.3014 8.85028ZM28.482 12.1278H26.0238C25.8065 12.1278 25.5981 12.2141 25.4444 12.3678C25.2908 12.5215 25.2045 12.7299 25.2045 12.9472V15.4053H23.5657V12.9472C23.5657 12.7299 23.4794 12.5215 23.3257 12.3678C23.172 12.2141 22.9636 12.1278 22.7463 12.1278H20.2882V10.489H22.7463C22.9636 10.489 23.172 10.4027 23.3257 10.249C23.4794 10.0954 23.5657 9.88697 23.5657 9.66966V7.21152H25.2045V9.66966C25.2045 9.88697 25.2908 10.0954 25.4444 10.249C25.5981 10.4027 25.8065 10.489 26.0238 10.489H28.482V12.1278Z" fill="#1062A5"></path>
  <path d="M47.1061 13.2423C47.1227 13.0981 47.1309 12.9531 47.1307 12.808C47.1267 12.057 46.8662 11.3298 46.3923 10.7471C45.9184 10.1644 45.2596 9.76119 44.5251 9.60426C43.6943 9.44611 42.8344 9.60946 42.1194 10.0613C41.4045 10.513 40.8878 11.2195 40.674 12.0378L37.0687 22.4112C37.0153 22.4324 36.9633 22.457 36.913 22.4849L29.6697 26.7293C28.5613 27.3804 27.642 28.3094 27.0025 29.4245C26.3631 30.5396 26.0256 31.8022 26.0235 33.0877V40.8063C25.8062 40.8063 25.5978 40.8926 25.4441 41.0463C25.2904 41.1999 25.2041 41.4083 25.2041 41.6256V48.1807C25.2041 48.398 25.2904 48.6064 25.4441 48.7601C25.5978 48.9137 25.8062 49.0001 26.0235 49.0001H37.4948C37.7121 49.0001 37.9205 48.9137 38.0742 48.7601C38.2279 48.6064 38.3142 48.398 38.3142 48.1807V41.6256C38.3142 41.4083 38.2279 41.1999 38.0742 41.0463C37.9205 40.8926 37.7121 40.8063 37.4948 40.8063V39.0036C37.4963 38.6575 37.57 38.3156 37.7111 37.9996C37.8522 37.6836 38.0576 37.4004 38.3142 37.1682L43.8532 32.2437C44.4591 31.7136 44.8928 31.0146 45.0987 30.2363L48.6548 16.9377C48.7307 16.66 48.7693 16.3734 48.7695 16.0856C48.7663 15.5073 48.6109 14.9401 48.3189 14.441C48.0269 13.9419 47.6086 13.5285 47.1061 13.2423ZM42.239 12.5213C42.3396 12.0975 42.5962 11.7272 42.9576 11.4843C43.3191 11.2413 43.7588 11.1434 44.1891 11.2102C44.5564 11.2872 44.8862 11.4878 45.1233 11.7786C45.3604 12.0694 45.4905 12.4328 45.492 12.808V12.8244C44.7601 12.838 44.0526 13.0903 43.4773 13.5429C42.9019 13.9955 42.4901 14.6236 42.3046 15.3317L40.0185 22.3866C39.6724 22.2224 39.3013 22.1172 38.9205 22.0752L42.239 12.5213ZM36.6754 47.3613H26.8429V42.445H36.6754V47.3613ZM47.0734 16.5116L43.5091 29.8184C43.3857 30.2808 43.1293 30.6968 42.7716 31.0147L37.2244 35.9391C36.7952 36.3262 36.4517 36.7988 36.216 37.3266C35.9804 37.8544 35.8577 38.4256 35.856 39.0036V40.8063H27.6622V33.0877C27.6663 32.088 27.9297 31.1065 28.4266 30.239C28.9235 29.3715 29.637 28.6478 30.4973 28.1386L37.7324 23.9024C37.919 23.7938 38.1252 23.723 38.3391 23.6942C38.5531 23.6655 38.7707 23.6793 38.9793 23.7349C39.1879 23.7905 39.3835 23.8867 39.5548 24.0181C39.7261 24.1495 39.8698 24.3135 39.9775 24.5006C40.1904 24.8792 40.2491 25.3253 40.1414 25.7461C40.0845 25.9538 39.9872 26.1483 39.855 26.3185C39.7228 26.4886 39.5584 26.631 39.3712 26.7375L34.6761 29.4497C34.4978 29.563 34.3701 29.7409 34.3199 29.9462C34.2696 30.1515 34.3006 30.3682 34.4063 30.5512C34.5121 30.7342 34.6845 30.8692 34.8874 30.9281C35.0904 30.987 35.3083 30.9651 35.4955 30.8672L40.1906 28.155C40.5659 27.9421 40.8947 27.6563 41.1579 27.3143C41.421 26.9724 41.6131 26.5812 41.7228 26.1639C41.9459 25.3256 41.828 24.433 41.3951 23.6812L41.3459 23.6075L43.8778 15.7988C43.9784 15.375 44.2349 15.0048 44.5964 14.7618C44.9578 14.5188 45.3975 14.421 45.8279 14.4878C46.1952 14.5647 46.5249 14.7653 46.762 15.0561C46.9992 15.3469 47.1293 15.7103 47.1307 16.0856C47.1335 16.2297 47.1141 16.3734 47.0734 16.5116Z" fill="#1062A5"></path>
  <path d="M22.746 40.8059V33.0873C22.7439 31.8019 22.4064 30.5392 21.7669 29.4241C21.1275 28.309 20.2081 27.38 19.0998 26.7289L11.8564 22.4764C11.8073 22.4518 11.7499 22.4354 11.7008 22.4108L8.12006 12.0948C7.91195 11.2646 7.39532 10.5449 6.67532 10.0821C5.95531 9.61938 5.08603 9.44836 4.24439 9.60388C3.50989 9.76081 2.85108 10.1641 2.37718 10.7467C1.90327 11.3294 1.64274 12.0566 1.63876 12.8077C1.63855 12.9528 1.64676 13.0978 1.66334 13.2419C1.16087 13.5281 0.742607 13.9415 0.450619 14.4406C0.158632 14.9397 0.00321524 15.5069 0 16.0852C0.00159145 16.3725 0.0373491 16.6585 0.106519 16.9373L3.67082 30.2277C3.87451 31.0093 4.30844 31.7115 4.91628 32.2434L10.4471 37.1679C10.7063 37.3984 10.914 37.6811 11.0566 37.9973C11.1992 38.3136 11.2735 38.6563 11.2747 39.0033V40.8059C11.0574 40.8059 10.849 40.8922 10.6953 41.0459C10.5416 41.1996 10.4553 41.408 10.4553 41.6253V48.1803C10.4553 48.3976 10.5416 48.6061 10.6953 48.7597C10.849 48.9134 11.0574 48.9997 11.2747 48.9997H22.746C22.9633 48.9997 23.1717 48.9134 23.3254 48.7597C23.4791 48.6061 23.5654 48.3976 23.5654 48.1803V41.6253C23.5654 41.408 23.4791 41.1996 23.3254 41.0459C23.1717 40.8922 22.9633 40.8059 22.746 40.8059ZM3.27752 12.8077C3.27853 12.4336 3.40751 12.0711 3.64302 11.7804C3.87852 11.4898 4.20639 11.2884 4.57214 11.2099C5.01433 11.1457 5.46443 11.251 5.83219 11.5048C6.19994 11.7586 6.45816 12.142 6.55504 12.5782L9.84895 22.0749C9.46819 22.1168 9.09709 22.222 8.75098 22.3862L6.4813 15.3723C6.29659 14.6572 5.884 14.0217 5.30596 13.5619C4.72792 13.1021 4.01587 12.8431 3.27752 12.824V12.8077ZM11.5369 35.9388L5.99787 31.0143C5.6382 30.6947 5.38154 30.2755 5.26042 29.8098L1.68792 16.5113C1.65401 16.3718 1.63749 16.2287 1.63876 16.0852C1.63977 15.7111 1.76875 15.3486 2.00425 15.0579C2.23976 14.7673 2.56763 14.5659 2.93338 14.4874C3.37246 14.4215 3.8202 14.5243 4.18656 14.7751C4.55291 15.0259 4.81071 15.4062 4.90809 15.8394L7.42359 23.6071L7.37442 23.6808C6.94146 24.4326 6.82363 25.3252 7.04667 26.1636C7.15638 26.5809 7.34846 26.972 7.6116 27.3139C7.87474 27.6559 8.20363 27.9417 8.57891 28.1547L13.274 30.8668C13.4612 30.9648 13.6791 30.9866 13.8821 30.9277C14.085 30.8688 14.2574 30.7338 14.3632 30.5508C14.4689 30.3679 14.4999 30.1511 14.4496 29.9458C14.3993 29.7406 14.2717 29.5627 14.0933 29.4493L9.39829 26.7371C9.21105 26.6306 9.04664 26.4882 8.91448 26.3181C8.78231 26.148 8.68499 25.9535 8.62808 25.7457C8.52043 25.3249 8.57913 24.8788 8.79195 24.5002C8.89901 24.3135 9.0418 24.1498 9.21216 24.0182C9.38251 23.8867 9.57711 23.7901 9.78482 23.7338C9.99254 23.6775 10.2093 23.6626 10.4228 23.6901C10.6362 23.7176 10.8422 23.7868 11.0289 23.8939L18.2722 28.1383C19.1325 28.6475 19.846 29.3712 20.3429 30.2386C20.8398 31.1061 21.1032 32.0876 21.1072 33.0873V40.8059H12.9134V39.0033C12.912 38.4244 12.7887 37.8524 12.5516 37.3244C12.3144 36.7964 11.9687 36.3243 11.5369 35.9388ZM21.9266 47.3609H12.0941V42.4447H21.9266V47.3609Z" fill="#1062A5"></path>
  <path d="M35.9761 2.40354C35.2154 1.64154 34.3119 1.03703 33.3174 0.624602C32.3228 0.212174 31.2567 -7.60863e-05 30.18 2.046e-08C29.1033 7.61272e-05 28.0372 0.212477 27.0427 0.625045C26.0482 1.03761 25.1448 1.64225 24.3843 2.40435C23.6238 1.64223 22.7205 1.03759 21.726 0.625041C20.7315 0.212492 19.6654 0.000139114 18.5888 0.000139114C17.5122 0.000139114 16.4461 0.212492 15.4516 0.625041C14.4571 1.03759 13.5538 1.64223 12.7933 2.40435C11.2597 3.94125 10.3984 6.02375 10.3984 8.19492C10.3984 10.3661 11.2597 12.4486 12.7933 13.9855L23.8058 24.998C23.9595 25.1516 24.1678 25.2379 24.3851 25.2379C24.6024 25.2379 24.8107 25.1516 24.9644 24.998L35.9769 13.9855C37.5104 12.4483 38.3716 10.3656 38.3714 8.19434C38.3713 6.02304 37.5098 3.94046 35.9761 2.40354ZM24.3843 23.2601L13.9511 12.8269C13.0351 11.9097 12.4117 10.7415 12.1595 9.47C11.9074 8.19851 12.0379 6.88081 12.5345 5.68348C13.0312 4.48615 13.8716 3.46293 14.9497 2.74319C16.0278 2.02345 17.295 1.6395 18.5913 1.63987C19.4523 1.63692 20.3054 1.80544 21.1006 2.13561C21.8959 2.46579 22.6174 2.951 23.2232 3.56296L23.805 4.14472C23.9586 4.29833 24.167 4.38462 24.3843 4.38462C24.6016 4.38462 24.8099 4.29833 24.9636 4.14472L25.547 3.56132C26.1553 2.95191 26.8778 2.46843 27.6732 2.13856C28.4685 1.80869 29.3212 1.63889 30.1822 1.63889C31.0433 1.63889 31.8959 1.80869 32.6913 2.13856C33.4866 2.46843 34.2091 2.95191 34.8175 3.56132C36.0448 4.79037 36.7342 6.45632 36.7342 8.19328C36.7342 9.93024 36.0448 11.5962 34.8175 12.8252L24.3843 23.2601Z" fill="#1062A5"></path>
</svg>
