<?xml version="1.0" encoding="UTF-8"?>
<svg xmlns="http://www.w3.org/2000/svg" version="1.2" viewBox="0 0 55 43" width="55" height="43">
  <title>New Project</title>
  <style>
		.s0 { fill: #004580 } 
	</style>
  <g id="Group 50">
    <path id="Path 77" fill-rule="evenodd" class="s0" d="m810 3132.9c0-1.5 1.2-2.7 2.7-2.7 1.4 0 2.6 1.2 2.6 2.7 0 1.5-1.2 2.7-2.6 2.7-1.5 0-2.7-1.2-2.7-2.7zm1.2 0c0 0.8 0.7 1.4 1.5 1.4 0.7 0 1.4-0.6 1.4-1.4 0-0.7-0.7-1.4-1.4-1.4-0.8 0-1.5 0.7-1.5 1.4z"></path>
    <path id="Path 78" fill-rule="evenodd" class="s0" d="m840.6 3129.9c0-2.4 2-4.4 4.4-4.4 2.5 0 4.4 2 4.4 4.4 0 2.5-1.9 4.4-4.4 4.4-2.4 0-4.4-1.9-4.4-4.4zm1.3 0c0 1.7 1.4 3.2 3.1 3.2 1.8 0 3.2-1.5 3.2-3.2 0-1.7-1.4-3.1-3.2-3.1-1.7 0-3.1 1.4-3.1 3.1z"></path>
    <path id="Path 79" fill-rule="evenodd" class="s0" d="m860.2 3132.5v22.6c0 1.9-1.5 3.4-3.4 3.4h-9.3v3.2h2.2c0.4 0 0.7 0.3 0.7 0.6 0 0.4-0.3 0.7-0.7 0.7h-18.5c-0.3 0-0.6-0.3-0.6-0.7 0-0.3 0.3-0.6 0.6-0.6h2.3v-3.2h-9.4c-1.8 0-3.4-1.5-3.4-3.4v-14.2q0 0 0.1-0.1l-3.8-2v18.4h1.7c0.3 0 0.6 0.3 0.6 0.6v4.5c0 0.3-0.3 0.6-0.6 0.6h-12.1c-0.3 0-0.6-0.3-0.6-0.6v-4.5c0-0.3 0.3-0.6 0.6-0.6h1.7v-20c-1-1.1-1.7-2.6-1.7-4.3 0-3.3 2.7-6.1 6.1-6.1 2.5 0 4.7 1.6 5.6 3.8l2.5 1.4c0.1-0.7 0.7-1.7 0.9-1.9 0.6-0.7 1.5-1 2.4-1h11v-0.9c0-0.3 0.3-0.6 0.6-0.6l1.3-0.2q0.3-0.7 0.6-1.4l-0.8-1.1c-0.2-0.2-0.2-0.6 0-0.8l2.4-2.4c0.2-0.2 0.6-0.2 0.9-0.1l1.1 0.9q0.6-0.4 1.3-0.6l0.2-1.4c0-0.3 0.3-0.5 0.6-0.5h3.4c0.3 0 0.6 0.2 0.7 0.5l0.2 1.4q0.7 0.2 1.3 0.6l1.1-0.9c0.2-0.1 0.6-0.1 0.8 0.1l2.4 2.4c0.2 0.2 0.3 0.6 0.1 0.8l-0.8 1.1q0.3 0.7 0.5 1.4l1.4 0.2c0.3 0 0.5 0.3 0.5 0.6v0.9h1.9c1.9 0 3.4 1.5 3.4 3.4zm-23.8-1.5l1.2 0.2c0.3 0.1 0.5 0.2 0.6 0.5q0.2 1 0.7 1.8c0.1 0.2 0.1 0.5 0 0.7l-0.8 1 1.6 1.6 1-0.7c0.2-0.2 0.5-0.2 0.7-0.1q0.9 0.5 1.8 0.8c0.3 0 0.5 0.2 0.5 0.5l0.2 1.2h2.3l0.1-1.2c0.1-0.3 0.3-0.5 0.5-0.5q1-0.3 1.8-0.8c0.2-0.1 0.5-0.1 0.7 0.1l1 0.7 1.6-1.6-0.7-1c-0.2-0.2-0.2-0.5-0.1-0.7q0.5-0.9 0.8-1.8c0.1-0.3 0.3-0.4 0.5-0.5l1.2-0.2v-2.2l-1.2-0.2c-0.2 0-0.4-0.2-0.5-0.5q-0.3-0.9-0.8-1.8c-0.1-0.2-0.1-0.5 0.1-0.7l0.7-1-1.6-1.6-1 0.8c-0.2 0.1-0.5 0.1-0.7 0q-0.8-0.5-1.8-0.8c-0.2 0-0.4-0.2-0.5-0.5l-0.1-1.2h-2.3l-0.2 1.2c0 0.3-0.2 0.5-0.5 0.5q-0.9 0.3-1.8 0.8c-0.2 0.1-0.5 0.1-0.7 0l-1-0.8-1.6 1.6 0.8 1c0.1 0.2 0.1 0.5 0 0.7q-0.5 0.8-0.7 1.8c-0.1 0.3-0.3 0.5-0.6 0.5l-1.2 0.2zm-23.7 6.7c2.6 0 4.8-2.2 4.8-4.8 0-2.7-2.2-4.9-4.8-4.9-2.7 0-4.9 2.2-4.9 4.9 0 2.6 2.2 4.8 4.9 4.8zm0 1.2c-1.2 0-2.2-0.3-3.1-0.8v19h6.1v-19c-0.9 0.5-1.9 0.8-3 0.8zm-5.4 19.5v3.2h10.7v-3.2zm14.5-18.5l2.6-4.5-5.6-3.2q0 0.3 0 0.7c0 1.7-0.7 3.2-1.9 4.3zm37.2-7.4c0-1.2-1-2.1-2.1-2.1h-2v1.2c0 0.3-0.2 0.6-0.5 0.6l-1.4 0.2q-0.2 0.7-0.5 1.4l0.8 1.1c0.2 0.2 0.2 0.6-0.1 0.8l-2.4 2.4c-0.2 0.2-0.5 0.3-0.8 0.1l-1.1-0.8q-0.6 0.3-1.3 0.5l-0.2 1.4c-0.1 0.3-0.4 0.5-0.7 0.5h-3.4c-0.3 0-0.6-0.2-0.6-0.5l-0.2-1.4q-0.7-0.2-1.3-0.6l-1.1 0.9c-0.3 0.1-0.6 0.1-0.9-0.1l-2.4-2.4c-0.2-0.2-0.2-0.6 0-0.8l0.8-1.1q-0.3-0.7-0.6-1.4l-1.3-0.2c-0.3 0-0.6-0.3-0.6-0.6v-1.2h-11c-0.5 0-1.1 0.2-1.5 0.6-0.1 0.1-0.5 0.8-0.8 1.5l3.2 1.8c0.5-0.8 1.6-1 2.4-0.6l2.7 1.6 5 0.4c0.2 0 0.4 0.2 0.5 0.4l1.9 5.9c0.1 0.3 0 0.6-0.2 0.8l-1.6 1.1q-0.1 0.1-0.3 0.1-0.1 0-0.2 0-0.3-0.1-0.4-0.3l-2.1-3.8-3.9-0.7-1.4 2.4 2.5 3.1h4.3q0.3 0 0.5 0.2 0.2 0.2 0.1 0.5l-0.2 1.9c0 0.2-0.2 0.5-0.5 0.5l-6 1.3q-0.1 0-0.2 0-0.3 0-0.5-0.3l-2.7-4.1-2.7-1.5v7.6h37zm-33.1 11.8l2.3 3.5 5.2-1.1 0.1-0.7h-3.9q-0.3 0-0.5-0.2l-2.3-2.9zm20.2 14.2h-11.4v3.2h11.4zm12.8-6.4h-36.9v3c0 1.2 0.9 2.1 2.1 2.1h32.7c1.1 0 2.1-0.9 2.1-2.1zm-29.9-15.8l-2.3-1.4c-0.2-0.1-0.5 0-0.6 0.2l-0.3 0.4q0 0.1 0 0.1l-3.3 5.6-0.1 0.3q-0.1 0.1-0.1 0.3 0.1 0.2 0.2 0.3l2.4 1.3zm4.1 2.5q0.4 0.1 0.5 0.3l1.9 3.5 0.6-0.5-1.7-5-4.2-0.3-0.8 1.4z"></path>
    <path id="Ellipse 22" class="s0" d="m825.9 3155.5c-0.5 0-0.8-0.4-0.8-0.9 0-0.4 0.3-0.8 0.8-0.8 0.5 0 0.9 0.4 0.9 0.8 0 0.5-0.4 0.9-0.9 0.9z"></path>
    <path id="Ellipse 23" class="s0" d="m829.7 3155.5c-0.5 0-0.9-0.4-0.9-0.9 0-0.4 0.4-0.8 0.9-0.8 0.5 0 0.8 0.4 0.8 0.8 0 0.5-0.3 0.9-0.8 0.9z"></path>
  </g>
  <path id="Path 42" fill-rule="evenodd" class="s0" d="m532.6 3477.9v-5.7c0-0.9 0.3-1.7 0.9-2.3 0.6-0.6 1.4-0.9 2.3-0.9h22.5c0.9 0 1.7 0.3 2.3 0.9 0.6 0.6 0.9 1.4 0.9 2.3v33.7c0 0.8-0.3 1.6-0.9 2.2-0.6 0.6-1.4 1-2.3 1h-19.8c-1.1 3.2-13.8 3.2-13.9-0.6v-1.8c-0.4-0.4-0.7-0.8-0.7-1.4v-2.8q0-0.1 0-0.1v-2c0-0.5 0.4-0.8 0.8-1q0-0.1 0-0.1v-1.7c-0.5-0.4-0.8-0.9-0.8-1.4v-2.9c0-0.7 0.2-1.3 1.6-2.1-5.8-5.4-0.8-15 7.1-13.3zm-7.5 15.2v0.1c0.2 0.6 2.2 1.7 5.8 1.7 3.7 0 5.8-1.2 5.8-1.7 0-0.3-0.6-0.8-1.6-1.1-2.4 1.6-6.1 1.7-8.5 0q0 0-0.1 0c-0.9 0.4-1.3 0.7-1.4 1zm8.7-14.8q1.3 0.5 2.4 1.5v-6.8c0-0.3 0.2-0.6 0.6-0.6h20.7c0.4 0 0.6 0.3 0.6 0.6v7.5c0 0.3-0.2 0.6-0.6 0.6h-20.2q0.8 1.2 1.2 2.6c4.6-0.1 14.1 0 18.8 0 0.4 0 0.6 0.3 0.6 0.6v20.5c0 0.3-0.2 0.6-0.6 0.6h-19.4q0 0.1 0 0.2c0.4 0.2 0.7 0.5 0.7 1v1.2h19.7c0.6 0 1.1-0.2 1.4-0.5 0.4-0.4 0.6-0.9 0.6-1.4v-33.7c0-0.5-0.2-1-0.6-1.4-0.3-0.4-0.8-0.6-1.4-0.6h-22.5c-0.6 0-1.1 0.2-1.4 0.6-0.4 0.4-0.6 0.9-0.6 1.4zm13.9 6.7v9h9v-9zm-1.2 19.2v-9h-8.6c0 0.1 0 1.1 0 1.1 0.4 0.2 0.8 0.6 0.8 1v2c0 0.4-0.2 0.9-0.8 1.4v3.5zm-8.5-7.9q0 0 0 0 0 0 0 0zm-7 10.8c3.7 0 5.8-1.1 5.8-1.7v-1.3c-2.7 1.6-8.9 1.6-11.6 0v1.3c0 0.6 2.1 1.7 5.8 1.7zm0-9.2c3.3 0 5.2-0.8 5.7-1.4q0-0.1 0.1-0.2c0 0.1 0-1.4 0-1.4-2.7 1.6-8.9 1.6-11.6 0v1.3c0 0.6 2.1 1.7 5.8 1.7zm16.8 6.3h9v-9h-9zm-21.8-5.9v1c0 0.5 2 1.7 5.8 1.7 3.7 0 5.7-1.2 5.7-1.8v-1.8q0 0 0 0c-1.2 1.1-3.8 1.7-6.5 1.7-1.8 0-3.7-0.3-5-0.8zm-0.7 2.2q0 0-0.1 0.1v1.6c0 0.8 2 1.8 5.8 1.8 3.7 0 5.8-1.1 5.8-1.7v-0.9c-1.5 0.5-3.1 0.8-5 0.8-2.7 0-5.3-0.6-6.5-1.7zm12.2 6.2q-0.1 0-0.1 0c-2.2 1.9-8.6 2-11.5 0.7v1.1c0 0.6 2.1 1.7 5.8 1.7 3.7 0 5.8-1.1 5.8-1.7zm-1.2-15.5c1.3 0.6 1.6 1.3 1.7 1.8 0 0.1 0 0.9 0 1h8.5v-9.1h-7.8q0.1 0.3 0.1 0.6c0 2.2-0.9 4.2-2.5 5.7zm20.7-11.3v-6.3h-19.5v6.3zm-30.7 1c-1.3 1.2-2 2.9-2 4.6 0.4 8.8 12.9 8.8 13.2 0 0-1.7-0.7-3.4-1.9-4.6-1.3-1.3-2.9-2-4.7-2-1.7 0-3.4 0.7-4.6 2z"></path>
  <g id="Group 50">
    <path id="Path 77" fill-rule="evenodd" class="s0" d="m4 12.9c0-1.5 1.2-2.7 2.7-2.7 1.4 0 2.6 1.2 2.6 2.7 0 1.5-1.2 2.7-2.6 2.7-1.5 0-2.7-1.2-2.7-2.7zm1.2 0c0 0.8 0.7 1.4 1.5 1.4 0.7 0 1.4-0.6 1.4-1.4 0-0.7-0.7-1.4-1.4-1.4-0.8 0-1.5 0.7-1.5 1.4z"></path>
    <path id="Path 78" fill-rule="evenodd" class="s0" d="m34.6 9.9c0-2.4 2-4.4 4.4-4.4 2.5 0 4.4 2 4.4 4.4 0 2.5-1.9 4.4-4.4 4.4-2.4 0-4.4-1.9-4.4-4.4zm1.3 0c0 1.7 1.4 3.2 3.1 3.2 1.8 0 3.2-1.5 3.2-3.2 0-1.7-1.4-3.1-3.2-3.1-1.7 0-3.1 1.4-3.1 3.1z"></path>
    <path id="Path 79" fill-rule="evenodd" class="s0" d="m54.2 12.5v22.6c0 1.9-1.5 3.4-3.4 3.4h-9.3v3.2h2.2c0.4 0 0.7 0.3 0.7 0.6 0 0.4-0.3 0.7-0.7 0.7h-18.5c-0.3 0-0.6-0.3-0.6-0.7 0-0.3 0.3-0.6 0.6-0.6h2.3v-3.2h-9.4c-1.8 0-3.4-1.5-3.4-3.4v-14.2q0 0 0.1-0.1l-3.8-2v18.4h1.7c0.3 0 0.6 0.3 0.6 0.6v4.5c0 0.3-0.3 0.6-0.6 0.6h-12.1c-0.3 0-0.6-0.3-0.6-0.6v-4.5c0-0.3 0.3-0.6 0.6-0.6h1.7v-20c-1-1.1-1.7-2.6-1.7-4.3 0-3.3 2.7-6.1 6.1-6.1 2.5 0 4.7 1.6 5.6 3.8l2.5 1.4c0.1-0.7 0.7-1.7 0.9-1.9 0.6-0.7 1.5-1 2.4-1h11v-0.9c0-0.3 0.3-0.6 0.6-0.6l1.3-0.2q0.3-0.7 0.6-1.4l-0.8-1.1c-0.2-0.2-0.2-0.6 0-0.8l2.4-2.4c0.2-0.2 0.6-0.2 0.9-0.1l1.1 0.9q0.6-0.4 1.3-0.6l0.2-1.4c0-0.3 0.3-0.5 0.6-0.5h3.4c0.3 0 0.6 0.2 0.7 0.5l0.2 1.4q0.7 0.2 1.3 0.6l1.1-0.9c0.2-0.1 0.6-0.1 0.8 0.1l2.4 2.4c0.2 0.2 0.3 0.6 0.1 0.8l-0.8 1.1q0.3 0.7 0.5 1.4l1.4 0.2c0.3 0 0.5 0.3 0.5 0.6v0.9h1.9c1.9 0 3.4 1.5 3.4 3.4zm-23.8-1.5l1.2 0.2c0.3 0.1 0.5 0.2 0.6 0.5q0.2 1 0.7 1.8c0.1 0.2 0.1 0.5 0 0.7l-0.8 1 1.6 1.6 1-0.7c0.2-0.2 0.5-0.2 0.7-0.1q0.9 0.5 1.8 0.8c0.3 0 0.5 0.2 0.5 0.5l0.2 1.2h2.3l0.1-1.2c0.1-0.3 0.3-0.5 0.5-0.5q1-0.3 1.8-0.8c0.2-0.1 0.5-0.1 0.7 0.1l1 0.7 1.6-1.6-0.7-1c-0.2-0.2-0.2-0.5-0.1-0.7q0.5-0.9 0.8-1.8c0.1-0.3 0.3-0.4 0.5-0.5l1.2-0.2v-2.2l-1.2-0.2c-0.2 0-0.4-0.2-0.5-0.5q-0.3-0.9-0.8-1.8c-0.1-0.2-0.1-0.5 0.1-0.7l0.7-1-1.6-1.6-1 0.8c-0.2 0.1-0.5 0.1-0.7 0q-0.8-0.5-1.8-0.8c-0.2 0-0.4-0.2-0.5-0.5l-0.1-1.2h-2.3l-0.2 1.2c0 0.3-0.2 0.5-0.5 0.5q-0.9 0.3-1.8 0.8c-0.2 0.1-0.5 0.1-0.7 0l-1-0.8-1.6 1.6 0.8 1c0.1 0.2 0.1 0.5 0 0.7q-0.5 0.8-0.7 1.8c-0.1 0.3-0.3 0.5-0.6 0.5l-1.2 0.2zm-23.7 6.7c2.6 0 4.8-2.2 4.8-4.8 0-2.7-2.2-4.9-4.8-4.9-2.7 0-4.9 2.2-4.9 4.9 0 2.6 2.2 4.8 4.9 4.8zm0 1.2c-1.2 0-2.2-0.3-3.1-0.8v19h6.1v-19c-0.9 0.5-1.9 0.8-3 0.8zm-5.4 19.5v3.2h10.7v-3.2zm14.5-18.5l2.6-4.5-5.6-3.2q0 0.3 0 0.7c0 1.7-0.7 3.2-1.9 4.3zm37.2-7.4c0-1.2-1-2.1-2.1-2.1h-2v1.2c0 0.3-0.2 0.6-0.5 0.6l-1.4 0.2q-0.2 0.7-0.5 1.4l0.8 1.1c0.2 0.2 0.2 0.6-0.1 0.8l-2.4 2.4c-0.2 0.2-0.5 0.3-0.8 0.1l-1.1-0.8q-0.6 0.3-1.3 0.5l-0.2 1.4c-0.1 0.3-0.4 0.5-0.7 0.5h-3.4c-0.3 0-0.6-0.2-0.6-0.5l-0.2-1.4q-0.7-0.2-1.3-0.6l-1.1 0.9c-0.3 0.1-0.6 0.1-0.9-0.1l-2.4-2.4c-0.2-0.2-0.2-0.6 0-0.8l0.8-1.1q-0.3-0.7-0.6-1.4l-1.3-0.2c-0.3 0-0.6-0.3-0.6-0.6v-1.2h-11c-0.5 0-1.1 0.2-1.5 0.6-0.1 0.1-0.5 0.8-0.8 1.5l3.2 1.8c0.5-0.8 1.6-1 2.4-0.6l2.7 1.6 5 0.4c0.2 0 0.4 0.2 0.5 0.4l1.9 5.9c0.1 0.3 0 0.6-0.2 0.8l-1.6 1.1q-0.1 0.1-0.3 0.1-0.1 0-0.2 0-0.3-0.1-0.4-0.3l-2.1-3.8-3.9-0.7-1.4 2.4 2.5 3.1h4.3q0.3 0 0.5 0.2 0.2 0.2 0.1 0.5l-0.2 1.9c0 0.2-0.2 0.5-0.5 0.5l-6 1.3q-0.1 0-0.2 0-0.3 0-0.5-0.3l-2.7-4.1-2.7-1.5v7.6h37zm-33.1 11.8l2.3 3.5 5.2-1.1 0.1-0.7h-3.9q-0.3 0-0.5-0.2l-2.3-2.9zm20.2 14.2h-11.4v3.2h11.4zm12.8-6.4h-36.9v3c0 1.2 0.9 2.1 2.1 2.1h32.7c1.1 0 2.1-0.9 2.1-2.1zm-29.9-15.8l-2.3-1.4c-0.2-0.1-0.5 0-0.6 0.2l-0.3 0.4q0 0.1 0 0.1l-3.3 5.6-0.1 0.3q-0.1 0.1-0.1 0.3 0.1 0.2 0.2 0.3l2.4 1.3zm4.1 2.5q0.4 0.1 0.5 0.3l1.9 3.5 0.6-0.5-1.7-5-4.2-0.3-0.8 1.4z"></path>
    <path id="Ellipse 22" class="s0" d="m19.9 35.5c-0.5 0-0.8-0.4-0.8-0.9 0-0.4 0.3-0.8 0.8-0.8 0.5 0 0.9 0.4 0.9 0.8 0 0.5-0.4 0.9-0.9 0.9z"></path>
    <path id="Ellipse 23" class="s0" d="m23.7 35.5c-0.5 0-0.9-0.4-0.9-0.9 0-0.4 0.4-0.8 0.9-0.8 0.5 0 0.8 0.4 0.8 0.8 0 0.5-0.3 0.9-0.8 0.9z"></path>
  </g>
</svg>
