<?xml version="1.0" encoding="UTF-8"?>
<svg xmlns="http://www.w3.org/2000/svg" width="1159" height="1373" viewBox="0 0 1159 1373" fill="none">
  <path fill-rule="evenodd" clip-rule="evenodd" d="M497.104 122.101H882.914V90.2329H497.104V122.101ZM782.699 496.714C773.871 496.714 766.684 489.526 766.684 480.695C766.684 471.865 773.871 464.675 782.699 464.675H864.127V410.392H782.699C773.871 410.392 766.684 403.203 766.684 394.372C766.684 385.542 773.871 378.353 782.699 378.353H864.127V324.069H782.699C773.871 324.069 766.684 316.881 766.684 308.05C766.684 299.219 773.871 292.03 782.699 292.03H864.127V237.747H782.699C773.871 237.747 766.684 230.558 766.684 221.727C766.684 212.897 773.871 205.708 782.699 205.708H864.127V154.934H515.836V398.508H539.037C547.129 398.508 554.598 401.848 559.918 407.225C565.237 412.546 568.632 419.904 568.632 428.112V542.678H757.691C765.783 542.678 773.252 546.018 778.571 551.395C783.89 556.716 787.285 564.075 787.285 572.282V1003.05C800.413 989.802 815.013 978.312 831.196 968.745C829.668 967.5 828.31 966.311 827.065 965.066C818.973 956.971 814.107 945.99 814.107 933.821C814.107 921.594 819.143 910.612 827.065 902.576C828.423 901.217 829.951 899.802 831.649 898.613L813.202 866.576C812.579 865.84 812.127 864.878 811.674 863.972C805.45 852.368 804.205 839.237 807.43 827.35C810.655 815.463 818.238 804.595 829.385 797.745C830.121 797.292 830.913 796.84 831.818 796.387C842.174 790.726 853.774 789.198 864.469 791.179V497.409H783.041L782.699 496.714ZM941.424 1006.77C982.449 1006.77 1019.51 1023.41 1046.5 1050.24C1073.5 1077.08 1089.96 1114.32 1089.96 1155.36C1089.96 1196.4 1073.33 1233.47 1046.5 1260.47C1019.68 1287.47 982.449 1303.94 941.424 1303.94C900.399 1303.94 863.335 1287.3 836.343 1260.47C809.52 1233.64 792.884 1196.4 792.884 1155.36C792.884 1114.32 809.52 1077.25 836.343 1050.24C863.165 1023.41 900.399 1006.77 941.424 1006.77ZM1023.59 1073C1002.54 1051.94 973.396 1038.98 941.424 1038.98C909.396 1038.98 880.253 1051.94 859.26 1073C838.21 1094.06 825.25 1123.21 825.25 1155.19C825.25 1187.23 838.209 1216.38 859.26 1237.38C880.309 1258.44 909.451 1271.4 941.424 1271.4C973.451 1271.4 1002.59 1258.44 1023.59 1237.38C1044.64 1216.32 1057.6 1187.17 1057.6 1155.19C1057.6 1123.15 1044.64 1094 1023.59 1073ZM925.24 1065.36C916.695 1067.96 909.056 1072.66 903.001 1078.77C893.268 1088.51 887.156 1102.09 887.156 1117.04C887.156 1158.81 912.45 1164.76 937.631 1170.87C950.42 1173.92 963.378 1176.98 963.378 1193.45C963.378 1199.57 960.944 1205.06 956.983 1209.02C953.022 1212.98 947.533 1215.41 941.422 1215.41C935.311 1215.41 929.822 1212.98 925.861 1209.02C921.9 1205.06 919.467 1199.57 919.467 1193.45C919.467 1184.62 912.28 1177.43 903.452 1177.43C894.624 1177.43 887.438 1184.62 887.438 1193.45C887.438 1208.4 893.549 1221.98 903.283 1231.72C909.394 1237.83 917.033 1242.53 925.522 1245.13C925.692 1253.85 932.822 1260.87 941.536 1260.87C950.251 1260.87 957.381 1253.85 957.551 1245.13C966.095 1242.53 973.735 1237.83 979.79 1231.72C989.523 1221.98 995.635 1208.4 995.635 1193.45C995.635 1151.68 970.341 1145.73 945.159 1139.62C932.371 1136.57 919.413 1133.51 919.413 1117.04C919.413 1110.92 921.846 1105.43 925.807 1101.47C929.769 1097.51 935.257 1095.07 941.369 1095.07C947.48 1095.07 952.969 1097.51 956.93 1101.47C960.891 1105.43 963.324 1110.92 963.324 1117.04C963.324 1125.87 970.51 1133.06 979.338 1133.06C988.166 1133.06 995.353 1125.87 995.353 1117.04C995.353 1102.09 989.241 1088.51 979.508 1078.77C973.396 1072.66 965.757 1067.96 957.269 1065.36C957.099 1056.64 949.969 1049.62 941.254 1049.62C932.54 1049.62 925.409 1056.64 925.24 1065.36ZM1005.76 794.903C1008.65 793.375 1011.87 792.3 1014.93 791.394C1027.15 788.054 1040.68 789.583 1052.62 796.432C1064.5 803.281 1072.42 814.432 1075.82 826.658C1079.16 838.884 1077.63 852.412 1070.78 864.357L1051.54 897.754C1053.07 898.999 1054.6 900.357 1056.13 901.716C1064.05 909.641 1069.08 920.792 1069.08 932.961C1069.08 945.187 1064.05 956.169 1056.13 964.206C1054.77 965.564 1053.35 966.809 1052 967.885C1076.38 982.376 1097.72 1001.45 1114.81 1023.87C1142.53 1060.49 1159 1106.06 1159 1155.36C1159 1215.47 1134.61 1269.92 1095.28 1309.26C1055.96 1348.6 1001.52 1373 941.427 1373C892.31 1373 847.21 1356.81 810.769 1329.36L16.0145 1329.42C7.18688 1329.42 0 1322.23 0 1313.4V1262.73C0 1254.64 3.33863 1247.17 8.7143 1241.85C14.0335 1236.53 21.3897 1233.13 29.5946 1233.13H32.4806V1209.64C32.4806 1201.55 35.8192 1194.07 41.1949 1188.75C46.5141 1183.43 53.8703 1180.04 62.0752 1180.04H65.1309V427.143C65.1309 419.048 68.4696 411.577 73.8452 406.256C79.1644 400.935 86.5206 397.539 94.7256 397.539H484.041V153.965H481.438C472.611 153.965 465.424 146.776 465.424 137.945V73.8687C465.424 65.0383 472.61 57.8492 481.438 57.8492H484.041V29.6039C484.041 21.5096 487.38 14.038 492.755 8.71702C498.075 3.39618 505.431 0 513.636 0H867.243C875.335 0 882.804 3.33967 888.123 8.71702C893.442 14.0379 896.838 21.3964 896.838 29.6039V57.8492H899.441C908.268 57.8492 915.455 65.0379 915.455 73.8687V137.945C915.455 146.775 908.269 153.965 899.441 153.965H896.838V762.864C908.721 751.882 924.566 745.033 942.107 745.033C960.384 745.033 977.191 752.505 989.243 764.562C997.505 772.826 1003.45 783.014 1006.62 794.449L1005.76 794.903ZM1019.97 888.697H862.878L840.13 849.187C840.13 849.187 839.847 848.564 839.678 848.281C837.244 844.149 836.792 839.281 837.98 834.866C839.225 830.451 841.941 826.489 846.242 824.055C850.372 821.621 855.239 821.168 859.653 822.357C864.066 823.602 868.027 826.319 870.46 830.451L874.874 838.206V860.791C874.874 869.621 882.061 876.811 890.889 876.811C899.717 876.811 906.903 869.622 906.903 860.791V811.998C906.903 802.545 910.695 793.828 917.145 787.601C923.54 781.375 932.083 777.356 941.534 777.356C950.985 777.356 959.698 781.149 965.923 787.601C972.148 793.998 976.165 802.544 976.165 811.998V860.791C976.165 869.621 983.352 876.811 992.18 876.811C1001.01 876.811 1008.19 869.622 1008.19 860.791V838.206L1012.61 830.451C1015.04 826.319 1019 823.432 1023.42 822.357C1027.83 821.111 1032.7 821.621 1036.83 824.055C1041.07 826.489 1043.84 830.451 1045.09 834.866C1046.33 839.281 1045.82 844.149 1043.39 848.281L1020.08 888.526L1019.97 888.697ZM857.851 944.962C854.513 944.962 851.627 943.603 849.307 941.452C847.156 939.301 845.798 936.245 845.798 932.905C845.798 929.566 847.156 926.679 849.307 924.358C851.457 922.207 854.513 920.848 857.851 920.848H1024.95C1028.29 920.848 1031.17 922.207 1033.49 924.358C1035.64 926.509 1037 929.566 1037 932.905C1037 936.245 1035.64 939.132 1033.49 941.452C1031.34 943.603 1028.29 944.962 1024.95 944.962H857.851ZM993.546 977.17C1032.14 988.435 1065.69 1011.92 1089.29 1043.23C1112.94 1074.36 1126.81 1113.08 1126.81 1155.36C1126.81 1206.59 1106.1 1253 1072.54 1286.51C1038.98 1320.08 992.641 1340.8 941.429 1340.8C890.218 1340.8 843.817 1320.08 810.318 1286.51C776.762 1252.95 756.051 1206.59 756.051 1155.36C756.051 1113.13 770.085 1074.36 793.567 1043.23C817.333 1011.98 850.776 988.492 889.312 977.17H993.601H993.546ZM776.427 1297.33C767.883 1287.42 760.243 1276.72 753.68 1265.46L32.1965 1265.52V1297.38H776.655L776.427 1297.33ZM738.175 1233.25C735.572 1226.52 733.309 1219.5 731.328 1212.53H64.3419V1233.25H738.175ZM725.217 1180.33H721.256V860.285C721.256 851.455 714.069 844.266 705.241 844.266H365.208C356.38 844.266 349.193 851.455 349.193 860.285V1180.33H315.637V574.152H754.974V1043.62C735.281 1076.4 724.021 1114.55 724.021 1155.41C724.021 1163.79 724.474 1172.17 725.379 1180.26L725.217 1180.33ZM125.794 803.395C116.966 803.395 109.78 810.584 109.78 819.414V856.037C109.78 864.867 116.966 872.056 125.794 872.056H241.231C250.059 872.056 257.246 864.868 257.246 856.037V819.414C257.246 810.584 250.059 803.395 241.231 803.395H125.794ZM225.047 835.603H141.809V840.019H225.047V835.603ZM125.794 714.81C116.966 714.81 109.78 721.999 109.78 730.83V767.452C109.78 776.283 116.966 783.472 125.794 783.472H241.231C250.059 783.472 257.246 776.283 257.246 767.452V730.83C257.246 722 250.059 714.81 241.231 714.81H125.794ZM225.047 747.019H141.809V751.434H225.047V747.019ZM125.794 626.226C116.966 626.226 109.78 633.415 109.78 642.245V678.868C109.78 687.698 116.966 694.887 125.794 694.887H241.231C250.059 694.887 257.246 687.698 257.246 678.868V642.245C257.246 633.415 250.059 626.226 241.231 626.226H125.794ZM225.047 658.434H141.809V662.85H225.047V658.434ZM125.794 537.641C116.966 537.641 109.78 544.83 109.78 553.661V590.283C109.78 599.113 116.966 606.303 125.794 606.303H241.231C250.059 606.303 257.246 599.114 257.246 590.283V553.661C257.246 544.831 250.059 537.641 241.231 537.641H125.794ZM225.047 569.85H141.809V574.265H225.047V569.85ZM125.794 449.057C116.966 449.057 109.78 456.245 109.78 465.076V501.699C109.78 510.529 116.966 517.718 125.794 517.718H241.231C250.059 517.718 257.246 510.529 257.246 501.699V465.076C257.246 456.246 250.059 449.057 241.231 449.057H125.794ZM225.047 481.265H141.809V485.68H225.047V481.265ZM644.074 720.42H700.66C709.487 720.42 716.674 727.608 716.674 736.439V793.043C716.674 801.873 709.488 809.062 700.66 809.062H644.074C635.246 809.062 628.06 801.874 628.06 793.043V736.439C628.06 727.609 635.246 720.42 644.074 720.42ZM684.647 752.628V777.025H660.258V752.628H684.647ZM506.858 720.42H563.444C572.272 720.42 579.459 727.608 579.459 736.439V793.043C579.459 801.873 572.272 809.062 563.444 809.062H506.858C498.031 809.062 490.844 801.874 490.844 793.043V736.439C490.844 727.609 498.03 720.42 506.858 720.42ZM547.431 752.628V777.025H523.042V752.628H547.431ZM369.642 720.42C360.815 720.42 353.628 727.608 353.628 736.439V793.043C353.628 801.873 360.814 809.062 369.642 809.062H426.228C435.056 809.062 442.243 801.874 442.243 793.043V736.439C442.243 727.609 435.056 720.42 426.228 720.42H369.642ZM410.215 752.628H385.826V777.025H410.215V752.628ZM644.428 614.91H701.013C709.841 614.91 717.028 622.099 717.028 630.93V687.533C717.028 696.363 709.841 703.553 701.013 703.553H644.428C635.6 703.553 628.413 696.364 628.413 687.533V630.93C628.413 622.099 635.6 614.91 644.428 614.91ZM685 647.119V671.515H660.611V647.119H685ZM507.212 614.91H563.798C572.625 614.91 579.812 622.099 579.812 630.93V687.533C579.812 696.363 572.626 703.553 563.798 703.553H507.212C498.384 703.553 491.197 696.364 491.197 687.533V630.93C491.197 622.099 498.384 614.91 507.212 614.91ZM547.785 647.119V671.515H523.396V647.119H547.785ZM369.996 614.91C361.168 614.91 353.982 622.099 353.982 630.93V687.533C353.982 696.363 361.168 703.553 369.996 703.553H426.582C435.409 703.553 442.596 696.364 442.596 687.533V630.93C442.596 622.099 435.41 614.91 426.582 614.91H369.996ZM410.569 647.119H386.18V671.515H410.569V647.119ZM551.752 876.709H689.597V1180.56H551.752V876.709ZM519.554 1180.56H381.709V876.709H519.554V1180.56ZM516.215 58.3905H864.506V32.7492H516.215V58.3905ZM283.814 1180.56H97.4784V429.932H536.815V541.896H313.409C305.317 541.896 297.848 545.235 292.529 550.613C287.21 555.934 283.814 563.292 283.814 571.5L283.814 1180.56Z" fill="#045BA2"></path>
</svg>
