<?xml version="1.0" encoding="UTF-8"?>
<svg xmlns="http://www.w3.org/2000/svg" version="1.2" viewBox="0 0 46 63" width="46" height="63">
  <title>New Project</title>
  <style>
		.s0 { fill: #004580 } 
	</style>
  <g id="Group 47">
    <path id="Path 69" fill-rule="evenodd" class="s0" d="m43.9 41.3q0.1 0.8 0.1 1.7 0 0.9-0.1 1.7c-0.1 0.8-0.6 1.5-1.3 1.8l-2.6 1q-0.5 1.9-1.5 3.6l1.1 2.6c0.3 0.7 0.2 1.6-0.3 2.2q-0.5 0.6-1.2 1.2-0.6 0.7-1.2 1.2c-0.6 0.5-1.5 0.6-2.2 0.3l-2.6-1.1q-1.7 1-3.6 1.5l-1 2.6c-0.3 0.7-1 1.2-1.8 1.3q-0.8 0.1-1.7 0.1-0.9 0-1.7-0.1c-0.8-0.1-1.5-0.6-1.8-1.3l-1-2.6q-1.9-0.5-3.6-1.5l-2.6 1.1c-0.7 0.3-1.6 0.2-2.2-0.3q-0.6-0.5-1.2-1.2-0.7-0.6-1.2-1.2c-0.5-0.6-0.6-1.5-0.3-2.2l1.1-2.6q-1-1.7-1.5-3.6l-2.6-1c-0.7-0.3-1.3-1-1.3-1.8q-0.1-0.8-0.1-1.7 0-0.9 0.1-1.7c0-0.8 0.6-1.5 1.3-1.8l2.6-1q0.5-1.9 1.5-3.6l-1.1-2.6c-0.3-0.7-0.2-1.6 0.3-2.2q0.5-0.6 1.2-1.2 0.6-0.7 1.2-1.2c0.6-0.5 1.5-0.6 2.2-0.3l2.6 1.1q1.7-1 3.6-1.5l1-2.6c0.3-0.7 1-1.3 1.8-1.3q1.7-0.2 3.4 0c0.8 0 1.5 0.6 1.8 1.3l1 2.6q1.9 0.5 3.6 1.5l2.6-1.1c0.7-0.3 1.6-0.2 2.2 0.3q0.6 0.5 1.2 1.2 0.7 0.6 1.2 1.2c0.5 0.6 0.6 1.5 0.3 2.2l-1.1 2.6q1 1.7 1.5 3.6l2.6 1c0.7 0.3 1.2 1 1.3 1.8zm-1.9 1.7q0-0.8-0.1-1.5 0-0.1 0-0.1l-3.1-1.2c-0.3-0.2-0.5-0.4-0.6-0.7q-0.5-2.2-1.7-4c-0.1-0.3-0.2-0.7 0-1l1.3-3q0 0 0-0.1-0.5-0.6-1.1-1.1-0.5-0.6-1.1-1.1-0.1 0-0.1 0l-3 1.3c-0.3 0.2-0.7 0.1-1 0q-1.8-1.2-4-1.7c-0.3-0.1-0.5-0.3-0.7-0.6l-1.2-3.1q0 0-0.1 0-1.5-0.2-3 0-0.1 0-0.1 0l-1.2 3.1c-0.2 0.3-0.4 0.5-0.7 0.6q-2.2 0.5-4 1.7c-0.3 0.1-0.7 0.2-1 0l-3-1.3q0 0-0.1 0-0.6 0.5-1.1 1.1-0.6 0.5-1.1 1.1 0 0.1 0 0.1l1.3 3c0.2 0.3 0.1 0.7 0 1q-1.2 1.8-1.7 4c-0.1 0.3-0.3 0.5-0.6 0.7l-3.1 1.2q0 0 0 0.1-0.1 0.7-0.1 1.5 0 0.8 0.1 1.5 0 0.1 0 0.1l3.1 1.2c0.3 0.2 0.5 0.4 0.6 0.7q0.5 2.2 1.7 4c0.1 0.3 0.2 0.7 0 1l-1.3 3q0 0 0 0.1 0.5 0.6 1.1 1.1 0.5 0.6 1.1 1.1 0.1 0 0.1 0l3-1.3q0.2-0.1 0.4-0.1 0.3 0 0.6 0.1 1.8 1.2 4 1.7c0.3 0.1 0.5 0.3 0.7 0.6l1.2 3.1q0 0 0.1 0 1.5 0.2 3 0 0.1 0 0.1 0l1.2-3.1c0.2-0.3 0.4-0.5 0.7-0.6q2.2-0.5 4-1.7c0.3-0.1 0.7-0.2 1 0l3 1.3q0 0 0.1 0 0.6-0.5 1.1-1.1 0.6-0.5 1.1-1.1 0-0.1 0-0.1l-1.3-3c-0.2-0.3-0.1-0.7 0-1q1.2-1.8 1.7-4c0.1-0.3 0.3-0.5 0.6-0.7l3.1-1.2q0 0 0-0.1 0.1-0.7 0.1-1.5z"></path>
    <path id="Path 70" fill-rule="evenodd" class="s0" d="m32.5 34.5c4.7 4.7 4.7 12.3 0 17q0 0 0 0 0 0 0 0c-4.7 4.7-12.3 4.7-17 0q0 0 0 0 0 0 0 0c-4.7-4.7-4.7-12.3 0-17q0 0 0 0 0 0 0 0c4.7-4.7 12.3-4.7 17 0q0 0 0 0 0 0 0 0zm-0.5 8.5c0-0.6 0.4-1 1-1h0.9c-0.1-2-0.9-3.8-2.2-5.3l-0.6 0.6c-0.4 0.4-1.1 0.4-1.4 0-0.4-0.3-0.4-1 0-1.4l0.6-0.6c-1.5-1.3-3.3-2.1-5.3-2.2v0.9c0 0.6-0.4 1-1 1-0.6 0-1-0.4-1-1v-0.9c-2 0.1-3.8 0.9-5.3 2.2l0.6 0.6c0.4 0.4 0.4 1.1 0 1.4-0.3 0.4-1 0.4-1.4 0l-0.6-0.6c-1.3 1.5-2.1 3.3-2.2 5.3h0.9c0.6 0 1 0.4 1 1 0 0.6-0.4 1-1 1h-0.9c0.1 2 0.9 3.8 2.2 5.3l0.6-0.6c0.4-0.4 1.1-0.4 1.4 0 0.4 0.3 0.4 1 0 1.4l-0.6 0.6c1.5 1.3 3.3 2.1 5.3 2.2v-0.9c0-0.6 0.4-1 1-1 0.6 0 1 0.4 1 1v0.9c2-0.1 3.8-0.9 5.3-2.2l-0.6-0.6c-0.4-0.4-0.4-1.1 0-1.4 0.3-0.4 1-0.4 1.4 0l0.6 0.6c1.3-1.5 2.1-3.3 2.2-5.3h-0.9c-0.6 0-1-0.4-1-1z"></path>
    <path id="Path 71" fill-rule="evenodd" class="s0" d="m27.6 44.2c0.4 0.3 0.5 0.9 0.2 1.4-0.3 0.4-0.9 0.5-1.4 0.2l-0.6-0.4c-1.1 0.8-2.5 0.8-3.6 0.1-1-0.8-1.5-2.1-1.1-3.4 0.4-1.2 1.5-2.1 2.8-2.1l1.1-3.3c0.2-0.5 0.8-0.8 1.3-0.7 0.5 0.2 0.8 0.8 0.6 1.3l-1.1 3.3c1 0.8 1.4 2 1.1 3.1zm-3.6-0.1c0.6 0 1-0.5 1-1 0-0.6-0.4-1-1-1-0.5 0-1 0.4-1 1 0 0.5 0.5 1 1 1z"></path>
    <path id="Path 72" class="s0" d="m4.7 15.7l1.3-1.3v13.6c0 0.6 0.4 1 1 1 0.6 0 1-0.4 1-1v-13.6l1.3 1.3c0.4 0.4 1 0.4 1.4 0 0.4-0.4 0.4-1 0-1.4l-3-3c-0.4-0.4-1-0.4-1.4 0l-3 3c-0.4 0.4-0.4 1 0 1.4 0.4 0.4 1 0.4 1.4 0z"></path>
    <path id="Path 73" class="s0" d="m15 24c0.6 0 1-0.4 1-1v-13.6l1.3 1.3c0.4 0.4 1 0.4 1.4 0 0.4-0.4 0.4-1 0-1.4l-3-3c-0.4-0.4-1-0.4-1.4 0l-3 3c-0.4 0.4-0.4 1 0 1.4 0.4 0.4 1 0.4 1.4 0l1.3-1.3v13.6c0 0.6 0.4 1 1 1z"></path>
    <path id="Path 74" class="s0" d="m41.7 11.3c-0.4-0.4-1-0.4-1.4 0l-3 3c-0.4 0.4-0.4 1 0 1.4 0.4 0.4 1 0.4 1.4 0l1.3-1.3v13.6c0 0.6 0.4 1 1 1 0.6 0 1-0.4 1-1v-13.6l1.3 1.3c0.4 0.4 1 0.4 1.4 0 0.4-0.4 0.4-1 0-1.4z"></path>
    <path id="Path 75" class="s0" d="m33 24c0.6 0 1-0.4 1-1v-13.6l1.3 1.3c0.4 0.4 1 0.4 1.4 0 0.4-0.4 0.4-1 0-1.4l-3-3c-0.4-0.4-1-0.4-1.4 0l-3 3c-0.4 0.4-0.4 1 0 1.4 0.4 0.4 1 0.4 1.4 0l1.3-1.3v13.6c0 0.6 0.4 1 1 1z"></path>
    <path id="Path 76" class="s0" d="m24 21c0.6 0 1-0.4 1-1v-13.6l1.3 1.3c0.4 0.4 1 0.4 1.4 0 0.4-0.4 0.4-1 0-1.4l-3-3c-0.4-0.4-1-0.4-1.4 0l-3 3c-0.4 0.4-0.4 1 0 1.4 0.4 0.4 1 0.4 1.4 0l1.3-1.3v13.6c0 0.6 0.4 1 1 1z"></path>
  </g>
</svg>
