<?xml version="1.0" encoding="UTF-8"?>
<svg xmlns="http://www.w3.org/2000/svg" width="100" height="92" viewBox="0 0 100 92" fill="none">
  <path d="M10.0001 28.333H6.66675V31.6663H10.0001V28.333Z" fill="#045BA2"></path>
  <path d="M98.3333 60H93.3333V56.6667C93.3323 55.7829 92.9808 54.9357 92.3559 54.3108C91.731 53.6859 90.8837 53.3344 90 53.3333H87.1621C90.5934 50.4895 93.064 46.6564 94.2366 42.3568C95.4093 38.0573 95.2271 33.5006 93.7147 29.3084C92.2024 25.1163 89.4337 21.4927 85.7861 18.932C82.1386 16.3713 77.79 14.9982 73.3333 15C72.7728 15 72.2172 15.0212 71.6667 15.0635V1.66667C71.6667 1.22464 71.4911 0.800716 71.1785 0.488156C70.866 0.175595 70.442 0 70 0H33.3333C32.8913 0 32.4674 0.175595 32.1548 0.488156C31.8423 0.800716 31.6667 1.22464 31.6667 1.66667V5H26.6667C26.3572 5.00001 26.0538 5.0862 25.7905 5.24891C25.5272 5.41162 25.3145 5.64443 25.176 5.92125L20.6367 15H1.66667C1.22464 15 0.800716 15.1756 0.488155 15.4882C0.175595 15.8007 0 16.2246 0 16.6667V35C0 35.442 0.175595 35.866 0.488155 36.1785C0.800716 36.4911 1.22464 36.6667 1.66667 36.6667H21.6667C22.1087 36.6667 22.5326 36.4911 22.8452 36.1785C23.1577 35.866 23.3333 35.442 23.3333 35V30H35C35.2189 30 35.4356 29.9569 35.6378 29.8732C35.84 29.7894 36.0238 29.6666 36.1785 29.5119L39.0237 26.6667H43.3333V30C43.3344 30.8837 43.6859 31.731 44.3108 32.3559C44.9357 32.9808 45.7829 33.3323 46.6667 33.3333H51.9231C51.3306 37.1381 51.7628 41.032 53.1751 44.6143C54.5874 48.1966 56.9289 51.3377 59.9586 53.7144C62.9882 56.0911 66.5965 57.6175 70.412 58.1364C74.2275 58.6553 78.1124 58.148 81.6667 56.6667H90V60H78.3333C77.8913 60 77.4674 60.1756 77.1548 60.4882C76.8423 60.8007 76.6667 61.2246 76.6667 61.6667V65H65C64.7811 65 64.5644 65.0431 64.3622 65.1268C64.16 65.2106 63.9762 65.3334 63.8215 65.4881L56.6667 72.6431V66.6667C56.6667 66.4263 56.6147 66.1887 56.5142 65.9703C56.4138 65.7518 56.2673 65.5577 56.0848 65.4012L44.4181 55.4012C44.1155 55.1416 43.7298 54.9992 43.331 55H30C29.6021 55.0001 29.2174 55.1424 28.9152 55.4012L28.3333 55.9V53.3333C28.3333 52.8913 28.1577 52.4674 27.8452 52.1548C27.5326 51.8423 27.1087 51.6667 26.6667 51.6667H20C19.558 51.6667 19.134 51.8423 18.8215 52.1548C18.5089 52.4674 18.3333 52.8913 18.3333 53.3333V64.4715L17.256 65.3958C16.1326 64.9922 14.9214 64.8975 13.749 65.1217C12.5765 65.346 11.4857 65.8808 10.5905 66.6705C9.69526 67.4602 9.02848 68.4758 8.65973 69.6111C8.29099 70.7465 8.23381 71.96 8.49417 73.125C7.30537 74.6 6.66011 76.4389 6.66667 78.3333C6.22464 78.3333 5.80072 78.5089 5.48816 78.8215C5.17559 79.134 5 79.558 5 80V83.3333C5.00248 85.5427 5.88125 87.6609 7.44352 89.2231C9.00578 90.7854 11.124 91.6642 13.3333 91.6667H60C61.8028 91.667 63.5569 91.0822 64.9987 90H73.3333C73.6428 90 73.9462 89.9138 74.2095 89.7511C74.4728 89.5884 74.6855 89.3556 74.824 89.0787L78.53 81.6667H98.3333C98.7754 81.6667 99.1993 81.4911 99.5118 81.1785C99.8244 80.866 100 80.442 100 80V61.6667C100 61.2246 99.8244 60.8007 99.5118 60.4882C99.1993 60.1756 98.7754 60 98.3333 60ZM68.3333 3.33333V6.38104C67.631 6.13098 66.9932 5.72776 66.466 5.20062C65.9389 4.67348 65.5357 4.03563 65.2856 3.33333H68.3333ZM35 3.33333H38.0477C37.7976 4.03563 37.3944 4.67348 36.8673 5.20062C36.3401 5.72776 35.7023 6.13098 35 6.38104V3.33333ZM3.33333 18.3333H13.3333V33.3333H3.33333V18.3333ZM20 33.3333H16.6667V18.3333H20V33.3333ZM34.3098 26.6667H23.3333V17.0602L27.6967 8.33333H31.6667V15C31.6667 15.442 31.8423 15.8659 32.1548 16.1785C32.4674 16.4911 32.8913 16.6667 33.3333 16.6667H36.6667C37.0273 16.6667 37.3782 16.5497 37.6667 16.3333L41.7058 13.304C42.1149 12.9999 42.6194 12.8526 43.1278 12.8888C43.6362 12.925 44.1148 13.1422 44.4767 13.501C44.6735 13.6979 44.8297 13.9316 44.9362 14.1888C45.0427 14.446 45.0976 14.7216 45.0976 15C45.0976 15.2784 45.0427 15.554 44.9362 15.8112C44.8297 16.0684 44.6735 16.3021 44.4767 16.499L34.3098 26.6667ZM48.3333 13.3333C48.3333 12.6741 48.5288 12.0296 48.8951 11.4814C49.2614 10.9333 49.782 10.506 50.3911 10.2537C51.0001 10.0014 51.6704 9.93543 52.317 10.064C52.9636 10.1927 53.5575 10.5101 54.0237 10.9763C54.4899 11.4425 54.8073 12.0364 54.9359 12.683C55.0646 13.3296 54.9986 13.9999 54.7463 14.6089C54.494 15.218 54.0667 15.7386 53.5186 16.1049C52.9704 16.4712 52.3259 16.6667 51.6667 16.6667C50.7829 16.6656 49.9357 16.3141 49.3108 15.6892C48.6859 15.0643 48.3344 14.2171 48.3333 13.3333ZM46.8333 18.8562C46.9927 18.6962 47.1421 18.5266 47.2806 18.3483C48.3256 19.2621 49.6298 19.8267 51.0112 19.9634C52.3925 20.1002 53.7821 19.8022 54.9859 19.111C56.1897 18.4199 57.1477 17.3701 57.7261 16.1082C58.3045 14.8463 58.4744 13.4353 58.2122 12.0722C57.95 10.7091 57.2686 9.46188 56.2633 8.50468C55.258 7.54747 53.979 6.92804 52.6046 6.73288C51.2303 6.53772 49.8293 6.77655 48.5973 7.41605C47.3653 8.05554 46.3636 9.06378 45.7323 10.3C44.8048 9.76038 43.7394 9.50472 42.6681 9.56467C41.5967 9.62463 40.5665 9.99756 39.705 10.6373L36.111 13.3333H35V9.83333C36.6001 9.50373 38.0686 8.71239 39.2238 7.55716C40.3791 6.40194 41.1704 4.93348 41.5 3.33333H61.8354C62.1649 4.9332 62.9559 6.40147 64.1107 7.55667C65.2656 8.71186 66.7336 9.50336 68.3333 9.83333V15.5833C63.5494 16.7254 59.295 19.4579 56.2667 23.3333H42.3571L46.8333 18.8562ZM46.6667 30V26.6667H54.1169C53.5578 27.7366 53.0897 28.8516 52.7175 30H46.6667ZM55 36.6667C55 33.0407 56.0752 29.4961 58.0897 26.4812C60.1042 23.4663 62.9675 21.1165 66.3175 19.7289C69.6674 18.3413 73.3537 17.9782 76.91 18.6856C80.4663 19.393 83.733 21.1391 86.297 23.703C88.8609 26.267 90.607 29.5337 91.3144 33.09C92.0218 36.6463 91.6587 40.3326 90.2711 43.6825C88.8835 47.0325 86.5337 49.8958 83.5188 51.9103C80.5039 53.9248 76.9593 55 73.3333 55C68.4727 54.9945 63.8128 53.0612 60.3758 49.6242C56.9388 46.1872 55.0055 41.5273 55 36.6667ZM53.3333 75.9765L53.1654 76.1444C52.5508 76.7567 52.0917 77.5072 51.8267 78.3333H48.3333V73.3333C48.3333 72.8913 48.1577 72.4674 47.8452 72.1548C47.5326 71.8423 47.1087 71.6667 46.6667 71.6667H40C39.558 71.6667 39.134 71.8423 38.8215 72.1548C38.5089 72.4674 38.3333 72.8913 38.3333 73.3333V78.3333H33.3333V67.4333L43.3333 58.8619L53.3333 67.4333V75.9765ZM45 78.3333H41.6667V75H45V78.3333ZM20 78.3333V68.3333H30V78.3333H20ZM30.6165 58.3333H38.8279L31.05 65H22.8387L30.6165 58.3333ZM21.6667 55H25V58.7573L21.6667 61.6144V55ZM11.524 74.741C11.7621 74.5105 11.926 74.2141 11.9949 73.8899C12.0637 73.5657 12.0343 73.2283 11.9104 72.9208C11.649 72.2772 11.5952 71.5681 11.7565 70.8924C11.9178 70.2167 12.2861 69.6084 12.8101 69.1523C13.334 68.6962 13.9874 68.4151 14.6788 68.3485C15.3702 68.2818 16.0652 68.4328 16.6667 68.7804V78.3333H10C9.99801 77.6626 10.132 76.9985 10.394 76.3811C10.6559 75.7636 11.0403 75.2057 11.524 74.741ZM63.3073 87.0833C62.3943 87.8895 61.218 88.3341 60 88.3333H13.3333C12.0077 88.3318 10.7368 87.8046 9.79944 86.8672C8.86208 85.9299 8.33482 84.659 8.33333 83.3333V81.6667H51.8267C52.0932 82.494 52.5534 83.2457 53.169 83.8593C53.7846 84.4728 54.5379 84.9305 55.3661 85.1942C56.1943 85.4579 57.0735 85.52 57.9306 85.3754C58.7877 85.2307 59.5978 84.8834 60.2935 84.3625L63.889 81.6667H65V83.3333C64.9993 84.0426 64.8481 84.7436 64.5563 85.3901C64.2645 86.0365 63.8388 86.6137 63.3073 87.0833ZM72.3033 86.6667H67.6344C68.0945 85.6156 68.3325 84.4807 68.3333 83.3333V80C68.3333 79.558 68.1577 79.134 67.8452 78.8215C67.5326 78.5089 67.1087 78.3333 66.6667 78.3333H63.3333C62.9727 78.3333 62.6218 78.4503 62.3333 78.6667L58.2917 81.6967C57.8825 82.0006 57.3779 82.1477 56.8695 82.1114C56.3611 82.075 55.8825 81.8575 55.5208 81.4983C55.3236 81.3018 55.1671 81.0683 55.0604 80.8111C54.9536 80.554 54.8986 80.2783 54.8986 79.9999C54.8986 79.7215 54.9536 79.4458 55.0604 79.1887C55.1671 78.9315 55.3236 78.698 55.5208 78.5015L65.6902 68.3333H76.6667V77.9398L72.3033 86.6667ZM80 78.3333V63.3333H83.3333V78.3333H80ZM96.6667 78.3333H86.6667V63.3333H96.6667V78.3333Z" fill="#045BA2"></path>
  <path d="M93.3333 65H90V68.3333H93.3333V65Z" fill="#045BA2"></path>
  <path d="M45.0001 65H41.6667V68.3333H45.0001V65Z" fill="#045BA2"></path>
  <path d="M26.6666 71.667H23.3333V75.0003H26.6666V71.667Z" fill="#045BA2"></path>
  <path d="M71.6667 28.333V30.2324C71.2892 30.3366 70.9226 30.477 70.5719 30.6515C69.8318 31.0216 69.2228 31.6094 68.8269 32.336C68.431 33.0626 68.2672 33.8931 68.3575 34.7156C68.4478 35.5381 68.7879 36.3132 69.332 36.9366C69.8761 37.56 70.5981 38.0017 71.4009 38.2024L74.4576 38.9668C74.5995 39.0024 74.7271 39.0806 74.8232 39.1909C74.9193 39.3012 74.9794 39.4383 74.9952 39.5837C75.0111 39.7292 74.9821 39.876 74.912 40.0044C74.842 40.1329 74.7343 40.2368 74.6034 40.3022C74.2085 40.4984 73.7735 40.6005 73.3326 40.6005C72.8916 40.6005 72.4566 40.4984 72.0617 40.3022L70.7446 39.6436C70.5489 39.5457 70.3358 39.4874 70.1174 39.4719C69.8991 39.4563 69.6799 39.484 69.4722 39.5532C69.2646 39.6224 69.0726 39.7318 68.9072 39.8752C68.7419 40.0186 68.6064 40.1932 68.5085 40.3889C68.4106 40.5847 68.3522 40.7978 68.3367 41.0162C68.3212 41.2345 68.3488 41.4537 68.418 41.6614C68.4872 41.869 68.5967 42.061 68.7401 42.2264C68.8835 42.3917 69.058 42.5272 69.2538 42.6251L70.5711 43.2836C70.922 43.4581 71.2889 43.5985 71.6667 43.7028V44.9997H75.0001V43.7028C75.3776 43.5985 75.7442 43.4581 76.0949 43.2836C76.8349 42.9136 77.4438 42.3257 77.8397 41.5991C78.2355 40.8726 78.3993 40.0422 78.3091 39.2197C78.2188 38.3973 77.8787 37.6222 77.3346 36.9988C76.7906 36.3755 76.0686 35.9337 75.2659 35.733L72.2094 34.9688C72.0674 34.9333 71.9397 34.8551 71.8435 34.7448C71.7472 34.6346 71.6871 34.4974 71.6711 34.3519C71.6551 34.2064 71.684 34.0595 71.754 33.931C71.824 33.8024 71.9317 33.6983 72.0626 33.6328C72.4574 33.4364 72.8924 33.3343 73.3334 33.3343C73.7744 33.3343 74.2094 33.4364 74.6042 33.6328L75.9215 34.2918C76.3169 34.4895 76.7746 34.522 77.194 34.3822C77.6133 34.2424 77.96 33.9418 78.1577 33.5464C78.3554 33.1511 78.3879 32.6934 78.2481 32.274C78.1084 31.8547 77.8077 31.508 77.4124 31.3103L76.0951 30.6515C75.7444 30.477 75.3777 30.3366 75.0001 30.2324V28.333H71.6667Z" fill="#045BA2"></path>
  <path d="M73.3332 21.667C72.069 21.6662 70.8098 21.8251 69.5855 22.1401C68.3572 22.4555 67.1745 22.9274 66.0663 23.5441C65.6838 23.7609 65.4024 24.1202 65.2836 24.5436C65.1648 24.9671 65.2181 25.4203 65.432 25.8045C65.6458 26.1888 66.0029 26.473 66.4254 26.5951C66.8478 26.7172 67.3015 26.6674 67.6874 26.4566C68.5467 25.9784 69.464 25.6127 70.4166 25.3682C72.9549 24.7154 75.6392 24.9374 78.0358 25.9983C80.4325 27.0592 82.4015 28.8971 83.6247 31.2151C84.848 33.533 85.2541 36.1957 84.7774 38.7729C84.3008 41.3502 82.9692 43.6915 80.9978 45.4186C79.0263 47.1457 76.5302 48.1577 73.9127 48.2913C71.2952 48.4248 68.709 47.672 66.5721 46.1545C64.4352 44.6369 62.8723 42.4433 62.1358 39.9279C61.3994 37.4126 61.5324 34.7224 62.5134 32.292C62.6726 31.8836 62.6645 31.4289 62.4909 31.0264C62.3172 30.6239 61.992 30.306 61.5856 30.1416C61.1793 29.9772 60.7245 29.9795 60.3198 30.1481C59.9152 30.3166 59.5932 30.6378 59.4236 31.042C58.2183 34.0206 58.0011 37.3075 58.8041 40.4189C59.6071 43.5302 61.3878 46.3015 63.8841 48.3248C66.3804 50.348 69.4603 51.5164 72.6704 51.6579C75.8806 51.7993 79.0513 50.9064 81.7159 49.1105C84.3804 47.3146 86.398 44.7106 87.4715 41.682C88.545 38.6534 88.6178 35.3601 87.6791 32.287C86.7404 29.2139 84.8399 26.5234 82.2573 24.6115C79.6747 22.6997 76.5465 21.6675 73.3332 21.667Z" fill="#045BA2"></path>
</svg>
