<?xml version="1.0" encoding="UTF-8"?>
<svg xmlns="http://www.w3.org/2000/svg" width="480" height="496" viewBox="0 0 480 496" fill="none">
  <path d="M320 103.885H160C155.758 103.889 151.691 105.576 148.691 108.576C145.691 111.575 144.004 115.643 144 119.885V189.283L87.8906 266.432C83.0144 273.16 79.6862 280.884 78.1446 289.049L56.7383 403.197C56.542 404.259 56.1313 405.269 55.5313 406.166L9.34399 475.447L22.656 484.322L68.8435 415.041C70.6391 412.351 71.871 409.326 72.4646 406.146L93.8709 291.994C94.9713 286.163 97.3484 280.647 100.832 275.842L144 216.486V311.885C144.001 313.464 144.468 315.008 145.344 316.322L161.344 340.322C161.954 341.238 162.745 342.017 163.67 342.613C164.595 343.208 165.632 343.607 166.718 343.783C167.803 343.959 168.913 343.91 169.979 343.638C171.044 343.365 172.042 342.876 172.91 342.201L228.328 299.1C229.653 298.068 231.17 297.311 232.791 296.872C234.412 296.434 236.104 296.322 237.769 296.545C239.433 296.767 241.037 297.319 242.486 298.168C243.934 299.018 245.199 300.147 246.207 301.49C248.118 304.132 248.959 307.399 248.56 310.635C248.162 313.871 246.553 316.837 244.058 318.936L194.254 370.318C193.577 371.019 193.033 371.837 192.648 372.732L172.598 419.518C170.52 424.355 167.284 428.608 163.176 431.901L131.004 457.639C129.799 458.601 128.898 459.891 128.41 461.354L120.41 485.354L135.59 490.416L142.844 468.655L173.168 444.397C179.331 439.458 184.185 433.08 187.301 425.823L201.848 391.885H320C324.242 391.881 328.309 390.193 331.309 387.194C334.309 384.194 335.996 380.127 336 375.885V119.885C335.996 115.643 334.309 111.575 331.309 108.576C328.309 105.576 324.242 103.889 320 103.885ZM320 143.885C313.637 143.878 307.536 141.347 303.037 136.848C298.538 132.348 296.007 126.248 296 119.885H320V143.885ZM160 119.885H184C183.993 126.248 181.462 132.348 176.963 136.848C172.464 141.347 166.363 143.878 160 143.885V119.885ZM239.895 280.686C236.124 280.167 232.288 280.412 228.614 281.405C224.94 282.398 221.503 284.119 218.508 286.467L215.33 288.939C206.084 283.402 198.97 274.917 195.133 264.847C191.296 254.777 190.958 243.709 194.174 233.424C197.391 223.139 203.974 214.235 212.864 208.145C221.755 202.055 232.436 199.134 243.188 199.851C253.941 200.568 264.139 204.882 272.142 212.099C280.145 219.315 285.487 229.015 287.309 239.636C289.131 250.257 287.326 261.182 282.186 270.653C277.045 280.124 268.867 287.59 258.968 291.849C256.695 288.81 253.836 286.256 250.561 284.338C247.285 282.421 243.658 281.179 239.895 280.686ZM255.121 330.482C258.418 327.527 260.988 323.849 262.629 319.737C264.27 315.624 264.939 311.188 264.584 306.774C277.637 301.342 288.524 291.74 295.545 279.467C302.565 267.194 305.324 252.942 303.39 238.936C301.455 224.93 294.937 211.959 284.853 202.048C274.769 192.137 261.687 185.845 247.649 184.154C233.612 182.463 219.41 185.468 207.26 192.701C195.111 199.933 185.699 210.985 180.494 224.131C175.289 237.277 174.584 251.777 178.489 265.366C182.394 278.955 190.689 290.868 202.079 299.245L169.883 324.287L160 309.463V159.885C170.605 159.872 180.772 155.654 188.271 148.155C195.769 140.657 199.988 130.49 200 119.885H280C280.012 130.49 284.231 140.657 291.729 148.155C299.228 155.654 309.395 159.872 320 159.885V335.885C309.395 335.897 299.228 340.115 291.729 347.614C284.231 355.113 280.012 365.28 280 375.885H211.137L255.121 330.482ZM320 375.885H296C296.007 369.522 298.538 363.421 303.037 358.922C307.536 354.423 313.637 351.892 320 351.885V375.885Z" fill="#1062A5"></path>
  <path d="M252.02 253.885V269.885C256.161 269.749 260.158 268.328 263.456 265.82C266.755 263.311 269.191 259.839 270.429 255.885H280V239.885H270.429C269.191 235.93 266.755 232.458 263.456 229.95C260.158 227.441 256.161 226.021 252.02 225.885C246.482 226.195 241.293 228.682 237.581 232.803C233.87 236.924 231.938 242.345 232.207 247.885C232.207 251.318 230.195 253.885 228.395 253.885C226.594 253.885 224.582 251.318 224.582 247.885C224.582 244.451 226.594 241.885 228.395 241.885V225.885C224.253 226.021 220.256 227.441 216.958 229.95C213.66 232.458 211.223 235.93 209.985 239.885H200V255.885H209.985C211.223 259.839 213.66 263.311 216.958 265.82C220.256 268.328 224.253 269.749 228.395 269.885C233.932 269.574 239.122 267.087 242.833 262.966C246.544 258.845 248.476 253.424 248.207 247.885C248.207 244.451 250.219 241.885 252.02 241.885C253.82 241.885 255.832 244.451 255.832 247.885C255.832 251.318 253.82 253.885 252.02 253.885Z" fill="#1062A5"></path>
  <path d="M328 431.885C319.516 431.895 311.382 435.269 305.383 441.268C299.384 447.267 296.01 455.401 296 463.885C296 464.149 296.072 464.395 296.078 464.658C254.696 475.281 211.151 473.975 170.48 460.889L165.52 476.1C209.216 490.335 256.085 491.704 300.538 480.044C303.38 484.866 307.439 488.857 312.309 491.617C317.179 494.377 322.688 495.809 328.285 495.769C333.883 495.729 339.371 494.219 344.201 491.39C349.031 488.561 353.033 484.513 355.806 479.65C358.579 474.788 360.025 469.282 360 463.684C359.975 458.087 358.48 452.594 355.663 447.757C352.847 442.919 348.81 438.907 343.954 436.121C339.099 433.336 333.597 431.875 328 431.885ZM328 479.885C324.836 479.885 321.742 478.946 319.111 477.188C316.48 475.43 314.429 472.931 313.218 470.008C312.007 467.084 311.69 463.867 312.307 460.763C312.925 457.66 314.449 454.809 316.686 452.571C318.924 450.333 321.775 448.81 324.879 448.192C327.982 447.575 331.199 447.892 334.123 449.103C337.047 450.314 339.545 452.365 341.304 454.996C343.062 457.627 344 460.72 344 463.885C343.996 468.127 342.309 472.194 339.309 475.194C336.309 478.194 332.242 479.881 328 479.885Z" fill="#1062A5"></path>
  <path d="M152 63.8847C160.484 63.875 168.618 60.5005 174.617 54.5015C180.616 48.5024 183.99 40.3687 184 31.8847C184 31.6143 183.927 31.3638 183.92 31.0947C217.022 22.4815 251.658 21.5723 285.166 28.437C318.674 35.3018 350.162 49.7576 377.21 70.6937C404.258 91.6297 426.146 118.488 441.192 149.206C456.238 179.923 464.04 213.681 464 247.885C464.059 291.977 450.996 335.089 426.474 371.733L416.969 362.229C415.968 361.227 414.719 360.509 413.35 360.148C411.982 359.787 410.541 359.796 409.177 360.174C407.812 360.552 406.573 361.285 405.584 362.298C404.596 363.312 403.894 364.57 403.551 365.944L392.238 411.197C391.904 412.538 391.922 413.942 392.291 415.273C392.66 416.605 393.367 417.818 394.344 418.795C395.321 419.772 396.534 420.479 397.866 420.848C399.197 421.217 400.601 421.235 401.942 420.901L447.195 409.588C448.569 409.245 449.827 408.543 450.841 407.555C451.854 406.567 452.587 405.327 452.965 403.962C453.343 402.598 453.352 401.158 452.991 399.789C452.63 398.42 451.912 397.171 450.91 396.17L438.001 383.261C462.696 347.229 477.081 305.136 479.601 261.526C482.121 217.916 472.682 174.446 452.302 135.809C431.922 97.1724 401.375 64.836 363.96 42.2911C326.545 19.7463 283.683 7.84933 240 7.88475C219.57 7.91654 199.226 10.5514 179.462 15.7255C176.62 10.9031 172.561 6.91211 167.691 4.15233C162.822 1.39255 157.312 -0.0390928 151.715 0.000811945C146.117 0.0407167 140.629 1.55077 135.799 4.3797C130.969 7.20863 126.967 11.2571 124.194 16.1196C121.422 20.982 119.975 26.4877 120 32.0851C120.025 37.6825 121.521 43.1751 124.337 48.0126C127.153 52.85 131.191 56.8626 136.046 59.6483C140.901 62.4339 146.403 63.8949 152 63.8847ZM410.996 402.143L415.649 383.533L429.606 397.49L410.996 402.143ZM152 15.8847C155.165 15.8847 158.258 16.8231 160.889 18.5812C163.52 20.3393 165.571 22.8382 166.782 25.7618C167.993 28.6854 168.31 31.9025 167.693 35.0062C167.075 38.1099 165.551 40.9608 163.314 43.1985C161.076 45.4361 158.225 46.9599 155.122 47.5773C152.018 48.1947 148.801 47.8778 145.877 46.6668C142.954 45.4558 140.455 43.4051 138.697 40.7739C136.939 38.1427 136 35.0492 136 31.8847C136.004 27.6426 137.691 23.5754 140.691 20.5757C143.691 17.5761 147.758 15.889 152 15.8847Z" fill="#1062A5"></path>
  <path d="M39.8086 380.303L53.1446 371.467C28.8533 334.763 15.9323 291.708 16.0002 247.694C16.0682 203.68 29.122 160.665 53.5264 124.036L63.0313 133.541C64.0321 134.542 65.2807 135.26 66.6497 135.621C68.0187 135.982 69.459 135.974 70.8234 135.596C72.1879 135.218 73.4276 134.485 74.416 133.471C75.4044 132.457 76.1061 131.2 76.4492 129.826L87.7617 84.5721C88.0965 83.2317 88.0786 81.8274 87.7096 80.496C87.3407 79.1645 86.6333 77.9513 85.6564 76.9743C84.6794 75.9974 83.4662 75.29 82.1348 74.921C80.8033 74.552 79.3991 74.5341 78.0586 74.8689L32.8048 86.1817C31.4312 86.5249 30.1733 87.2265 29.1596 88.2149C28.1459 89.2033 27.4127 90.4431 27.0349 91.8075C26.6571 93.172 26.6483 94.6123 27.0094 95.9813C27.3704 97.3504 28.0884 98.599 29.0899 99.5997L41.9991 112.509C15.0194 151.857 0.398259 198.363 0.00802041 246.071C-0.382218 293.779 13.4762 340.518 39.8086 380.303ZM69.004 93.627L64.352 112.237L50.3946 98.2794L69.004 93.627Z" fill="#1062A5"></path>
</svg>
