<?xml version="1.0" encoding="UTF-8"?>
<svg xmlns="http://www.w3.org/2000/svg" version="1.2" viewBox="0 0 61 63" width="61" height="63">
  <title>New Project</title>
  <style>
		.s0 { fill: #004580 } 
	</style>
  <path id="Path 66" fill-rule="evenodd" class="s0" d="m26.6 20.4q0 0 0 0zm0 0c0 0-0.6-0.9-0.6-0.9-0.2-0.3-0.1-0.6 0.1-0.8l3.4-3.5c0.2-0.3 0.6-0.3 0.8-0.1l2.1 1.3q0.4-0.1 0.8-0.3 0.4-0.1 0.7-0.3l0.5-2.4c0.1-0.3 0.3-0.5 0.6-0.5l5-0.1c0.2 0 0.5 0.2 0.6 0.5l0.5 2.5q0.4 0.1 0.8 0.3 0.3 0.1 0.7 0.3l2-1.4c0.3-0.2 0.6-0.1 0.8 0.1l3.6 3.4c0.2 0.2 0.2 0.6 0.1 0.8l-1.4 2.2q0.2 0.3 0.3 0.7 0.2 0.4 0.3 0.8l2.4 0.4c0.3 0.1 0.5 0.3 0.5 0.6l0.1 5c0 0.3-0.2 0.5-0.5 0.6l-2.5 0.5q-0.1 0.4-0.3 0.8-0.1 0.4-0.3 0.7l1.4 2.1c0.2 0.2 0.1 0.5-0.1 0.8l-3.4 3.5c-0.2 0.2-0.6 0.2-0.8 0.1l-2.1-1.4q-0.4 0.2-0.8 0.3-0.3 0.2-0.7 0.3l-0.5 2.4c0 0.4-0.3 0.6-0.6 0.5l-4.9 0.1c-0.3 0-0.6-0.2-0.6-0.5h-0.1l-0.5-2.5q-0.4-0.1-0.8-0.2-0.3-0.2-0.7-0.4l-0.7 0.5q0.9 1.1 1.6 2.4c1.6 2.7 2.5 6 2.5 9.5 0 4.9-1.8 7.9-4.8 9.7-2.8 1.7-6.6 2.2-10.8 2.2-4.2 0-8-0.5-10.8-2.2-2.8-1.8-4.5-4.8-4.5-9.7 0-3.5 0.9-6.8 2.4-9.5 1.3-2.3 3-4.2 5-5.6q-0.4-0.2-0.8-0.6c-0.4-0.4-0.7-1.1-0.7-1.8 0-0.7 0.3-1.3 0.7-1.8 0.5-0.5 1.1-0.7 1.8-0.7h0.3l-2.2-3.9q-0.5-0.7-0.5-1.6 0-0.8 0.5-1.6 0.4-0.7 1.1-1.2 0.8-0.4 1.6-0.4zm0.8 9.9h-14c-0.3 0-0.7 0.1-0.9 0.4-0.2 0.2-0.4 0.6-0.4 0.9 0 0.4 0.2 0.7 0.4 1 0.2 0.2 0.6 0.4 0.9 0.4h14c0.4 0 0.7-0.2 1-0.4 0.2-0.3 0.4-0.6 0.4-1 0-0.3-0.2-0.7-0.4-0.9-0.3-0.3-0.6-0.4-1-0.4zm4.7 5.2c0.2-0.1 0.4-0.2 0.7 0q0.4 0.2 0.9 0.4 0.5 0.2 1 0.3c0.2 0.1 0.4 0.3 0.4 0.5l0.5 2.4 4-0.1 0.4-2.3c0-0.2 0.2-0.4 0.5-0.5q0.5-0.1 0.9-0.3 0.5-0.2 1-0.5c0.2-0.1 0.4-0.1 0.6 0l2 1.3 2.8-2.8-1.3-1.9c-0.1-0.2-0.2-0.4-0.1-0.6q0.3-0.5 0.5-1 0.2-0.5 0.3-1c0.1-0.2 0.3-0.4 0.5-0.4l2.4-0.5-0.1-4-2.3-0.4c-0.2 0-0.4-0.2-0.5-0.4q-0.1-0.5-0.3-1-0.2-0.5-0.5-0.9c-0.1-0.2-0.1-0.5 0-0.7l1.3-2-2.8-2.8-1.9 1.3c-0.2 0.2-0.4 0.2-0.7 0.1q-0.4-0.3-0.9-0.5-0.5-0.2-1-0.3c-0.2-0.1-0.4-0.3-0.4-0.5l-0.5-2.3h-4l-0.4 2.3c0 0.2-0.2 0.4-0.4 0.5q-0.6 0.1-1 0.3-0.5 0.2-1 0.5c-0.2 0.1-0.4 0.1-0.6 0l-2-1.3-2.8 2.8 1.3 1.9q0.5 0.4 0.8 0.9 0.4 0.8 0.4 1.6 0 0.9-0.4 1.6l-2.2 3.8h0.2q0 0 0.1 0.1c0.7 0 1.3 0.3 1.7 0.7 0.5 0.5 0.8 1.1 0.8 1.8 0 0.7-0.3 1.4-0.8 1.8q-0.3 0.4-0.8 0.6 1.4 1 2.6 2.2c0 0 1.1-0.7 1.1-0.7zm5.4-14.4c1.5 0 2.9 0.6 3.9 1.5 1 1 1.6 2.4 1.6 3.9 0.1 1.5-0.5 2.9-1.5 3.9-1 1-2.4 1.6-3.9 1.6-1.5 0.1-2.9-0.5-3.9-1.5-1-1-1.6-2.3-1.6-3.8q0 0 0-0.1c-0.1-1.5 0.5-2.9 1.5-3.9 1-1 2.3-1.6 3.8-1.6q0.1 0 0.1 0zm-10.9 13.2q-0.1 0-0.1-0.1 0 0-0.1 0h-12c-2.4 1.3-4.5 3.4-5.9 6-1.4 2.5-2.3 5.6-2.3 8.9 0 4.4 1.5 7.1 4 8.6 2.5 1.6 6.1 2.1 10.1 2.1 3.9 0 7.6-0.5 10.2-2.1 2.5-1.5 4.1-4.2 4.1-8.6 0-3.3-0.8-6.4-2.2-8.9q-0.9-1.5-1.9-2.7c-1.2-1.3-2.5-2.4-3.9-3.2zm10.9-12q0 0 0 0c-1.2 0-2.2 0.5-3 1.3-0.7 0.8-1.2 1.8-1.2 3q0 0 0 0.1c0 1.1 0.5 2.2 1.3 2.9 0.8 0.8 1.8 1.2 3 1.2 1.2 0 2.2-0.5 3-1.3 0.8-0.8 1.2-1.8 1.2-3 0-1.2-0.5-2.2-1.3-3-0.8-0.7-1.8-1.2-3-1.2q0 0 0 0zm-21.3 28.2c0-0.3 0.3-0.6 0.6-0.6 0.4 0 0.7 0.3 0.7 0.6 0 0.7 0.3 1.3 0.8 1.7 0.5 0.5 1.3 0.8 2.1 0.8 0.8 0 1.5-0.3 2.1-0.8 0.5-0.4 0.8-1 0.8-1.7 0-1.9-1.5-2.2-3-2.5-2-0.4-4-0.8-4-3.7 0-1 0.5-2 1.3-2.6 0.6-0.6 1.4-0.9 2.3-1.1v-1.3c0-0.3 0.2-0.6 0.6-0.6 0.3 0 0.6 0.3 0.6 0.6v1.3c0.9 0.2 1.7 0.5 2.3 1.1 0.8 0.6 1.2 1.6 1.2 2.6 0 0.3-0.2 0.6-0.6 0.6-0.3 0-0.6-0.3-0.6-0.6 0-0.7-0.3-1.3-0.8-1.7-0.6-0.5-1.3-0.8-2.1-0.8-0.8 0-1.6 0.3-2.1 0.8-0.5 0.4-0.8 1-0.8 1.7 0 1.9 1.5 2.2 2.9 2.5 2 0.4 4 0.8 4 3.7 0 1-0.5 2-1.2 2.7-0.6 0.5-1.4 0.8-2.2 1v1.3c0 0.3-0.3 0.6-0.6 0.6-0.4 0-0.6-0.3-0.6-0.6v-1.3c-1-0.1-1.8-0.5-2.4-1-0.8-0.7-1.3-1.7-1.3-2.7zm11.6-28.5q0 0-0.1 0 0-0.1-0.1-0.1-0.4-0.3-1-0.3h-12.4q-0.5 0-1 0.3-0.4 0.3-0.7 0.7-0.2 0.5-0.2 1 0 0.5 0.2 1l2.6 4.5h10.7l2.5-4.5q0.3-0.5 0.3-1 0-0.5-0.3-1-0.2-0.3-0.5-0.6zm27.1 0.1c-0.1-0.3 0.1-0.6 0.4-0.7 0.3-0.1 0.7 0.1 0.8 0.4q0.1 0.6 0.2 1.3c0.1 0.2 0 0.4-0.2 0.5-0.3 0.3-0.9 0.1-1-0.3q-0.1-0.6-0.2-1.2zm0.5 5.8v-0.1-0.3-0.4-0.1-0.2c0-0.2 0.2-0.4 0.4-0.5 0.4-0.2 0.9 0.1 0.8 0.6v0.2 0.3 0.5 0.1 0.1c-0.1 0.5-0.6 0.8-1 0.5-0.2-0.1-0.3-0.3-0.2-0.6 0 0 0-0.1 0-0.1zm-6.5 12.5l0.1-0.1 0.1-0.1 0.2-0.2 0.2-0.1 0.1-0.2 0.2-0.1c0.2-0.2 0.6-0.2 0.8 0 0.3 0.3 0.3 0.7 0 0.9l-0.1 0.1-0.3 0.3-0.3 0.3h-0.1l-0.2 0.1c-0.3 0.3-0.9 0.2-1-0.3 0-0.2 0.1-0.5 0.3-0.6zm-4.1 2.5l0.1-0.1h0.2l0.2-0.1 0.2-0.1 0.3-0.2h0.1c0.3-0.2 0.6-0.1 0.8 0.2 0.2 0.3 0.1 0.7-0.3 0.9h-0.1l-0.1 0.1-0.3 0.1-0.1 0.1-0.3 0.1-0.1 0.1h-0.1q-0.3 0.1-0.6 0c-0.4-0.3-0.4-0.9 0.1-1.1zm10.5-11.8c0.4 0 0.7 0.4 0.6 0.8v0.1l-0.1 0.1-0.1 0.4v0.1l-0.1 0.3-0.1 0.1v0.1q-0.1 0.3-0.4 0.4c-0.5 0.1-0.9-0.3-0.8-0.8l0.1-0.1v-0.1l0.1-0.3v-0.1l0.2-0.4c0-0.1 0-0.2 0.1-0.3q0 0 0-0.1 0.2-0.2 0.5-0.2zm-2 4.5c0.5 0 0.8 0.6 0.5 1v0.1l-0.2 0.2-0.2 0.3-0.2 0.3-0.1 0.1c-0.1 0.2-0.3 0.3-0.5 0.3-0.5-0.1-0.8-0.6-0.5-1l0.1-0.1 0.2-0.3 0.1-0.2 0.2-0.3 0.1-0.1c0.1-0.2 0.3-0.3 0.5-0.3zm-13.1 8.6h0.2l0.4-0.1h0.4l0.1-0.1h0.1c0.5-0.1 0.9 0.3 0.7 0.8 0 0.2-0.2 0.4-0.4 0.4l-0.2 0.1h-0.3l-0.4 0.1h-0.2-0.2c-0.5 0.1-0.8-0.3-0.7-0.8 0.1-0.2 0.3-0.3 0.5-0.4zm-8.6-31.9c-0.1 0.3-0.4 0.5-0.8 0.4l-3.2-1.3c-0.3-0.1-0.4-0.5-0.3-0.8l1.2-3.2c0.1-0.3 0.5-0.5 0.8-0.4 0.3 0.2 0.5 0.5 0.4 0.8l-0.7 1.7q1.6-0.8 3.3-1.3 2.5-0.7 5.2-0.7c4 0 7.6 1.1 10.6 3.2 3.2 2 5.6 5 7.1 8.5 0.1 0.3 0 0.7-0.3 0.8-0.4 0.2-0.7 0-0.9-0.3-1.3-3.3-3.6-6.1-6.6-8-2.8-1.9-6.2-3-9.8-3q-2.6 0-4.9 0.7-1.8 0.5-3.4 1.3l2 0.8c0.3 0.1 0.5 0.5 0.3 0.8z"></path>
</svg>
