<?xml version="1.0" encoding="UTF-8"?>
<svg xmlns="http://www.w3.org/2000/svg" width="1201" height="1201" viewBox="0 0 1201 1201" fill="none">
  <path d="M579.341 74.8027V125.081H573.34C551.39 125.081 530.339 133.801 514.818 149.322C499.297 164.843 490.577 185.894 490.577 207.844C490.577 229.794 499.297 250.845 514.818 266.366C530.339 281.887 551.39 290.607 573.34 290.607H579.341V373.37H573.34C562.365 373.37 551.84 369.01 544.079 361.25C536.319 353.489 531.959 342.964 531.959 331.989H490.577C490.577 353.939 499.297 374.99 514.818 390.511C530.339 406.032 551.39 414.751 573.34 414.751H579.341V465.03H620.722V414.751H626.722C648.672 414.751 669.723 406.032 685.245 390.511C700.766 374.99 709.485 353.939 709.485 331.989C709.485 310.038 700.766 288.987 685.245 273.466C669.723 257.945 648.672 249.226 626.722 249.226H620.722V166.463H626.722C637.697 166.463 648.223 170.822 655.983 178.583C663.744 186.344 668.104 196.869 668.104 207.844H709.485C709.485 185.894 700.766 164.843 685.245 149.322C669.723 133.801 648.672 125.081 626.722 125.081H620.722V74.8027H579.341ZM626.722 290.607C637.697 290.607 648.223 294.967 655.983 302.727C663.744 310.488 668.104 321.013 668.104 331.989C668.104 342.964 663.744 353.489 655.983 361.25C648.223 369.01 637.697 373.37 626.722 373.37H620.722V290.607H626.722ZM579.341 249.226H573.34C562.365 249.226 551.84 244.866 544.079 237.105C536.319 229.345 531.959 218.819 531.959 207.844C531.959 196.869 536.319 186.344 544.079 178.583C551.84 170.822 562.365 166.463 573.34 166.463H579.341V249.226Z" fill="#045BA2"></path>
  <path d="M331.052 269.917C331.052 323.116 346.827 375.121 376.383 419.354C405.939 463.587 447.948 498.063 497.097 518.422C546.247 538.78 600.33 544.107 652.507 533.728C704.683 523.35 752.611 497.732 790.228 460.114C827.846 422.497 853.464 374.569 863.842 322.392C874.221 270.215 868.894 216.133 848.536 166.983C828.177 117.833 793.702 75.8246 749.468 46.2687C705.235 16.7129 653.23 0.9375 600.031 0.9375C528.693 0.9375 460.277 29.2763 409.834 79.7198C359.391 130.163 331.052 198.579 331.052 269.917ZM827.629 269.917C827.629 314.932 814.281 358.935 789.272 396.364C764.263 433.792 728.717 462.964 687.129 480.19C645.541 497.417 599.779 501.924 555.629 493.142C511.479 484.36 470.925 462.683 439.095 430.853C407.265 399.023 385.588 358.469 376.806 314.319C368.025 270.17 372.532 224.407 389.758 182.819C406.984 141.231 436.156 105.685 473.585 80.6762C511.013 55.6674 555.017 42.319 600.031 42.319C660.394 42.319 718.284 66.298 760.967 108.981C803.65 151.664 827.629 209.554 827.629 269.917Z" fill="#045BA2"></path>
  <path d="M1179.37 787.185H1137.99V693.043C1150.62 696.653 1163.48 699.418 1176.48 701.319L1182.27 659.937C1039.09 639.867 931.083 507.654 931.083 352.68C931.083 347.192 928.903 341.93 925.023 338.049C921.143 334.169 915.88 331.989 910.392 331.989C904.905 331.989 899.642 334.169 895.762 338.049C891.881 341.93 889.702 347.192 889.702 352.68C889.702 523.792 759.764 663.041 600.031 663.041C440.299 663.041 310.361 523.792 310.361 352.68C310.361 347.192 308.181 341.93 304.301 338.049C300.421 334.169 295.158 331.989 289.67 331.989C284.183 331.989 278.92 334.169 275.04 338.049C271.159 341.93 268.98 347.192 268.98 352.68C268.98 507.654 160.974 639.867 17.794 660.351L23.5874 701.733C36.5949 699.696 49.4517 696.793 62.0722 693.043V787.185H20.6907C15.2032 787.185 9.94044 789.365 6.06017 793.246C2.17991 797.126 0 802.389 0 807.876V911.33C0 916.817 2.17991 922.08 6.06017 925.96C9.94044 929.841 15.2032 932.021 20.6907 932.021H268.98V1097.55H206.907C201.42 1097.55 196.157 1099.73 192.277 1103.61C188.397 1107.49 186.217 1112.75 186.217 1118.24V1180.31C186.217 1185.8 188.397 1191.06 192.277 1194.94C196.157 1198.82 201.42 1201 206.907 1201H372.433C377.921 1201 383.184 1198.82 387.064 1194.94C390.944 1191.06 393.124 1185.8 393.124 1180.31V1118.24C393.124 1112.75 390.944 1107.49 387.064 1103.61C383.184 1099.73 377.921 1097.55 372.433 1097.55H310.361V932.021H889.702V1097.55H827.629C822.142 1097.55 816.879 1099.73 812.999 1103.61C809.118 1107.49 806.939 1112.75 806.939 1118.24V1180.31C806.939 1185.8 809.118 1191.06 812.999 1194.94C816.879 1198.82 822.142 1201 827.629 1201H993.155C998.643 1201 1003.91 1198.82 1007.79 1194.94C1011.67 1191.06 1013.85 1185.8 1013.85 1180.31V1118.24C1013.85 1112.75 1011.67 1107.49 1007.79 1103.61C1003.91 1099.73 998.643 1097.55 993.155 1097.55H931.083V932.021H1179.37C1184.86 932.021 1190.12 929.841 1194 925.96C1197.88 922.08 1200.06 916.817 1200.06 911.33V807.876C1200.06 802.389 1197.88 797.126 1194 793.246C1190.12 789.365 1184.86 787.185 1179.37 787.185ZM351.742 1159.62H227.598V1138.93H351.742V1159.62ZM972.464 1159.62H848.32V1138.93H972.464V1159.62ZM1096.61 787.185H1034.54V642.35C1053.85 656.405 1074.67 668.271 1096.61 677.731V787.185ZM993.155 607.59V787.185H931.083V522.344C947.397 553.702 968.32 582.437 993.155 607.59ZM889.702 522.758V787.185H827.629V607.797C852.469 582.725 873.394 554.058 889.702 522.758ZM517.268 693.043C537.516 698.945 558.316 702.758 579.341 704.422V787.185H517.268V693.043ZM475.887 787.185H413.815V642.35C433.127 656.469 453.945 668.405 475.887 677.938V787.185ZM620.722 704.422C641.718 703.028 662.517 699.493 682.794 693.87V787.185H620.722V704.422ZM724.176 679.594C746.193 669.538 767.014 657.046 786.248 642.35V787.185H724.176V679.594ZM372.433 607.797V787.185H310.361V522.758C326.668 554.058 347.593 582.725 372.433 607.797ZM206.907 607.797C231.743 582.644 252.666 553.909 268.98 522.551V787.185H206.907V607.797ZM103.454 678.559C125.428 668.837 146.247 656.693 165.526 642.35V787.185H103.454V678.559ZM41.3815 890.639V828.567H268.98V890.639H41.3815ZM310.361 890.639V828.567H889.702V890.639H310.361ZM1158.68 890.639H931.083V828.567H1158.68V890.639Z" fill="#045BA2"></path>
</svg>
