<?xml version="1.0" encoding="UTF-8"?>
<svg xmlns="http://www.w3.org/2000/svg" width="95" height="69" viewBox="0 0 95 69" fill="none">
  <path d="M94.563 20.11C93.98 19.1 92.935 18.497 91.769 18.497H85.157V3.703C85.157 1.661 83.496 0 81.454 0H56.624C54.582 0 52.921 1.661 52.921 3.703V18.497H39.505C38.926 18.016 38.255 17.64 37.516 17.401C37.553 17.151 37.572 16.898 37.572 16.641C37.572 13.847 35.299 11.574 32.505 11.574C29.711 11.574 27.438 13.847 27.438 16.641C27.438 16.898 27.457 17.151 27.494 17.401C25.043 18.194 23.323 20.477 23.323 23.164C23.323 24.003 23.492 24.816 23.818 25.569C21.879 26.692 20.645 28.612 20.522 30.77C20.202 30.617 19.867 30.488 19.52 30.385C19.581 30.049 19.611 29.706 19.611 29.358C19.611 26.19 17.034 23.613 13.866 23.613C10.698 23.613 8.121 26.19 8.121 29.358C8.121 29.706 8.152 30.049 8.212 30.385C5.333 31.24 3.297 33.883 3.297 37.004C3.297 38.02 3.515 39.004 3.934 39.906C1.507 41.244 0 43.652 0 46.336C0 50.47 3.642 53.834 8.118 53.834C8.281 53.834 8.442 53.828 8.603 53.819L3.075 63.394C2.492 64.404 2.492 65.61 3.075 66.62C3.658 67.63 4.703 68.233 5.869 68.233H65.459C67.48 68.233 69.218 67.229 70.228 65.479L94.559 23.336C95.142 22.326 95.142 21.12 94.559 20.11H94.563ZM55.192 3.703C55.192 2.913 55.834 2.271 56.624 2.271H81.454C82.244 2.271 82.886 2.913 82.886 3.703V24.758C82.886 25.548 82.243 26.19 81.454 26.19H71.871C71.244 26.19 70.736 26.698 70.736 27.325V38.396H67.344V27.325C67.344 26.698 66.836 26.19 66.209 26.19H56.625C55.835 26.19 55.193 25.548 55.193 24.758L55.192 3.703ZM25.798 27.143C26.135 27.021 26.395 26.748 26.499 26.406C26.603 26.063 26.54 25.692 26.328 25.403C25.849 24.75 25.595 23.976 25.595 23.163C25.595 21.195 27.071 19.573 29.027 19.39C29.392 19.356 29.719 19.147 29.903 18.83C30.087 18.513 30.107 18.126 29.956 17.791C29.792 17.429 29.709 17.041 29.709 16.64C29.709 15.098 30.963 13.844 32.505 13.844C34.047 13.844 35.301 15.098 35.301 16.64C35.301 17.042 35.218 17.429 35.054 17.791C34.903 18.125 34.922 18.512 35.107 18.83C35.291 19.147 35.618 19.356 35.983 19.39C37.94 19.572 39.415 21.194 39.415 23.163C39.415 23.976 39.162 24.75 38.682 25.403C38.47 25.692 38.407 26.063 38.511 26.406C38.615 26.749 38.875 27.022 39.212 27.143C41.044 27.803 42.228 29.366 42.228 31.123C42.228 33.489 40.065 35.415 37.407 35.415C35.934 35.415 34.553 34.815 33.64 33.797V33.088L36.046 30.647C36.486 30.2 36.481 29.482 36.034 29.041C35.588 28.601 34.869 28.606 34.428 29.053L33.639 29.853V24.559L36.045 22.118C36.485 21.671 36.48 20.953 36.033 20.512C35.586 20.072 34.867 20.077 34.427 20.524L33.638 21.324V18.726C33.638 18.099 33.13 17.591 32.503 17.591C31.876 17.591 31.368 18.099 31.368 18.726V25.501L30.579 24.701C30.139 24.254 29.42 24.249 28.973 24.689C28.526 25.129 28.521 25.848 28.961 26.295L31.367 28.736V33.797C30.454 34.816 29.073 35.415 27.6 35.415C24.942 35.415 22.779 33.49 22.779 31.123C22.779 29.366 23.963 27.803 25.795 27.143H25.798ZM2.273 46.336C2.273 44.192 3.711 42.288 5.938 41.486C6.275 41.364 6.535 41.091 6.639 40.749C6.743 40.406 6.68 40.035 6.468 39.746C5.881 38.947 5.571 37.999 5.571 37.004C5.571 34.595 7.377 32.61 9.772 32.386C10.138 32.352 10.464 32.143 10.648 31.826C10.832 31.509 10.852 31.122 10.701 30.787C10.497 30.337 10.394 29.856 10.394 29.357C10.394 27.441 11.952 25.883 13.868 25.883C15.784 25.883 17.342 27.441 17.342 29.357C17.342 29.856 17.239 30.337 17.035 30.787C16.884 31.121 16.903 31.508 17.088 31.826C17.273 32.144 17.599 32.352 17.964 32.386C20.359 32.609 22.165 34.594 22.165 37.004C22.165 37.999 21.855 38.947 21.268 39.746C21.056 40.035 20.993 40.406 21.097 40.749C21.201 41.092 21.461 41.365 21.798 41.486C24.024 42.289 25.462 44.192 25.462 46.336C25.462 49.218 22.839 51.563 19.615 51.563C17.806 51.563 16.11 50.815 15.003 49.546V48.558L17.88 45.639C18.32 45.192 18.315 44.474 17.868 44.033C17.421 43.593 16.703 43.598 16.262 44.045L15.002 45.323V38.56L17.879 35.641C18.319 35.194 18.314 34.476 17.867 34.035C17.42 33.595 16.702 33.6 16.261 34.047L15.001 35.325V31.802C15.001 31.175 14.493 30.667 13.866 30.667C13.239 30.667 12.731 31.175 12.731 31.802V40.222L11.471 38.944C11.031 38.497 10.312 38.492 9.865 38.932C9.418 39.372 9.413 40.091 9.853 40.538L12.73 43.457V49.546C11.623 50.815 9.927 51.563 8.118 51.563C4.894 51.563 2.271 49.218 2.271 46.336H2.273ZM92.596 22.201L68.265 64.344C67.663 65.387 66.667 65.962 65.462 65.962H5.872C5.511 65.962 5.225 65.797 5.045 65.484C4.865 65.171 4.865 64.841 5.045 64.529L11.652 53.085C12.028 52.917 12.389 52.722 12.733 52.503V59.374H11.939C11.312 59.374 10.804 59.882 10.804 60.509C10.804 61.136 11.312 61.644 11.939 61.644H15.798C16.425 61.644 16.933 61.136 16.933 60.509C16.933 59.882 16.425 59.374 15.798 59.374H15.004V52.503C16.343 53.356 17.947 53.833 19.616 53.833C24.093 53.833 27.734 50.469 27.734 46.335C27.734 43.651 26.227 41.243 23.8 39.905C24.219 39.003 24.437 38.019 24.437 37.003C24.437 36.999 24.437 36.996 24.437 36.992C25.391 37.435 26.466 37.685 27.604 37.685C28.954 37.685 30.256 37.327 31.371 36.68V42.077H30.86C30.233 42.077 29.725 42.585 29.725 43.212C29.725 43.839 30.233 44.347 30.86 44.347H34.152C34.779 44.347 35.287 43.839 35.287 43.212C35.287 42.585 34.779 42.077 34.152 42.077H33.641V36.68C34.756 37.326 36.058 37.685 37.408 37.685C41.318 37.685 44.5 34.741 44.5 31.122C44.5 28.82 43.237 26.751 41.192 25.566C41.518 24.813 41.687 24 41.687 23.161C41.687 22.31 41.514 21.501 41.2 20.766H52.921V24.757C52.921 26.799 54.582 28.46 56.624 28.46H65.072V38.395H63.265C62.638 38.395 62.13 38.903 62.13 39.53C62.13 40.157 62.638 40.665 63.265 40.665H74.814C75.441 40.665 75.949 40.157 75.949 39.53C75.949 38.903 75.441 38.395 74.814 38.395H73.006V28.46H81.454C83.496 28.46 85.157 26.799 85.157 24.757V20.766H91.769C92.13 20.766 92.416 20.931 92.596 21.244C92.776 21.557 92.776 21.887 92.596 22.199V22.201ZM69.039 24.819C74.877 24.819 79.627 20.069 79.627 14.231C79.627 8.393 74.877 3.643 69.039 3.643C63.201 3.643 58.451 8.393 58.451 14.231C58.451 20.069 63.201 24.819 69.039 24.819ZM69.039 5.914C73.625 5.914 77.356 9.645 77.356 14.231C77.356 18.817 73.625 22.548 69.039 22.548C64.453 22.548 60.722 18.817 60.722 14.231C60.722 9.645 64.453 5.914 69.039 5.914ZM66.737 16.559C66.595 15.948 65.984 15.568 65.373 15.711C64.762 15.853 64.383 16.464 64.525 17.075C64.863 18.525 66.143 19.576 67.903 19.93V20.573C67.903 21.2 68.411 21.708 69.038 21.708C69.665 21.708 70.173 21.2 70.173 20.573V19.992C71.648 19.775 73.044 19.04 73.445 17.667C73.679 16.868 73.607 16.091 73.236 15.421C72.736 14.517 71.717 13.84 70.206 13.411C70.195 13.408 70.184 13.405 70.173 13.402V10.828C70.515 10.93 71.199 11.196 71.319 11.727C71.458 12.339 72.067 12.722 72.678 12.582C73.29 12.443 73.672 11.835 73.533 11.223C73.252 9.988 72.229 9.041 70.726 8.624C70.549 8.575 70.363 8.535 70.173 8.502V7.89C70.173 7.263 69.665 6.755 69.038 6.755C68.411 6.755 67.903 7.263 67.903 7.89V8.512C66.993 8.679 66.135 9.053 65.53 9.683C64.901 10.338 64.589 11.167 64.652 12.017C64.716 12.886 65.171 13.69 65.933 14.282C66.5 14.722 67.204 14.978 67.903 15.171V17.578C67.324 17.381 66.85 17.046 66.737 16.559ZM71.25 16.519C71.282 16.578 71.358 16.715 71.267 17.03C71.191 17.288 70.777 17.549 70.175 17.688V15.791C70.936 16.088 71.177 16.388 71.25 16.519ZM67.325 12.489C67.15 12.353 66.937 12.132 66.916 11.852C66.901 11.652 66.991 11.44 67.168 11.256C67.337 11.08 67.595 10.941 67.903 10.842V12.79C67.675 12.703 67.473 12.604 67.325 12.489Z" fill="#045BA2"></path>
</svg>
