<?xml version="1.0" encoding="UTF-8"?>
<svg xmlns="http://www.w3.org/2000/svg" width="111" height="104" viewBox="0 0 111 104" fill="none">
  <path d="M107.126 43.4774C106.188 40.8377 103.216 33.4646 97.0496 26.0183C92.6105 20.6576 87.4321 16.3833 81.6577 13.3137C76.986 10.8303 71.9195 9.14424 66.5241 8.25971C66.0723 3.63025 62.1589 0 57.4128 0C52.6682 0 48.7557 3.62808 48.3019 8.25538C43.3215 9.07161 38.622 10.5738 34.2579 12.7522C28.6125 15.5701 23.5052 19.5234 19.0778 24.5023C17.6832 26.0706 20.1124 28.2325 21.5077 26.6635C29.2506 17.9561 38.8446 12.7992 50.0972 11.2686C50.1055 11.2675 50.1135 11.2678 50.1217 11.2665C60.2567 9.88178 70.9779 11.3382 80.0667 16.1507C85.4567 19.0046 90.302 22.9912 94.4684 28.0001C99.518 34.0706 102.35 40.2124 103.588 43.3286H11.2365C12.2247 40.8379 14.2294 36.417 17.5655 31.6563C18.763 29.9476 16.1144 28.0606 14.9028 29.7897C10.6583 35.8461 8.47889 41.2912 7.70016 43.4771C5.47822 44.0248 3.82537 46.0334 3.82537 48.4218C3.82537 51.2302 6.11018 53.5148 8.91856 53.5148H33.4731L19.2602 71.7989H1.62597C0.728001 71.7989 0 72.5269 0 73.4249C0 73.4249 0 101.512 0 101.634C0 102.108 0.215929 102.542 0.552396 102.843C0.841385 103.101 1.21948 103.261 1.62597 103.261C1.68949 103.261 1.75323 103.257 1.81697 103.25L20.2468 101.07C21.0652 100.974 21.6818 100.28 21.6818 99.4556V93.4159L60.2892 83.8792C61.4782 83.6599 62.5587 83.0947 63.4176 82.2424C63.438 82.2223 63.4577 82.2017 63.477 82.1804L83.1695 60.462C85.035 58.582 85.3949 55.7593 84.245 53.5148H105.907C108.715 53.5148 111 51.23 111 48.4218C111 46.0336 109.347 44.0252 107.126 43.4774ZM62.6296 7.76498C60.3933 7.56423 58.1462 7.49247 55.9017 7.54949C54.725 7.57897 53.5501 7.64835 52.3773 7.74916C52.1392 7.76975 51.8999 7.78753 51.6634 7.81094C52.2734 5.20115 54.6196 3.25194 57.4126 3.25194C60.2056 3.25194 62.5517 5.20115 63.1618 7.81094C62.9855 7.79338 62.8069 7.78081 62.6296 7.76498ZM18.4296 98.0107L3.25194 99.8053V75.0509H18.4296V98.0107ZM80.8458 58.1868C80.8257 58.2069 80.8057 58.2275 80.7867 58.2485L61.0998 79.9607C60.7055 80.3416 60.2121 80.5922 59.6707 80.6865C59.6334 80.693 59.5966 80.7008 59.5599 80.7097L21.6816 90.0662V73.9825C21.6816 73.9825 36.9973 54.2794 37.0123 54.2601C37.9044 53.1133 39.8944 53.3956 40.8136 54.3085C41.7577 55.2463 41.8919 56.7173 41.1329 57.8061C40.9818 58.0229 32.6261 70.862 32.6161 70.8776C31.9213 71.9451 32.7225 73.3829 33.9839 73.3829H57.1049C57.534 73.3829 57.9457 73.2133 58.2503 72.9111C58.2503 72.9111 76.9758 54.3284 76.9964 54.3078C78.0552 53.257 79.8111 53.2648 80.8606 54.3226C81.9218 55.392 81.9151 57.1255 80.8458 58.1868ZM44.2088 53.5148H53.6605L37.0424 70.006C37.0424 70.006 43.6452 59.889 43.8006 59.666C45.0973 57.8061 45.2011 55.441 44.2088 53.5148ZM46.6758 70.1309H41.5333L57.4783 54.3078C57.9934 53.7966 58.6767 53.515 59.4028 53.515C60.4371 53.515 61.4161 54.1272 61.8627 55.0599L46.6758 70.1309ZM67.2371 54.3078C67.7524 53.7966 68.4358 53.515 69.1616 53.515C70.2007 53.515 71.173 54.1233 71.6218 55.0599L56.4348 70.1311H51.2924L67.2371 54.3078ZM105.906 50.2629H8.91856C7.9033 50.2629 7.07731 49.4371 7.07731 48.4218C7.07731 47.4066 7.9033 46.5808 8.91856 46.5808H105.906C106.922 46.5808 107.748 47.4068 107.748 48.4218C107.748 49.4369 106.922 50.2629 105.906 50.2629Z" fill="#075DA5"></path>
</svg>
