<?xml version="1.0" encoding="UTF-8"?>
<svg xmlns="http://www.w3.org/2000/svg" width="102" height="100" viewBox="0 0 102 100" fill="none">
  <path d="M87.6239 74.0567C91.1024 71.8797 93.4232 68.0084 93.4232 63.6023C93.4232 56.811 87.9136 51.2858 81.1414 51.2858C74.3692 51.2858 68.8596 56.811 68.8596 63.6023C68.8596 68.0111 71.1831 71.8842 74.6648 74.0606C71.7198 75.0285 69.0016 76.6488 66.7352 78.8209C66.5444 78.6675 66.3518 78.5164 66.1565 78.3683C66.1159 78.3292 66.0731 78.2915 66.0269 78.2568C65.9759 78.2183 65.9226 78.1851 65.8685 78.1543C64.5242 77.1655 63.0794 76.307 61.5519 75.5974C61.4657 75.5462 61.3748 75.5042 61.2805 75.4723C60.2665 75.0158 59.2167 74.6256 58.1375 74.3051C62.6527 71.7801 65.7148 66.9439 65.7148 61.4017C65.7148 53.2598 59.1094 46.6359 50.9906 46.6359C42.8719 46.6359 36.2665 53.2598 36.2665 61.4017C36.2665 66.9437 39.3286 71.7799 43.8435 74.3049C42.7639 74.6256 41.7137 75.016 40.6993 75.4727C40.6056 75.5046 40.5152 75.5464 40.4291 75.5972C38.9014 76.3068 37.4562 77.1655 36.1119 78.1545C36.0578 78.1851 36.0047 78.2185 35.9537 78.2568C35.9075 78.2915 35.865 78.3294 35.8241 78.3683C35.6251 78.5193 35.4285 78.6733 35.2341 78.83C32.9684 76.6577 30.2507 75.0372 27.3063 74.0691C30.7862 71.8933 33.1082 68.0222 33.1082 63.6156C33.1082 56.8267 27.6007 51.3036 20.8312 51.3036C14.0617 51.3036 8.55414 56.8267 8.55414 63.6156C8.55414 68.0195 10.8733 71.8886 14.3499 74.065C6.02735 76.8041 0 84.668 0 93.9185C0 94.7189 0.646974 95.3677 1.44506 95.3677H25.9787C25.8476 96.4105 25.7795 97.4725 25.7795 98.5504C25.7795 99.3508 26.4264 99.9996 27.2245 99.9996H46.4339C46.436 99.9996 46.4381 100 46.4401 100C46.4418 100 46.4434 99.9996 46.4451 99.9996H55.5353C55.537 99.9996 55.5386 100 55.5403 100C55.5424 100 55.5444 99.9996 55.5465 99.9996H74.7557C75.5538 99.9996 76.2007 99.3508 76.2007 98.5504C76.2007 97.4725 76.1328 96.4105 76.0015 95.3677H100.535C101.333 95.3677 101.98 94.7189 101.98 93.9185C101.98 84.6641 95.95 76.7966 87.6235 74.0567H87.6239ZM71.7497 63.6023C71.7497 58.409 75.9629 54.1841 81.1414 54.1841C86.3199 54.1841 90.5331 58.409 90.5331 63.6023C90.5331 68.7957 86.3256 73.0146 81.1519 73.0204C81.1484 73.0204 81.1447 73.0204 81.1412 73.0204C81.1377 73.0204 81.1344 73.0204 81.1309 73.0204C75.9571 73.0146 71.7497 68.7922 71.7497 63.6023ZM51.4997 88.948L53.6619 97.1015H48.3193L50.4815 88.948C50.6141 88.4486 50.4712 87.9164 50.1069 87.5508L48.9702 86.4109L50.9906 84.7659L53.011 86.4109L51.8744 87.551C51.51 87.9164 51.3672 88.4486 51.4997 88.948ZM41.0837 78.4961L48.4964 83.0634L44.077 86.6616L38.8866 79.7521C39.5926 79.2933 40.3261 78.8741 41.0837 78.4961ZM53.4848 83.0634L60.8975 78.4961C61.6552 78.8739 62.3886 79.2933 63.0947 79.7521L57.9044 86.6616L53.4848 83.0634ZM39.157 61.4017C39.157 54.858 44.4658 49.5342 50.991 49.5342C57.5163 49.5342 62.825 54.858 62.825 61.4017C62.825 67.9454 57.5221 73.263 51.0016 73.2688C50.998 73.2688 50.9943 73.2688 50.9908 73.2688C50.9873 73.2688 50.9838 73.2688 50.9805 73.2688C44.4602 73.263 39.1572 67.9417 39.1572 61.4017H39.157ZM50.991 76.1673C50.9945 76.1673 50.998 76.1671 51.0018 76.1671C53.2808 76.1681 55.4806 76.5147 57.5531 77.1554L50.9908 81.1985L44.4284 77.1554C46.501 76.5149 48.701 76.1681 50.9803 76.1671C50.984 76.1671 50.9875 76.1673 50.991 76.1673ZM11.4451 63.6156C11.4451 58.4249 15.656 54.2019 20.832 54.2019C26.008 54.2019 30.2189 58.4247 30.2189 63.6156C30.2189 68.8064 26.0136 73.023 20.8423 73.0286C20.8388 73.0286 20.8353 73.0286 20.8318 73.0286C20.8283 73.0286 20.8248 73.0286 20.8213 73.0286C15.6502 73.0228 11.4451 68.8023 11.4451 63.6156ZM2.94834 92.4694C3.68676 83.2267 11.4213 75.9313 20.8235 75.9271H20.8318C20.8353 75.9271 20.8386 75.9269 20.8421 75.9269C25.3899 75.9296 29.7765 77.6808 33.082 80.7748C29.9363 83.9616 27.6285 87.9808 26.5191 92.4694H2.94834ZM36.5677 81.4817L42.6702 89.6057C42.9063 89.9199 43.2595 90.1245 43.6491 90.1721C43.7075 90.1791 43.7661 90.1828 43.8244 90.1828C44.1542 90.1828 44.4763 90.0694 44.7352 89.8589L46.7143 88.2476L47.4746 89.0101L45.3287 97.1015H28.7162C29.1161 90.8548 32.0834 85.2982 36.5675 81.4819L36.5677 81.4817ZM56.6524 97.1013L54.5064 89.0096L55.2666 88.2474L57.2457 89.8589C57.5045 90.0696 57.8266 90.1828 58.1565 90.1828C58.2147 90.1828 58.2733 90.1791 58.3317 90.1721C58.7213 90.1245 59.0745 89.9197 59.3107 89.6057L65.4134 81.4817C69.8974 85.298 72.8647 90.8546 73.2646 97.1013H56.6524ZM75.4619 92.4694C74.3513 87.976 72.04 83.9532 68.8891 80.7646C72.1959 77.6717 76.5828 75.9211 81.1307 75.9187C81.1342 75.9187 81.1377 75.9189 81.1412 75.9189H81.1492C90.5566 75.9232 98.2949 83.222 99.0327 92.4696H75.4619V92.4694ZM31.8714 25.8646C31.9943 26.0617 32.0248 26.235 31.9765 26.4625L30.8956 31.5619C30.5009 33.4236 31.5647 35.2713 33.37 35.8594L38.3143 37.4707C38.5346 37.5423 38.6688 37.6553 38.7776 37.8605L41.2181 42.4634C42.1091 44.144 44.1082 44.8744 45.8681 44.1605L50.688 42.2075C50.9029 42.1206 51.0784 42.1206 51.2933 42.2075L56.1132 44.1605C56.5681 44.345 57.0392 44.4328 57.5029 44.4328C58.8328 44.4328 60.1026 43.7095 60.7631 42.4632L63.2034 37.8605C63.3122 37.6551 63.4466 37.5421 63.6671 37.4702L68.6111 35.8592C70.4164 35.2708 71.4799 33.4234 71.0852 31.5616L70.0043 26.4623C69.9562 26.2348 69.9868 26.0615 70.1094 25.8646L72.8643 21.4437C73.8701 19.8293 73.5007 17.7283 72.0049 16.5567L67.9084 13.3469C67.7257 13.204 67.6381 13.0517 67.6059 12.8215L66.8826 7.65896C66.6185 5.77424 64.985 4.40065 63.0918 4.46938L57.8966 4.65136C57.6664 4.65881 57.5002 4.59939 57.3278 4.44351L53.4648 0.955196C52.0542 -0.318399 49.9264 -0.318399 48.5163 0.955196L44.6528 4.44392C44.4806 4.59939 44.3161 4.65881 44.0845 4.65136L38.8895 4.46938C36.9964 4.40459 35.3625 5.77424 35.0985 7.65917L34.3751 12.8215C34.3429 13.0517 34.2552 13.204 34.0725 13.3471L29.9761 16.5565C28.4803 17.7283 28.111 19.8295 29.1167 21.4439L31.8714 25.8646ZM31.7552 18.8404L35.8515 15.6309C36.6218 15.0277 37.1009 14.1957 37.2369 13.2247L37.9603 8.06245C38.0189 7.64406 38.3639 7.3565 38.7885 7.36561L43.9837 7.54758C44.96 7.58195 45.8613 7.25299 46.5869 6.59736L50.4502 3.10884C50.7633 2.82626 51.2179 2.82605 51.5309 3.10884L55.3939 6.59694C56.1204 7.2532 57.0209 7.58112 57.9975 7.54738L63.1929 7.36541C63.6122 7.35278 63.9621 7.64385 64.0207 8.06224L64.7441 13.2245C64.8801 14.1952 65.3591 15.0273 66.1293 15.6305L70.2258 18.8404C70.5578 19.1004 70.6366 19.5494 70.4135 19.9076L67.6584 24.3287C67.1406 25.1599 66.9744 26.106 67.1776 27.0645L68.2585 32.1641C68.346 32.5773 68.1187 32.9719 67.718 33.1025L62.7745 34.7133C61.8449 35.016 61.1108 35.6333 60.6517 36.4993L58.2112 41.1022C58.0134 41.4751 57.5865 41.6316 57.1955 41.4728L52.3754 39.5198C51.9223 39.3361 51.4563 39.2444 50.9904 39.2444C50.5245 39.2444 50.0581 39.3361 49.6052 39.5198L44.7851 41.4728C44.3943 41.6316 43.9672 41.4755 43.7694 41.1022L41.3289 36.4993C40.87 35.6335 40.1359 35.016 39.2066 34.7135L34.2626 33.1025C33.8619 32.9719 33.6346 32.5771 33.7221 32.1639L34.803 27.0647C35.0064 26.106 34.84 25.1599 34.322 24.3283L31.5673 19.9076C31.344 19.5492 31.4228 19.1002 31.755 18.84L31.7552 18.8404ZM50.9908 34.6672C57.8369 34.6672 63.4066 29.0817 63.4066 22.2161C63.4066 15.3504 57.8369 9.7652 50.9908 9.7652C44.1447 9.7652 38.5749 15.3504 38.5749 22.2161C38.5749 29.0817 44.1445 34.6672 50.9908 34.6672ZM50.9908 12.6637C56.2432 12.6637 60.5165 16.9488 60.5165 22.2163C60.5165 27.4837 56.2432 31.7691 50.9908 31.7691C45.7384 31.7691 41.465 27.4837 41.465 22.2163C41.465 16.9488 45.7382 12.6637 50.9908 12.6637ZM45.5572 22.8641C45.0638 22.2349 45.1726 21.3238 45.8 20.8292C46.4273 20.3343 47.3358 20.4436 47.829 21.0725L49.4504 23.1402L54.2406 18.081C54.7901 17.5001 55.7048 17.4767 56.2835 18.0278C56.8621 18.5789 56.8858 19.4962 56.3363 20.0765L50.3955 26.3511C50.1219 26.6401 49.7427 26.8026 49.3476 26.8026C49.3251 26.8026 49.3028 26.802 49.2803 26.801C48.861 26.7813 48.471 26.5801 48.2116 26.2493L45.5572 22.8641Z" fill="#075DA5"></path>
</svg>
