<?xml version="1.0" encoding="UTF-8"?>
<svg xmlns="http://www.w3.org/2000/svg" width="98" height="98" viewBox="0 0 98 98" fill="none">
  <mask id="path-1-outside-1_80_165" maskUnits="userSpaceOnUse" x="0" y="0" width="98" height="98" fill="black">
    <rect fill="white" width="98" height="98"></rect>
    <path d="M49.0721 3.41446C47.2115 3.41446 45.7404 4.88916 45.7404 6.6241C45.7404 8.48916 47.2115 9.96386 49.0721 9.96386C50.8029 9.96386 52.274 8.48916 52.274 6.6241C52.2596 4.8747 50.8029 3.41446 49.0721 3.41446ZM49.0721 1C52.1298 1 54.6683 3.53012 54.6683 6.60964C54.6683 9.41446 52.6779 11.6843 50.1394 12.2193V17.294C50.1394 18.8988 47.875 18.8988 47.875 17.294V12.2193C45.351 11.6843 43.3462 9.41446 43.3462 6.60964C43.3462 3.54458 45.8702 1 49.0721 1ZM91.4038 45.8482C89.6731 45.8482 88.2019 47.3229 88.2019 49.188C88.2019 50.9229 89.6731 52.5277 91.4038 52.5277C93.2644 52.5277 94.7356 50.9229 94.7356 49.188C94.7356 47.3084 93.2644 45.8482 91.4038 45.8482ZM85.9519 50.388H80.8894C79.2885 50.388 79.2885 47.988 80.8894 47.988H85.9519C86.4856 45.4578 88.75 43.5783 91.4038 43.5783C94.4615 43.5783 97 46.1084 97 49.188C97 52.2675 94.4615 54.7831 91.4038 54.7831C88.7356 54.7831 86.4712 52.9181 85.9519 50.388ZM6.59615 45.8482C8.45673 45.8482 9.92788 47.3229 9.92788 49.188C9.92788 50.9229 8.45673 52.5277 6.59615 52.5277C4.73558 52.5277 3.26442 50.9229 3.26442 49.188C3.26442 47.3084 4.73558 45.8482 6.59615 45.8482ZM12.0481 50.388H17.2404C18.7115 50.388 18.7115 47.988 17.2404 47.988H12.0481C11.5144 45.4578 9.25 43.5783 6.59615 43.5783C3.53846 43.5783 1 46.1084 1 49.188C1 52.2675 3.53846 54.7831 6.59615 54.7831C9.26442 54.7831 11.5288 52.9181 12.0481 50.388ZM79.0288 15.8193C77.1683 15.8193 75.6971 17.294 75.6971 19.159C75.6971 20.894 77.1683 22.3687 79.0288 22.3687C80.7596 22.3687 82.2308 20.894 82.2308 19.159C82.2163 17.294 80.7596 15.8193 79.0288 15.8193ZM75.9567 23.8289L72.3654 27.4289C71.2981 28.4988 69.5673 26.894 70.6346 25.8241L74.226 22.2241C73.6923 21.2843 73.4327 20.2289 73.4327 19.159C73.4327 15.9494 75.8269 13.5494 79.0288 13.5494C82.0865 13.5494 84.625 15.9494 84.625 19.159C84.625 22.2241 82.101 24.7687 79.0288 24.7687C77.8173 24.7542 76.7644 24.3639 75.9567 23.8289ZM18.9712 15.8193C20.8317 15.8193 22.3029 17.294 22.3029 19.159C22.3029 20.894 20.8317 22.3687 18.9712 22.3687C17.2404 22.3687 15.7692 20.894 15.7692 19.159C15.7837 17.294 17.2404 15.8193 18.9712 15.8193ZM22.0433 23.8289L25.6346 27.4289C26.8317 28.4988 28.4327 26.894 27.3654 25.8241L23.774 22.2241C24.3077 21.2843 24.7115 20.2289 24.7115 19.159C24.7115 15.9494 22.1875 13.5494 18.9856 13.5494C15.9279 13.5494 13.3894 15.9494 13.3894 19.159C13.3894 22.2241 15.9135 24.7687 18.9856 24.7687C20.1827 24.7542 21.2356 24.3639 22.0433 23.8289ZM35.0817 79.0723L36.5529 75.6024C37.2163 74.2723 39.351 75.1976 38.6875 76.5422L37.2163 80.0121L39.7404 86.547C40 87.0819 39.7404 87.8771 39.0769 88.0217L32.1538 90.8265C31.4904 91.0867 30.8269 90.8265 30.5529 90.1614L27.8846 83.2217C27.625 82.5566 27.8846 81.8916 28.5481 81.6169L35.0817 79.0723ZM37.2163 86.2867L35.226 81.4868L30.4375 83.3518L32.2981 88.1518L37.2163 86.2867ZM63.0481 79.0723L61.4471 75.6024C60.7837 74.2723 58.649 75.1976 59.3125 76.5422L60.7837 80.0121L58.2596 86.547C58 87.0819 58.2596 87.8771 58.9231 88.0217L65.8462 90.8265C66.5096 91.0867 67.1731 90.8265 67.4471 90.1614L70.1154 83.2217C70.375 82.5566 70.1154 81.8916 69.5817 81.6169L63.0481 79.0723ZM60.7837 86.2867L62.774 81.4868L67.5625 83.3518L65.7019 88.1518L60.7837 86.2867ZM47.875 84.6819V80.547C47.875 79.8819 48.2788 79.6072 48.6683 79.4771H48.7981L48.9279 79.347H49.0577L49.1875 79.4771H49.3173C49.7212 79.6072 50.1106 79.8819 50.1106 80.547V84.6819L55.0433 89.6265C55.5769 90.1614 55.7067 90.8265 55.1731 91.3615L49.851 96.6964C49.3173 97.1012 48.6538 97.1012 48.1202 96.6964L42.9279 91.3615C42.3942 90.9566 42.3942 90.1614 42.7981 89.6265L47.875 84.6819ZM49.0721 94.1518L52.6635 90.5518L49.0721 86.8217L45.351 90.5518L49.0721 94.1518ZM49.0721 30.6386C38.8173 30.6386 30.6971 38.9084 30.6971 49.0578C30.6971 59.2072 38.8173 67.4771 49.0721 67.4771C59.1971 67.4771 67.4471 59.2072 67.4471 49.0578C67.4471 38.9084 59.1827 30.6386 49.0721 30.6386ZM49.0721 35.8434C41.7452 35.8434 35.8894 41.7133 35.8894 49.0578C35.8894 56.2578 41.7452 62.1422 49.0721 62.1422C56.2548 62.1422 62.125 56.2723 62.125 49.0578C62.1106 41.7133 56.2548 35.8434 49.0721 35.8434ZM49.0721 38.1133C55.0577 38.1133 59.8606 43.0578 59.8606 49.0578C59.8606 55.0578 55.0721 59.8723 49.0721 59.8723C43.0721 59.8723 38.1538 55.0723 38.1538 49.0578C38.1538 43.0434 43.0721 38.1133 49.0721 38.1133ZM44.1394 52.3831C44.2692 54.2482 46.1298 55.5928 47.8606 55.9831V57.8482C47.8606 59.3229 50.125 59.3229 50.125 57.8482V55.9831C52.1154 55.5783 53.9904 54.1181 53.9904 51.9783C53.9904 46.3687 46.274 49.1735 46.274 45.9783C46.274 43.7084 51.4663 43.7084 51.726 45.8482C51.8558 47.453 54.1202 47.1783 53.9904 45.7181C53.7308 43.7229 51.8558 42.3783 50.125 42.1181V40.253C50.125 38.7783 47.8606 38.7783 47.8606 40.253V42.1181C46 42.3783 44.1394 43.9831 44.1394 45.9928C44.1394 51.6024 51.726 48.9277 51.726 51.9928C51.726 54.2627 46.5337 54.5229 46.274 52.1229C46.1442 50.6482 43.8798 50.9229 44.1394 52.3831ZM49.0721 32.9084C57.9856 32.9084 65.1827 40.1084 65.1827 49.0578C65.1827 57.9928 58 65.2072 49.0721 65.2072C40.1587 65.2072 32.8317 58.0072 32.8317 49.0578C32.8173 40.1084 40.1442 32.9084 49.0721 32.9084ZM74.5 53.5831C75.0337 50.5181 75.0337 47.4386 74.5 44.5036L71.0385 43.9687C70.6346 43.8386 70.2452 43.5639 70.101 43.0289C69.5673 41.4241 68.9038 39.8193 68.1106 38.2289C67.9808 37.694 67.9808 37.2892 68.2404 37.0289L70.2308 34.094C68.5 31.694 66.3654 29.5542 63.8413 27.6892L61.0433 29.8289C60.6394 30.0892 60.1058 30.0892 59.7163 29.8289C59.1827 29.5687 56.9183 28.4988 54.9279 27.8337C54.524 27.7036 54.1346 27.4289 54.1346 26.894L53.4712 23.4241C50.5433 22.8892 47.4856 22.8892 44.5577 23.4241L43.8942 26.894C43.8942 27.4289 43.4904 27.6892 43.101 27.8337C41.1106 28.4988 38.8462 29.5687 38.3125 29.8289C37.9087 30.0892 37.375 30.0892 36.9856 29.8289L34.1875 27.6892C31.7933 29.5542 29.5288 31.694 27.7981 34.094L29.9327 37.0289C30.0625 37.2892 30.0625 37.694 29.9327 38.2289C29.1394 39.8337 28.4615 41.4386 27.9423 43.0289C27.8125 43.5639 27.4087 43.8241 27.0048 43.9687L23.5433 44.5036C23.0096 47.4386 23.0096 50.5036 23.5433 53.5831L27.0048 54.1181C27.4087 54.1181 27.7981 54.5229 27.9423 54.9133C28.476 56.6482 29.1394 58.253 29.9327 59.7133C30.0625 60.3783 30.0625 60.7831 29.9327 61.0434L27.7981 63.8482C29.5288 66.3783 31.7933 68.5181 34.1875 70.253L36.9856 68.2578C37.3894 67.9976 37.9231 67.853 38.3125 68.1277C38.8462 68.388 41.1106 69.6024 43.101 70.1229C43.5048 70.253 43.8942 70.6578 43.8942 71.0626L44.5577 74.5325C47.4856 75.0675 50.5433 75.0675 53.4712 74.5325L54.1346 71.0626C54.1346 70.6578 54.5385 70.2675 54.9279 70.1229C56.9183 69.588 59.1827 68.388 59.7163 68.1277C60.1202 67.8675 60.6538 67.9976 61.0433 68.2578L63.8413 70.253C66.3654 68.5181 68.5 66.3783 70.2308 63.8482L68.2404 61.0434C67.9808 60.7831 67.9808 60.3783 68.1106 59.7133C68.9038 58.2386 69.5817 56.6482 70.101 54.9133C70.2308 54.5084 70.6346 54.1181 71.0385 54.1181L74.5 53.5831ZM26.0385 65.4675C20.0529 67.7373 14.3269 71.0771 9.39423 75.2121C8.60096 75.8771 7.53365 75.3422 7.53365 74.4169V71.4819C7.53365 70.947 7.27404 70.412 6.87019 70.0072C6.07692 69.212 4.73558 69.212 3.94231 70.0072C3.53846 70.412 3.40865 70.947 3.40865 71.4819V80.4169C3.53846 82.8169 5.13942 84.8265 7.66346 84.8265C10.5913 84.6964 13.7933 84.8265 16.7212 84.8265C17.3846 84.6964 17.7885 84.6964 18.3221 84.1614C19.1154 83.3663 18.9856 82.0217 18.1923 81.2265C17.9327 80.8217 17.399 80.6916 16.7212 80.6916H13.5192C12.4519 80.6916 11.9183 79.3614 12.726 78.6964C17.6587 74.5614 23.2404 71.3518 29.2404 69.2265C28.0288 68.1277 26.9615 66.7976 26.0385 65.4675ZM72.625 63.3277C78.2212 65.4675 83.5433 68.4024 88.3317 72.0024V71.4675C88.3317 70.2675 88.7356 69.1976 89.5288 68.4024C91.2596 66.7976 93.9279 66.7976 95.6587 68.4024C96.4519 69.1976 96.8558 70.2675 96.8558 71.4675V80.4024C96.9856 84.0024 93.7981 87.0819 90.3365 87.0819C87.5385 87.212 84.2067 87.0819 81.2788 87.0819C80.2115 87.0819 79.0144 86.547 78.2212 85.7518C76.4904 84.0169 76.4904 81.3422 78.2212 79.6072C79.0144 78.812 80.0817 78.4072 81.2788 78.4072C76.8798 75.0675 71.9615 72.6675 66.7692 70.9325C66.1058 71.5976 65.2981 72.1325 64.5048 72.6675C64.101 72.9277 63.5673 72.9277 63.1779 72.6675L60.25 70.5422C58.9231 71.2072 57.5817 71.7422 56.2548 72.2771L55.7212 75.747C55.5913 76.2819 55.1875 76.6868 54.7837 76.6868C50.9183 77.4819 47.0673 77.4819 43.2019 76.6868C42.7981 76.6868 42.4087 76.2819 42.2644 75.747L41.7308 72.2771C40.4038 71.7422 39.0625 71.2072 37.7356 70.5422L34.8077 72.6819C34.4038 72.9422 33.8702 72.9422 33.4808 72.6819C32.6875 72.147 31.8798 71.6121 31.2163 70.947C26.024 72.6819 21.0913 75.0819 16.7067 78.4217C17.9038 78.4217 18.9712 78.8265 19.7644 79.6217C21.4952 81.3566 21.4952 84.0313 19.8942 85.7663C19.101 86.5614 17.9038 87.0964 16.6923 87.0964C13.7644 87.0964 10.5625 87.2265 7.63462 87.0964C4.17308 87.0964 0.971154 84.0313 1.11538 80.4169V71.4819C1.11538 70.2819 1.51923 69.2121 2.3125 68.4169C4.04327 66.812 6.71154 66.812 8.44231 68.4169C9.23558 69.2121 9.63942 70.2819 9.76923 71.4819V72.0169C14.4279 68.4169 19.75 65.4819 25.3462 63.3422V63.2121L27.4808 60.2771C26.8173 59.0771 26.2837 57.747 25.8798 56.2723L22.2885 55.7374C21.7548 55.6072 21.351 55.2024 21.351 54.7976C20.5577 50.9229 20.5577 47.0627 21.351 43.3181C21.351 42.7831 21.7548 42.3783 22.2885 42.3783L25.8798 41.7133C26.2837 40.3831 26.8173 39.0386 27.4808 37.8386L25.3462 34.7735C25.0865 34.5133 25.0865 33.9783 25.3462 33.5735C27.4808 30.2337 30.2788 27.5735 33.4663 25.4337C33.8702 25.1735 34.4038 25.0289 34.7933 25.4337L37.7212 27.4289C39.0481 26.7639 40.3894 26.2289 41.7163 25.8241L42.25 22.2241C42.3798 21.8193 42.7837 21.4289 43.1875 21.2843C47.0529 20.4892 50.9038 20.4892 54.7692 21.2843C55.1731 21.4145 55.5625 21.8193 55.7067 22.2241L56.2404 25.8241C57.5673 26.2289 58.9087 26.7639 60.2356 27.4289L63.1635 25.4337C63.5673 25.0289 64.101 25.1735 64.4904 25.4337C67.6923 27.5735 70.476 30.2337 72.6106 33.5735C72.8702 33.9783 72.8702 34.5133 72.6106 34.7735L70.476 37.8386C71.1394 39.0386 71.6731 40.3687 72.0769 41.7133L75.6683 42.3783C76.2019 42.3783 76.6058 42.7831 76.6058 43.3181C77.399 47.0482 77.399 50.9229 76.6058 54.7976C76.6058 55.2024 76.2019 55.5928 75.6683 55.7374L72.0769 56.2723C71.6731 57.747 71.1394 59.0771 70.476 60.2771L72.6106 63.2121V63.3277H72.625ZM68.774 69.1976C74.7596 71.3374 80.4856 74.5325 85.2885 78.6675C86.0817 79.3325 85.5481 80.6627 84.4952 80.6627H81.2933C80.6298 80.6627 80.226 80.7928 79.8221 81.1976C79.0288 81.9928 79.0288 83.3373 79.8221 84.1325C80.226 84.6675 80.7596 84.6675 81.2933 84.7976C84.2212 84.7976 87.4231 84.6675 90.351 84.7976C92.875 84.7976 94.476 82.8024 94.6058 80.388V71.453C94.6058 70.9181 94.476 70.3831 94.0721 69.9783C93.2788 69.1831 91.9375 69.1831 91.1442 69.9783C90.7404 70.3831 90.4808 70.9181 90.4808 71.453V74.388C90.4808 75.3277 89.4135 75.8627 88.6202 75.1831C83.6875 71.0482 78.1058 67.7084 71.976 65.4386C71.0385 66.7976 69.9712 68.1277 68.774 69.1976Z"></path>
  </mask>
  <path d="M49.0721 3.41446C47.2115 3.41446 45.7404 4.88916 45.7404 6.6241C45.7404 8.48916 47.2115 9.96386 49.0721 9.96386C50.8029 9.96386 52.274 8.48916 52.274 6.6241C52.2596 4.8747 50.8029 3.41446 49.0721 3.41446ZM49.0721 1C52.1298 1 54.6683 3.53012 54.6683 6.60964C54.6683 9.41446 52.6779 11.6843 50.1394 12.2193V17.294C50.1394 18.8988 47.875 18.8988 47.875 17.294V12.2193C45.351 11.6843 43.3462 9.41446 43.3462 6.60964C43.3462 3.54458 45.8702 1 49.0721 1ZM91.4038 45.8482C89.6731 45.8482 88.2019 47.3229 88.2019 49.188C88.2019 50.9229 89.6731 52.5277 91.4038 52.5277C93.2644 52.5277 94.7356 50.9229 94.7356 49.188C94.7356 47.3084 93.2644 45.8482 91.4038 45.8482ZM85.9519 50.388H80.8894C79.2885 50.388 79.2885 47.988 80.8894 47.988H85.9519C86.4856 45.4578 88.75 43.5783 91.4038 43.5783C94.4615 43.5783 97 46.1084 97 49.188C97 52.2675 94.4615 54.7831 91.4038 54.7831C88.7356 54.7831 86.4712 52.9181 85.9519 50.388ZM6.59615 45.8482C8.45673 45.8482 9.92788 47.3229 9.92788 49.188C9.92788 50.9229 8.45673 52.5277 6.59615 52.5277C4.73558 52.5277 3.26442 50.9229 3.26442 49.188C3.26442 47.3084 4.73558 45.8482 6.59615 45.8482ZM12.0481 50.388H17.2404C18.7115 50.388 18.7115 47.988 17.2404 47.988H12.0481C11.5144 45.4578 9.25 43.5783 6.59615 43.5783C3.53846 43.5783 1 46.1084 1 49.188C1 52.2675 3.53846 54.7831 6.59615 54.7831C9.26442 54.7831 11.5288 52.9181 12.0481 50.388ZM79.0288 15.8193C77.1683 15.8193 75.6971 17.294 75.6971 19.159C75.6971 20.894 77.1683 22.3687 79.0288 22.3687C80.7596 22.3687 82.2308 20.894 82.2308 19.159C82.2163 17.294 80.7596 15.8193 79.0288 15.8193ZM75.9567 23.8289L72.3654 27.4289C71.2981 28.4988 69.5673 26.894 70.6346 25.8241L74.226 22.2241C73.6923 21.2843 73.4327 20.2289 73.4327 19.159C73.4327 15.9494 75.8269 13.5494 79.0288 13.5494C82.0865 13.5494 84.625 15.9494 84.625 19.159C84.625 22.2241 82.101 24.7687 79.0288 24.7687C77.8173 24.7542 76.7644 24.3639 75.9567 23.8289ZM18.9712 15.8193C20.8317 15.8193 22.3029 17.294 22.3029 19.159C22.3029 20.894 20.8317 22.3687 18.9712 22.3687C17.2404 22.3687 15.7692 20.894 15.7692 19.159C15.7837 17.294 17.2404 15.8193 18.9712 15.8193ZM22.0433 23.8289L25.6346 27.4289C26.8317 28.4988 28.4327 26.894 27.3654 25.8241L23.774 22.2241C24.3077 21.2843 24.7115 20.2289 24.7115 19.159C24.7115 15.9494 22.1875 13.5494 18.9856 13.5494C15.9279 13.5494 13.3894 15.9494 13.3894 19.159C13.3894 22.2241 15.9135 24.7687 18.9856 24.7687C20.1827 24.7542 21.2356 24.3639 22.0433 23.8289ZM35.0817 79.0723L36.5529 75.6024C37.2163 74.2723 39.351 75.1976 38.6875 76.5422L37.2163 80.0121L39.7404 86.547C40 87.0819 39.7404 87.8771 39.0769 88.0217L32.1538 90.8265C31.4904 91.0867 30.8269 90.8265 30.5529 90.1614L27.8846 83.2217C27.625 82.5566 27.8846 81.8916 28.5481 81.6169L35.0817 79.0723ZM37.2163 86.2867L35.226 81.4868L30.4375 83.3518L32.2981 88.1518L37.2163 86.2867ZM63.0481 79.0723L61.4471 75.6024C60.7837 74.2723 58.649 75.1976 59.3125 76.5422L60.7837 80.0121L58.2596 86.547C58 87.0819 58.2596 87.8771 58.9231 88.0217L65.8462 90.8265C66.5096 91.0867 67.1731 90.8265 67.4471 90.1614L70.1154 83.2217C70.375 82.5566 70.1154 81.8916 69.5817 81.6169L63.0481 79.0723ZM60.7837 86.2867L62.774 81.4868L67.5625 83.3518L65.7019 88.1518L60.7837 86.2867ZM47.875 84.6819V80.547C47.875 79.8819 48.2788 79.6072 48.6683 79.4771H48.7981L48.9279 79.347H49.0577L49.1875 79.4771H49.3173C49.7212 79.6072 50.1106 79.8819 50.1106 80.547V84.6819L55.0433 89.6265C55.5769 90.1614 55.7067 90.8265 55.1731 91.3615L49.851 96.6964C49.3173 97.1012 48.6538 97.1012 48.1202 96.6964L42.9279 91.3615C42.3942 90.9566 42.3942 90.1614 42.7981 89.6265L47.875 84.6819ZM49.0721 94.1518L52.6635 90.5518L49.0721 86.8217L45.351 90.5518L49.0721 94.1518ZM49.0721 30.6386C38.8173 30.6386 30.6971 38.9084 30.6971 49.0578C30.6971 59.2072 38.8173 67.4771 49.0721 67.4771C59.1971 67.4771 67.4471 59.2072 67.4471 49.0578C67.4471 38.9084 59.1827 30.6386 49.0721 30.6386ZM49.0721 35.8434C41.7452 35.8434 35.8894 41.7133 35.8894 49.0578C35.8894 56.2578 41.7452 62.1422 49.0721 62.1422C56.2548 62.1422 62.125 56.2723 62.125 49.0578C62.1106 41.7133 56.2548 35.8434 49.0721 35.8434ZM49.0721 38.1133C55.0577 38.1133 59.8606 43.0578 59.8606 49.0578C59.8606 55.0578 55.0721 59.8723 49.0721 59.8723C43.0721 59.8723 38.1538 55.0723 38.1538 49.0578C38.1538 43.0434 43.0721 38.1133 49.0721 38.1133ZM44.1394 52.3831C44.2692 54.2482 46.1298 55.5928 47.8606 55.9831V57.8482C47.8606 59.3229 50.125 59.3229 50.125 57.8482V55.9831C52.1154 55.5783 53.9904 54.1181 53.9904 51.9783C53.9904 46.3687 46.274 49.1735 46.274 45.9783C46.274 43.7084 51.4663 43.7084 51.726 45.8482C51.8558 47.453 54.1202 47.1783 53.9904 45.7181C53.7308 43.7229 51.8558 42.3783 50.125 42.1181V40.253C50.125 38.7783 47.8606 38.7783 47.8606 40.253V42.1181C46 42.3783 44.1394 43.9831 44.1394 45.9928C44.1394 51.6024 51.726 48.9277 51.726 51.9928C51.726 54.2627 46.5337 54.5229 46.274 52.1229C46.1442 50.6482 43.8798 50.9229 44.1394 52.3831ZM49.0721 32.9084C57.9856 32.9084 65.1827 40.1084 65.1827 49.0578C65.1827 57.9928 58 65.2072 49.0721 65.2072C40.1587 65.2072 32.8317 58.0072 32.8317 49.0578C32.8173 40.1084 40.1442 32.9084 49.0721 32.9084ZM74.5 53.5831C75.0337 50.5181 75.0337 47.4386 74.5 44.5036L71.0385 43.9687C70.6346 43.8386 70.2452 43.5639 70.101 43.0289C69.5673 41.4241 68.9038 39.8193 68.1106 38.2289C67.9808 37.694 67.9808 37.2892 68.2404 37.0289L70.2308 34.094C68.5 31.694 66.3654 29.5542 63.8413 27.6892L61.0433 29.8289C60.6394 30.0892 60.1058 30.0892 59.7163 29.8289C59.1827 29.5687 56.9183 28.4988 54.9279 27.8337C54.524 27.7036 54.1346 27.4289 54.1346 26.894L53.4712 23.4241C50.5433 22.8892 47.4856 22.8892 44.5577 23.4241L43.8942 26.894C43.8942 27.4289 43.4904 27.6892 43.101 27.8337C41.1106 28.4988 38.8462 29.5687 38.3125 29.8289C37.9087 30.0892 37.375 30.0892 36.9856 29.8289L34.1875 27.6892C31.7933 29.5542 29.5288 31.694 27.7981 34.094L29.9327 37.0289C30.0625 37.2892 30.0625 37.694 29.9327 38.2289C29.1394 39.8337 28.4615 41.4386 27.9423 43.0289C27.8125 43.5639 27.4087 43.8241 27.0048 43.9687L23.5433 44.5036C23.0096 47.4386 23.0096 50.5036 23.5433 53.5831L27.0048 54.1181C27.4087 54.1181 27.7981 54.5229 27.9423 54.9133C28.476 56.6482 29.1394 58.253 29.9327 59.7133C30.0625 60.3783 30.0625 60.7831 29.9327 61.0434L27.7981 63.8482C29.5288 66.3783 31.7933 68.5181 34.1875 70.253L36.9856 68.2578C37.3894 67.9976 37.9231 67.853 38.3125 68.1277C38.8462 68.388 41.1106 69.6024 43.101 70.1229C43.5048 70.253 43.8942 70.6578 43.8942 71.0626L44.5577 74.5325C47.4856 75.0675 50.5433 75.0675 53.4712 74.5325L54.1346 71.0626C54.1346 70.6578 54.5385 70.2675 54.9279 70.1229C56.9183 69.588 59.1827 68.388 59.7163 68.1277C60.1202 67.8675 60.6538 67.9976 61.0433 68.2578L63.8413 70.253C66.3654 68.5181 68.5 66.3783 70.2308 63.8482L68.2404 61.0434C67.9808 60.7831 67.9808 60.3783 68.1106 59.7133C68.9038 58.2386 69.5817 56.6482 70.101 54.9133C70.2308 54.5084 70.6346 54.1181 71.0385 54.1181L74.5 53.5831ZM26.0385 65.4675C20.0529 67.7373 14.3269 71.0771 9.39423 75.2121C8.60096 75.8771 7.53365 75.3422 7.53365 74.4169V71.4819C7.53365 70.947 7.27404 70.412 6.87019 70.0072C6.07692 69.212 4.73558 69.212 3.94231 70.0072C3.53846 70.412 3.40865 70.947 3.40865 71.4819V80.4169C3.53846 82.8169 5.13942 84.8265 7.66346 84.8265C10.5913 84.6964 13.7933 84.8265 16.7212 84.8265C17.3846 84.6964 17.7885 84.6964 18.3221 84.1614C19.1154 83.3663 18.9856 82.0217 18.1923 81.2265C17.9327 80.8217 17.399 80.6916 16.7212 80.6916H13.5192C12.4519 80.6916 11.9183 79.3614 12.726 78.6964C17.6587 74.5614 23.2404 71.3518 29.2404 69.2265C28.0288 68.1277 26.9615 66.7976 26.0385 65.4675ZM72.625 63.3277C78.2212 65.4675 83.5433 68.4024 88.3317 72.0024V71.4675C88.3317 70.2675 88.7356 69.1976 89.5288 68.4024C91.2596 66.7976 93.9279 66.7976 95.6587 68.4024C96.4519 69.1976 96.8558 70.2675 96.8558 71.4675V80.4024C96.9856 84.0024 93.7981 87.0819 90.3365 87.0819C87.5385 87.212 84.2067 87.0819 81.2788 87.0819C80.2115 87.0819 79.0144 86.547 78.2212 85.7518C76.4904 84.0169 76.4904 81.3422 78.2212 79.6072C79.0144 78.812 80.0817 78.4072 81.2788 78.4072C76.8798 75.0675 71.9615 72.6675 66.7692 70.9325C66.1058 71.5976 65.2981 72.1325 64.5048 72.6675C64.101 72.9277 63.5673 72.9277 63.1779 72.6675L60.25 70.5422C58.9231 71.2072 57.5817 71.7422 56.2548 72.2771L55.7212 75.747C55.5913 76.2819 55.1875 76.6868 54.7837 76.6868C50.9183 77.4819 47.0673 77.4819 43.2019 76.6868C42.7981 76.6868 42.4087 76.2819 42.2644 75.747L41.7308 72.2771C40.4038 71.7422 39.0625 71.2072 37.7356 70.5422L34.8077 72.6819C34.4038 72.9422 33.8702 72.9422 33.4808 72.6819C32.6875 72.147 31.8798 71.6121 31.2163 70.947C26.024 72.6819 21.0913 75.0819 16.7067 78.4217C17.9038 78.4217 18.9712 78.8265 19.7644 79.6217C21.4952 81.3566 21.4952 84.0313 19.8942 85.7663C19.101 86.5614 17.9038 87.0964 16.6923 87.0964C13.7644 87.0964 10.5625 87.2265 7.63462 87.0964C4.17308 87.0964 0.971154 84.0313 1.11538 80.4169V71.4819C1.11538 70.2819 1.51923 69.2121 2.3125 68.4169C4.04327 66.812 6.71154 66.812 8.44231 68.4169C9.23558 69.2121 9.63942 70.2819 9.76923 71.4819V72.0169C14.4279 68.4169 19.75 65.4819 25.3462 63.3422V63.2121L27.4808 60.2771C26.8173 59.0771 26.2837 57.747 25.8798 56.2723L22.2885 55.7374C21.7548 55.6072 21.351 55.2024 21.351 54.7976C20.5577 50.9229 20.5577 47.0627 21.351 43.3181C21.351 42.7831 21.7548 42.3783 22.2885 42.3783L25.8798 41.7133C26.2837 40.3831 26.8173 39.0386 27.4808 37.8386L25.3462 34.7735C25.0865 34.5133 25.0865 33.9783 25.3462 33.5735C27.4808 30.2337 30.2788 27.5735 33.4663 25.4337C33.8702 25.1735 34.4038 25.0289 34.7933 25.4337L37.7212 27.4289C39.0481 26.7639 40.3894 26.2289 41.7163 25.8241L42.25 22.2241C42.3798 21.8193 42.7837 21.4289 43.1875 21.2843C47.0529 20.4892 50.9038 20.4892 54.7692 21.2843C55.1731 21.4145 55.5625 21.8193 55.7067 22.2241L56.2404 25.8241C57.5673 26.2289 58.9087 26.7639 60.2356 27.4289L63.1635 25.4337C63.5673 25.0289 64.101 25.1735 64.4904 25.4337C67.6923 27.5735 70.476 30.2337 72.6106 33.5735C72.8702 33.9783 72.8702 34.5133 72.6106 34.7735L70.476 37.8386C71.1394 39.0386 71.6731 40.3687 72.0769 41.7133L75.6683 42.3783C76.2019 42.3783 76.6058 42.7831 76.6058 43.3181C77.399 47.0482 77.399 50.9229 76.6058 54.7976C76.6058 55.2024 76.2019 55.5928 75.6683 55.7374L72.0769 56.2723C71.6731 57.747 71.1394 59.0771 70.476 60.2771L72.6106 63.2121V63.3277H72.625ZM68.774 69.1976C74.7596 71.3374 80.4856 74.5325 85.2885 78.6675C86.0817 79.3325 85.5481 80.6627 84.4952 80.6627H81.2933C80.6298 80.6627 80.226 80.7928 79.8221 81.1976C79.0288 81.9928 79.0288 83.3373 79.8221 84.1325C80.226 84.6675 80.7596 84.6675 81.2933 84.7976C84.2212 84.7976 87.4231 84.6675 90.351 84.7976C92.875 84.7976 94.476 82.8024 94.6058 80.388V71.453C94.6058 70.9181 94.476 70.3831 94.0721 69.9783C93.2788 69.1831 91.9375 69.1831 91.1442 69.9783C90.7404 70.3831 90.4808 70.9181 90.4808 71.453V74.388C90.4808 75.3277 89.4135 75.8627 88.6202 75.1831C83.6875 71.0482 78.1058 67.7084 71.976 65.4386C71.0385 66.7976 69.9712 68.1277 68.774 69.1976Z" fill="#045BA2"></path>
  <path d="M49.0721 3.41446C47.2115 3.41446 45.7404 4.88916 45.7404 6.6241C45.7404 8.48916 47.2115 9.96386 49.0721 9.96386C50.8029 9.96386 52.274 8.48916 52.274 6.6241C52.2596 4.8747 50.8029 3.41446 49.0721 3.41446ZM49.0721 1C52.1298 1 54.6683 3.53012 54.6683 6.60964C54.6683 9.41446 52.6779 11.6843 50.1394 12.2193V17.294C50.1394 18.8988 47.875 18.8988 47.875 17.294V12.2193C45.351 11.6843 43.3462 9.41446 43.3462 6.60964C43.3462 3.54458 45.8702 1 49.0721 1ZM91.4038 45.8482C89.6731 45.8482 88.2019 47.3229 88.2019 49.188C88.2019 50.9229 89.6731 52.5277 91.4038 52.5277C93.2644 52.5277 94.7356 50.9229 94.7356 49.188C94.7356 47.3084 93.2644 45.8482 91.4038 45.8482ZM85.9519 50.388H80.8894C79.2885 50.388 79.2885 47.988 80.8894 47.988H85.9519C86.4856 45.4578 88.75 43.5783 91.4038 43.5783C94.4615 43.5783 97 46.1084 97 49.188C97 52.2675 94.4615 54.7831 91.4038 54.7831C88.7356 54.7831 86.4712 52.9181 85.9519 50.388ZM6.59615 45.8482C8.45673 45.8482 9.92788 47.3229 9.92788 49.188C9.92788 50.9229 8.45673 52.5277 6.59615 52.5277C4.73558 52.5277 3.26442 50.9229 3.26442 49.188C3.26442 47.3084 4.73558 45.8482 6.59615 45.8482ZM12.0481 50.388H17.2404C18.7115 50.388 18.7115 47.988 17.2404 47.988H12.0481C11.5144 45.4578 9.25 43.5783 6.59615 43.5783C3.53846 43.5783 1 46.1084 1 49.188C1 52.2675 3.53846 54.7831 6.59615 54.7831C9.26442 54.7831 11.5288 52.9181 12.0481 50.388ZM79.0288 15.8193C77.1683 15.8193 75.6971 17.294 75.6971 19.159C75.6971 20.894 77.1683 22.3687 79.0288 22.3687C80.7596 22.3687 82.2308 20.894 82.2308 19.159C82.2163 17.294 80.7596 15.8193 79.0288 15.8193ZM75.9567 23.8289L72.3654 27.4289C71.2981 28.4988 69.5673 26.894 70.6346 25.8241L74.226 22.2241C73.6923 21.2843 73.4327 20.2289 73.4327 19.159C73.4327 15.9494 75.8269 13.5494 79.0288 13.5494C82.0865 13.5494 84.625 15.9494 84.625 19.159C84.625 22.2241 82.101 24.7687 79.0288 24.7687C77.8173 24.7542 76.7644 24.3639 75.9567 23.8289ZM18.9712 15.8193C20.8317 15.8193 22.3029 17.294 22.3029 19.159C22.3029 20.894 20.8317 22.3687 18.9712 22.3687C17.2404 22.3687 15.7692 20.894 15.7692 19.159C15.7837 17.294 17.2404 15.8193 18.9712 15.8193ZM22.0433 23.8289L25.6346 27.4289C26.8317 28.4988 28.4327 26.894 27.3654 25.8241L23.774 22.2241C24.3077 21.2843 24.7115 20.2289 24.7115 19.159C24.7115 15.9494 22.1875 13.5494 18.9856 13.5494C15.9279 13.5494 13.3894 15.9494 13.3894 19.159C13.3894 22.2241 15.9135 24.7687 18.9856 24.7687C20.1827 24.7542 21.2356 24.3639 22.0433 23.8289ZM35.0817 79.0723L36.5529 75.6024C37.2163 74.2723 39.351 75.1976 38.6875 76.5422L37.2163 80.0121L39.7404 86.547C40 87.0819 39.7404 87.8771 39.0769 88.0217L32.1538 90.8265C31.4904 91.0867 30.8269 90.8265 30.5529 90.1614L27.8846 83.2217C27.625 82.5566 27.8846 81.8916 28.5481 81.6169L35.0817 79.0723ZM37.2163 86.2867L35.226 81.4868L30.4375 83.3518L32.2981 88.1518L37.2163 86.2867ZM63.0481 79.0723L61.4471 75.6024C60.7837 74.2723 58.649 75.1976 59.3125 76.5422L60.7837 80.0121L58.2596 86.547C58 87.0819 58.2596 87.8771 58.9231 88.0217L65.8462 90.8265C66.5096 91.0867 67.1731 90.8265 67.4471 90.1614L70.1154 83.2217C70.375 82.5566 70.1154 81.8916 69.5817 81.6169L63.0481 79.0723ZM60.7837 86.2867L62.774 81.4868L67.5625 83.3518L65.7019 88.1518L60.7837 86.2867ZM47.875 84.6819V80.547C47.875 79.8819 48.2788 79.6072 48.6683 79.4771H48.7981L48.9279 79.347H49.0577L49.1875 79.4771H49.3173C49.7212 79.6072 50.1106 79.8819 50.1106 80.547V84.6819L55.0433 89.6265C55.5769 90.1614 55.7067 90.8265 55.1731 91.3615L49.851 96.6964C49.3173 97.1012 48.6538 97.1012 48.1202 96.6964L42.9279 91.3615C42.3942 90.9566 42.3942 90.1614 42.7981 89.6265L47.875 84.6819ZM49.0721 94.1518L52.6635 90.5518L49.0721 86.8217L45.351 90.5518L49.0721 94.1518ZM49.0721 30.6386C38.8173 30.6386 30.6971 38.9084 30.6971 49.0578C30.6971 59.2072 38.8173 67.4771 49.0721 67.4771C59.1971 67.4771 67.4471 59.2072 67.4471 49.0578C67.4471 38.9084 59.1827 30.6386 49.0721 30.6386ZM49.0721 35.8434C41.7452 35.8434 35.8894 41.7133 35.8894 49.0578C35.8894 56.2578 41.7452 62.1422 49.0721 62.1422C56.2548 62.1422 62.125 56.2723 62.125 49.0578C62.1106 41.7133 56.2548 35.8434 49.0721 35.8434ZM49.0721 38.1133C55.0577 38.1133 59.8606 43.0578 59.8606 49.0578C59.8606 55.0578 55.0721 59.8723 49.0721 59.8723C43.0721 59.8723 38.1538 55.0723 38.1538 49.0578C38.1538 43.0434 43.0721 38.1133 49.0721 38.1133ZM44.1394 52.3831C44.2692 54.2482 46.1298 55.5928 47.8606 55.9831V57.8482C47.8606 59.3229 50.125 59.3229 50.125 57.8482V55.9831C52.1154 55.5783 53.9904 54.1181 53.9904 51.9783C53.9904 46.3687 46.274 49.1735 46.274 45.9783C46.274 43.7084 51.4663 43.7084 51.726 45.8482C51.8558 47.453 54.1202 47.1783 53.9904 45.7181C53.7308 43.7229 51.8558 42.3783 50.125 42.1181V40.253C50.125 38.7783 47.8606 38.7783 47.8606 40.253V42.1181C46 42.3783 44.1394 43.9831 44.1394 45.9928C44.1394 51.6024 51.726 48.9277 51.726 51.9928C51.726 54.2627 46.5337 54.5229 46.274 52.1229C46.1442 50.6482 43.8798 50.9229 44.1394 52.3831ZM49.0721 32.9084C57.9856 32.9084 65.1827 40.1084 65.1827 49.0578C65.1827 57.9928 58 65.2072 49.0721 65.2072C40.1587 65.2072 32.8317 58.0072 32.8317 49.0578C32.8173 40.1084 40.1442 32.9084 49.0721 32.9084ZM74.5 53.5831C75.0337 50.5181 75.0337 47.4386 74.5 44.5036L71.0385 43.9687C70.6346 43.8386 70.2452 43.5639 70.101 43.0289C69.5673 41.4241 68.9038 39.8193 68.1106 38.2289C67.9808 37.694 67.9808 37.2892 68.2404 37.0289L70.2308 34.094C68.5 31.694 66.3654 29.5542 63.8413 27.6892L61.0433 29.8289C60.6394 30.0892 60.1058 30.0892 59.7163 29.8289C59.1827 29.5687 56.9183 28.4988 54.9279 27.8337C54.524 27.7036 54.1346 27.4289 54.1346 26.894L53.4712 23.4241C50.5433 22.8892 47.4856 22.8892 44.5577 23.4241L43.8942 26.894C43.8942 27.4289 43.4904 27.6892 43.101 27.8337C41.1106 28.4988 38.8462 29.5687 38.3125 29.8289C37.9087 30.0892 37.375 30.0892 36.9856 29.8289L34.1875 27.6892C31.7933 29.5542 29.5288 31.694 27.7981 34.094L29.9327 37.0289C30.0625 37.2892 30.0625 37.694 29.9327 38.2289C29.1394 39.8337 28.4615 41.4386 27.9423 43.0289C27.8125 43.5639 27.4087 43.8241 27.0048 43.9687L23.5433 44.5036C23.0096 47.4386 23.0096 50.5036 23.5433 53.5831L27.0048 54.1181C27.4087 54.1181 27.7981 54.5229 27.9423 54.9133C28.476 56.6482 29.1394 58.253 29.9327 59.7133C30.0625 60.3783 30.0625 60.7831 29.9327 61.0434L27.7981 63.8482C29.5288 66.3783 31.7933 68.5181 34.1875 70.253L36.9856 68.2578C37.3894 67.9976 37.9231 67.853 38.3125 68.1277C38.8462 68.388 41.1106 69.6024 43.101 70.1229C43.5048 70.253 43.8942 70.6578 43.8942 71.0626L44.5577 74.5325C47.4856 75.0675 50.5433 75.0675 53.4712 74.5325L54.1346 71.0626C54.1346 70.6578 54.5385 70.2675 54.9279 70.1229C56.9183 69.588 59.1827 68.388 59.7163 68.1277C60.1202 67.8675 60.6538 67.9976 61.0433 68.2578L63.8413 70.253C66.3654 68.5181 68.5 66.3783 70.2308 63.8482L68.2404 61.0434C67.9808 60.7831 67.9808 60.3783 68.1106 59.7133C68.9038 58.2386 69.5817 56.6482 70.101 54.9133C70.2308 54.5084 70.6346 54.1181 71.0385 54.1181L74.5 53.5831ZM26.0385 65.4675C20.0529 67.7373 14.3269 71.0771 9.39423 75.2121C8.60096 75.8771 7.53365 75.3422 7.53365 74.4169V71.4819C7.53365 70.947 7.27404 70.412 6.87019 70.0072C6.07692 69.212 4.73558 69.212 3.94231 70.0072C3.53846 70.412 3.40865 70.947 3.40865 71.4819V80.4169C3.53846 82.8169 5.13942 84.8265 7.66346 84.8265C10.5913 84.6964 13.7933 84.8265 16.7212 84.8265C17.3846 84.6964 17.7885 84.6964 18.3221 84.1614C19.1154 83.3663 18.9856 82.0217 18.1923 81.2265C17.9327 80.8217 17.399 80.6916 16.7212 80.6916H13.5192C12.4519 80.6916 11.9183 79.3614 12.726 78.6964C17.6587 74.5614 23.2404 71.3518 29.2404 69.2265C28.0288 68.1277 26.9615 66.7976 26.0385 65.4675ZM72.625 63.3277C78.2212 65.4675 83.5433 68.4024 88.3317 72.0024V71.4675C88.3317 70.2675 88.7356 69.1976 89.5288 68.4024C91.2596 66.7976 93.9279 66.7976 95.6587 68.4024C96.4519 69.1976 96.8558 70.2675 96.8558 71.4675V80.4024C96.9856 84.0024 93.7981 87.0819 90.3365 87.0819C87.5385 87.212 84.2067 87.0819 81.2788 87.0819C80.2115 87.0819 79.0144 86.547 78.2212 85.7518C76.4904 84.0169 76.4904 81.3422 78.2212 79.6072C79.0144 78.812 80.0817 78.4072 81.2788 78.4072C76.8798 75.0675 71.9615 72.6675 66.7692 70.9325C66.1058 71.5976 65.2981 72.1325 64.5048 72.6675C64.101 72.9277 63.5673 72.9277 63.1779 72.6675L60.25 70.5422C58.9231 71.2072 57.5817 71.7422 56.2548 72.2771L55.7212 75.747C55.5913 76.2819 55.1875 76.6868 54.7837 76.6868C50.9183 77.4819 47.0673 77.4819 43.2019 76.6868C42.7981 76.6868 42.4087 76.2819 42.2644 75.747L41.7308 72.2771C40.4038 71.7422 39.0625 71.2072 37.7356 70.5422L34.8077 72.6819C34.4038 72.9422 33.8702 72.9422 33.4808 72.6819C32.6875 72.147 31.8798 71.6121 31.2163 70.947C26.024 72.6819 21.0913 75.0819 16.7067 78.4217C17.9038 78.4217 18.9712 78.8265 19.7644 79.6217C21.4952 81.3566 21.4952 84.0313 19.8942 85.7663C19.101 86.5614 17.9038 87.0964 16.6923 87.0964C13.7644 87.0964 10.5625 87.2265 7.63462 87.0964C4.17308 87.0964 0.971154 84.0313 1.11538 80.4169V71.4819C1.11538 70.2819 1.51923 69.2121 2.3125 68.4169C4.04327 66.812 6.71154 66.812 8.44231 68.4169C9.23558 69.2121 9.63942 70.2819 9.76923 71.4819V72.0169C14.4279 68.4169 19.75 65.4819 25.3462 63.3422V63.2121L27.4808 60.2771C26.8173 59.0771 26.2837 57.747 25.8798 56.2723L22.2885 55.7374C21.7548 55.6072 21.351 55.2024 21.351 54.7976C20.5577 50.9229 20.5577 47.0627 21.351 43.3181C21.351 42.7831 21.7548 42.3783 22.2885 42.3783L25.8798 41.7133C26.2837 40.3831 26.8173 39.0386 27.4808 37.8386L25.3462 34.7735C25.0865 34.5133 25.0865 33.9783 25.3462 33.5735C27.4808 30.2337 30.2788 27.5735 33.4663 25.4337C33.8702 25.1735 34.4038 25.0289 34.7933 25.4337L37.7212 27.4289C39.0481 26.7639 40.3894 26.2289 41.7163 25.8241L42.25 22.2241C42.3798 21.8193 42.7837 21.4289 43.1875 21.2843C47.0529 20.4892 50.9038 20.4892 54.7692 21.2843C55.1731 21.4145 55.5625 21.8193 55.7067 22.2241L56.2404 25.8241C57.5673 26.2289 58.9087 26.7639 60.2356 27.4289L63.1635 25.4337C63.5673 25.0289 64.101 25.1735 64.4904 25.4337C67.6923 27.5735 70.476 30.2337 72.6106 33.5735C72.8702 33.9783 72.8702 34.5133 72.6106 34.7735L70.476 37.8386C71.1394 39.0386 71.6731 40.3687 72.0769 41.7133L75.6683 42.3783C76.2019 42.3783 76.6058 42.7831 76.6058 43.3181C77.399 47.0482 77.399 50.9229 76.6058 54.7976C76.6058 55.2024 76.2019 55.5928 75.6683 55.7374L72.0769 56.2723C71.6731 57.747 71.1394 59.0771 70.476 60.2771L72.6106 63.2121V63.3277H72.625ZM68.774 69.1976C74.7596 71.3374 80.4856 74.5325 85.2885 78.6675C86.0817 79.3325 85.5481 80.6627 84.4952 80.6627H81.2933C80.6298 80.6627 80.226 80.7928 79.8221 81.1976C79.0288 81.9928 79.0288 83.3373 79.8221 84.1325C80.226 84.6675 80.7596 84.6675 81.2933 84.7976C84.2212 84.7976 87.4231 84.6675 90.351 84.7976C92.875 84.7976 94.476 82.8024 94.6058 80.388V71.453C94.6058 70.9181 94.476 70.3831 94.0721 69.9783C93.2788 69.1831 91.9375 69.1831 91.1442 69.9783C90.7404 70.3831 90.4808 70.9181 90.4808 71.453V74.388C90.4808 75.3277 89.4135 75.8627 88.6202 75.1831C83.6875 71.0482 78.1058 67.7084 71.976 65.4386C71.0385 66.7976 69.9712 68.1277 68.774 69.1976Z" stroke="#226EAD" stroke-width="0.4" mask="url(#path-1-outside-1_80_165)"></path>
</svg>
