<?xml version="1.0" encoding="UTF-8"?>
<svg xmlns="http://www.w3.org/2000/svg" width="60" height="60" viewBox="0 0 60 60" fill="none">
  <path d="M59.931 10.6591C59.9169 10.6227 59.9005 10.5873 59.882 10.5531C59.8256 10.4469 59.7531 10.35 59.667 10.2661C59.652 10.2521 59.642 10.2331 59.625 10.2191L49.625 2.21906C49.4476 2.07719 49.2272 1.99995 49 2.00006H33.3L30.555 0.16806C30.3908 0.0586336 30.1978 0.000244141 30.0005 0.000244141C29.8032 0.000244141 29.6102 0.0586336 29.446 0.16806L26.7 2.00006H11C10.7728 1.99995 10.5524 2.07719 10.375 2.21906L0.375 10.2191C0.358 10.2331 0.348 10.2521 0.333 10.2661C0.246939 10.35 0.174412 10.4469 0.118 10.5531C0.0994646 10.5873 0.0830991 10.6227 0.069 10.6591C0.0337947 10.7533 0.0138768 10.8525 0.00999999 10.9531C0.00999999 10.9691 0 10.9831 0 11.0001V38.9521H2V12.0001H14V58.0001H2V44.9361H0V59.0001C0 59.2653 0.105357 59.5196 0.292893 59.7072C0.48043 59.8947 0.734784 60.0001 1 60.0001H59C59.2652 60.0001 59.5196 59.8947 59.7071 59.7072C59.8946 59.5196 60 59.2653 60 59.0001V11.0001C60 10.9831 59.991 10.9691 59.99 10.9531C59.9861 10.8525 59.9662 10.7533 59.931 10.6591ZM48.649 4.00006L56.149 10.0001H45.3L36.3 4.00006H48.649ZM3.849 10.0001L11.349 4.00006H23.7L14.7 10.0001H3.849ZM16 11.5351L30 2.20006L32.444 3.82906L44 11.5351V58.0001H39V46.0001H41V44.0001H19V46.0001H21V58.0001H16V11.5351ZM23 46.0001H29V58.0001H23V46.0001ZM31 58.0001V46.0001H37V58.0001H31ZM58 58.0001H46V12.0001H58V58.0001Z" fill="#045BA2"></path>
  <path d="M2 40.952H0V42.936H2V40.952Z" fill="#045BA2"></path>
  <path d="M30 14C30.7911 14 31.5645 13.7654 32.2223 13.3259C32.8801 12.8864 33.3928 12.2616 33.6955 11.5307C33.9983 10.7998 34.0775 9.99556 33.9231 9.21964C33.7688 8.44372 33.3878 7.73098 32.8284 7.17157C32.269 6.61216 31.5563 6.2312 30.7804 6.07686C30.0044 5.92252 29.2002 6.00173 28.4693 6.30448C27.7384 6.60723 27.1136 7.11993 26.6741 7.77772C26.2346 8.43552 26 9.20888 26 10C26 11.0609 26.4214 12.0783 27.1716 12.8284C27.9217 13.5786 28.9391 14 30 14ZM30 8C30.3956 8 30.7822 8.1173 31.1111 8.33706C31.44 8.55683 31.6964 8.86918 31.8478 9.23464C31.9991 9.60009 32.0387 10.0022 31.9616 10.3902C31.8844 10.7781 31.6939 11.1345 31.4142 11.4142C31.1345 11.6939 30.7781 11.8844 30.3902 11.9616C30.0022 12.0387 29.6001 11.9991 29.2346 11.8478C28.8692 11.6964 28.5568 11.44 28.3371 11.1111C28.1173 10.7822 28 10.3956 28 10C28 9.46957 28.2107 8.96086 28.5858 8.58579C28.9609 8.21072 29.4696 8 30 8Z" fill="#045BA2"></path>
  <path d="M19 26H27C27.2652 26 27.5196 25.8946 27.7071 25.7071C27.8946 25.5196 28 25.2652 28 25V19C28 17.6739 27.4732 16.4021 26.5355 15.4645C25.5979 14.5268 24.3261 14 23 14C21.6739 14 20.4021 14.5268 19.4645 15.4645C18.5268 16.4021 18 17.6739 18 19V25C18 25.2652 18.1054 25.5196 18.2929 25.7071C18.4804 25.8946 18.7348 26 19 26ZM26 24H20V22H26V24ZM20 19C20 18.2044 20.3161 17.4413 20.8787 16.8787C21.4413 16.3161 22.2044 16 23 16C23.7956 16 24.5587 16.3161 25.1213 16.8787C25.6839 17.4413 26 18.2044 26 19V20H20V19Z" fill="#045BA2"></path>
  <path d="M32 19V25C32 25.2652 32.1054 25.5196 32.2929 25.7071C32.4804 25.8946 32.7348 26 33 26H41C41.2652 26 41.5196 25.8946 41.7071 25.7071C41.8946 25.5196 42 25.2652 42 25V19C42 17.6739 41.4732 16.4021 40.5355 15.4645C39.5979 14.5268 38.3261 14 37 14C35.6739 14 34.4021 14.5268 33.4645 15.4645C32.5268 16.4021 32 17.6739 32 19ZM40 24H34V22H40V24ZM34 19C34 18.2044 34.3161 17.4413 34.8787 16.8787C35.4413 16.3161 36.2044 16 37 16C37.7956 16 38.5587 16.3161 39.1213 16.8787C39.6839 17.4413 40 18.2044 40 19V20H34V19Z" fill="#045BA2"></path>
  <path d="M27 40C27.2652 40 27.5196 39.8946 27.7071 39.7071C27.8946 39.5196 28 39.2652 28 39V33C28 31.6739 27.4732 30.4021 26.5355 29.4645C25.5979 28.5268 24.3261 28 23 28C21.6739 28 20.4021 28.5268 19.4645 29.4645C18.5268 30.4021 18 31.6739 18 33V39C18 39.2652 18.1054 39.5196 18.2929 39.7071C18.4804 39.8946 18.7348 40 19 40H27ZM26 38H20V36H26V38ZM20 33C20 32.2044 20.3161 31.4413 20.8787 30.8787C21.4413 30.3161 22.2044 30 23 30C23.7956 30 24.5587 30.3161 25.1213 30.8787C25.6839 31.4413 26 32.2044 26 33V34H20V33Z" fill="#045BA2"></path>
  <path d="M37 28C35.6744 28.0016 34.4036 28.5289 33.4662 29.4662C32.5289 30.4036 32.0016 31.6744 32 33V39C32 39.2652 32.1054 39.5196 32.2929 39.7071C32.4804 39.8946 32.7348 40 33 40H41C41.2652 40 41.5196 39.8946 41.7071 39.7071C41.8946 39.5196 42 39.2652 42 39V33C41.9984 31.6744 41.4711 30.4036 40.5338 29.4662C39.5964 28.5289 38.3256 28.0016 37 28ZM34 33C34 32.2044 34.3161 31.4413 34.8787 30.8787C35.4413 30.3161 36.2044 30 37 30C37.7956 30 38.5587 30.3161 39.1213 30.8787C39.6839 31.4413 40 32.2044 40 33V34H34V33ZM40 38H34V36H40V38Z" fill="#045BA2"></path>
  <path d="M5 27H11C11.2652 27 11.5196 26.8946 11.7071 26.7071C11.8946 26.5196 12 26.2652 12 26V16C12 15.7348 11.8946 15.4804 11.7071 15.2929C11.5196 15.1054 11.2652 15 11 15H5C4.73478 15 4.48043 15.1054 4.29289 15.2929C4.10536 15.4804 4 15.7348 4 16V26C4 26.2652 4.10536 26.5196 4.29289 26.7071C4.48043 26.8946 4.73478 27 5 27ZM6 25V22H10V25H6ZM10 17V20H6V17H10Z" fill="#045BA2"></path>
  <path d="M4 40C4 40.2652 4.10536 40.5196 4.29289 40.7071C4.48043 40.8946 4.73478 41 5 41H11C11.2652 41 11.5196 40.8946 11.7071 40.7071C11.8946 40.5196 12 40.2652 12 40V30C12 29.7348 11.8946 29.4804 11.7071 29.2929C11.5196 29.1054 11.2652 29 11 29H5C4.73478 29 4.48043 29.1054 4.29289 29.2929C4.10536 29.4804 4 29.7348 4 30V40ZM6 39V36H10V39H6ZM10 31V34H6V31H10Z" fill="#045BA2"></path>
  <path d="M4 54C4 54.2652 4.10536 54.5196 4.29289 54.7071C4.48043 54.8946 4.73478 55 5 55H11C11.2652 55 11.5196 54.8946 11.7071 54.7071C11.8946 54.5196 12 54.2652 12 54V44C12 43.7348 11.8946 43.4804 11.7071 43.2929C11.5196 43.1054 11.2652 43 11 43H5C4.73478 43 4.48043 43.1054 4.29289 43.2929C4.10536 43.4804 4 43.7348 4 44V54ZM6 53V50H10V53H6ZM10 45V48H6V45H10Z" fill="#045BA2"></path>
  <path d="M49 27H55C55.2652 27 55.5196 26.8946 55.7071 26.7071C55.8946 26.5196 56 26.2652 56 26V16C56 15.7348 55.8946 15.4804 55.7071 15.2929C55.5196 15.1054 55.2652 15 55 15H49C48.7348 15 48.4804 15.1054 48.2929 15.2929C48.1054 15.4804 48 15.7348 48 16V26C48 26.2652 48.1054 26.5196 48.2929 26.7071C48.4804 26.8946 48.7348 27 49 27ZM50 25V22H54V25H50ZM54 17V20H50V17H54Z" fill="#045BA2"></path>
  <path d="M49 41H55C55.2652 41 55.5196 40.8946 55.7071 40.7071C55.8946 40.5196 56 40.2652 56 40V30C56 29.7348 55.8946 29.4804 55.7071 29.2929C55.5196 29.1054 55.2652 29 55 29H49C48.7348 29 48.4804 29.1054 48.2929 29.2929C48.1054 29.4804 48 29.7348 48 30V40C48 40.2652 48.1054 40.5196 48.2929 40.7071C48.4804 40.8946 48.7348 41 49 41ZM50 39V36H54V39H50ZM54 31V34H50V31H54Z" fill="#045BA2"></path>
  <path d="M49 55H55C55.2652 55 55.5196 54.8946 55.7071 54.7071C55.8946 54.5196 56 54.2652 56 54V44C56 43.7348 55.8946 43.4804 55.7071 43.2929C55.5196 43.1054 55.2652 43 55 43H49C48.7348 43 48.4804 43.1054 48.2929 43.2929C48.1054 43.4804 48 43.7348 48 44V54C48 54.2652 48.1054 54.5196 48.2929 54.7071C48.4804 54.8946 48.7348 55 49 55ZM50 53V50H54V53H50ZM54 45V48H50V45H54Z" fill="#045BA2"></path>
</svg>
