<?xml version="1.0" encoding="UTF-8"?>
<svg xmlns="http://www.w3.org/2000/svg" width="91" height="90" viewBox="0 0 91 90" fill="none">
  <path fill-rule="evenodd" clip-rule="evenodd" d="M72.0264 31.7889H67.2881V36.5272H72.0264V31.7889ZM66.0147 29.2381H73.3038C74.0069 29.2381 74.5772 29.8084 74.5772 30.5115V37.8006C74.5772 38.5037 74.0068 39.074 73.3038 39.074H66.0147C65.3115 39.074 64.7413 38.5037 64.7413 37.8006V30.5115C64.7413 29.8084 65.3116 29.2381 66.0147 29.2381ZM72.0264 43.9961H67.2881V48.7344H72.0264V43.9961ZM66.0147 41.4453H73.3038C74.0069 41.4453 74.5772 42.0156 74.5772 42.7187V50.0078C74.5772 50.7109 74.0068 51.2812 73.3038 51.2812H66.0147C65.3115 51.2812 64.7413 50.7109 64.7413 50.0078V42.7187C64.7413 42.0156 65.3116 41.4453 66.0147 41.4453ZM47.5807 71.5153H42.8424V76.2536H47.5807V71.5153ZM41.569 68.9645H48.8581C49.5612 68.9645 50.1315 69.5348 50.1315 70.2379V77.527C50.1315 78.2301 49.5611 78.8004 48.8581 78.8004H41.569C40.8658 78.8004 40.2956 78.2301 40.2956 77.527V70.2379C40.2956 69.5348 40.8659 68.9645 41.569 68.9645ZM31.6823 71.5153H26.944V76.2536H31.6823V71.5153ZM25.6706 68.9645H32.9597C33.6628 68.9645 34.2331 69.5348 34.2331 70.2379V77.527C34.2331 78.2301 33.6627 78.8004 32.9597 78.8004H25.6706C24.9674 78.8004 24.3972 78.2301 24.3972 77.527V70.2379C24.3972 69.5348 24.9675 68.9645 25.6706 68.9645ZM15.7839 71.5153H11.0456V76.2536H15.7839V71.5153ZM9.77216 68.9645H17.0613C17.7644 68.9645 18.3347 69.5348 18.3347 70.2379V77.527C18.3347 78.2301 17.7643 78.8004 17.0613 78.8004H9.77216C9.06904 78.8004 8.49876 78.2301 8.49876 77.527V70.2379C8.49876 69.5348 9.06907 68.9645 9.77216 68.9645ZM47.5812 58.9762H42.8429V63.7145H47.5812V58.9762ZM41.5695 56.4254H48.8586C49.5617 56.4254 50.132 56.9957 50.132 57.6988V64.9879C50.132 65.691 49.5616 66.2613 48.8586 66.2613H41.5695C40.8663 66.2613 40.2961 65.691 40.2961 64.9879V57.6988C40.2961 56.9957 40.8664 56.4254 41.5695 56.4254ZM31.6828 58.9762H26.9445V63.7145H31.6828V58.9762ZM25.6711 56.4254H32.9602C33.6633 56.4254 34.2336 56.9957 34.2336 57.6988V64.9879C34.2336 65.691 33.6632 66.2613 32.9602 66.2613H25.6711C24.9679 66.2613 24.3977 65.691 24.3977 64.9879V57.6988C24.3977 56.9957 24.968 56.4254 25.6711 56.4254ZM15.7844 58.9762H11.0461V63.7145H15.7844V58.9762ZM9.77266 56.4254H17.0618C17.7649 56.4254 18.3352 56.9957 18.3352 57.6988V64.9879C18.3352 65.691 17.7648 66.2613 17.0618 66.2613H9.77266C9.06954 66.2613 8.49926 65.691 8.49926 64.9879V57.6988C8.49926 56.9957 9.06957 56.4254 9.77266 56.4254ZM47.5817 46.4371H42.8434V51.1754H47.5817V46.4371ZM41.57 43.8863H48.8591C49.5622 43.8863 50.1325 44.4566 50.1325 45.1597V52.4488C50.1325 53.1519 49.5621 53.7222 48.8591 53.7222H41.57C40.8668 53.7222 40.2966 53.1519 40.2966 52.4488V45.1597C40.2966 44.4566 40.8669 43.8863 41.57 43.8863ZM31.6833 46.4371H26.945V51.1754H31.6833V46.4371ZM25.6716 43.8863H32.9607C33.6638 43.8863 34.2341 44.4566 34.2341 45.1597V52.4488C34.2341 53.1519 33.6637 53.7222 32.9607 53.7222H25.6716C24.9684 53.7222 24.3982 53.1519 24.3982 52.4488V45.1597C24.3982 44.4566 24.9685 43.8863 25.6716 43.8863ZM15.7849 46.4371H11.0466V51.1754H15.7849V46.4371ZM9.77316 43.8863H17.0623C17.7654 43.8863 18.3357 44.4566 18.3357 45.1597V52.4488C18.3357 53.1519 17.7653 53.7222 17.0623 53.7222H9.77316C9.07004 53.7222 8.49976 53.1519 8.49976 52.4488V45.1597C8.49976 44.4566 9.07007 43.8863 9.77316 43.8863ZM85.2932 24.9453L39.3162 12.6253V15.473L85.2932 27.793V24.9453ZM38.4382 9.75431L86.8292 22.7193C87.4073 22.8404 87.8448 23.3521 87.8448 23.9693L87.8018 29.7818C87.6221 30.4615 86.9229 30.8638 86.2432 30.6842L82.6104 29.7115V56.8015C84.2979 56.8015 86.4424 56.4109 86.4424 58.0749V82.5279C90.669 82.5279 90.0283 81.9732 90.0283 88.7193C90.0283 89.4224 89.458 89.9927 88.7549 89.9927L1.30589 89.9966C0.602768 89.9966 0.0324886 89.4263 0.0324886 88.7232C0.0324886 82.1646 -0.541731 82.5318 3.13799 82.5318V38.8948C3.13799 37.2268 5.29419 37.6214 6.99739 37.6214L6.99348 1.2734C6.99348 0.57028 7.56379 0 8.26688 0H16.6067C17.3098 0 17.8801 0.57031 17.8801 1.2734V37.6174H21.7903L21.7942 1.2734C21.7942 0.57028 22.3645 0 23.0676 0H31.4074C32.1105 0 32.6808 0.57031 32.6808 1.2734V37.6174H41.7941V18.7734L37.7746 17.6953C37.1965 17.5742 36.759 17.0625 36.759 16.4453V10.9609C36.759 10.0859 37.6184 9.4804 38.4348 9.75L38.4382 9.75431ZM80.0552 29.0243V56.7973H55.4962V38.8913C55.4962 38.1882 54.9258 37.6179 54.2228 37.6179H44.3478V19.4579L80.0552 29.0243ZM31.4072 40.1653H52.9462V82.5243L5.68416 82.5282V40.1692H31.4072V40.1653ZM24.3447 37.6145H30.1338V13.1145H24.3447V37.6145ZM24.3447 2.54851V4.76731H30.1338V2.54851H24.3447ZM24.3447 7.31801V10.568H30.1338V7.31801H24.3447ZM9.54366 37.615H15.3328V13.115H9.54366V37.615ZM9.54366 2.54901V4.76781H15.3328V2.54901H9.54366ZM9.54366 7.31851V10.5685H15.3328V7.31851H9.54366ZM55.4967 59.3495V82.5295H58.9772V65.4595C58.9772 64.7564 59.5475 64.1861 60.2506 64.1861H79.1256C79.8287 64.1861 80.399 64.7564 80.399 65.4595V82.5295H83.8795V59.3495H55.4885H55.4967ZM87.4737 87.4435V85.0763L2.57866 85.0802V87.4474H87.4737V87.4435ZM61.5287 66.7325V82.5255H68.4154V66.7325H61.5287ZM77.8527 66.7325H70.966V82.5255H77.8527V66.7325Z" fill="#045BA2"></path>
</svg>
