<?xml version="1.0" encoding="UTF-8"?>
<svg xmlns="http://www.w3.org/2000/svg" width="118" height="78" viewBox="0 0 118 78" fill="none">
  <path d="M27.5303 53.9648C21.0226 53.9648 15.7305 59.257 15.7305 65.7647C15.7305 72.2723 21.0226 77.5645 27.5303 77.5645C34.0379 77.5645 39.3301 72.2723 39.3301 65.7647C39.3301 59.257 34.0377 53.9648 27.5303 53.9648ZM27.5303 73.6311C23.1918 73.6311 19.6638 70.1029 19.6638 65.7647C19.6638 61.4262 23.192 57.8982 27.5303 57.8982C31.8686 57.8982 35.3968 61.4264 35.3968 65.7647C35.3968 70.1029 31.8686 73.6311 27.5303 73.6311Z" fill="#075DA5"></path>
  <path d="M94.4014 53.9648C87.8937 53.9648 82.6016 59.257 82.6016 65.7647C82.6016 72.2723 87.8937 77.5645 94.4014 77.5645C100.909 77.5645 106.201 72.2723 106.201 65.7647C106.201 59.257 100.909 53.9648 94.4014 53.9648ZM94.4014 73.6311C90.0629 73.6311 86.5349 70.1029 86.5349 65.7647C86.5349 61.4262 90.0631 57.8982 94.4014 57.8982C98.7399 57.8982 102.268 61.4264 102.268 65.7647C102.268 70.1029 98.7399 73.6311 94.4014 73.6311Z" fill="#075DA5"></path>
  <path d="M117.688 43.0666L99.9878 15.5336C99.626 14.971 99.0026 14.6309 98.3338 14.6309H76.7009C75.6134 14.6309 74.7344 15.5119 74.7344 16.5974V65.7632C74.7344 66.8508 75.6134 67.7298 76.7009 67.7298H84.5674V63.7965H78.6675V18.5642H97.26L114.067 44.7086V63.7969H104.234V67.73H116.034C117.121 67.73 118 66.851 118 65.7635V44.1304C118 43.7547 117.892 43.383 117.688 43.0666Z" fill="#075DA5"></path>
  <path d="M86.5347 40.1997V26.4333H102.268V22.5H84.5681C83.4806 22.5 82.6016 23.3811 82.6016 24.4666V42.1663C82.6016 43.2538 83.4806 44.1328 84.5681 44.1328H114.068V40.1995H86.5347V40.1997Z" fill="#075DA5"></path>
  <path d="M76.6988 0.867188H1.96656C0.881068 0.867188 0 1.74826 0 2.83375V65.7662C0 66.8537 0.881068 67.7327 1.96656 67.7327H17.6997V63.7994H3.93335V4.80031H74.7322V63.7994H37.366V67.7327H76.6988C77.7864 67.7327 78.6654 66.8537 78.6654 65.7662V2.83375C78.6654 1.74826 77.7864 0.867188 76.6988 0.867188Z" fill="#075DA5"></path>
  <path d="M13.7686 55.9297H1.96875V59.863H13.7686V55.9297Z" fill="#075DA5"></path>
  <path d="M74.7298 55.9297H41.2969V59.863H74.7298V55.9297Z" fill="#075DA5"></path>
  <path d="M116.031 55.9297H108.164V59.863H116.031V55.9297Z" fill="#075DA5"></path>
  <path d="M76.6956 8.73242H7.86328V12.6658H76.6956V8.73242Z" fill="#075DA5"></path>
  <path d="M29.4998 63.7988H25.5664V67.7322H29.4998V63.7988Z" fill="#075DA5"></path>
  <path d="M96.363 63.7988H92.4297V67.7322H96.363V63.7988Z" fill="#075DA5"></path>
</svg>
