<?xml version="1.0" encoding="UTF-8"?>
<svg xmlns="http://www.w3.org/2000/svg" width="496" height="496" viewBox="0 0 496 496" fill="none">
  <path fill-rule="evenodd" clip-rule="evenodd" d="M479.864 256H433.923L440.321 263.592C443.166 266.968 442.735 272.019 439.358 274.865C435.982 277.71 430.931 277.279 428.086 273.903L410.602 253.155C408.091 250.177 408.091 245.823 410.602 242.845L428.086 222.097C430.931 218.721 435.982 218.29 439.358 221.135C442.735 223.981 443.166 229.032 440.321 232.408L433.923 240H488C492.415 240 496 243.585 496 248C496 368.463 409.923 468.978 295.975 491.353C291.643 492.204 287.435 489.377 286.584 485.045C285.733 480.712 288.56 476.504 292.892 475.653C396.953 455.22 476.159 365.116 479.864 256ZM240 62.077V8C240 3.585 243.585 0 248 0C368.463 0 468.978 86.077 491.353 200.025C492.204 204.357 489.377 208.565 485.045 209.416C480.712 210.267 476.504 207.44 475.653 203.108C455.22 99.047 365.116 19.841 256 16.136V62.077L263.592 55.679C266.968 52.834 272.019 53.265 274.865 56.642C277.71 60.018 277.279 65.069 273.903 67.914L253.155 85.398C250.177 87.909 245.823 87.909 242.845 85.398L222.097 67.914C218.721 65.069 218.29 60.018 221.135 56.642C223.981 53.265 229.032 52.834 232.408 55.679L240 62.077ZM16.136 240H62.077L55.679 232.408C52.834 229.032 53.265 223.981 56.642 221.135C60.018 218.29 65.069 218.721 67.914 222.097L85.398 242.845C87.909 245.823 87.909 250.177 85.398 253.155L67.914 273.903C65.069 277.279 60.018 277.71 56.642 274.865C53.265 272.019 52.834 266.968 55.679 263.592L62.077 256H8C3.585 256 0 252.415 0 248C0 127.537 86.077 27.022 200.025 4.647C204.357 3.796 208.565 6.623 209.416 10.955C210.267 15.288 207.44 19.496 203.107 20.347C99.047 40.78 19.841 130.884 16.136 240ZM240 479.864V433.923L232.408 440.321C229.032 443.166 223.981 442.735 221.135 439.358C218.29 435.982 218.721 430.931 222.097 428.086L242.845 410.602C245.823 408.091 250.177 408.091 253.155 410.602L273.903 428.086C277.279 430.931 277.71 435.982 274.865 439.358C272.019 442.735 266.968 443.166 263.592 440.321L256 433.923V488C256 492.415 252.415 496 248 496C127.537 496 27.022 409.923 4.647 295.975C3.796 291.643 6.623 287.435 10.955 286.584C15.288 285.733 19.496 288.56 20.347 292.892C40.78 396.953 130.884 476.159 240 479.864ZM281.823 124.704C292.118 127.519 302.005 131.615 311.285 136.913L330.206 128.501C333.231 127.156 336.772 127.813 339.113 130.154L365.846 156.887C368.184 159.225 368.843 162.761 367.504 165.784C367.504 165.784 359.121 184.709 359.121 184.708C364.423 193.995 368.522 203.892 371.338 214.219L390.634 221.645C393.723 222.834 395.761 225.802 395.761 229.111V266.927C395.761 270.236 393.723 273.204 390.634 274.393L371.333 281.821C368.514 292.115 364.396 302.002 359.117 311.282L367.504 330.216C368.843 333.239 368.184 336.775 365.846 339.113L339.113 365.846C336.775 368.184 333.239 368.843 330.216 367.504C330.216 367.504 311.297 359.124 311.297 359.123C302.034 364.422 292.122 368.52 281.821 371.335L274.393 390.634C273.204 393.723 270.236 395.761 266.927 395.761H229.111C225.802 395.761 222.834 393.723 221.645 390.634C221.645 390.634 214.218 371.336 214.219 371.337C203.895 368.517 194.001 364.398 184.718 359.117L165.784 367.504C162.761 368.843 159.225 368.184 156.887 365.846L130.154 339.113C127.813 336.772 127.156 333.231 128.501 330.206C128.501 330.206 136.911 311.29 136.911 311.291C131.614 302.031 127.515 292.123 124.677 281.825L105.366 274.393C102.277 273.204 100.239 270.236 100.239 266.927V229.111C100.239 225.802 102.277 222.834 105.366 221.645C105.366 221.645 124.674 214.214 124.674 214.215C127.513 203.891 131.613 193.998 136.913 184.715L128.501 165.794C127.156 162.769 127.813 159.228 130.154 156.887L156.887 130.154C159.228 127.813 162.769 127.156 165.794 128.501C165.794 128.501 184.715 136.913 184.715 136.914C193.997 131.614 203.887 127.517 214.184 124.702L221.648 105.359C222.838 102.274 225.804 100.239 229.111 100.239H266.927C270.238 100.239 273.207 102.279 274.394 105.37L281.823 124.704ZM268.37 134.3L261.43 116.239H234.599L227.626 134.311C226.677 136.771 224.577 138.605 222.012 139.214C210.503 141.95 199.526 146.497 189.438 152.713C187.19 154.098 184.403 154.285 181.991 153.212L164.315 145.353L145.353 164.315L153.212 181.991C154.285 184.403 154.098 187.19 152.713 189.438C146.493 199.532 141.945 210.516 139.172 222.067C138.558 224.627 136.723 226.721 134.267 227.666L116.239 234.604V261.434L134.267 268.372C136.722 269.317 138.555 271.408 139.171 273.965C141.943 285.479 146.488 296.495 152.706 306.552C154.097 308.801 154.287 311.593 153.212 314.009L145.353 331.685L164.321 350.653L182.001 342.821C184.405 341.756 187.178 341.941 189.42 343.314C199.514 349.498 210.494 354.086 222.044 356.822C224.614 357.431 226.718 359.269 227.666 361.733L234.604 379.761H261.434L268.372 361.733C269.32 359.271 271.421 357.434 273.988 356.824C285.493 354.089 296.502 349.546 306.552 343.332C308.798 341.943 311.584 341.752 313.999 342.821L331.679 350.653L350.653 331.679L342.821 313.999C341.756 311.595 341.941 308.822 343.314 306.58C349.499 296.486 354.087 285.504 356.824 273.988C357.434 271.421 359.271 269.32 361.733 268.372L379.761 261.434V234.604L361.733 227.666C359.269 226.718 357.431 224.614 356.822 222.044C354.087 210.501 349.541 199.525 343.325 189.438C341.942 187.193 341.754 184.411 342.821 182.001L350.653 164.321L331.685 145.353L314.009 153.212C311.597 154.285 308.81 154.098 306.562 152.713C296.474 146.497 285.497 141.95 273.988 139.214C271.419 138.604 269.317 136.765 268.37 134.3ZM248 150.201C302.019 150.201 345.799 193.981 345.799 248C345.799 302.019 302.019 345.799 248 345.799C193.981 345.799 150.201 302.019 150.201 248C150.201 193.981 193.981 150.201 248 150.201ZM314.569 295.551C324.157 282.151 329.799 265.735 329.799 248C329.799 202.819 293.181 166.201 248 166.201C202.819 166.201 166.201 202.819 166.201 248C166.201 265.735 171.843 282.151 181.431 295.551C188.163 276.745 202.631 261.619 220.996 254.015C213.188 246.752 208.287 236.401 208.287 224.956C208.287 203.107 226.151 185.243 248 185.243C269.849 185.243 287.713 203.107 287.713 224.956C287.713 236.401 282.812 246.752 275.004 254.015C293.369 261.619 307.837 276.745 314.569 295.551ZM194.182 309.606C208.564 322.181 227.391 329.799 248 329.799C268.609 329.799 287.436 322.181 301.818 309.606C297.214 284.056 274.863 264.669 248 264.669C221.137 264.669 198.786 284.056 194.182 309.606ZM248 248.669C261.046 248.669 271.713 238.002 271.713 224.956C271.713 211.909 261.046 201.243 248 201.243C234.954 201.243 224.287 211.909 224.287 224.956C224.287 238.002 234.954 248.669 248 248.669Z" fill="#1062A5"></path>
</svg>
