<?xml version="1.0" encoding="UTF-8"?>
<svg xmlns="http://www.w3.org/2000/svg" width="102" height="100" viewBox="0 0 102 100" fill="none">
  <path d="M19.9817 19.5195C20.4593 20.3294 21.726 21.7539 24.5833 21.7539C25.8168 21.7539 27.3576 21.4881 29.2596 20.7862L45.3031 14.7476C45.3446 15.545 45.5897 16.3756 46.0257 17.1398C47.2592 19.3202 49.7593 20.6283 52.7038 20.6283L65.4833 20.6616H65.5041C67.7259 20.6616 69.8316 19.8766 71.5094 18.4189L71.9579 18.4064C72.2237 19.5984 73.2869 20.4912 74.5536 20.4912H78.9018C80.3679 20.4912 81.5722 19.2993 81.5722 17.8208V2.67041C81.5722 1.20438 80.3803 0 78.9018 0H74.5536C73.2578 0 72.1739 0.934446 71.9372 2.16794L52.0397 2.05166C47.3093 2.05166 45.3823 2.95703 43.3431 3.91224L22.7609 13.5764C21.1454 14.3406 20.0406 15.4494 19.6461 16.7037C19.347 17.6381 19.4633 18.6058 19.9741 19.4904C19.9741 19.4987 19.9817 19.5112 19.9817 19.5195ZM74.7688 2.87425H78.7142V17.6302H74.7688V2.87425ZM22.3739 17.5632C22.4819 17.2227 22.9678 16.6496 23.9811 16.172L44.4889 6.54097L44.5637 6.50774C46.4574 5.61484 47.9567 4.91296 52.0391 4.91296L71.8995 5.04171V15.5448L70.911 15.5656C70.5497 15.578 70.1967 15.7234 69.9434 15.9684C68.7431 17.1479 67.1691 17.7874 65.4996 17.7874L52.7084 17.7542C49.9674 17.7542 48.8585 16.3298 48.5179 15.7233C48.1234 15.0339 48.0486 14.2573 48.3269 13.8004C48.4099 13.6509 48.5387 13.5471 48.7007 13.4599C48.7131 13.4474 48.7214 13.4474 48.7339 13.4391C48.9457 13.3436 49.2239 13.2896 49.5645 13.3021H49.5977H58.8674C59.6524 13.3021 60.3044 12.6625 60.3044 11.8651C60.3044 11.0801 59.6649 10.4281 58.8674 10.4281H49.6186C48.8752 10.4156 48.1941 10.5444 47.6002 10.8018L28.2715 18.0738C24.7829 19.3612 22.9555 18.8505 22.4447 18.0323C22.3201 17.8288 22.3323 17.6837 22.3739 17.5632ZM43.1804 89.5314L29.9321 78.655C30.6007 78.2189 31.1988 77.6043 31.6432 76.836C32.9181 74.6765 32.7894 71.8606 31.3234 69.3107L24.9567 58.2216C23.8519 56.2863 22.1077 54.8493 20.002 54.1184L19.7695 53.7363C20.1432 53.3957 20.409 52.9597 20.5461 52.4696C20.7288 51.7802 20.6292 51.0659 20.2803 50.4512L18.1123 46.6885C17.7635 46.0739 17.1779 45.6378 16.4968 45.4426C15.8074 45.2598 15.0931 45.3595 14.4785 45.7084L1.3343 53.2877C0.0593286 54.0228 -0.376791 55.6592 0.354172 56.9258L2.52212 60.6886C2.87097 61.3032 3.45656 61.7393 4.13763 61.9345C4.3702 61.9968 4.60693 62.03 4.82704 62.03C5.12606 62.03 5.41262 61.9677 5.68672 61.8598L15.5419 79.178C17.9134 83.273 19.6576 84.4939 21.5058 85.7813L40.1743 98.7724C41.3329 99.5823 42.5249 99.9934 43.6089 99.9934C43.8955 99.9934 44.1737 99.9602 44.4478 99.8979C45.403 99.6861 46.1796 99.1005 46.6905 98.2201C46.6905 98.2076 46.703 98.2076 46.703 98.1993C47.3799 97.0281 48.3386 93.8256 43.1804 89.5314ZM2.9367 55.6668L15.7162 48.2868L17.6931 51.709L4.91784 59.0931L2.9367 55.6668ZM44.2224 96.8026C44.0936 97.0268 43.9566 97.0808 43.8403 97.1099C43.4914 97.1846 42.7439 97.0559 41.8302 96.4205L23.1702 83.4294C21.4591 82.2374 20.097 81.2906 18.0578 77.7522L8.22332 60.4882L17.3227 55.2345L17.8335 56.0734C18.0246 56.3808 18.3236 56.6175 18.6725 56.713C20.288 57.1699 21.6378 58.2123 22.4684 59.6575L28.8392 70.7338C30.2097 73.1135 29.5286 74.7747 29.1797 75.3811C28.7769 76.0622 28.1498 76.5066 27.6057 76.5066C27.4354 76.5066 27.2776 76.4526 27.1281 76.3571C27.1156 76.3446 27.1073 76.3363 27.0949 76.3363C26.9038 76.1992 26.7211 75.9874 26.5633 75.6884C26.5508 75.6759 26.5508 75.6676 26.5425 75.6552L21.9076 67.6273C21.5131 66.9462 20.6327 66.7136 19.9516 67.1081C19.2705 67.5027 19.0379 68.3831 19.4325 69.0642L24.059 77.0797C24.4203 77.7275 24.8689 78.2592 25.4004 78.6413L41.361 91.7482C44.21 94.1114 44.6917 95.9512 44.2224 96.8026ZM67.1968 66.809C69.5059 64.151 70.3448 60.4423 69.7717 55.4627C69.1238 49.8186 65.4858 43.7134 60.5643 39.8221C60.8716 39.249 61.0544 38.6094 61.0544 37.92C61.0544 36.3668 60.1822 35.0378 58.9073 34.3359C59.7046 32.6581 60.5436 30.3821 60.6724 27.9983C60.7471 26.553 59.6839 25.3196 58.2386 25.1909C56.378 25.0206 53.9319 25.3819 52.0173 26.2333C51.984 26.0505 51.9425 25.8844 51.8885 25.7017C51.5812 24.5638 50.8876 23.7331 49.8702 23.2888C47.5196 22.2588 44.2469 23.7373 42.947 24.4143C41.2982 25.2864 40.3721 26.9768 40.5341 28.8373C40.6836 30.5484 41.2692 32.4755 42.2036 34.3859C40.9827 35.1002 40.1396 36.4043 40.1396 37.916C40.1396 38.5763 40.3099 39.1827 40.5881 39.735C35.6127 43.6265 31.9331 49.7605 31.2728 55.4585C30.6997 60.4339 31.5386 64.155 33.8477 66.8048C37.1951 70.663 42.918 71.5767 50.4845 71.7719H50.5177H50.5509C58.1261 71.5933 63.8499 70.6713 67.1968 66.809ZM43.022 37.9243C43.022 37.2432 43.5744 36.6908 44.2555 36.6908H56.9723C57.6534 36.6908 58.2058 37.2432 58.2058 37.9243C58.2058 38.6055 57.6535 39.1578 56.9723 39.1578H44.2428C43.5741 39.1454 43.022 38.593 43.022 37.9243ZM44.297 26.9522C46.116 25.997 47.9434 25.5692 48.7325 25.9098C48.8696 25.9721 49.0315 26.0676 49.1271 26.4414C49.4759 27.7497 49.4551 29.3527 49.0855 30.7482C48.882 31.5123 49.3306 32.3014 50.0947 32.5007C50.8589 32.7042 51.6479 32.2557 51.8473 31.4915C51.9636 31.0762 52.1255 30.3329 52.2086 29.4067C53.2718 28.5969 55.6971 27.895 57.8111 28.0362C57.6823 29.7597 57.0261 31.8321 55.9712 33.8297H45.1565C44.168 32.0023 43.5285 30.1625 43.3914 28.5968C43.3374 27.8866 43.6699 27.2803 44.297 26.9522ZM50.5266 68.9269C43.7322 68.7441 38.6742 68.0007 36.0163 64.9399C34.2637 62.9299 33.6448 59.9313 34.135 55.7948C34.7205 50.7571 38.2174 45.0885 42.7485 41.7076C43.2178 41.8986 43.7286 42.0066 44.2602 42.0066H56.977C57.4671 42.0066 57.9322 41.8986 58.3807 41.7408C62.8868 45.1214 66.3671 50.7779 66.9402 55.7866C67.4178 59.923 66.8032 62.9091 65.0589 64.9317C62.3802 68.0008 57.3211 68.7441 50.5266 68.9269ZM54.9289 58.3697C54.9289 60.2843 53.7286 61.9206 52.0383 62.5602V62.9755C52.0383 63.7604 51.3987 64.4125 50.6013 64.4125C49.8163 64.4125 49.1643 63.7729 49.1643 62.9755V62.6682C47.7813 62.2529 46.6558 61.1897 46.1865 59.7651C45.9415 59.0093 46.3443 58.2035 47.1002 57.9586C47.856 57.7135 48.6618 58.1164 48.9067 58.8722C49.1186 59.5409 49.7457 59.9894 50.4392 59.9894C51.3321 59.9894 52.0547 59.2668 52.0547 58.3739C52.0547 57.5018 51.3529 56.7584 50.514 56.7584C48.0886 56.7584 46.1117 54.7484 46.1117 52.2814C46.1117 50.3128 47.3867 48.635 49.1643 48.0411V47.6798C49.1643 46.8949 49.8038 46.2428 50.6013 46.2428C51.3862 46.2428 52.0383 46.8824 52.0383 47.6798V48.0411C53.3548 48.4772 54.4097 49.5196 54.8665 50.8902C55.1116 51.646 54.7087 52.4518 53.9529 52.6967C53.197 52.9418 52.3913 52.5389 52.1463 51.783C51.922 51.1144 51.3074 50.6658 50.6138 50.6658C49.7209 50.6658 48.9983 51.3885 48.9983 52.2814C48.9983 53.1535 49.7002 53.8969 50.5391 53.8969C52.952 53.8927 54.9289 55.9028 54.9289 58.3697ZM99.7199 53.2864L86.6001 45.7071C85.3252 44.972 83.6971 45.4081 82.9537 46.6872L80.7858 50.4499C80.1462 51.5463 80.3913 52.9168 81.2966 53.7475L81.064 54.1296C78.9708 54.8647 77.2266 56.2975 76.1094 58.2328L69.7427 69.3134C68.2642 71.8633 68.1479 74.6833 69.4229 76.8387C69.8714 77.6029 70.4653 78.2217 71.134 78.6577L57.8729 89.5426C52.7147 93.8369 53.6824 97.0389 54.3345 98.2059C54.3345 98.2184 54.3469 98.2184 54.3469 98.2267C54.8578 99.1071 55.6344 99.6927 56.5896 99.9045C56.8554 99.9668 57.142 100 57.4285 100C58.5125 100 59.7044 99.5764 60.8632 98.779L79.5232 85.788C81.3713 84.5005 83.1156 83.2878 85.487 79.1762L95.3422 61.8665C95.6205 61.962 95.907 62.0367 96.2019 62.0367C96.4345 62.0367 96.6712 62.0035 96.8913 61.9412C97.5807 61.7585 98.158 61.3141 98.5068 60.6953L100.675 56.9326C101.422 55.6576 100.987 54.0215 99.7199 53.2864ZM83.0077 77.7524C80.9643 81.2908 79.6063 82.2377 77.8952 83.4296L59.2235 96.4207C58.2974 97.0602 57.5665 97.1973 57.2135 97.1101C57.0972 97.0769 56.9601 97.027 56.8314 96.8027C56.3746 95.9514 56.8439 94.1116 59.6929 91.7402L75.6619 78.6332C76.1811 78.2511 76.6421 77.7195 77.0034 77.0716L81.6299 69.0561C82.0245 68.375 81.7877 67.4945 81.1108 67.1001C80.4297 66.7055 79.5492 66.9423 79.1547 67.6192L74.5199 75.6471C74.5074 75.6596 74.5074 75.6679 74.4991 75.6803C74.3413 75.9794 74.1586 76.1912 73.9675 76.3282C73.9551 76.3407 73.9468 76.3407 73.9343 76.349C73.7848 76.4445 73.627 76.4985 73.4567 76.5068H73.4442C72.9126 76.5068 72.2856 76.0583 71.891 75.3813C71.5422 74.775 70.8611 73.1179 72.2316 70.734L78.5983 59.645C79.4289 58.1997 80.7786 57.1573 82.3941 56.7005C82.743 56.605 83.042 56.3724 83.2331 56.0609L83.7439 55.222L92.8433 60.4756L83.0077 77.7524ZM96.1359 59.0924L83.3564 51.7124L85.3333 48.2902L98.1128 55.6702L96.1359 59.0924Z" fill="#045BA2"></path>
</svg>
