<?xml version="1.0" encoding="UTF-8"?>
<svg xmlns="http://www.w3.org/2000/svg" width="92" height="92" viewBox="0 0 92 92" fill="none">
  <mask id="path-1-outside-1_80_161" maskUnits="userSpaceOnUse" x="0" y="0" width="92" height="92" fill="black">
    <rect fill="white" width="92" height="92"></rect>
    <path fill-rule="evenodd" clip-rule="evenodd" d="M46.7212 9.10752L46.7052 9.12452L46.6942 9.13452L46.6842 9.14452L46.6832 9.14552L46.6672 9.16152C46.6272 9.19852 46.5842 9.23152 46.5392 9.26052L46.5382 9.26152L46.5202 9.27252L46.5172 9.27452L46.5012 9.28452L46.4972 9.28652L46.4822 9.29452L46.4742 9.29852L46.4632 9.30452L46.4502 9.31052L46.4442 9.31352L46.4302 9.32052L46.4232 9.32352L46.4082 9.33052L46.4042 9.33252L46.3892 9.33952L46.3842 9.34152C46.3652 9.34952 46.3452 9.35652 46.3252 9.36252H46.3222L46.3052 9.36752L46.3002 9.36852C46.2802 9.37452 46.2592 9.37952 46.2392 9.38352L46.2192 9.38752L46.2162 9.38852C46.2022 9.39152 46.1892 9.39352 46.1752 9.39552L46.1722 9.39652L46.1552 9.39852L46.1492 9.39952L46.1322 9.40152H46.1292L46.1122 9.40252H46.1052L46.0922 9.40352H46.0822L46.0702 9.40452H46.0592H46.0482H46.0372H46.0262L46.0142 9.40352H46.0042L45.9912 9.40252H45.9842L45.9672 9.40152H45.9642L45.9472 9.39952L45.9412 9.39852L45.9242 9.39652L45.9212 9.39552C45.9072 9.39352 45.8932 9.39152 45.8802 9.38852L45.8772 9.38752L45.8582 9.38352C45.8372 9.37852 45.8162 9.37352 45.7962 9.36852L45.7912 9.36752L45.7742 9.36252H45.7712C45.7512 9.35552 45.7312 9.34952 45.7122 9.34152L45.7072 9.33952L45.6912 9.33252L45.6872 9.33052L45.6722 9.32352L45.6652 9.32052L45.6512 9.31352L45.6452 9.31052L45.6322 9.30452L45.6212 9.29852L45.6132 9.29452L45.5992 9.28652L45.5952 9.28452L45.5782 9.27452L45.5752 9.27252L45.5582 9.26152L45.5572 9.26052C45.5122 9.23152 45.4692 9.19852 45.4292 9.16152L45.4132 9.14552L45.4122 9.14452L45.4022 9.13452L45.3922 9.12452H45.3892L45.3732 9.10752C40.4762 3.80552 34.9101 2.18152 30.2041 3.05252C28.0751 3.44652 26.1181 4.35252 24.4771 5.65852C22.8401 6.96152 21.5202 8.66652 20.6632 10.6615C18.7722 15.0625 19.1381 20.8865 23.3001 26.9735C34.4391 43.2615 43.9792 49.2345 46.0462 50.4035C48.1132 49.2345 57.6531 43.2615 68.7921 26.9735C72.9541 20.8865 73.3201 15.0625 71.4291 10.6615C70.5721 8.66652 69.2522 6.96152 67.6152 5.65852C65.9752 4.35252 64.0182 3.44652 61.8882 3.05252C57.1842 2.18152 51.6182 3.80552 46.7212 9.10752ZM41.7732 12.9435H50.3212C50.8282 12.9435 51.2392 13.3545 51.2392 13.8615V21.4925H58.8632C59.3702 21.4925 59.7802 21.9035 59.7802 22.4095V30.9505C59.7802 31.4575 59.3692 31.8685 58.8632 31.8685H51.2392V39.4995C51.2392 40.0065 50.8282 40.4165 50.3212 40.4165H41.7732C41.2662 40.4165 40.8552 40.0055 40.8552 39.4995V31.8685H33.2312C32.7242 31.8685 32.3132 31.4575 32.3132 30.9505V22.4095C32.3132 21.9025 32.7242 21.4925 33.2312 21.4925H40.8552V13.8615C40.8552 13.3555 41.2662 12.9435 41.7732 12.9435ZM49.4042 14.7795V22.4105C49.4042 22.9175 49.8152 23.3285 50.3212 23.3285H57.9452V30.0345H50.3212C49.8142 30.0345 49.4042 30.4455 49.4042 30.9515V38.5825H42.6902V30.9515C42.6902 30.4445 42.2792 30.0345 41.7732 30.0345H34.1492V23.3285H41.7732C42.2802 23.3285 42.6902 22.9175 42.6902 22.4105V14.7795H49.4042ZM9.11615 41.6315C8.91515 44.3975 9.36215 47.5135 9.84515 49.1585H9.84715C9.85215 49.1755 9.85715 49.1925 9.86315 49.2085C10.2972 50.4105 11.7442 52.0615 13.1012 53.6085C14.1162 54.7655 15.0762 55.8605 15.3772 56.4815C15.3872 56.5035 15.3982 56.5245 15.4112 56.5455L18.7201 62.2515C18.9731 62.6885 19.5341 62.8385 19.9711 62.5845C20.4081 62.3315 20.5581 61.7715 20.3041 61.3335L17.0112 55.6535C16.5952 54.8165 15.5662 53.6435 14.4792 52.4035C13.2502 51.0015 11.9402 49.5075 11.6002 48.6315C11.1022 46.9245 10.6472 43.4935 11.0552 40.7655C11.2982 39.1385 11.8342 37.8185 12.8402 37.4965C14.0462 37.1105 14.9392 39.7425 15.8672 42.4815C16.2562 43.6285 16.6501 44.7915 17.1031 45.8175C19.1581 50.8605 23.5262 53.4525 25.8122 54.8105C26.2672 55.0805 26.6332 55.2975 26.8302 55.4435C26.8572 55.4635 26.8852 55.4825 26.9142 55.4985L26.9132 55.5005C33.4762 59.3335 33.4642 63.4465 33.4472 69.4415C33.4442 70.5865 33.4402 71.7965 33.4772 73.0715L17.6812 76.4485C16.8412 70.8515 14.2512 68.2845 11.6062 65.6635C9.80015 63.8735 7.96615 62.0565 6.76415 59.1515C6.74315 59.0955 6.71615 59.0415 6.68315 58.9895C4.97815 56.2715 3.59815 51.3045 3.06615 45.7675C2.59515 40.8685 2.79615 35.5525 4.03015 30.9845L4.02815 30.9835C4.03815 30.9455 4.04615 30.9065 4.05115 30.8655C4.17015 29.9775 4.45715 28.9135 4.86515 27.8235C5.46515 26.2165 6.31515 24.5785 7.25815 23.3855C8.07015 22.3575 8.90215 21.6905 9.58815 21.7825C9.65115 21.7915 9.71415 21.8065 9.77815 21.8305C10.4472 22.0805 10.0112 24.2805 9.47415 26.9885C9.11715 28.7895 8.72215 30.7835 8.61815 32.7525C8.55015 34.0485 8.58515 35.5755 8.66115 36.9925C8.77715 39.1575 8.99815 41.1065 9.10015 41.5635C9.10315 41.5875 9.10915 41.6095 9.11615 41.6315ZM10.4862 36.9005L10.4952 37.0605C10.9522 36.4485 11.5392 35.9915 12.2782 35.7545C15.2012 34.8195 16.3752 38.2865 17.5982 41.8935C17.9732 43.0015 18.3542 44.1245 18.7822 45.0925L18.7922 45.1175C20.6132 49.5965 24.6342 51.9835 26.7392 53.2335C27.1942 53.5035 27.5661 53.7245 27.8521 53.9285C35.3021 58.2875 35.2892 62.8275 35.2702 69.4425C35.2672 70.4655 35.2642 71.5405 35.2922 72.6835L36.7302 72.3765L36.7512 72.3735C37.2482 72.2805 37.7262 72.6075 37.8192 73.1045L38.3202 75.7335L39.4572 75.4975H39.4612C39.9562 75.3965 40.4392 75.7155 40.5402 76.2115L42.2002 84.2555L42.2072 84.2885C42.3102 84.7835 41.9922 85.2675 41.4982 85.3705L15.1922 90.8305H15.1892C14.6942 90.9315 14.2112 90.6125 14.1102 90.1175L12.4502 82.0735L12.4432 82.0405C12.3402 81.5455 12.6582 81.0605 13.1522 80.9575L13.9692 80.7875L13.4942 78.2955L13.4902 78.2795C13.3852 77.7845 13.7012 77.2985 14.1962 77.1935L15.8842 76.8325C15.1402 71.7465 12.7522 69.3785 10.3132 66.9615C8.38815 65.0535 6.43315 63.1165 5.09115 59.8975C3.26315 56.9405 1.79815 51.7065 1.24315 45.9395C0.753151 40.8535 0.963151 35.3255 2.24615 30.5515C2.38915 29.5435 2.70715 28.3705 3.14915 27.1855C3.80915 25.4185 4.75715 23.5995 5.82215 22.2525C7.01815 20.7395 8.40515 19.7785 9.82215 19.9685C10.0212 19.9955 10.2192 20.0445 10.4132 20.1165C12.5442 20.9125 11.9732 23.7935 11.2712 27.3385C10.9232 29.0905 10.5392 31.0295 10.4442 32.8445C10.3802 34.0725 10.4132 35.5365 10.4862 36.9005ZM36.5002 75.9585L36.1962 74.3645L15.4522 78.7995L15.7562 80.3935L36.5002 75.9585ZM40.2302 83.7635L38.9332 77.4765L14.4182 82.5645L15.7152 88.8525L40.2302 83.7635ZM82.8061 41.5645C82.9081 41.1075 83.1291 39.1585 83.2451 36.9935C83.3211 35.5775 83.3561 34.0495 83.2881 32.7535C83.1851 30.7845 82.7902 28.7915 82.4332 26.9895C81.8962 24.2815 81.4602 22.0815 82.1292 21.8315C82.1922 21.8075 82.2561 21.7915 82.3191 21.7835C83.0051 21.6915 83.8371 22.3585 84.6491 23.3865C85.5921 24.5805 86.4421 26.2185 87.0421 27.8245C87.4491 28.9145 87.7371 29.9785 87.8561 30.8665C87.8611 30.9065 87.8692 30.9455 87.8792 30.9845L87.8772 30.9855C89.1122 35.5535 89.3121 40.8695 88.8411 45.7685C88.3081 51.3045 86.9292 56.2725 85.2242 58.9895C85.1912 59.0415 85.1642 59.0965 85.1432 59.1515C83.9412 62.0565 82.1081 63.8735 80.3021 65.6645C77.6571 68.2855 75.0681 70.8525 74.2271 76.4485L58.4312 73.0715C58.4682 71.7965 58.4652 70.5865 58.4612 69.4415C58.4442 63.4455 58.4322 59.3335 64.9952 55.4995L64.9942 55.4975C65.0232 55.4805 65.0511 55.4625 65.0781 55.4425C65.2751 55.2965 65.6411 55.0795 66.0961 54.8095C68.3831 53.4525 72.7501 50.8595 74.8051 45.8165C75.2581 44.7905 75.6521 43.6275 76.0411 42.4805C76.9691 39.7415 77.8611 37.1095 79.0671 37.4955C80.0731 37.8175 80.6091 39.1375 80.8521 40.7655C81.2601 43.4935 80.8052 46.9245 80.3072 48.6315C79.9682 49.5075 78.6581 51.0015 77.4291 52.4035C76.3421 53.6435 75.3121 54.8175 74.8961 55.6535L71.6031 61.3335C71.3501 61.7705 71.4991 62.3305 71.9361 62.5845C72.3731 62.8375 72.9331 62.6885 73.1871 62.2515L76.4961 56.5455C76.5081 56.5245 76.5192 56.5035 76.5292 56.4815C76.8302 55.8605 77.7901 54.7655 78.8051 53.6085C80.1621 52.0615 81.6092 50.4115 82.0432 49.2085C82.0492 49.1915 82.0542 49.1745 82.0602 49.1585C82.5432 47.5125 82.9911 44.3975 82.7901 41.6315C82.7951 41.6095 82.8011 41.5875 82.8061 41.5645ZM81.4091 37.0605L81.4182 36.9005C81.4912 35.5365 81.5252 34.0725 81.4612 32.8475C81.3662 31.0325 80.9811 29.0935 80.6341 27.3415C79.9311 23.7965 79.3601 20.9155 81.4921 20.1195C81.6861 20.0465 81.8841 19.9975 82.0831 19.9715C83.5001 19.7815 84.8871 20.7425 86.0831 22.2555C87.1481 23.6035 88.0961 25.4205 88.7561 27.1885C89.1981 28.3725 89.5161 29.5465 89.6591 30.5535C90.9421 35.3265 91.1521 40.8555 90.6621 45.9415C90.1071 51.7075 88.6421 56.9425 86.8141 59.8995C85.4711 63.1185 83.5171 65.0555 81.5921 66.9635C79.1531 69.3805 76.7651 71.7475 76.0211 76.8345L77.7092 77.1955C78.2042 77.3005 78.5201 77.7865 78.4151 78.2815L78.4121 78.2975L77.9371 80.7905L78.7532 80.9595C79.2482 81.0625 79.5652 81.5465 79.4632 82.0415L79.4551 82.0745L77.7952 90.1185C77.6942 90.6135 77.2111 90.9325 76.7161 90.8315L76.7132 90.8305L50.4072 85.3705C49.9122 85.2675 49.5952 84.7835 49.6982 84.2885L49.7052 84.2555L51.3652 76.2115C51.4662 75.7165 51.9492 75.3975 52.4442 75.4985L52.4472 75.4995L53.5842 75.7345L54.0842 73.1055C54.1772 72.6085 54.6552 72.2815 55.1522 72.3745L55.1732 72.3785L56.6112 72.6855C56.6392 71.5425 56.6362 70.4665 56.6322 69.4445C56.6132 62.8285 56.6002 58.2895 64.0502 53.9305C64.3352 53.7265 64.7071 53.5055 65.1621 53.2365C67.2671 51.9865 71.2881 49.5995 73.1091 45.1205L73.1201 45.0955C73.5481 44.1265 73.9291 43.0045 74.3041 41.8965C75.5261 38.2895 76.7011 34.8225 79.6241 35.7575C80.3651 35.9915 80.9511 36.4485 81.4091 37.0605ZM55.7072 74.3645L55.4042 75.9585L76.1481 80.3935L76.4511 78.7995L55.7072 74.3645ZM52.9712 77.4755L51.6742 83.7625L76.1891 88.8515L77.4861 82.5635L52.9712 77.4755ZM46.0472 7.16452C51.2632 1.90452 57.1622 0.317523 62.2192 1.25352C64.6522 1.70352 66.8861 2.73652 68.7561 4.22552C70.6281 5.71652 72.1372 7.66352 73.1142 9.93852C75.2342 14.8715 74.8671 21.3355 70.3051 28.0065C57.6541 46.5045 46.8452 52.0695 46.4722 52.2575L46.4622 52.2625L46.4432 52.2705L46.4402 52.2725L46.4322 52.2765L46.4272 52.2785L46.4142 52.2845L46.4082 52.2875C46.2992 52.3345 46.1842 52.3585 46.0712 52.3615H46.0552H46.0482H46.0452H46.0382H46.0232C45.9102 52.3585 45.7952 52.3345 45.6852 52.2875L45.6792 52.2845L45.6662 52.2785L45.6612 52.2765L45.6522 52.2735L45.6492 52.2715L45.6322 52.2635L45.6222 52.2585C45.2502 52.0705 34.4401 46.5055 21.7901 28.0065C17.2281 21.3355 16.8611 14.8715 18.9811 9.93852C19.9581 7.66352 21.4672 5.71752 23.3402 4.22552C25.2092 2.73652 27.4432 1.70452 29.8762 1.25352C34.9322 0.317523 40.8302 1.90452 46.0472 7.16452Z"></path>
  </mask>
  <path fill-rule="evenodd" clip-rule="evenodd" d="M46.7212 9.10752L46.7052 9.12452L46.6942 9.13452L46.6842 9.14452L46.6832 9.14552L46.6672 9.16152C46.6272 9.19852 46.5842 9.23152 46.5392 9.26052L46.5382 9.26152L46.5202 9.27252L46.5172 9.27452L46.5012 9.28452L46.4972 9.28652L46.4822 9.29452L46.4742 9.29852L46.4632 9.30452L46.4502 9.31052L46.4442 9.31352L46.4302 9.32052L46.4232 9.32352L46.4082 9.33052L46.4042 9.33252L46.3892 9.33952L46.3842 9.34152C46.3652 9.34952 46.3452 9.35652 46.3252 9.36252H46.3222L46.3052 9.36752L46.3002 9.36852C46.2802 9.37452 46.2592 9.37952 46.2392 9.38352L46.2192 9.38752L46.2162 9.38852C46.2022 9.39152 46.1892 9.39352 46.1752 9.39552L46.1722 9.39652L46.1552 9.39852L46.1492 9.39952L46.1322 9.40152H46.1292L46.1122 9.40252H46.1052L46.0922 9.40352H46.0822L46.0702 9.40452H46.0592H46.0482H46.0372H46.0262L46.0142 9.40352H46.0042L45.9912 9.40252H45.9842L45.9672 9.40152H45.9642L45.9472 9.39952L45.9412 9.39852L45.9242 9.39652L45.9212 9.39552C45.9072 9.39352 45.8932 9.39152 45.8802 9.38852L45.8772 9.38752L45.8582 9.38352C45.8372 9.37852 45.8162 9.37352 45.7962 9.36852L45.7912 9.36752L45.7742 9.36252H45.7712C45.7512 9.35552 45.7312 9.34952 45.7122 9.34152L45.7072 9.33952L45.6912 9.33252L45.6872 9.33052L45.6722 9.32352L45.6652 9.32052L45.6512 9.31352L45.6452 9.31052L45.6322 9.30452L45.6212 9.29852L45.6132 9.29452L45.5992 9.28652L45.5952 9.28452L45.5782 9.27452L45.5752 9.27252L45.5582 9.26152L45.5572 9.26052C45.5122 9.23152 45.4692 9.19852 45.4292 9.16152L45.4132 9.14552L45.4122 9.14452L45.4022 9.13452L45.3922 9.12452H45.3892L45.3732 9.10752C40.4762 3.80552 34.9101 2.18152 30.2041 3.05252C28.0751 3.44652 26.1181 4.35252 24.4771 5.65852C22.8401 6.96152 21.5202 8.66652 20.6632 10.6615C18.7722 15.0625 19.1381 20.8865 23.3001 26.9735C34.4391 43.2615 43.9792 49.2345 46.0462 50.4035C48.1132 49.2345 57.6531 43.2615 68.7921 26.9735C72.9541 20.8865 73.3201 15.0625 71.4291 10.6615C70.5721 8.66652 69.2522 6.96152 67.6152 5.65852C65.9752 4.35252 64.0182 3.44652 61.8882 3.05252C57.1842 2.18152 51.6182 3.80552 46.7212 9.10752ZM41.7732 12.9435H50.3212C50.8282 12.9435 51.2392 13.3545 51.2392 13.8615V21.4925H58.8632C59.3702 21.4925 59.7802 21.9035 59.7802 22.4095V30.9505C59.7802 31.4575 59.3692 31.8685 58.8632 31.8685H51.2392V39.4995C51.2392 40.0065 50.8282 40.4165 50.3212 40.4165H41.7732C41.2662 40.4165 40.8552 40.0055 40.8552 39.4995V31.8685H33.2312C32.7242 31.8685 32.3132 31.4575 32.3132 30.9505V22.4095C32.3132 21.9025 32.7242 21.4925 33.2312 21.4925H40.8552V13.8615C40.8552 13.3555 41.2662 12.9435 41.7732 12.9435ZM49.4042 14.7795V22.4105C49.4042 22.9175 49.8152 23.3285 50.3212 23.3285H57.9452V30.0345H50.3212C49.8142 30.0345 49.4042 30.4455 49.4042 30.9515V38.5825H42.6902V30.9515C42.6902 30.4445 42.2792 30.0345 41.7732 30.0345H34.1492V23.3285H41.7732C42.2802 23.3285 42.6902 22.9175 42.6902 22.4105V14.7795H49.4042ZM9.11615 41.6315C8.91515 44.3975 9.36215 47.5135 9.84515 49.1585H9.84715C9.85215 49.1755 9.85715 49.1925 9.86315 49.2085C10.2972 50.4105 11.7442 52.0615 13.1012 53.6085C14.1162 54.7655 15.0762 55.8605 15.3772 56.4815C15.3872 56.5035 15.3982 56.5245 15.4112 56.5455L18.7201 62.2515C18.9731 62.6885 19.5341 62.8385 19.9711 62.5845C20.4081 62.3315 20.5581 61.7715 20.3041 61.3335L17.0112 55.6535C16.5952 54.8165 15.5662 53.6435 14.4792 52.4035C13.2502 51.0015 11.9402 49.5075 11.6002 48.6315C11.1022 46.9245 10.6472 43.4935 11.0552 40.7655C11.2982 39.1385 11.8342 37.8185 12.8402 37.4965C14.0462 37.1105 14.9392 39.7425 15.8672 42.4815C16.2562 43.6285 16.6501 44.7915 17.1031 45.8175C19.1581 50.8605 23.5262 53.4525 25.8122 54.8105C26.2672 55.0805 26.6332 55.2975 26.8302 55.4435C26.8572 55.4635 26.8852 55.4825 26.9142 55.4985L26.9132 55.5005C33.4762 59.3335 33.4642 63.4465 33.4472 69.4415C33.4442 70.5865 33.4402 71.7965 33.4772 73.0715L17.6812 76.4485C16.8412 70.8515 14.2512 68.2845 11.6062 65.6635C9.80015 63.8735 7.96615 62.0565 6.76415 59.1515C6.74315 59.0955 6.71615 59.0415 6.68315 58.9895C4.97815 56.2715 3.59815 51.3045 3.06615 45.7675C2.59515 40.8685 2.79615 35.5525 4.03015 30.9845L4.02815 30.9835C4.03815 30.9455 4.04615 30.9065 4.05115 30.8655C4.17015 29.9775 4.45715 28.9135 4.86515 27.8235C5.46515 26.2165 6.31515 24.5785 7.25815 23.3855C8.07015 22.3575 8.90215 21.6905 9.58815 21.7825C9.65115 21.7915 9.71415 21.8065 9.77815 21.8305C10.4472 22.0805 10.0112 24.2805 9.47415 26.9885C9.11715 28.7895 8.72215 30.7835 8.61815 32.7525C8.55015 34.0485 8.58515 35.5755 8.66115 36.9925C8.77715 39.1575 8.99815 41.1065 9.10015 41.5635C9.10315 41.5875 9.10915 41.6095 9.11615 41.6315ZM10.4862 36.9005L10.4952 37.0605C10.9522 36.4485 11.5392 35.9915 12.2782 35.7545C15.2012 34.8195 16.3752 38.2865 17.5982 41.8935C17.9732 43.0015 18.3542 44.1245 18.7822 45.0925L18.7922 45.1175C20.6132 49.5965 24.6342 51.9835 26.7392 53.2335C27.1942 53.5035 27.5661 53.7245 27.8521 53.9285C35.3021 58.2875 35.2892 62.8275 35.2702 69.4425C35.2672 70.4655 35.2642 71.5405 35.2922 72.6835L36.7302 72.3765L36.7512 72.3735C37.2482 72.2805 37.7262 72.6075 37.8192 73.1045L38.3202 75.7335L39.4572 75.4975H39.4612C39.9562 75.3965 40.4392 75.7155 40.5402 76.2115L42.2002 84.2555L42.2072 84.2885C42.3102 84.7835 41.9922 85.2675 41.4982 85.3705L15.1922 90.8305H15.1892C14.6942 90.9315 14.2112 90.6125 14.1102 90.1175L12.4502 82.0735L12.4432 82.0405C12.3402 81.5455 12.6582 81.0605 13.1522 80.9575L13.9692 80.7875L13.4942 78.2955L13.4902 78.2795C13.3852 77.7845 13.7012 77.2985 14.1962 77.1935L15.8842 76.8325C15.1402 71.7465 12.7522 69.3785 10.3132 66.9615C8.38815 65.0535 6.43315 63.1165 5.09115 59.8975C3.26315 56.9405 1.79815 51.7065 1.24315 45.9395C0.753151 40.8535 0.963151 35.3255 2.24615 30.5515C2.38915 29.5435 2.70715 28.3705 3.14915 27.1855C3.80915 25.4185 4.75715 23.5995 5.82215 22.2525C7.01815 20.7395 8.40515 19.7785 9.82215 19.9685C10.0212 19.9955 10.2192 20.0445 10.4132 20.1165C12.5442 20.9125 11.9732 23.7935 11.2712 27.3385C10.9232 29.0905 10.5392 31.0295 10.4442 32.8445C10.3802 34.0725 10.4132 35.5365 10.4862 36.9005ZM36.5002 75.9585L36.1962 74.3645L15.4522 78.7995L15.7562 80.3935L36.5002 75.9585ZM40.2302 83.7635L38.9332 77.4765L14.4182 82.5645L15.7152 88.8525L40.2302 83.7635ZM82.8061 41.5645C82.9081 41.1075 83.1291 39.1585 83.2451 36.9935C83.3211 35.5775 83.3561 34.0495 83.2881 32.7535C83.1851 30.7845 82.7902 28.7915 82.4332 26.9895C81.8962 24.2815 81.4602 22.0815 82.1292 21.8315C82.1922 21.8075 82.2561 21.7915 82.3191 21.7835C83.0051 21.6915 83.8371 22.3585 84.6491 23.3865C85.5921 24.5805 86.4421 26.2185 87.0421 27.8245C87.4491 28.9145 87.7371 29.9785 87.8561 30.8665C87.8611 30.9065 87.8692 30.9455 87.8792 30.9845L87.8772 30.9855C89.1122 35.5535 89.3121 40.8695 88.8411 45.7685C88.3081 51.3045 86.9292 56.2725 85.2242 58.9895C85.1912 59.0415 85.1642 59.0965 85.1432 59.1515C83.9412 62.0565 82.1081 63.8735 80.3021 65.6645C77.6571 68.2855 75.0681 70.8525 74.2271 76.4485L58.4312 73.0715C58.4682 71.7965 58.4652 70.5865 58.4612 69.4415C58.4442 63.4455 58.4322 59.3335 64.9952 55.4995L64.9942 55.4975C65.0232 55.4805 65.0511 55.4625 65.0781 55.4425C65.2751 55.2965 65.6411 55.0795 66.0961 54.8095C68.3831 53.4525 72.7501 50.8595 74.8051 45.8165C75.2581 44.7905 75.6521 43.6275 76.0411 42.4805C76.9691 39.7415 77.8611 37.1095 79.0671 37.4955C80.0731 37.8175 80.6091 39.1375 80.8521 40.7655C81.2601 43.4935 80.8052 46.9245 80.3072 48.6315C79.9682 49.5075 78.6581 51.0015 77.4291 52.4035C76.3421 53.6435 75.3121 54.8175 74.8961 55.6535L71.6031 61.3335C71.3501 61.7705 71.4991 62.3305 71.9361 62.5845C72.3731 62.8375 72.9331 62.6885 73.1871 62.2515L76.4961 56.5455C76.5081 56.5245 76.5192 56.5035 76.5292 56.4815C76.8302 55.8605 77.7901 54.7655 78.8051 53.6085C80.1621 52.0615 81.6092 50.4115 82.0432 49.2085C82.0492 49.1915 82.0542 49.1745 82.0602 49.1585C82.5432 47.5125 82.9911 44.3975 82.7901 41.6315C82.7951 41.6095 82.8011 41.5875 82.8061 41.5645ZM81.4091 37.0605L81.4182 36.9005C81.4912 35.5365 81.5252 34.0725 81.4612 32.8475C81.3662 31.0325 80.9811 29.0935 80.6341 27.3415C79.9311 23.7965 79.3601 20.9155 81.4921 20.1195C81.6861 20.0465 81.8841 19.9975 82.0831 19.9715C83.5001 19.7815 84.8871 20.7425 86.0831 22.2555C87.1481 23.6035 88.0961 25.4205 88.7561 27.1885C89.1981 28.3725 89.5161 29.5465 89.6591 30.5535C90.9421 35.3265 91.1521 40.8555 90.6621 45.9415C90.1071 51.7075 88.6421 56.9425 86.8141 59.8995C85.4711 63.1185 83.5171 65.0555 81.5921 66.9635C79.1531 69.3805 76.7651 71.7475 76.0211 76.8345L77.7092 77.1955C78.2042 77.3005 78.5201 77.7865 78.4151 78.2815L78.4121 78.2975L77.9371 80.7905L78.7532 80.9595C79.2482 81.0625 79.5652 81.5465 79.4632 82.0415L79.4551 82.0745L77.7952 90.1185C77.6942 90.6135 77.2111 90.9325 76.7161 90.8315L76.7132 90.8305L50.4072 85.3705C49.9122 85.2675 49.5952 84.7835 49.6982 84.2885L49.7052 84.2555L51.3652 76.2115C51.4662 75.7165 51.9492 75.3975 52.4442 75.4985L52.4472 75.4995L53.5842 75.7345L54.0842 73.1055C54.1772 72.6085 54.6552 72.2815 55.1522 72.3745L55.1732 72.3785L56.6112 72.6855C56.6392 71.5425 56.6362 70.4665 56.6322 69.4445C56.6132 62.8285 56.6002 58.2895 64.0502 53.9305C64.3352 53.7265 64.7071 53.5055 65.1621 53.2365C67.2671 51.9865 71.2881 49.5995 73.1091 45.1205L73.1201 45.0955C73.5481 44.1265 73.9291 43.0045 74.3041 41.8965C75.5261 38.2895 76.7011 34.8225 79.6241 35.7575C80.3651 35.9915 80.9511 36.4485 81.4091 37.0605ZM55.7072 74.3645L55.4042 75.9585L76.1481 80.3935L76.4511 78.7995L55.7072 74.3645ZM52.9712 77.4755L51.6742 83.7625L76.1891 88.8515L77.4861 82.5635L52.9712 77.4755ZM46.0472 7.16452C51.2632 1.90452 57.1622 0.317523 62.2192 1.25352C64.6522 1.70352 66.8861 2.73652 68.7561 4.22552C70.6281 5.71652 72.1372 7.66352 73.1142 9.93852C75.2342 14.8715 74.8671 21.3355 70.3051 28.0065C57.6541 46.5045 46.8452 52.0695 46.4722 52.2575L46.4622 52.2625L46.4432 52.2705L46.4402 52.2725L46.4322 52.2765L46.4272 52.2785L46.4142 52.2845L46.4082 52.2875C46.2992 52.3345 46.1842 52.3585 46.0712 52.3615H46.0552H46.0482H46.0452H46.0382H46.0232C45.9102 52.3585 45.7952 52.3345 45.6852 52.2875L45.6792 52.2845L45.6662 52.2785L45.6612 52.2765L45.6522 52.2735L45.6492 52.2715L45.6322 52.2635L45.6222 52.2585C45.2502 52.0705 34.4401 46.5055 21.7901 28.0065C17.2281 21.3355 16.8611 14.8715 18.9811 9.93852C19.9581 7.66352 21.4672 5.71752 23.3402 4.22552C25.2092 2.73652 27.4432 1.70452 29.8762 1.25352C34.9322 0.317523 40.8302 1.90452 46.0472 7.16452Z" fill="#045BA2"></path>
  <path fill-rule="evenodd" clip-rule="evenodd" d="M46.7212 9.10752L46.7052 9.12452L46.6942 9.13452L46.6842 9.14452L46.6832 9.14552L46.6672 9.16152C46.6272 9.19852 46.5842 9.23152 46.5392 9.26052L46.5382 9.26152L46.5202 9.27252L46.5172 9.27452L46.5012 9.28452L46.4972 9.28652L46.4822 9.29452L46.4742 9.29852L46.4632 9.30452L46.4502 9.31052L46.4442 9.31352L46.4302 9.32052L46.4232 9.32352L46.4082 9.33052L46.4042 9.33252L46.3892 9.33952L46.3842 9.34152C46.3652 9.34952 46.3452 9.35652 46.3252 9.36252H46.3222L46.3052 9.36752L46.3002 9.36852C46.2802 9.37452 46.2592 9.37952 46.2392 9.38352L46.2192 9.38752L46.2162 9.38852C46.2022 9.39152 46.1892 9.39352 46.1752 9.39552L46.1722 9.39652L46.1552 9.39852L46.1492 9.39952L46.1322 9.40152H46.1292L46.1122 9.40252H46.1052L46.0922 9.40352H46.0822L46.0702 9.40452H46.0592H46.0482H46.0372H46.0262L46.0142 9.40352H46.0042L45.9912 9.40252H45.9842L45.9672 9.40152H45.9642L45.9472 9.39952L45.9412 9.39852L45.9242 9.39652L45.9212 9.39552C45.9072 9.39352 45.8932 9.39152 45.8802 9.38852L45.8772 9.38752L45.8582 9.38352C45.8372 9.37852 45.8162 9.37352 45.7962 9.36852L45.7912 9.36752L45.7742 9.36252H45.7712C45.7512 9.35552 45.7312 9.34952 45.7122 9.34152L45.7072 9.33952L45.6912 9.33252L45.6872 9.33052L45.6722 9.32352L45.6652 9.32052L45.6512 9.31352L45.6452 9.31052L45.6322 9.30452L45.6212 9.29852L45.6132 9.29452L45.5992 9.28652L45.5952 9.28452L45.5782 9.27452L45.5752 9.27252L45.5582 9.26152L45.5572 9.26052C45.5122 9.23152 45.4692 9.19852 45.4292 9.16152L45.4132 9.14552L45.4122 9.14452L45.4022 9.13452L45.3922 9.12452H45.3892L45.3732 9.10752C40.4762 3.80552 34.9101 2.18152 30.2041 3.05252C28.0751 3.44652 26.1181 4.35252 24.4771 5.65852C22.8401 6.96152 21.5202 8.66652 20.6632 10.6615C18.7722 15.0625 19.1381 20.8865 23.3001 26.9735C34.4391 43.2615 43.9792 49.2345 46.0462 50.4035C48.1132 49.2345 57.6531 43.2615 68.7921 26.9735C72.9541 20.8865 73.3201 15.0625 71.4291 10.6615C70.5721 8.66652 69.2522 6.96152 67.6152 5.65852C65.9752 4.35252 64.0182 3.44652 61.8882 3.05252C57.1842 2.18152 51.6182 3.80552 46.7212 9.10752ZM41.7732 12.9435H50.3212C50.8282 12.9435 51.2392 13.3545 51.2392 13.8615V21.4925H58.8632C59.3702 21.4925 59.7802 21.9035 59.7802 22.4095V30.9505C59.7802 31.4575 59.3692 31.8685 58.8632 31.8685H51.2392V39.4995C51.2392 40.0065 50.8282 40.4165 50.3212 40.4165H41.7732C41.2662 40.4165 40.8552 40.0055 40.8552 39.4995V31.8685H33.2312C32.7242 31.8685 32.3132 31.4575 32.3132 30.9505V22.4095C32.3132 21.9025 32.7242 21.4925 33.2312 21.4925H40.8552V13.8615C40.8552 13.3555 41.2662 12.9435 41.7732 12.9435ZM49.4042 14.7795V22.4105C49.4042 22.9175 49.8152 23.3285 50.3212 23.3285H57.9452V30.0345H50.3212C49.8142 30.0345 49.4042 30.4455 49.4042 30.9515V38.5825H42.6902V30.9515C42.6902 30.4445 42.2792 30.0345 41.7732 30.0345H34.1492V23.3285H41.7732C42.2802 23.3285 42.6902 22.9175 42.6902 22.4105V14.7795H49.4042ZM9.11615 41.6315C8.91515 44.3975 9.36215 47.5135 9.84515 49.1585H9.84715C9.85215 49.1755 9.85715 49.1925 9.86315 49.2085C10.2972 50.4105 11.7442 52.0615 13.1012 53.6085C14.1162 54.7655 15.0762 55.8605 15.3772 56.4815C15.3872 56.5035 15.3982 56.5245 15.4112 56.5455L18.7201 62.2515C18.9731 62.6885 19.5341 62.8385 19.9711 62.5845C20.4081 62.3315 20.5581 61.7715 20.3041 61.3335L17.0112 55.6535C16.5952 54.8165 15.5662 53.6435 14.4792 52.4035C13.2502 51.0015 11.9402 49.5075 11.6002 48.6315C11.1022 46.9245 10.6472 43.4935 11.0552 40.7655C11.2982 39.1385 11.8342 37.8185 12.8402 37.4965C14.0462 37.1105 14.9392 39.7425 15.8672 42.4815C16.2562 43.6285 16.6501 44.7915 17.1031 45.8175C19.1581 50.8605 23.5262 53.4525 25.8122 54.8105C26.2672 55.0805 26.6332 55.2975 26.8302 55.4435C26.8572 55.4635 26.8852 55.4825 26.9142 55.4985L26.9132 55.5005C33.4762 59.3335 33.4642 63.4465 33.4472 69.4415C33.4442 70.5865 33.4402 71.7965 33.4772 73.0715L17.6812 76.4485C16.8412 70.8515 14.2512 68.2845 11.6062 65.6635C9.80015 63.8735 7.96615 62.0565 6.76415 59.1515C6.74315 59.0955 6.71615 59.0415 6.68315 58.9895C4.97815 56.2715 3.59815 51.3045 3.06615 45.7675C2.59515 40.8685 2.79615 35.5525 4.03015 30.9845L4.02815 30.9835C4.03815 30.9455 4.04615 30.9065 4.05115 30.8655C4.17015 29.9775 4.45715 28.9135 4.86515 27.8235C5.46515 26.2165 6.31515 24.5785 7.25815 23.3855C8.07015 22.3575 8.90215 21.6905 9.58815 21.7825C9.65115 21.7915 9.71415 21.8065 9.77815 21.8305C10.4472 22.0805 10.0112 24.2805 9.47415 26.9885C9.11715 28.7895 8.72215 30.7835 8.61815 32.7525C8.55015 34.0485 8.58515 35.5755 8.66115 36.9925C8.77715 39.1575 8.99815 41.1065 9.10015 41.5635C9.10315 41.5875 9.10915 41.6095 9.11615 41.6315ZM10.4862 36.9005L10.4952 37.0605C10.9522 36.4485 11.5392 35.9915 12.2782 35.7545C15.2012 34.8195 16.3752 38.2865 17.5982 41.8935C17.9732 43.0015 18.3542 44.1245 18.7822 45.0925L18.7922 45.1175C20.6132 49.5965 24.6342 51.9835 26.7392 53.2335C27.1942 53.5035 27.5661 53.7245 27.8521 53.9285C35.3021 58.2875 35.2892 62.8275 35.2702 69.4425C35.2672 70.4655 35.2642 71.5405 35.2922 72.6835L36.7302 72.3765L36.7512 72.3735C37.2482 72.2805 37.7262 72.6075 37.8192 73.1045L38.3202 75.7335L39.4572 75.4975H39.4612C39.9562 75.3965 40.4392 75.7155 40.5402 76.2115L42.2002 84.2555L42.2072 84.2885C42.3102 84.7835 41.9922 85.2675 41.4982 85.3705L15.1922 90.8305H15.1892C14.6942 90.9315 14.2112 90.6125 14.1102 90.1175L12.4502 82.0735L12.4432 82.0405C12.3402 81.5455 12.6582 81.0605 13.1522 80.9575L13.9692 80.7875L13.4942 78.2955L13.4902 78.2795C13.3852 77.7845 13.7012 77.2985 14.1962 77.1935L15.8842 76.8325C15.1402 71.7465 12.7522 69.3785 10.3132 66.9615C8.38815 65.0535 6.43315 63.1165 5.09115 59.8975C3.26315 56.9405 1.79815 51.7065 1.24315 45.9395C0.753151 40.8535 0.963151 35.3255 2.24615 30.5515C2.38915 29.5435 2.70715 28.3705 3.14915 27.1855C3.80915 25.4185 4.75715 23.5995 5.82215 22.2525C7.01815 20.7395 8.40515 19.7785 9.82215 19.9685C10.0212 19.9955 10.2192 20.0445 10.4132 20.1165C12.5442 20.9125 11.9732 23.7935 11.2712 27.3385C10.9232 29.0905 10.5392 31.0295 10.4442 32.8445C10.3802 34.0725 10.4132 35.5365 10.4862 36.9005ZM36.5002 75.9585L36.1962 74.3645L15.4522 78.7995L15.7562 80.3935L36.5002 75.9585ZM40.2302 83.7635L38.9332 77.4765L14.4182 82.5645L15.7152 88.8525L40.2302 83.7635ZM82.8061 41.5645C82.9081 41.1075 83.1291 39.1585 83.2451 36.9935C83.3211 35.5775 83.3561 34.0495 83.2881 32.7535C83.1851 30.7845 82.7902 28.7915 82.4332 26.9895C81.8962 24.2815 81.4602 22.0815 82.1292 21.8315C82.1922 21.8075 82.2561 21.7915 82.3191 21.7835C83.0051 21.6915 83.8371 22.3585 84.6491 23.3865C85.5921 24.5805 86.4421 26.2185 87.0421 27.8245C87.4491 28.9145 87.7371 29.9785 87.8561 30.8665C87.8611 30.9065 87.8692 30.9455 87.8792 30.9845L87.8772 30.9855C89.1122 35.5535 89.3121 40.8695 88.8411 45.7685C88.3081 51.3045 86.9292 56.2725 85.2242 58.9895C85.1912 59.0415 85.1642 59.0965 85.1432 59.1515C83.9412 62.0565 82.1081 63.8735 80.3021 65.6645C77.6571 68.2855 75.0681 70.8525 74.2271 76.4485L58.4312 73.0715C58.4682 71.7965 58.4652 70.5865 58.4612 69.4415C58.4442 63.4455 58.4322 59.3335 64.9952 55.4995L64.9942 55.4975C65.0232 55.4805 65.0511 55.4625 65.0781 55.4425C65.2751 55.2965 65.6411 55.0795 66.0961 54.8095C68.3831 53.4525 72.7501 50.8595 74.8051 45.8165C75.2581 44.7905 75.6521 43.6275 76.0411 42.4805C76.9691 39.7415 77.8611 37.1095 79.0671 37.4955C80.0731 37.8175 80.6091 39.1375 80.8521 40.7655C81.2601 43.4935 80.8052 46.9245 80.3072 48.6315C79.9682 49.5075 78.6581 51.0015 77.4291 52.4035C76.3421 53.6435 75.3121 54.8175 74.8961 55.6535L71.6031 61.3335C71.3501 61.7705 71.4991 62.3305 71.9361 62.5845C72.3731 62.8375 72.9331 62.6885 73.1871 62.2515L76.4961 56.5455C76.5081 56.5245 76.5192 56.5035 76.5292 56.4815C76.8302 55.8605 77.7901 54.7655 78.8051 53.6085C80.1621 52.0615 81.6092 50.4115 82.0432 49.2085C82.0492 49.1915 82.0542 49.1745 82.0602 49.1585C82.5432 47.5125 82.9911 44.3975 82.7901 41.6315C82.7951 41.6095 82.8011 41.5875 82.8061 41.5645ZM81.4091 37.0605L81.4182 36.9005C81.4912 35.5365 81.5252 34.0725 81.4612 32.8475C81.3662 31.0325 80.9811 29.0935 80.6341 27.3415C79.9311 23.7965 79.3601 20.9155 81.4921 20.1195C81.6861 20.0465 81.8841 19.9975 82.0831 19.9715C83.5001 19.7815 84.8871 20.7425 86.0831 22.2555C87.1481 23.6035 88.0961 25.4205 88.7561 27.1885C89.1981 28.3725 89.5161 29.5465 89.6591 30.5535C90.9421 35.3265 91.1521 40.8555 90.6621 45.9415C90.1071 51.7075 88.6421 56.9425 86.8141 59.8995C85.4711 63.1185 83.5171 65.0555 81.5921 66.9635C79.1531 69.3805 76.7651 71.7475 76.0211 76.8345L77.7092 77.1955C78.2042 77.3005 78.5201 77.7865 78.4151 78.2815L78.4121 78.2975L77.9371 80.7905L78.7532 80.9595C79.2482 81.0625 79.5652 81.5465 79.4632 82.0415L79.4551 82.0745L77.7952 90.1185C77.6942 90.6135 77.2111 90.9325 76.7161 90.8315L76.7132 90.8305L50.4072 85.3705C49.9122 85.2675 49.5952 84.7835 49.6982 84.2885L49.7052 84.2555L51.3652 76.2115C51.4662 75.7165 51.9492 75.3975 52.4442 75.4985L52.4472 75.4995L53.5842 75.7345L54.0842 73.1055C54.1772 72.6085 54.6552 72.2815 55.1522 72.3745L55.1732 72.3785L56.6112 72.6855C56.6392 71.5425 56.6362 70.4665 56.6322 69.4445C56.6132 62.8285 56.6002 58.2895 64.0502 53.9305C64.3352 53.7265 64.7071 53.5055 65.1621 53.2365C67.2671 51.9865 71.2881 49.5995 73.1091 45.1205L73.1201 45.0955C73.5481 44.1265 73.9291 43.0045 74.3041 41.8965C75.5261 38.2895 76.7011 34.8225 79.6241 35.7575C80.3651 35.9915 80.9511 36.4485 81.4091 37.0605ZM55.7072 74.3645L55.4042 75.9585L76.1481 80.3935L76.4511 78.7995L55.7072 74.3645ZM52.9712 77.4755L51.6742 83.7625L76.1891 88.8515L77.4861 82.5635L52.9712 77.4755ZM46.0472 7.16452C51.2632 1.90452 57.1622 0.317523 62.2192 1.25352C64.6522 1.70352 66.8861 2.73652 68.7561 4.22552C70.6281 5.71652 72.1372 7.66352 73.1142 9.93852C75.2342 14.8715 74.8671 21.3355 70.3051 28.0065C57.6541 46.5045 46.8452 52.0695 46.4722 52.2575L46.4622 52.2625L46.4432 52.2705L46.4402 52.2725L46.4322 52.2765L46.4272 52.2785L46.4142 52.2845L46.4082 52.2875C46.2992 52.3345 46.1842 52.3585 46.0712 52.3615H46.0552H46.0482H46.0452H46.0382H46.0232C45.9102 52.3585 45.7952 52.3345 45.6852 52.2875L45.6792 52.2845L45.6662 52.2785L45.6612 52.2765L45.6522 52.2735L45.6492 52.2715L45.6322 52.2635L45.6222 52.2585C45.2502 52.0705 34.4401 46.5055 21.7901 28.0065C17.2281 21.3355 16.8611 14.8715 18.9811 9.93852C19.9581 7.66352 21.4672 5.71752 23.3402 4.22552C25.2092 2.73652 27.4432 1.70452 29.8762 1.25352C34.9322 0.317523 40.8302 1.90452 46.0472 7.16452Z" stroke="#045BA2" mask="url(#path-1-outside-1_80_161)"></path>
</svg>
