<?xml version="1.0" encoding="UTF-8"?>
<svg xmlns="http://www.w3.org/2000/svg" width="445" height="495" viewBox="0 0 445 495" fill="none">
  <path d="M60.0347 147.941C65.8812 147.944 71.6431 146.545 76.8373 143.861C82.0315 141.177 86.5066 137.287 89.8872 132.517C93.2679 127.747 95.4557 122.237 96.2671 116.447C97.0786 110.657 96.49 104.757 94.5507 99.2411L143.707 63.3901C147.753 67.1604 152.603 69.9627 157.89 71.5856C163.177 73.2086 168.764 73.6099 174.229 72.7592C179.694 71.9086 184.894 69.8282 189.438 66.6749C193.981 63.5217 197.75 59.3779 200.459 54.5561L236.85 72.6721C237.462 77.6573 239.094 82.4629 241.645 86.7896C244.196 91.1164 247.61 94.8716 251.675 97.8212C255.74 100.771 260.369 102.852 265.274 103.934C270.178 105.017 275.253 105.078 280.183 104.114C285.112 103.149 289.789 101.18 293.924 98.3293C298.059 95.4782 301.563 91.8062 304.217 87.5421C306.871 83.2779 308.618 78.5129 309.35 73.5439C310.082 68.5749 309.783 63.5085 308.472 58.6601L345.072 32.8101L343.658 38.0821C343.413 38.972 343.347 39.9016 343.463 40.8172C343.579 41.7328 343.875 42.6164 344.334 43.4172C344.792 44.218 345.405 44.9202 346.136 45.4833C346.868 46.0465 347.703 46.4594 348.594 46.6985C349.486 46.9375 350.416 46.9979 351.331 46.8762C352.245 46.7545 353.127 46.453 353.925 45.9892C354.723 45.5254 355.421 44.9084 355.98 44.1737C356.539 43.439 356.946 42.601 357.18 41.7081L363.598 17.7731C363.628 17.6611 363.646 17.5491 363.67 17.4361C363.682 17.3831 363.694 17.3311 363.705 17.2781C363.766 16.9708 363.807 16.6598 363.827 16.3471C363.827 16.2951 363.827 16.2421 363.827 16.1891C363.835 15.9447 363.83 15.7 363.812 15.4561C363.805 15.3381 363.795 15.2201 363.781 15.1021C363.752 14.8686 363.712 14.6366 363.66 14.4071C363.645 14.3391 363.641 14.2701 363.624 14.2021C363.593 14.0791 363.541 13.9651 363.504 13.8451C363.473 13.7511 363.443 13.6571 363.404 13.5641C362.967 12.34 362.197 11.262 361.181 10.4514C360.164 9.64069 358.942 9.12947 357.652 8.97512L333.937 6.19112C333.012 6.05891 332.07 6.11307 331.167 6.35043C330.264 6.58779 329.417 7.00353 328.677 7.57318C327.936 8.14283 327.318 8.85485 326.857 9.66731C326.396 10.4798 326.103 11.3762 325.994 12.3039C325.885 13.2315 325.962 14.1716 326.222 15.0687C326.482 15.9659 326.919 16.8019 327.507 17.5276C328.095 18.2533 328.823 18.854 329.646 19.2942C330.47 19.7345 331.374 20.0054 332.304 20.0911L337.875 20.7451L302.187 45.9631C298.095 40.6112 292.603 36.494 286.319 34.066C280.034 31.638 273.201 30.9936 266.574 32.204C259.946 33.4144 253.782 36.4325 248.761 40.9251C243.741 45.4177 240.059 51.2102 238.123 57.6631L204.894 41.1261C205.598 35.4993 204.984 29.7858 203.101 24.4367C201.218 19.0877 198.118 14.2497 194.044 10.3045C189.971 6.35939 185.036 3.41522 179.629 1.70447C174.223 -0.00627387 168.493 -0.436752 162.891 0.447026C157.29 1.3308 151.97 3.50464 147.353 6.79689C142.736 10.0891 138.947 14.4097 136.287 19.4173C133.626 24.425 132.165 29.9827 132.021 35.6516C131.876 41.3205 133.051 46.9454 135.454 52.0821L87.4097 87.1191C83.3596 82.5451 78.2283 79.0585 72.4842 76.9774C66.7401 74.8964 60.5663 74.2874 54.5263 75.2058C48.4863 76.1243 42.7726 78.5411 37.9068 82.2355C33.041 85.9299 29.178 90.7843 26.6707 96.3555C24.1633 101.927 23.0913 108.037 23.5527 114.129C24.014 120.221 25.9939 126.101 29.3117 131.231C32.6295 136.361 37.1794 140.578 42.5461 143.497C47.9128 146.417 53.9253 147.946 60.0347 147.944V147.941ZM273.153 45.6091C277.62 45.6089 281.988 46.9335 285.702 49.4154C289.417 51.8973 292.312 55.425 294.022 59.5524C295.732 63.6798 296.179 68.2215 295.308 72.6032C294.436 76.9849 292.285 81.0098 289.126 84.1689C285.967 87.328 281.942 89.4794 277.561 90.351C273.179 91.2227 268.637 90.7754 264.51 89.0658C260.382 87.3562 256.855 84.4611 254.373 80.7465C251.891 77.0319 250.566 72.6647 250.566 68.1971C250.573 62.2087 252.954 56.4675 257.189 52.2329C261.423 47.9984 267.164 45.6163 273.153 45.6091ZM168.596 14.0191C173.063 14.0189 177.431 15.3435 181.145 17.8255C184.86 20.3074 187.755 23.8352 189.465 27.9626C191.175 32.0901 191.622 36.6318 190.751 41.0136C189.879 45.3953 187.728 49.4202 184.569 52.5793C181.41 55.7383 177.385 57.8896 173.003 58.7612C168.621 59.6327 164.08 59.1853 159.952 57.4755C155.825 55.7658 152.297 52.8705 149.815 49.1557C147.333 45.441 146.009 41.0737 146.009 36.6061C146.016 30.6178 148.398 24.8767 152.632 20.6423C156.866 16.4079 162.607 14.026 168.596 14.0191ZM60.0347 88.7661C64.5023 88.7659 68.8695 90.0905 72.5842 92.5724C76.2989 95.0543 79.1943 98.582 80.904 102.709C82.6138 106.837 83.0613 111.379 82.1898 115.76C81.3184 120.142 79.1672 124.167 76.0082 127.326C72.8493 130.485 68.8245 132.636 64.4428 133.508C60.0611 134.38 55.5194 133.932 51.3919 132.223C47.2644 130.513 43.7366 127.618 41.2546 123.903C38.7725 120.189 37.4477 115.822 37.4477 111.354C37.4546 105.366 39.8365 99.6245 44.0709 95.39C48.3052 91.1554 54.0463 88.7733 60.0347 88.7661ZM441.295 338.95L402.848 278.682V100.819C402.848 99.7452 402.6 98.6857 402.125 97.7226C401.65 96.7595 400.96 95.9187 400.108 95.2651L371.787 73.5401C370.564 72.6025 369.067 72.0942 367.526 72.0942C365.986 72.0942 364.488 72.6025 363.266 73.5401L334.943 95.2641C334.091 95.9177 333.4 96.7585 332.925 97.7216C332.45 98.6847 332.203 99.7442 332.203 100.818V224.892L307.442 240.692V152.83C307.442 151.756 307.194 150.697 306.719 149.734C306.244 148.771 305.554 147.93 304.702 147.276L276.379 125.552C275.156 124.614 273.659 124.106 272.118 124.106C270.578 124.106 269.08 124.614 267.858 125.552L239.535 147.276C238.683 147.93 237.992 148.771 237.517 149.734C237.042 150.697 236.795 151.756 236.795 152.83V255.51C232.318 257.359 227.942 259.446 223.688 261.761C217.406 253.902 208.861 252.078 199.728 252.702V129.581C199.728 128.507 199.481 127.448 199.005 126.485C198.53 125.522 197.84 124.681 196.988 124.027L168.665 102.304C167.442 101.367 165.945 100.859 164.405 100.859C162.864 100.859 161.367 101.367 160.145 102.304L131.822 124.027C130.97 124.681 130.279 125.522 129.804 126.485C129.329 127.448 129.082 128.507 129.082 129.581V232.665L101.696 215.195C100.585 214.489 99.402 213.905 98.1667 213.451V202.136C98.1667 201.062 97.9195 200.003 97.4444 199.04C96.9692 198.077 96.2789 197.236 95.4267 196.582L67.1037 174.858C65.8815 173.921 64.3841 173.413 62.8437 173.413C61.3034 173.413 59.806 173.921 58.5837 174.858L30.2597 196.582C29.4076 197.236 28.7172 198.077 28.2421 199.04C27.767 200.003 27.5198 201.062 27.5197 202.136V295.443C27.5205 295.943 27.5748 296.44 27.6817 296.928L2.88174 335.808C0.260079 339.934 -0.619553 344.931 0.435515 349.704C1.49058 354.477 4.39434 358.637 8.51074 361.273L44.5217 384.246C47.4648 386.132 50.8871 387.135 54.3827 387.135C55.7395 387.135 57.0922 386.986 58.4167 386.692C61.1573 386.085 63.7228 384.86 65.9167 383.109C62.5947 388.87 60.4847 395.355 61.1227 402.764C61.9227 412.027 65.2887 418.898 71.1327 423.186C76.2327 426.93 82.9987 428.452 91.3057 427.736C92.5407 434.962 95.4547 440.774 100.014 445.072C105.341 450.094 112.731 452.851 122.037 453.298C123.883 459.656 127.237 464.543 132.051 467.874C138.405 472.274 146.725 473.663 157.351 472.074C162.159 483.394 171.51 489.303 184.757 489.302C185.234 489.302 185.718 489.294 186.204 489.279C193.334 489.054 200.273 484.079 205.604 478.896C220.388 489.026 232.952 494.051 243.627 494.05C246.99 494.07 250.332 493.528 253.516 492.444C261.488 489.695 267.55 483.592 271.6 474.259C280.586 477.009 288.464 476.742 295.088 473.451C302.288 469.871 307.647 462.871 311.056 452.598C319.692 453.398 326.794 451.721 332.233 447.598C337.368 443.706 340.785 437.816 342.433 430.03C354.654 431.218 364.979 428.06 373.195 420.597C373.615 420.215 373.987 419.784 374.303 419.312C380.422 410.178 382.619 401.253 380.832 392.787C380.377 390.668 379.683 388.608 378.764 386.646C380.844 388.186 383.225 389.271 385.752 389.829C387.076 390.123 388.429 390.272 389.786 390.273C393.281 390.273 396.704 389.27 399.647 387.383L435.666 364.419C439.782 361.783 442.686 357.622 443.741 352.849C444.796 348.076 443.916 343.08 441.295 338.954V338.95ZM367.525 87.9191L388.848 104.274V256.736L367.943 223.966C365.694 220.451 362.319 217.802 358.371 216.451C354.422 215.1 350.133 215.128 346.202 216.529V104.271L367.525 87.9191ZM361.957 368.684C361.514 368.39 361.077 368.096 360.619 367.806C355.593 364.677 348.013 359.277 339.236 353.024C292.864 319.988 258.892 297.568 244.043 310.095C198.503 348.512 182.76 344.043 181.114 343.41C180.025 342.989 178.971 342.246 178.629 339.678C177.195 328.926 190.684 302.4 225.129 276.978C253.541 260.61 260.664 264.097 270.503 268.918C276.133 271.675 283.139 275.107 293.812 275.69C297.993 275.939 302.188 275.85 306.356 275.422L364.544 366.637C363.819 367.477 362.941 368.172 361.957 368.684ZM250.794 156.284L272.117 139.929L293.441 156.284V261.634C286.265 261.046 281.591 258.763 276.663 256.349C268.63 252.415 261.378 249.687 250.794 251.38V156.284ZM164.404 116.684L185.727 133.038V255.038C183.732 255.502 181.749 255.993 179.795 256.478C168.144 259.371 156.167 262.341 145.167 259.847C146.117 257.137 146.423 254.243 146.061 251.394C145.699 248.545 144.679 245.819 143.081 243.433V133.034L164.404 116.684ZM41.5197 205.589L62.8427 189.234L84.1657 205.589V213.964C80.9086 215.429 78.1505 217.814 76.2307 220.825L41.5197 275.236V205.589ZM58.1807 371.089C57.5415 372.075 56.5398 372.771 55.3922 373.024C54.2446 373.278 53.0432 373.07 52.0477 372.445L16.0367 349.47C15.0508 348.831 14.3561 347.829 14.1025 346.681C13.849 345.534 14.057 344.333 14.6817 343.337L88.0327 228.354C88.443 227.726 89.0042 227.211 89.6651 226.855C90.326 226.5 91.0655 226.317 91.8157 226.321C92.6476 226.318 93.4631 226.553 94.1657 226.998L130.177 249.97C131.158 250.614 131.849 251.615 132.102 252.761C132.356 253.907 132.151 255.107 131.533 256.104L58.1807 371.089ZM79.4157 411.901C76.9687 410.101 75.5077 406.628 75.0717 401.565C74.2657 392.198 81.6717 384.325 89.5167 375.99C91.0957 374.312 92.7277 372.578 94.2647 370.849C95.6863 369.21 97.5335 367.996 99.602 367.341C101.671 366.686 103.88 366.616 105.986 367.139C108.396 367.734 110.622 368.916 112.466 370.578C114.31 372.241 115.714 374.333 116.555 376.669C114.361 383.307 108.655 395.601 93.8617 413.281C87.2507 414.464 82.2797 413.999 79.4157 411.899V411.901ZM104.725 422.114C121.617 401.879 127.904 387.393 130.225 379.864C136.132 373.847 146.5 371.142 153.643 373.955C158.635 375.924 161.194 380.276 161.281 386.891L124.061 439.354C117.523 439.26 112.668 437.766 109.616 434.887C106.763 432.194 105.123 427.902 104.725 422.112V422.114ZM140.017 456.364C137.608 454.697 136.005 451.921 135.127 447.956L172.308 395.548C180.469 394.248 186.808 395.516 189.92 399.148C193.271 403.069 193.372 410.209 190.246 418.834C180.947 430.118 173.586 439.056 168.163 445.649C163.556 451.249 160.057 455.496 158.234 457.703C149.97 459.361 143.696 458.907 140.017 456.362V456.364ZM185.767 475.291C177.275 475.536 172.459 472.712 169.846 465.631C171.534 463.585 174.32 460.201 178.972 454.549C183.98 448.466 190.637 440.382 198.943 430.297C204.67 432.082 210.368 434.997 211.583 439.67C212.465 443.061 209.556 451.802 202.43 461.326C195.327 470.819 188.409 475.205 185.767 475.289V475.291ZM363.167 410.791C357.129 415.91 349.28 417.418 339.247 415.406L270.166 368.719L262.327 380.319L329.066 425.419C328.241 430.703 326.466 434.401 323.781 436.438C320.601 438.848 315.497 439.395 308.643 438.113L255.409 403.378C254.639 402.876 253.778 402.53 252.874 402.36C251.971 402.191 251.042 402.201 250.143 402.39C249.243 402.579 248.39 402.944 247.631 403.463C246.872 403.982 246.223 404.645 245.721 405.415C245.218 406.185 244.873 407.046 244.703 407.95C244.534 408.853 244.544 409.781 244.733 410.681C244.922 411.581 245.286 412.434 245.805 413.193C246.324 413.952 246.988 414.601 247.758 415.103L297.898 447.818C295.729 454.604 292.698 459.003 288.862 460.91C284.597 463.03 278.539 462.402 270.862 459.059L239.435 436.719C238.686 436.18 237.838 435.794 236.939 435.584C236.041 435.373 235.109 435.343 234.199 435.494C233.288 435.645 232.417 435.974 231.634 436.463C230.852 436.952 230.173 437.591 229.639 438.343C229.104 439.095 228.723 439.946 228.518 440.846C228.314 441.746 228.289 442.677 228.445 443.586C228.602 444.496 228.937 445.366 229.43 446.145C229.924 446.925 230.567 447.599 231.323 448.129L259.1 467.874C256.636 473.926 253.236 477.73 248.958 479.205C243.47 481.098 233.171 480.523 214.75 468.181C219.05 462.122 228.104 447.562 225.133 436.14C222.948 427.74 216.267 421.532 205.233 417.629C207.956 406.467 206.37 396.845 200.563 390.05C194.893 383.415 185.908 380.357 174.791 381.161C173.156 371.568 167.572 364.39 158.78 360.924C148.51 356.874 135.849 358.777 126.165 365.16C122.127 359.284 116.046 355.122 109.107 353.485C104.556 352.401 99.7959 352.578 95.3381 353.996C90.8804 355.415 86.8937 358.022 83.8067 361.537C83.7837 361.564 83.7577 361.591 83.7337 361.617C83.126 361.032 82.5498 360.414 82.0077 359.767L137.808 272.303C153.476 277.42 169.787 273.377 183.176 270.052C198.79 266.175 206.831 264.842 211.81 269.54C181.36 293.482 162.219 322.484 164.758 341.523C165.716 348.707 169.735 354.013 176.074 356.463C195.753 364.069 228.81 341.263 253.065 320.8C253.113 320.767 258.082 317.812 282.313 331.8C298.213 340.981 316.46 353.978 331.113 364.421C340.081 370.81 347.826 376.327 353.175 379.657C361.285 384.793 365.984 390.183 367.143 395.675C368.093 400.185 366.787 405.134 363.162 410.789L363.167 410.791ZM430.071 349.819C429.949 350.389 429.715 350.929 429.383 351.408C429.051 351.887 428.627 352.295 428.136 352.608L392.126 375.579C391.13 376.204 389.929 376.413 388.781 376.159C387.634 375.906 386.632 375.21 385.993 374.224L312.641 259.245C312.023 258.248 311.818 257.049 312.072 255.903C312.325 254.757 313.016 253.756 313.997 253.112L350.008 230.139C350.712 229.689 351.531 229.451 352.367 229.452C352.698 229.452 353.028 229.489 353.352 229.561C353.922 229.683 354.461 229.916 354.94 230.248C355.419 230.58 355.827 231.004 356.141 231.495L429.492 346.479C429.804 346.97 430.016 347.518 430.116 348.091C430.215 348.664 430.2 349.252 430.071 349.819ZM109.441 256.019L108.253 257.859C107.245 259.418 105.659 260.513 103.844 260.903C102.029 261.293 100.133 260.946 98.5737 259.938C97.0145 258.93 95.9195 257.344 95.5297 255.529C95.1398 253.714 95.4869 251.818 96.4947 250.259L97.6837 248.419C98.1791 247.639 98.8239 246.965 99.5811 246.435C100.338 245.906 101.193 245.531 102.096 245.333C102.998 245.136 103.931 245.119 104.84 245.283C105.75 245.448 106.617 245.791 107.393 246.293C108.169 246.794 108.838 247.445 109.362 248.206C109.885 248.968 110.253 249.825 110.443 250.729C110.633 251.634 110.643 252.567 110.471 253.474C110.299 254.382 109.949 255.247 109.441 256.019ZM345.761 250.259C346.269 251.031 346.619 251.896 346.791 252.804C346.963 253.712 346.953 254.645 346.763 255.549C346.573 256.453 346.205 257.311 345.682 258.072C345.158 258.834 344.489 259.484 343.713 259.986C342.937 260.487 342.07 260.83 341.16 260.995C340.251 261.16 339.318 261.143 338.416 260.945C337.513 260.747 336.658 260.373 335.901 259.843C335.144 259.314 334.499 258.639 334.004 257.859L332.815 256.019C331.825 254.46 331.491 252.573 331.886 250.769C332.281 248.965 333.373 247.391 334.924 246.388C336.475 245.386 338.359 245.037 340.166 245.417C341.973 245.797 343.557 246.876 344.572 248.419L345.761 250.259Z" fill="#1062A5"></path>
</svg>
