<?xml version="1.0" encoding="UTF-8"?>
<svg xmlns="http://www.w3.org/2000/svg" version="1.2" viewBox="0 0 57 57" width="57" height="57">
  <title>New Project</title>
  <style>
		.s0 { fill: #004580 } 
	</style>
  <path id="Path 67" fill-rule="evenodd" class="s0" d="m53.3 47.4c-3.2 5.3-9.3 8.6-16 8.6q-0.1 0-0.3 0-0.2 0-0.3 0c-4.6 0-8.9-1.5-12.2-4.2q-1.6 0.9-3.3 1.4l-0.9 2.2c-0.1 0.4-0.5 0.6-0.8 0.6h-4.4c-0.3 0-0.7-0.2-0.8-0.6l-0.9-2.2q-1.7-0.5-3.4-1.4l-2.1 1c-0.4 0.1-0.8 0-1-0.2l-3.1-3.1c-0.2-0.2-0.3-0.6-0.2-1l1-2.2q-0.9-1.6-1.4-3.4l-2.2-0.8c-0.4-0.1-0.6-0.5-0.6-0.8v-4.4c0-0.3 0.2-0.7 0.6-0.8l2.2-0.9q0.5-1.7 1.4-3.4l-1-2.1c-0.1-0.4 0-0.8 0.2-1l3.1-3.1c0.2-0.2 0.6-0.3 1-0.2l2.1 1q1.7-0.9 3.4-1.4l0.9-2.2c0.1-0.4 0.5-0.6 0.8-0.6h4.4c0.3 0 0.7 0.2 0.8 0.6l0.9 2.2q1.6 0.4 3.2 1.3c1.5-1.9 3.2-4 5.4-6.4-1.2-0.5-2.1-1.7-2.1-3.1 0-1.9 1.5-3.4 3.4-3.5l-2.7-2.7c-1.4-1.4-1.4-3.6 0-5 1.1-1.2 3-1.4 4.4-0.5q0.2 0.1 0.4 0 0.3-0.1 0.3-0.3c0.4-1.6 1.8-2.8 3.5-2.8 1.6 0 3.1 1.2 3.5 2.8q0 0.2 0.2 0.3 0.3 0.1 0.5 0c1.4-0.9 3.2-0.7 4.4 0.5 0.7 0.6 1 1.5 1 2.5 0 0.9-0.3 1.8-1 2.5l-2.7 2.7c1.8 0.1 3.3 1.6 3.3 3.5 0 1.4-0.8 2.6-2 3.1 4.2 4.6 7.1 8.3 8.9 11.6 3 5.2 3.1 11 0.2 15.9zm-23.7-38.1l4 4h6.8l4-4c0.3-0.3 0.5-0.7 0.5-1.2 0-0.5-0.2-0.9-0.5-1.3-0.6-0.6-1.6-0.7-2.3-0.2-0.6 0.4-1.3 0.5-2 0.2-0.7-0.3-1.2-0.9-1.4-1.6-0.2-0.8-0.9-1.4-1.7-1.4-0.8 0-1.6 0.6-1.7 1.4-0.2 0.7-0.7 1.3-1.4 1.6-0.7 0.3-1.4 0.2-2.1-0.2-0.7-0.5-1.6-0.4-2.2 0.2-0.7 0.7-0.7 1.8 0 2.5zm-0.1 7.5c0 0.9 0.8 1.7 1.7 1.7h11.6c0.9 0 1.7-0.8 1.7-1.7 0-1-0.8-1.7-1.7-1.7h-11.6c-0.9 0-1.7 0.7-1.7 1.7zm-6.4 33.7q-1.4-1.4-2.4-3.1-0.2-0.2-0.3-0.5c-1 0.4-2 0.6-3.1 0.6-4.7 0-8.4-3.7-8.4-8.4 0-4.7 3.7-8.4 8.4-8.4 1.2 0 2.5 0.2 3.6 0.7q1-1.7 2.4-3.7-1.4-0.7-3-1.1c-0.3-0.1-0.5-0.3-0.6-0.5l-0.8-2.1h-3.2l-0.8 2.1c-0.1 0.2-0.3 0.4-0.6 0.5q-2 0.5-3.7 1.6c-0.3 0.1-0.6 0.1-0.9 0l-2-0.9-2.2 2.2 0.9 2c0.1 0.3 0.1 0.6 0 0.9q-1.1 1.7-1.6 3.7c-0.1 0.3-0.3 0.5-0.5 0.6l-2.1 0.8v3.2l2.1 0.8c0.2 0.1 0.4 0.3 0.5 0.6q0.5 2 1.6 3.7c0.1 0.3 0.1 0.6 0 0.8l-0.9 2.1 2.2 2.2 2-0.9c0.3-0.1 0.6-0.1 0.9 0q1.7 1.1 3.7 1.6c0.3 0.1 0.5 0.3 0.6 0.5l0.8 2.1h3.2l0.8-2.1c0.1-0.2 0.3-0.4 0.6-0.5q1.5-0.4 2.8-1.1zm-5.8-18.1c-3.7 0-6.7 3-6.7 6.7 0 3.7 3 6.7 6.7 6.7q1.2 0 2.4-0.5c-1.6-3.9-1.5-8.2 0.4-12.3-0.9-0.4-1.8-0.6-2.8-0.6zm34.3 0c-1.9-3.4-4.9-7.2-9.5-12.1h-10.2c-4.6 4.9-7.6 8.7-9.5 12.1-2.7 4.7-2.8 9.7-0.2 14.1 2.9 4.9 8.6 7.8 14.8 7.7q0 0 0 0c6.2 0.1 11.9-2.8 14.8-7.7 2.6-4.4 2.5-9.4-0.2-14.1zm-9.3 8c0.1 1.1-0.2 2.1-0.8 2.8-0.8 1-2.2 1.6-3.7 1.8v1.1c0 0.5-0.4 0.9-0.9 0.9-0.4 0-0.8-0.4-0.8-0.9v-1.2c-2.3-0.3-4-1.7-4.5-3.7-0.1-0.5 0.2-0.9 0.6-1.1 0.5-0.1 1 0.2 1.1 0.7 0.5 1.8 2.2 2.4 3.6 2.4q0.1 0 0.1 0 0 0 0.1 0c1.3 0 2.4-0.5 3-1.1q0.5-0.6 0.4-1.5c-0.1-1.4-1.3-2.1-3.7-2.5-3.8-0.7-4.7-2.6-4.8-4.1-0.1-2.1 1.4-3.9 3.7-4.4q0.2 0 0.4-0.1v-1.1c0-0.5 0.4-0.9 0.8-0.9 0.5 0 0.9 0.4 0.9 0.9v1.1c1.7 0.3 3.3 1.2 4.1 3.1 0.2 0.5 0 1-0.5 1.2-0.4 0.2-1 0-1.2-0.5-0.6-1.5-1.9-2.1-3.2-2.1q0 0-0.1 0-0.4 0.1-0.8 0.1c-1.2 0.3-2.4 1.1-2.3 2.6 0 0.5 0.1 1.9 3.3 2.4 1.2 0.2 4.8 0.8 5.2 4.1z"></path>
</svg>
