<?xml version="1.0" encoding="UTF-8"?>
<svg xmlns="http://www.w3.org/2000/svg" width="1331" height="1333" viewBox="0 0 1331 1333" fill="none">
  <path d="M590.735 1333H18.7032C8.34452 1333 0 1324.65 0 1314.29V1196C0 1185.64 8.34452 1177.29 18.7032 1177.29H83.733V735.776C83.733 725.414 92.0775 717.068 102.436 717.068H239.977C250.336 717.068 258.68 725.414 258.68 735.776V1177.29H336.946V1083.46H296.95C286.591 1083.46 278.247 1075.11 278.247 1064.75V900.984C278.247 890.622 286.591 882.276 296.95 882.276H336.946V560.782C336.946 550.421 345.291 542.074 355.649 542.074H493.19C503.549 542.074 511.893 550.421 511.893 560.782V757.074L590.159 711.887V418.312C590.159 407.95 598.504 399.603 608.862 399.603H746.403C756.762 399.603 765.106 407.95 765.106 418.312V610.575L843.372 565.387V324.771C843.372 314.409 851.717 306.062 862.075 306.062H999.616C1009.97 306.062 1018.32 314.409 1018.32 324.771V613.741L1321.6 789.022C1330.52 794.203 1333.68 805.716 1328.51 814.638L1293.11 875.944C1287.93 884.866 1276.42 888.032 1267.79 882.851L1206.21 847.162V1314.29C1206.21 1324.65 1197.87 1333 1187.51 1333H590.735ZM337.234 1295.58V1214.71H37.6942V1295.58H337.234ZM374.64 1083.17V1295.58H572.031V1083.17H374.64ZM374.64 882.276H474.774V858.099L449.741 814.638C444.562 805.716 447.727 794.203 456.647 789.022L475.062 778.373V579.202H374.928V882.276H374.64ZM512.181 882.276H572.031V847.162L512.181 881.7V882.276ZM572.031 919.692C486.572 919.692 401.113 919.692 315.653 919.692V1046.04H572.031V919.692ZM809.706 861.265H858.335C868.693 861.265 877.038 869.612 877.038 879.973V928.615C877.038 938.976 868.693 947.323 858.335 947.323H809.706C799.348 947.323 791.003 938.976 791.003 928.615V879.973C791.003 869.612 799.348 861.265 809.706 861.265ZM839.344 898.681H828.122V909.906H839.344V898.681ZM920.199 968.333H968.828C979.186 968.333 987.531 976.68 987.531 987.042V1035.68C987.531 1046.04 979.186 1054.39 968.828 1054.39H920.199C909.841 1054.39 901.496 1046.04 901.496 1035.68V987.042C901.496 976.68 909.841 968.333 920.199 968.333ZM950.124 1005.75H938.903V1016.97H950.124V1005.75ZM809.706 968.333H858.335C868.693 968.333 877.038 976.68 877.038 987.042V1035.68C877.038 1046.04 868.693 1054.39 858.335 1054.39H809.706C799.348 1054.39 791.003 1046.04 791.003 1035.68V987.042C791.003 976.68 799.348 968.333 809.706 968.333ZM839.344 1005.75H828.122V1016.97H839.344V1005.75ZM920.199 861.265H968.828C979.186 861.265 987.531 869.612 987.531 879.973V928.615C987.531 938.976 979.186 947.323 968.828 947.323H920.199C909.841 947.323 901.496 938.976 901.496 928.615V879.973C901.496 869.612 909.841 861.265 920.199 861.265ZM950.124 898.681H938.903V909.906H950.124V898.681ZM580.376 799.384L879.628 626.405C879.915 626.117 880.491 626.117 880.779 625.829C886.246 623.239 892.288 623.239 897.755 625.829C898.043 626.117 898.619 626.117 898.906 626.405L1270.38 841.118L1287.07 812.048L889.123 582.081L757.05 658.353C756.186 658.928 755.611 659.216 754.748 659.792L619.509 737.791C618.646 738.366 618.07 738.654 617.207 739.23L491.176 812.048L507.865 841.118L580.376 799.384ZM1168.81 1295.58V825.575L889.123 663.821L609.438 825.575V1295.3H1168.81V1295.58ZM627.853 690.013L727.988 632.161V437.02H627.853V690.013ZM881.066 543.801C886.821 540.923 893.439 541.498 898.906 544.664L981.488 592.442V343.767H881.354V543.801H881.066ZM31.3639 588.988C23.8826 595.896 12.0852 595.32 4.89162 587.549C-2.01419 580.066 -1.43871 568.265 6.04259 561.07L259.256 330.815C267.025 323.619 279.398 324.483 286.591 333.117L372.051 432.99L645.118 205.038C652.024 199.282 662.095 199.282 669 205.038L730.002 253.391L939.766 112.36L904.661 73.5047C895.166 63.1432 900.345 46.4497 913.581 42.9959L1069.54 0.686513C1083.92 -3.34295 1097.74 11.048 1091.41 26.0146L1033.28 175.68C1028.1 188.92 1010.84 191.798 1001.34 180.285L965.375 140.566L740.073 292.247C733.455 296.564 724.535 296.564 718.204 291.384L657.778 243.606L382.985 472.997C374.64 480.481 362.843 479.329 355.937 471.558L270.478 371.685L31.3639 588.988ZM1043.64 46.7375L953.002 71.2021L1009.69 133.947L1043.64 46.7375ZM221.561 754.484H121.427V1177.29H221.561V754.484Z" fill="#045BA2"></path>
</svg>
