<?xml version="1.0" encoding="UTF-8"?>
<svg xmlns="http://www.w3.org/2000/svg" width="50" height="50" viewBox="0 0 50 50" fill="none">
  <mask id="mask0_16_821" style="mask-type:luminance" maskUnits="userSpaceOnUse" x="0" y="0" width="50" height="50">
    <path d="M0 3.8147e-06H50V50H0V3.8147e-06Z" fill="white"></path>
  </mask>
  <g mask="url(#mask0_16_821)">
    <path d="M19.4229 36.7146C20.7604 43.4542 26.7054 48.5352 33.8379 48.5352C36.787 48.5352 39.5327 47.6659 41.8342 46.1706L47.8286 47.8286L46.1706 41.8342C47.6659 39.5327 48.5352 36.787 48.5352 33.8379C48.5352 26.7054 43.4542 20.7604 36.7146 19.4229" stroke="#1062A5" stroke-width="3" stroke-miterlimit="10"></path>
    <path d="M19.0918 1.46485C9.35674 1.46485 1.46484 9.35674 1.46484 19.0918C1.46484 22.5818 2.4794 25.8349 4.2292 28.5724L2.17139 36.0122L9.61123 33.9544C12.3488 35.7043 15.6018 36.7188 19.0918 36.7188C28.8269 36.7188 36.7187 28.8269 36.7187 19.0918C36.7187 9.35674 28.8269 1.46485 19.0918 1.46485Z" stroke="#1062A5" stroke-width="3" stroke-miterlimit="10"></path>
    <path d="M20.5566 29.3945H17.627V26.4648H20.5566V29.3945Z" fill="#1062A5"></path>
    <path d="M14.6973 14.6484C14.6973 12.2214 16.6647 10.2539 19.0918 10.2539C21.5188 10.2539 23.4863 12.2214 23.4863 14.6484C23.4863 15.9326 22.9353 17.088 22.0569 17.8914L19.0918 20.6055V23.5352" stroke="#1062A5" stroke-width="3" stroke-miterlimit="10"></path>
  </g>
</svg>
