<?xml version="1.0" encoding="UTF-8"?>
<svg xmlns="http://www.w3.org/2000/svg" width="100" height="100" viewBox="0 0 100 100" fill="none">
  <path fill-rule="evenodd" clip-rule="evenodd" d="M14.582 8.33202H8.332C7.1758 8.33202 6.25 9.26561 6.25 10.4179V95.8321H2.082C0.9375 95.8321 0 96.7657 0 97.918C0 99.0664 0.9375 100 2.082 100H97.918C99.0625 100 100 99.0664 100 97.918C100 96.7657 99.0625 95.8321 97.918 95.8321H93.75V39.582C93.75 38.4336 92.8242 37.5 91.668 37.5H56.25V10.4179C56.25 9.26562 55.3242 8.33202 54.168 8.33202H47.918V2.082C47.918 0.933602 46.9883 0 45.8321 0H16.6681C15.5119 0 14.5822 0.933592 14.5822 2.082L14.582 8.33202ZM56.25 41.6681V44.7931C56.25 45.9415 55.3125 46.8751 54.168 46.8751C53.0196 46.8751 52.0821 45.9415 52.0821 44.7931V12.5H10.4181V95.8322H19.7931V72.9181C19.7931 71.7658 20.7189 70.8322 21.8751 70.8322H40.6251C41.7813 70.8322 42.7071 71.7658 42.7071 72.9181V95.8322H52.0821V63.5431C52.0821 62.3908 53.0196 61.4572 54.168 61.4572C55.3125 61.4572 56.25 62.3908 56.25 63.5431V95.8322H89.582V41.6681H56.25ZM38.543 75.0002V95.8322H23.957V75.0002H38.543ZM63.543 76.0432C62.3868 76.0432 61.4571 76.9728 61.4571 78.1252V84.3752C61.4571 85.5275 62.3868 86.4572 63.543 86.4572H82.293C83.4492 86.4572 84.375 85.5275 84.375 84.3752V78.1252C84.375 76.9729 83.4492 76.0432 82.293 76.0432H63.543ZM65.625 80.2073H80.207V82.2932H65.625V80.2073ZM63.543 61.4572C62.3868 61.4572 61.4571 62.3908 61.4571 63.5431V69.7931C61.4571 70.9415 62.3868 71.8751 63.543 71.8751H82.293C83.4492 71.8751 84.375 70.9416 84.375 69.7931V63.5431C84.375 62.3908 83.4492 61.4572 82.293 61.4572H63.543ZM65.625 65.6252H80.207V67.7072H65.625V65.6252ZM16.668 51.0432C15.5118 51.0432 14.5821 51.9729 14.5821 53.1252V59.3752C14.5821 60.5275 15.5118 61.4572 16.668 61.4572H27.082C28.2382 61.4572 29.1679 60.5275 29.1679 59.3752V53.1252C29.1679 51.9729 28.2382 51.0432 27.082 51.0432H16.668ZM35.418 51.0432C34.2618 51.0432 33.3321 51.9729 33.3321 53.1252V59.3752C33.3321 60.5275 34.2618 61.4572 35.418 61.4572H45.832C46.9882 61.4572 47.9179 60.5275 47.9179 59.3752V53.1252C47.9179 51.9729 46.9882 51.0432 45.832 51.0432H35.418ZM18.75 55.2073H25V57.2932H18.75V55.2073ZM37.5 55.2073H43.75V57.2932H37.5V55.2073ZM63.543 46.8753C62.3868 46.8753 61.4571 47.8089 61.4571 48.9573V55.2073C61.4571 56.3596 62.3868 57.2932 63.543 57.2932H82.293C83.4492 57.2932 84.375 56.3596 84.375 55.2073V48.9573C84.375 47.8089 83.4492 46.8753 82.293 46.8753H63.543ZM56.25 55.2073V53.1253C56.25 51.9769 55.3125 51.0433 54.168 51.0433C53.0196 51.0433 52.0821 51.9769 52.0821 53.1253V55.2073C52.0821 56.3596 53.0196 57.2932 54.168 57.2932C55.3125 57.2932 56.25 56.3596 56.25 55.2073ZM65.625 51.0432H80.207V53.1252H65.625V51.0432ZM16.668 36.4572C15.5118 36.4572 14.5821 37.3908 14.5821 38.5431V44.7931C14.5821 45.9415 15.5118 46.8751 16.668 46.8751H27.082C28.2382 46.8751 29.1679 45.9415 29.1679 44.7931V38.5431C29.1679 37.3908 28.2382 36.4572 27.082 36.4572H16.668ZM35.418 36.4572C34.2618 36.4572 33.3321 37.3908 33.3321 38.5431V44.7931C33.3321 45.9415 34.2618 46.8751 35.418 46.8751H45.832C46.9882 46.8751 47.9179 45.9415 47.9179 44.7931V38.5431C47.9179 37.3908 46.9882 36.4572 45.832 36.4572H35.418ZM18.75 40.6252H25V42.7072H18.75V40.6252ZM37.5 40.6252H43.75V42.7072H37.5V40.6252ZM16.668 21.8751C15.5118 21.8751 14.5821 22.8087 14.5821 23.9571V30.2072C14.5821 31.3595 15.5118 32.2931 16.668 32.2931H27.082C28.2382 32.2931 29.1679 31.3595 29.1679 30.2072V23.9571C29.1679 22.8087 28.2382 21.8751 27.082 21.8751H16.668ZM35.418 21.8751C34.2618 21.8751 33.3321 22.8087 33.3321 23.9571V30.2072C33.3321 31.3595 34.2618 32.2931 35.418 32.2931H45.832C46.9882 32.2931 47.9179 31.3595 47.9179 30.2072V23.9571C47.9179 22.8087 46.9882 21.8751 45.832 21.8751H35.418ZM18.75 26.0432H25V28.1252H18.75V26.0432ZM37.5 26.0432H43.75V28.1252H37.5V26.0432ZM18.75 8.33212H43.75V4.16801H18.75V8.33212Z" fill="#045BA2"></path>
</svg>
