<?xml version="1.0" encoding="UTF-8"?>
<svg xmlns="http://www.w3.org/2000/svg" width="43" height="43" viewBox="0 0 43 43" fill="none">
  <path d="M5.49933 29.5609C3.19916 30.2189 1.50218 32.0068 0.959605 34.3431C0.0101011 38.434 0 41.5697 0 41.701C0 42.4182 0.581535 42.9997 1.29871 42.9997C1.43003 42.9997 4.56858 42.9896 8.65664 42.0387C10.9929 41.4961 12.7808 39.8006 13.4388 37.5018C14.0881 35.2276 13.4778 32.8712 11.8039 31.1959C10.13 29.5234 7.77208 28.9116 5.49933 29.5609ZM10.9424 36.7875C10.5484 38.1656 9.47195 39.1829 8.06934 39.5091H8.06645C5.83266 40.0286 3.88748 40.245 2.66236 40.3374C2.75327 39.1122 2.97117 37.1671 3.49065 34.9318C3.81677 33.5263 4.8341 32.4527 6.21362 32.0588C6.5686 31.9578 6.92791 31.9073 7.28289 31.9073C8.27569 31.9073 9.23241 32.2983 9.96546 33.0328C10.964 34.0299 11.3277 35.434 10.9424 36.7875Z" fill="#1062A5"></path>
  <path d="M42.8893 2.7311C42.7536 1.34725 41.6512 0.244791 40.2687 0.110591C36.8993 -0.219859 27.8213 -0.264593 19.055 6.85091C13.8789 5.49881 6.75474 7.32855 2.1775 9.95483C1.41559 10.3921 0.953823 11.2146 0.969696 12.0977C0.987012 12.9967 1.49062 13.8135 2.28572 14.229L9.71869 18.1165C9.21941 18.9852 8.72734 19.8784 8.25115 20.8308C7.47913 22.3734 7.79227 24.2407 9.02893 25.4759L17.524 33.9709C18.3075 34.7545 19.3465 35.1672 20.3927 35.1672C20.9973 35.1672 21.6048 35.0301 22.1676 34.7473C23.1185 34.2711 24.0117 33.779 24.879 33.2797L28.7679 40.7127C29.1835 41.5078 30.0003 42.0114 30.8993 42.0287H30.9469C31.8141 42.0287 32.6136 41.5684 33.0436 40.8195C35.6713 36.2422 37.4996 29.1166 36.1475 23.9449C43.2659 15.1785 43.2197 6.10199 42.8893 2.7311ZM3.66525 12.0977C7.19775 10.128 12.4662 8.71529 16.573 9.07748C14.674 10.9505 12.8197 13.2016 11.0694 15.9015L3.66525 12.0977ZM21.0059 32.4255C20.4634 32.6953 19.8025 32.577 19.3595 32.134L10.8659 23.6389C10.4214 23.1945 10.3031 22.5321 10.5744 21.9925C19.1632 4.82636 31.8762 2.59546 37.8849 2.59546C38.742 2.59546 39.4635 2.64164 40.0177 2.69503C40.1721 2.70946 40.2904 2.82923 40.3063 2.98363C40.7377 7.40936 40.6252 22.6101 21.0059 32.4255ZM30.9425 39.2625L27.1041 31.9262C29.8011 30.1772 32.0493 28.3244 33.9209 26.4268C34.2817 30.5034 32.8921 35.73 30.9425 39.2625Z" fill="#1062A5"></path>
  <path d="M31.69 11.311C29.5486 9.1725 26.068 9.16961 23.9266 11.311C21.7881 13.4496 21.7881 16.933 23.9266 19.0716C24.9973 20.1423 26.4028 20.6762 27.8069 20.6762C29.2138 20.6762 30.6179 20.1409 31.6886 19.0716C33.8286 16.933 33.8286 13.451 31.69 11.311ZM29.8516 17.2361C28.7232 18.3631 26.8891 18.3616 25.7636 17.2361C24.6366 16.1091 24.6366 14.275 25.7636 13.148C26.3278 12.5838 27.0666 12.3024 27.8083 12.3024C28.5486 12.3024 29.2874 12.5838 29.8516 13.148C30.9786 14.275 30.9786 16.1091 29.8516 17.2361Z" fill="#1062A5"></path>
</svg>
