<?xml version="1.0" encoding="UTF-8"?>
<svg xmlns="http://www.w3.org/2000/svg" width="480" height="480" viewBox="0 0 480 480" fill="none">
  <path d="M196.854 464H75.1464C64.3694 464 53.7973 461.055 44.5719 455.484C35.3466 449.913 27.8187 441.927 22.8015 432.39C17.7842 422.852 15.4682 412.124 16.1038 401.366C16.7393 390.608 20.3021 380.228 26.4074 371.347L100.208 264H171.792L235.408 356.532L248.592 347.468L184 253.515V226.666L202.3 202.266C205.989 197.327 207.988 191.33 208 185.166C208 180.308 206.758 175.532 204.392 171.289C202.026 167.047 198.616 163.479 194.484 160.926C190.351 158.372 185.635 156.917 180.783 156.698C175.93 156.48 171.102 157.505 166.757 159.677L136 175.056L105.243 159.678C100.899 157.506 96.0707 156.481 91.2181 156.699C86.3655 156.918 81.6494 158.373 77.5173 160.927C73.3853 163.48 69.9745 167.048 67.6088 171.29C65.2431 175.533 64.001 180.31 64.0004 185.167C64.0129 191.331 66.0117 197.328 69.7004 202.267L88.0004 226.667V253.516L13.2234 362.283C5.46589 373.566 0.938701 386.754 0.130904 400.423C-0.676893 414.092 2.26541 427.721 8.63997 439.839C15.0145 451.957 24.579 462.104 36.3003 469.182C48.0215 476.26 61.4539 480 75.1464 480H196.854C198.019 480 199.201 479.973 200.367 479.919L199.633 463.936C198.71 463.979 197.775 464 196.854 464ZM104 248V232H168V248H104ZM80.0004 185.167C80.0008 183.037 80.5457 180.942 81.5832 179.081C82.6208 177.221 84.1166 175.656 85.9288 174.536C87.7409 173.416 89.8092 172.778 91.9374 172.682C94.0655 172.586 96.1828 173.036 98.0884 173.988L132.422 191.155C133.533 191.71 134.758 192 136 192C137.242 192 138.468 191.71 139.578 191.155L173.912 173.988C175.818 173.036 177.935 172.586 180.063 172.682C182.192 172.778 184.26 173.416 186.072 174.536C187.884 175.656 189.38 177.221 190.418 179.081C191.455 180.942 192 183.037 192 185.167C191.995 187.871 191.118 190.501 189.5 192.667L172 216H100L82.5004 192.667C80.8828 190.501 80.0062 187.871 80.0004 185.167Z" fill="#1062A5"></path>
  <path d="M160 360V358.833C159.995 353.972 158.44 349.24 155.563 345.323C152.687 341.405 148.636 338.506 144 337.045V328H128V337.045C123.659 338.407 119.823 341.035 116.985 344.593C114.147 348.15 112.437 352.474 112.074 357.011C111.711 361.547 112.712 366.088 114.947 370.051C117.183 374.015 120.552 377.22 124.622 379.255L140.222 387.055C141.599 387.743 142.704 388.876 143.356 390.27C144.009 391.665 144.171 393.238 143.818 394.736C143.464 396.235 142.615 397.57 141.408 398.525C140.201 399.48 138.707 400 137.167 400H134.833C133.022 399.998 131.285 399.278 130.004 397.997C128.723 396.716 128.002 394.979 128 393.167V392H112V393.167C112.006 398.028 113.561 402.76 116.438 406.677C119.314 410.595 123.365 413.494 128 414.955V424H144V414.955C148.342 413.593 152.178 410.965 155.016 407.407C157.854 403.85 159.564 399.526 159.927 394.989C160.29 390.453 159.289 385.912 157.054 381.949C154.818 377.985 151.449 374.78 147.378 372.745L131.778 364.945C130.402 364.257 129.297 363.124 128.645 361.73C127.992 360.335 127.83 358.762 128.183 357.264C128.537 355.765 129.386 354.43 130.593 353.475C131.8 352.52 133.294 352 134.833 352H137.167C138.979 352.002 140.716 352.722 141.997 354.003C143.278 355.284 143.999 357.021 144 358.833V360H160Z" fill="#1062A5"></path>
  <path d="M80.0005 368H96.0005V384H80.0005V368Z" fill="#1062A5"></path>
  <path d="M176 368H192V384H176V368Z" fill="#1062A5"></path>
  <path d="M360 392C359.993 385.637 357.462 379.537 352.963 375.037C348.464 370.538 342.363 368.007 336 368H240C236.084 367.998 232.227 368.955 228.766 370.788C225.304 372.62 222.345 375.272 220.145 378.513C217.945 381.753 216.572 385.482 216.146 389.375C215.72 393.268 216.253 397.207 217.7 400.846C212.621 402.232 208.139 405.249 204.943 409.433C201.747 413.617 200.016 418.735 200.016 424C200.016 429.265 201.747 434.383 204.943 438.567C208.139 442.751 212.621 445.768 217.7 447.154C216.253 450.793 215.72 454.732 216.146 458.625C216.572 462.518 217.945 466.247 220.145 469.487C222.345 472.728 225.304 475.38 228.766 477.212C232.227 479.045 236.084 480.002 240 480H336C341.812 479.996 347.425 477.883 351.797 474.054C356.169 470.225 359.003 464.939 359.773 459.178C360.543 453.418 359.196 447.573 355.982 442.73C352.769 437.888 347.907 434.376 342.3 432.846C344.563 427.166 344.563 420.834 342.3 415.154C347.379 413.766 351.862 410.748 355.059 406.565C358.257 402.382 359.993 397.265 360 392ZM224 416H320C322.122 416 324.157 416.843 325.657 418.343C327.157 419.843 328 421.878 328 424C328 426.122 327.157 428.157 325.657 429.657C324.157 431.157 322.122 432 320 432H224C221.879 432 219.844 431.157 218.343 429.657C216.843 428.157 216 426.122 216 424C216 421.878 216.843 419.843 218.343 418.343C219.844 416.843 221.879 416 224 416ZM336 464H240C237.879 464 235.844 463.157 234.343 461.657C232.843 460.157 232 458.122 232 456C232 453.878 232.843 451.843 234.343 450.343C235.844 448.843 237.879 448 240 448H336C338.122 448 340.157 448.843 341.657 450.343C343.157 451.843 344 453.878 344 456C344 458.122 343.157 460.157 341.657 461.657C340.157 463.157 338.122 464 336 464ZM336 400H240C237.879 400 235.844 399.157 234.343 397.657C232.843 396.157 232 394.122 232 392C232 389.878 232.843 387.843 234.343 386.343C235.844 384.843 237.879 384 240 384H336C338.122 384 340.157 384.843 341.657 386.343C343.157 387.843 344 389.878 344 392C344 394.122 343.157 396.157 341.657 397.657C340.157 399.157 338.122 400 336 400Z" fill="#1062A5"></path>
  <path d="M334.265 79.81L400 94.417V168H416V88C416 86.1797 415.38 84.4137 414.241 82.9938C413.102 81.5738 411.512 80.5848 409.735 80.19L400 78.027V48H384V74.471L368 70.916V32H352V67.36L337.735 64.19L334.265 79.81Z" fill="#1062A5"></path>
  <path d="M160 64H192V80H160V64Z" fill="#1062A5"></path>
  <path d="M208 64H240V80H208V64Z" fill="#1062A5"></path>
  <path d="M256 64H288V80H256V64Z" fill="#1062A5"></path>
  <path d="M160 96H192V112H160V96Z" fill="#1062A5"></path>
  <path d="M208 96H240V112H208V96Z" fill="#1062A5"></path>
  <path d="M256 96H288V112H256V96Z" fill="#1062A5"></path>
  <path d="M208 128H240V144H208V128Z" fill="#1062A5"></path>
  <path d="M160 128H192V144H160V128Z" fill="#1062A5"></path>
  <path d="M256 128H288V144H256V128Z" fill="#1062A5"></path>
  <path d="M224 160H240V176H224V160Z" fill="#1062A5"></path>
  <path d="M256 160H288V176H256V160Z" fill="#1062A5"></path>
  <path d="M224 192H240V208H224V192Z" fill="#1062A5"></path>
  <path d="M256 192H288V208H256V192Z" fill="#1062A5"></path>
  <path d="M224 224H240V240H224V224Z" fill="#1062A5"></path>
  <path d="M256 224H288V240H256V224Z" fill="#1062A5"></path>
  <path d="M224 256H240V272H224V256Z" fill="#1062A5"></path>
  <path d="M256 256H288V272H256V256Z" fill="#1062A5"></path>
  <path d="M256 288H288V304H256V288Z" fill="#1062A5"></path>
  <path d="M392 224H424V240H392V224Z" fill="#1062A5"></path>
  <path d="M392 256H424V272H392V256Z" fill="#1062A5"></path>
  <path d="M392 288H424V304H392V288Z" fill="#1062A5"></path>
  <path d="M392 320H424V336H392V320Z" fill="#1062A5"></path>
  <path d="M392 352H424V368H392V352Z" fill="#1062A5"></path>
  <path d="M392 384H424V400H392V384Z" fill="#1062A5"></path>
  <path d="M392 416H424V432H392V416Z" fill="#1062A5"></path>
  <path d="M344 224H376V240H344V224Z" fill="#1062A5"></path>
  <path d="M344 256H376V272H344V256Z" fill="#1062A5"></path>
  <path d="M344 288H376V304H344V288Z" fill="#1062A5"></path>
  <path d="M344 320H376V336H344V320Z" fill="#1062A5"></path>
  <path d="M120 48H128V152H144V48H304V352H320V48H328C330.122 48 332.157 47.1571 333.657 45.6569C335.158 44.1566 336 42.1217 336 40V8C336 5.87827 335.158 3.84344 333.657 2.34315C332.157 0.842854 330.122 0 328 0H120C117.879 0 115.844 0.842854 114.344 2.34315C112.843 3.84344 112 5.87827 112 8V40C112 42.1217 112.843 44.1566 114.344 45.6569C115.844 47.1571 117.879 48 120 48ZM128 16H320V32H128V16Z" fill="#1062A5"></path>
  <path d="M456 464V192C456 189.878 455.158 187.843 453.657 186.343C452.157 184.843 450.122 184 448 184H336V200H440V464H368V480H480V464H456Z" fill="#1062A5"></path>
  <path d="M368 144H384V160H368V144Z" fill="#1062A5"></path>
  <path d="M336 144H352V160H336V144Z" fill="#1062A5"></path>
  <path d="M368 112H384V128H368V112Z" fill="#1062A5"></path>
  <path d="M336 112H352V128H336V112Z" fill="#1062A5"></path>
</svg>
