<?xml version="1.0" encoding="UTF-8"?>
<svg xmlns="http://www.w3.org/2000/svg" width="58" height="60" viewBox="0 0 58 60" fill="none">
  <path d="M49.602 51.919C49.8457 52.0234 50.121 52.0268 50.3672 51.9284C50.6134 51.8299 50.8105 51.6377 50.915 51.394C57.089 36.987 51.015 29.654 50.755 29.349C50.5826 29.1472 50.3371 29.0221 50.0725 29.0013C49.8079 28.9804 49.5458 29.0656 49.344 29.238C49.1421 29.4104 49.0171 29.6559 48.9962 29.9205C48.9754 30.1851 49.0606 30.4472 49.233 30.649C49.46 30.919 54.727 37.423 49.077 50.608C48.9731 50.8515 48.9701 51.1262 49.0685 51.372C49.1669 51.6177 49.3588 51.8145 49.602 51.919Z" fill="#045BA2"></path>
  <path d="M47.9959 55C48.1276 55.0013 48.2582 54.9764 48.3802 54.9266C48.5021 54.8768 48.6129 54.8032 48.706 54.7101C48.7991 54.6169 48.8727 54.5062 48.9225 54.3842C48.9723 54.2623 48.9972 54.1317 48.9959 54C48.9943 53.8693 48.9671 53.7402 48.9159 53.62C48.8676 53.4976 48.7963 53.3856 48.7059 53.29C48.5894 53.1745 48.4463 53.0894 48.2892 53.0422C48.1321 52.9951 47.9658 52.9873 47.805 53.0195C47.6442 53.0518 47.4938 53.1231 47.367 53.2272C47.2403 53.3313 47.1411 53.465 47.0782 53.6165C47.0153 53.768 46.9906 53.9327 47.0063 54.0959C47.0221 54.2592 47.0777 54.4161 47.1684 54.5528C47.2591 54.6895 47.382 54.8018 47.5263 54.8798C47.6706 54.9577 47.8319 54.999 47.9959 55Z" fill="#045BA2"></path>
  <path d="M20.996 60C23.8989 59.999 26.7699 59.3939 29.4263 58.2232C32.0828 57.0525 34.4665 55.3418 36.426 53.2C37.0931 55.4067 38.0062 57.5313 39.148 59.534C39.2384 59.6771 39.3636 59.7949 39.5119 59.8764C39.6602 59.9579 39.8268 60.0004 39.996 60H51.996C52.1656 60 52.3324 59.9569 52.4808 59.8746C52.6291 59.7924 52.7541 59.6738 52.844 59.53C53.055 59.193 57.996 51.125 57.996 37C57.996 32.956 55.548 28.71 53.389 24.965C52.912 24.138 52.446 23.325 52.015 22.535V22.521C51.797 22.121 51.581 21.711 51.372 21.295C51.316 21.184 51.261 21.072 51.208 20.962C51.128 20.798 51.049 20.633 50.974 20.469C50.887 20.277 50.807 20.089 50.729 19.902C50.651 19.715 50.59 19.557 50.529 19.385C50.468 19.213 50.399 19.029 50.344 18.857C50.307 18.742 50.276 18.628 50.244 18.515C50.197 18.344 50.158 18.178 50.125 18.015C50.105 17.921 50.084 17.825 50.07 17.733C50.0263 17.491 50.0016 17.2459 49.996 17C49.996 15.935 50.734 14.927 51.588 13.76L51.632 13.7L51.712 13.59C53.0774 12.0348 53.8817 10.0664 53.996 8C53.996 5.87827 53.1531 3.84344 51.6529 2.34315C50.1526 0.842855 48.1177 0 45.996 0C43.8743 0 41.8394 0.842855 40.3391 2.34315C38.8389 3.84344 37.996 5.87827 37.996 8C38.1104 10.0647 38.9135 12.0314 40.277 13.586L40.357 13.696L40.401 13.756C41.258 14.927 41.996 15.935 41.996 17C41.9927 17.2454 41.9703 17.4901 41.929 17.732C41.915 17.824 41.894 17.919 41.874 18.014C41.841 18.178 41.802 18.345 41.755 18.514C41.723 18.627 41.692 18.74 41.655 18.855C41.6 19.029 41.536 19.207 41.469 19.387C41.402 19.567 41.343 19.721 41.269 19.887C41.19 20.078 41.108 20.271 41.018 20.468C40.945 20.629 40.868 20.79 40.79 20.951C40.734 21.067 40.676 21.183 40.617 21.3C40.41 21.713 40.195 22.122 39.979 22.517V22.53C39.548 23.321 39.079 24.13 38.604 24.962C38.328 25.44 38.055 25.936 37.779 26.424C35.6328 23.5613 32.7903 21.2947 29.5216 19.8397C26.2529 18.3847 22.6665 17.7895 19.103 18.1107C15.5395 18.4319 12.1173 19.6588 9.16147 21.6749C6.20561 23.6909 3.81426 26.4292 2.21454 29.6296C0.614827 32.8299 -0.140124 36.3862 0.0214001 39.9604C0.182924 43.5347 1.25556 47.0084 3.13742 50.0514C5.01928 53.0945 7.64787 55.6059 10.7735 57.3471C13.8992 59.0883 17.4181 60.0015 20.996 60ZM49.481 22H42.511C42.583 21.855 42.646 21.71 42.711 21.565C42.776 21.42 42.842 21.29 42.903 21.155C43.03 20.87 43.146 20.586 43.257 20.302C43.283 20.233 43.314 20.164 43.34 20.096C43.4607 19.77 43.567 19.446 43.659 19.124C43.667 19.095 43.679 19.066 43.686 19.037C43.7832 18.6961 43.8604 18.3499 43.917 18H48.075C48.13 18.3498 48.2055 18.6961 48.301 19.037C48.31 19.067 48.322 19.098 48.331 19.128C48.4223 19.4493 48.528 19.7717 48.648 20.095C48.674 20.165 48.706 20.236 48.733 20.307C48.843 20.588 48.958 20.87 49.084 21.152C49.147 21.292 49.216 21.434 49.284 21.575C49.352 21.716 49.411 21.858 49.481 22ZM43.005 14H48.987L48.957 14.052C48.917 14.116 48.88 14.182 48.842 14.252C48.782 14.352 48.722 14.46 48.666 14.565C48.629 14.636 48.594 14.708 48.559 14.78C48.509 14.88 48.459 14.986 48.416 15.09C48.383 15.166 48.353 15.243 48.324 15.321C48.2847 15.425 48.2487 15.53 48.216 15.636C48.191 15.716 48.167 15.797 48.146 15.878C48.135 15.92 48.12 15.961 48.11 16.004H43.882C43.872 15.961 43.857 15.92 43.846 15.878C43.825 15.797 43.801 15.716 43.776 15.636C43.7427 15.53 43.7067 15.425 43.668 15.321C43.639 15.243 43.609 15.166 43.576 15.09C43.531 14.99 43.483 14.882 43.433 14.78C43.398 14.708 43.363 14.636 43.326 14.565C43.27 14.46 43.21 14.356 43.15 14.252C43.112 14.186 43.075 14.12 43.035 14.052L43.005 14ZM45.996 2C47.5868 2.00159 49.112 2.63424 50.2369 3.75911C51.3618 4.88399 51.9944 6.40919 51.996 8C51.9124 9.47197 51.3506 10.8764 50.396 12H41.596C40.6414 10.8764 40.0796 9.47197 39.996 8C39.9976 6.40919 40.6302 4.88399 41.7551 3.75911C42.88 2.63424 44.4052 2.00159 45.996 2ZM40.335 25.965C40.7183 25.2983 41.0907 24.6433 41.452 24H50.54C50.9 24.6467 51.272 25.3013 51.656 25.964C53.79 29.665 55.996 33.491 55.996 37C55.996 48.647 52.428 56.113 51.413 58H40.578C39.4764 55.8753 38.5965 53.6429 37.952 51.338C40.3837 48.0294 41.7829 44.0757 41.9736 39.9741C42.1644 35.8725 41.1381 31.806 39.024 28.286C39.456 27.5 39.896 26.725 40.335 25.965ZM20.996 20C24.7538 20 28.4273 21.1143 31.5518 23.2021C34.6764 25.2898 37.1116 28.2572 38.5497 31.729C39.9878 35.2008 40.364 39.0211 39.6309 42.7067C38.8978 46.3924 37.0882 49.7778 34.431 52.435C31.7738 55.0922 28.3884 56.9018 24.7027 57.6349C21.0171 58.368 17.1968 57.9918 13.725 56.5537C10.2532 55.1156 7.28583 52.6804 5.19808 49.5558C3.11033 46.4313 1.996 42.7578 1.996 39C2.00156 33.9626 4.00513 29.1331 7.56711 25.5711C11.1291 22.0091 15.9586 20.0056 20.996 20Z" fill="#045BA2"></path>
  <path d="M21.8309 54.986C21.8854 54.9955 21.9406 55.0001 21.9959 55C22.2464 54.9993 22.4875 54.9046 22.6716 54.7347C22.8556 54.5648 22.9692 54.3319 22.9898 54.0823C23.0104 53.8326 22.9366 53.5843 22.7829 53.3865C22.6292 53.1887 22.4069 53.0557 22.1599 53.014C11.0219 51.157 9.05492 42.183 8.97592 41.8C8.91814 41.5455 8.76314 41.3236 8.54402 41.1818C8.3249 41.04 8.05903 40.9895 7.80318 41.0411C7.54732 41.0926 7.32177 41.2422 7.17468 41.4578C7.02758 41.6734 6.97061 41.9379 7.01592 42.195C7.03692 42.3 9.29592 52.9 21.8309 54.986Z" fill="#045BA2"></path>
  <path d="M7.99609 37V35C7.99609 34.7348 7.89074 34.4804 7.7032 34.2929C7.51566 34.1054 7.26131 34 6.99609 34C6.73088 34 6.47652 34.1054 6.28899 34.2929C6.10145 34.4804 5.99609 34.7348 5.99609 35V37C5.99609 37.2652 6.10145 37.5196 6.28899 37.7071C6.47652 37.8946 6.73088 38 6.99609 38C7.26131 38 7.51566 37.8946 7.7032 37.7071C7.89074 37.5196 7.99609 37.2652 7.99609 37Z" fill="#045BA2"></path>
  <path d="M22.9961 29C23.5894 29 24.1695 28.8241 24.6628 28.4944C25.1562 28.1648 25.5407 27.6962 25.7677 27.1481C25.9948 26.5999 26.0542 25.9967 25.9384 25.4147C25.8227 24.8328 25.537 24.2982 25.1174 23.8787C24.6979 23.4591 24.1633 23.1734 23.5814 23.0576C22.9994 22.9419 22.3962 23.0013 21.848 23.2284C21.2999 23.4554 20.8313 23.8399 20.5017 24.3333C20.172 24.8266 19.9961 25.4067 19.9961 26C19.9961 26.7957 20.3122 27.5587 20.8748 28.1213C21.4374 28.6839 22.2004 29 22.9961 29ZM22.9961 25C23.1939 25 23.3872 25.0586 23.5517 25.1685C23.7161 25.2784 23.8443 25.4346 23.92 25.6173C23.9957 25.8 24.0155 26.0011 23.9769 26.1951C23.9383 26.3891 23.8431 26.5673 23.7032 26.7071C23.5633 26.847 23.3852 26.9422 23.1912 26.9808C22.9972 27.0194 22.7961 26.9996 22.6134 26.9239C22.4307 26.8482 22.2745 26.72 22.1646 26.5556C22.0547 26.3911 21.9961 26.1978 21.9961 26C21.9961 25.7348 22.1014 25.4804 22.289 25.2929C22.4765 25.1054 22.7309 25 22.9961 25Z" fill="#045BA2"></path>
  <path d="M14.9961 33C15.5894 33 16.1695 32.8241 16.6628 32.4944C17.1562 32.1648 17.5407 31.6962 17.7677 31.148C17.9948 30.5999 18.0542 29.9967 17.9384 29.4147C17.8227 28.8328 17.537 28.2982 17.1174 27.8787C16.6979 27.4591 16.1633 27.1734 15.5814 27.0576C14.9994 26.9419 14.3962 27.0013 13.848 27.2284C13.2999 27.4554 12.8313 27.8399 12.5017 28.3333C12.172 28.8266 11.9961 29.4067 11.9961 30C11.9961 30.7957 12.3122 31.5587 12.8748 32.1213C13.4374 32.6839 14.2004 33 14.9961 33ZM14.9961 29C15.1939 29 15.3872 29.0586 15.5517 29.1685C15.7161 29.2784 15.8443 29.4346 15.92 29.6173C15.9957 29.8 16.0155 30.0011 15.9769 30.1951C15.9383 30.3891 15.8431 30.5673 15.7032 30.7071C15.5633 30.847 15.3852 30.9422 15.1912 30.9808C14.9972 31.0194 14.7961 30.9996 14.6134 30.9239C14.4307 30.8482 14.2745 30.72 14.1646 30.5556C14.0547 30.3911 13.9961 30.1978 13.9961 30C13.9961 29.7348 14.1014 29.4804 14.289 29.2929C14.4765 29.1054 14.7309 29 14.9961 29Z" fill="#045BA2"></path>
  <path d="M24.9961 33C24.9961 33.5933 25.172 34.1734 25.5017 34.6667C25.8313 35.1601 26.2999 35.5446 26.848 35.7716C27.3962 35.9987 27.9994 36.0581 28.5814 35.9424C29.1633 35.8266 29.6979 35.5409 30.1174 35.1213C30.537 34.7018 30.8227 34.1672 30.9384 33.5853C31.0542 33.0033 30.9948 32.4001 30.7677 31.852C30.5407 31.3038 30.1562 30.8352 29.6628 30.5056C29.1695 30.1759 28.5894 30 27.9961 30C27.2004 30 26.4374 30.3161 25.8748 30.8787C25.3122 31.4413 24.9961 32.2044 24.9961 33ZM27.9961 32C28.1939 32 28.3872 32.0586 28.5517 32.1685C28.7161 32.2784 28.8443 32.4346 28.92 32.6173C28.9957 32.8 29.0155 33.0011 28.9769 33.1951C28.9383 33.3891 28.8431 33.5673 28.7032 33.7071C28.5633 33.847 28.3852 33.9422 28.1912 33.9808C27.9972 34.0194 27.7961 33.9996 27.6134 33.9239C27.4307 33.8482 27.2745 33.72 27.1646 33.5556C27.0547 33.3911 26.9961 33.1978 26.9961 33C26.9961 32.7348 27.1014 32.4804 27.289 32.2929C27.4765 32.1054 27.7309 32 27.9961 32Z" fill="#045BA2"></path>
</svg>
