<?xml version="1.0" encoding="UTF-8"?>
<svg xmlns="http://www.w3.org/2000/svg" width="94" height="94" viewBox="0 0 94 94" fill="none">
  <path d="M5.6135 93.516C4.80881 93.516 4.1604 92.8636 4.1604 92.0629V55.2859C4.1604 54.4812 4.81274 53.8328 5.6135 53.8328C6.41819 53.8328 7.0666 54.4851 7.0666 55.2859V92.0629C7.07051 92.8636 6.41816 93.516 5.6135 93.516Z" fill="#045BA2"></path>
  <path d="M88.3872 93.516C87.5825 93.516 86.9341 92.8636 86.9341 92.0629V55.2859C86.9341 54.4812 87.5864 53.8328 88.3872 53.8328C89.1919 53.8328 89.8403 54.4851 89.8403 55.2859V92.0629C89.8403 92.8636 89.1879 93.516 88.3872 93.516Z" fill="#045BA2"></path>
  <path d="M92.0661 93.516H1.93308C1.12839 93.516 0.47998 92.8637 0.47998 92.0629C0.47998 91.2582 1.13232 90.6098 1.93308 90.6098H92.0621C92.8668 90.6098 93.5152 91.2621 93.5152 92.0629C93.5191 92.8637 92.8668 93.516 92.0661 93.516Z" fill="#045BA2"></path>
  <path d="M32.051 43.855H1.93401C1.46526 43.855 1.02776 43.6284 0.754312 43.2495C0.480872 42.8706 0.406652 42.3823 0.555092 41.9409L6.07459 25.3899C6.27381 24.7961 6.8285 24.3938 7.45349 24.3938H24.0275C24.8322 24.3938 25.4806 25.0461 25.4806 25.8469C25.4806 26.6516 24.8283 27.3 24.0275 27.3L8.50049 27.3039L3.95359 40.9449H32.0516C32.8563 40.9449 33.5047 41.5972 33.5047 42.398C33.5086 43.2027 32.8557 43.855 32.051 43.855Z" fill="#045BA2"></path>
  <path d="M92.0662 43.855H61.9492C61.1445 43.855 60.4961 43.2027 60.4961 42.4019C60.4961 41.5972 61.1484 40.9488 61.9492 40.9488H90.0472L85.5003 27.3078H69.9773C69.1726 27.3078 68.5242 26.6555 68.5242 25.8547C68.5242 25.05 69.1765 24.4016 69.9773 24.4016H86.5513C87.1763 24.4016 87.7349 24.804 87.9302 25.3977L93.4497 41.9487C93.5981 42.394 93.5239 42.8784 93.2505 43.2573C92.9731 43.6323 92.531 43.855 92.0662 43.855Z" fill="#045BA2"></path>
  <path d="M7.57003 56.738C3.66383 56.738 0.484131 53.5583 0.484131 49.6521V42.4021C0.484131 41.5974 1.13647 40.949 1.93723 40.949H13.2032C14.0079 40.949 14.6563 41.6013 14.6563 42.4021V49.6521C14.6563 53.5583 11.4762 56.738 7.57003 56.738ZM3.39033 43.855V49.6519C3.39033 51.9566 5.26533 53.8316 7.57003 53.8316C9.87473 53.8316 11.7497 51.9566 11.7497 49.6519V43.855H3.39033Z" fill="#045BA2"></path>
  <path d="M18.8361 56.738C14.9299 56.738 11.7502 53.5583 11.7502 49.6521V42.4021C11.7502 41.5974 12.4026 40.949 13.2033 40.949H24.4693C25.274 40.949 25.9224 41.6013 25.9224 42.4021V49.6521C25.9224 53.5583 22.7423 56.738 18.8361 56.738ZM14.6564 43.855V49.6519C14.6564 51.9566 16.5314 53.8316 18.8361 53.8316C21.1408 53.8316 23.0158 51.9566 23.0158 49.6519V43.855H14.6564Z" fill="#045BA2"></path>
  <path d="M30.102 56.738C26.1918 56.738 23.0122 53.5583 23.0122 49.6521V42.4021C23.0122 41.5974 23.6645 40.949 24.4653 40.949H32.0473C32.852 40.949 33.5004 41.6013 33.5004 42.4021C33.5004 43.2068 32.8481 43.8552 32.0473 43.8552H25.9184V49.6521C25.9184 51.9568 27.7934 53.8279 30.0942 53.8279C32.3989 53.8279 34.2739 51.9529 34.2739 49.6521L34.2817 44.9763C34.2817 44.1716 34.9341 43.5232 35.7348 43.5232C36.5395 43.5232 37.1879 44.1755 37.1879 44.9763V49.6482C37.1879 53.5584 34.0082 56.738 30.102 56.738Z" fill="#045BA2"></path>
  <path d="M41.3671 56.738C37.4569 56.738 34.2773 53.5583 34.2773 49.6521V44.9763C34.2773 44.1716 34.9297 43.5232 35.7304 43.5232C36.5351 43.5232 37.1835 44.1755 37.1835 44.9763V49.6482C37.1835 51.9529 39.0585 53.824 41.3593 53.824C43.664 53.824 45.539 51.949 45.539 49.6482V47.9177C45.539 47.113 46.1914 46.4646 46.9921 46.4646C47.7968 46.4646 48.4452 47.1169 48.4452 47.9177V49.6482C48.4531 53.5584 45.2772 56.738 41.3671 56.738Z" fill="#045BA2"></path>
  <path d="M52.6333 56.738C48.7231 56.738 45.5435 53.5583 45.5435 49.6521V47.9216C45.5435 47.1169 46.1958 46.4685 46.9966 46.4685C47.8012 46.4685 48.4497 47.1208 48.4497 47.9216V49.6521C48.4497 51.9568 50.3247 53.8279 52.6255 53.8279C54.9302 53.8279 56.8052 51.9529 56.8052 49.6521L56.813 44.9763C56.813 44.1716 57.4653 43.5232 58.2661 43.5232C59.0708 43.5232 59.7192 44.1755 59.7192 44.9763V49.6482C59.7231 53.5584 56.5434 56.738 52.6333 56.738Z" fill="#045BA2"></path>
  <path d="M63.8979 56.738C59.9877 56.738 56.8081 53.5583 56.8081 49.6521L56.812 44.9763C56.812 44.1716 57.4644 43.5232 58.2651 43.5232C59.0698 43.5232 59.7182 44.1755 59.7182 44.9763V49.6482C59.7182 51.9529 61.5932 53.824 63.894 53.824C66.1987 53.824 68.0737 51.949 68.0737 49.6482V43.8513H61.9448C61.1401 43.8513 60.4917 43.1989 60.4917 42.3982C60.4917 41.5935 61.1441 40.9451 61.9448 40.9451H69.5268C70.3315 40.9451 70.9799 41.5974 70.9799 42.3982V49.6482C70.9877 53.5584 67.808 56.738 63.8979 56.738Z" fill="#045BA2"></path>
  <path d="M75.164 56.738C71.2578 56.738 68.0781 53.5583 68.0781 49.6521V42.4021C68.0781 41.5974 68.7305 40.949 69.5312 40.949H80.7972C81.6019 40.949 82.2503 41.6013 82.2503 42.4021V49.6521C82.2542 53.5583 79.0741 56.738 75.164 56.738ZM70.9882 43.855V49.6519C70.9882 51.9566 72.8632 53.8316 75.1679 53.8316C77.4726 53.8316 79.3476 51.9566 79.3476 49.6519V43.855H70.9882Z" fill="#045BA2"></path>
  <path d="M86.4301 56.738C82.5239 56.738 79.3442 53.5583 79.3442 49.6521V42.4021C79.3442 41.5974 79.9966 40.949 80.7973 40.949H92.0633C92.868 40.949 93.5164 41.6013 93.5164 42.4021V49.6521C93.5203 53.5583 90.3402 56.738 86.4301 56.738ZM82.2543 43.855V49.6519C82.2543 51.9566 84.1293 53.8316 86.434 53.8316C88.7387 53.8316 90.6137 51.9566 90.6137 49.6519V43.855H82.2543Z" fill="#045BA2"></path>
  <path d="M33.2031 93.516H12.9731C12.1684 93.516 11.52 92.8636 11.52 92.0629L11.5161 66.3169C11.5161 65.5122 12.1685 64.8638 12.9692 64.8638H33.2032C34.0079 64.8638 34.6563 65.5161 34.6563 66.3169V92.0629C34.6602 92.8636 34.0078 93.516 33.2031 93.516ZM14.4261 90.6058H31.7501V67.7698H14.4261V90.6058Z" fill="#045BA2"></path>
  <path d="M81.027 86.16H40.562C39.7573 86.16 39.1089 85.5077 39.1089 84.7069V62.6409C39.1089 61.8362 39.7612 61.1878 40.562 61.1878H81.027C81.8317 61.1878 82.4801 61.8401 82.4801 62.6409V84.7029C82.484 85.5076 81.8316 86.16 81.027 86.16ZM42.015 83.2498H79.574V64.0938H42.015V83.2498Z" fill="#045BA2"></path>
  <path d="M47.9179 86.16C47.1133 86.16 46.4648 85.5077 46.4648 84.7069V62.6409C46.4648 61.8362 47.1172 61.1878 47.9179 61.1878C48.7226 61.1878 49.371 61.8401 49.371 62.6409V84.7029C49.375 85.5076 48.7226 86.16 47.9179 86.16Z" fill="#045BA2"></path>
  <path d="M73.6718 86.16C72.8672 86.16 72.2188 85.5077 72.2188 84.7069L72.2148 62.6409C72.2148 61.8362 72.8672 61.1878 73.6679 61.1878C74.4726 61.1878 75.121 61.8401 75.121 62.6409V84.7029C75.1249 85.5076 74.4726 86.16 73.6718 86.16Z" fill="#045BA2"></path>
  <path d="M20.3281 80.648C19.5234 80.648 18.875 79.9956 18.875 79.1949V77.359C18.875 76.5543 19.5273 75.9059 20.3281 75.9059C21.1328 75.9059 21.7812 76.5582 21.7812 77.359V79.1949C21.7851 79.9957 21.1328 80.648 20.3281 80.648Z" fill="#045BA2"></path>
  <path d="M47.0002 49.379C33.5202 49.379 22.5552 38.414 22.5552 24.934C22.5552 11.45 33.5202 0.484985 47.0002 0.484985C60.4802 0.484985 71.4452 11.45 71.4452 24.93C71.4452 38.41 60.4802 49.379 47.0002 49.379ZM47.0002 3.39499C35.1252 3.39499 25.4612 13.0552 25.4612 24.934C25.4612 36.809 35.1253 46.469 47.0002 46.469C58.8751 46.469 68.5392 36.8088 68.5392 24.93C68.5392 13.055 58.8751 3.39499 47.0002 3.39499Z" fill="#045BA2"></path>
  <path d="M52.52 35.582H45.1606C44.3559 35.582 43.7075 34.9296 43.7075 34.1289C43.7075 33.3242 44.3599 32.6758 45.1606 32.6758H52.52C53.3247 32.6758 53.9731 33.3281 53.9731 34.1289C53.9731 34.9297 53.3208 35.582 52.52 35.582Z" fill="#045BA2"></path>
  <path d="M56.7302 31.941C56.5622 31.941 56.3942 31.9137 56.2302 31.8512C55.4763 31.5738 55.0896 30.7379 55.3669 29.984L58.7146 20.8629L38.1096 20.8668C37.3049 20.8668 36.6565 20.2144 36.6565 19.4137C36.6565 18.609 37.3088 17.9606 38.1096 17.9606H60.7936C61.2702 17.9606 61.7155 18.191 61.985 18.5817C62.2584 18.9723 62.3209 19.4684 62.1569 19.9137L58.0944 30.9877C57.8834 31.5775 57.3239 31.941 56.7302 31.941Z" fill="#045BA2"></path>
  <path d="M41.1801 31.918C40.5434 31.918 39.9574 31.4961 39.7778 30.8516L36.7192 19.8396L35.8364 17.1912H33.2075C32.4028 17.1912 31.7544 16.5388 31.7544 15.7381C31.7544 14.9334 32.4067 14.285 33.2075 14.285H36.8872C37.5122 14.285 38.0708 14.6873 38.2661 15.2811L39.4927 18.9608C39.5005 18.9842 39.5083 19.0076 39.5161 19.0311L42.5864 30.0821C42.8013 30.8555 42.3481 31.6563 41.5747 31.8712C41.4419 31.8985 41.309 31.918 41.1801 31.918Z" fill="#045BA2"></path>
  <path d="M56.1953 39.262C53.3633 39.262 51.0625 36.9612 51.0625 34.1292C51.0625 31.2972 53.3633 28.9964 56.1953 28.9964C59.0273 28.9964 61.3281 31.3011 61.3281 34.1292C61.3281 36.9573 59.0273 39.262 56.1953 39.262ZM56.1953 31.9026C54.9687 31.9026 53.9726 32.8987 53.9726 34.1253C53.9726 35.3519 54.9687 36.348 56.1953 36.348C57.4219 36.348 58.418 35.3519 58.418 34.1253C58.4219 32.9026 57.4219 31.9026 56.1953 31.9026Z" fill="#045BA2"></path>
  <path d="M41.48 39.262C38.648 39.262 36.3472 36.9612 36.3472 34.1292C36.3472 31.2972 38.648 28.9964 41.48 28.9964C44.312 28.9964 46.6128 31.3011 46.6128 34.1292C46.6128 36.9573 44.312 39.262 41.48 39.262ZM41.48 31.9026C40.2534 31.9026 39.2573 32.8987 39.2573 34.1253C39.2573 35.3519 40.2534 36.348 41.48 36.348C42.7066 36.348 43.7027 35.3519 43.7027 34.1253C43.7066 32.9026 42.7066 31.9026 41.48 31.9026Z" fill="#045BA2"></path>
</svg>
